<svg version="1.1" xmlns="http://www.w3.org/2000/svg" viewBox="0 0 2656.333333333333 2651.166666666666" width="5312.666666666666" height="5302.333333333332">
  <!-- svg-source:excalidraw -->
  
  <defs>
    <style>
      @font-face {
        font-family: "Virgil";
        src: url("https://excalidraw.com/Virgil.woff2");
      }
      @font-face {
        font-family: "Cascadia";
        src: url("https://excalidraw.com/Cascadia.woff2");
      }
    </style>
  </defs>
  <g stroke-linecap="round" transform="translate(10.404761904761529 524.9761904761905) rotate(0 193.99999999999997 361)"><path d="M-0.82 1.03 C81.24 2.79, 162.8 1.89, 388.79 -0.97 M0.11 -0.16 C95.37 0.77, 191.53 0.27, 387.87 -0.56 M388.65 0.51 C390.24 144.99, 390.25 290.61, 387.69 721.83 M388.29 -0.31 C390.09 212.32, 389.96 423.64, 387.97 722.31 M388.39 721.09 C268.68 723.21, 146.6 722.86, 0.09 721.12 M387.65 721.91 C244.73 722.88, 101.46 722.64, -0.03 721.9 M-0.45 721.93 C-1.58 490.18, -1.78 257.42, 0.75 -0.43 M-0.05 721.8 C1.15 529.44, 0.46 337.12, 0.06 -0.08" stroke="#000000" stroke-width="1" fill="none"></path></g><g stroke-linecap="round" transform="translate(10 1310) rotate(0 194 360.99999999999994)"><path d="M0.95 -0.68 C89.61 -1.44, 180.56 -3.28, 389.07 -0.8 M-0.51 -0.06 C78.26 -1.64, 156.23 -1.43, 388.2 -0.49 M388.72 -0.57 C385.71 251.88, 386.99 503.78, 387.29 722.61 M388.39 0.07 C384.77 192, 385.15 383.82, 388.01 721.98 M388.97 723.01 C234.45 723.26, 79.05 723.04, 0.36 721.98 M387.94 721.76 C283.39 719.8, 178.08 720.02, 0.26 721.67 M-0.5 722.35 C-2.46 440.53, -1.15 159.78, 0.36 0.02 M-0.22 722.38 C2.96 451.4, 2.99 180.92, -0.03 0.01" stroke="#000000" stroke-width="1" fill="none"></path></g><g stroke-linecap="round" transform="translate(1220.8333333333333 527.5) rotate(0 194 361)"><path d="M-0.37 -0.3 C78.04 -1.64, 157.13 -0.91, 388.73 -0.73 M-0.42 0.5 C106.92 -0.41, 214.63 -0.4, 388.55 -0.11 M388.79 -0.08 C388.04 222.98, 387.43 446.07, 387.44 722.15 M387.86 -0.32 C389.18 171.39, 389.6 342.32, 387.85 721.65 M387.6 721.55 C302.2 723.05, 214.13 722.29, -0.72 722.4 M387.68 721.55 C253.15 723.03, 117.78 723.85, 0.1 722.06 M-0.21 721.53 C-0.93 546.87, 0.1 371.28, 0.08 -0.35 M0.1 722.03 C1.09 557.51, 0.74 392.81, 0.13 -0.19" stroke="#000000" stroke-width="1" fill="none"></path></g><g stroke-linecap="round" transform="translate(1750.8333333333333 10) rotate(0 193.9999999999999 361)"><path d="M-0.48 -0.65 C148.07 0.92, 296.39 0.05, 389.1 0.64 M-0.54 0.1 C108.03 0.49, 216.76 0.09, 388.13 -0.25 M388.35 0.29 C390.24 201.38, 390.82 403.29, 387.54 722.71 M387.94 -0.37 C390.41 276.46, 390.17 552.33, 388.2 721.87 M388.1 721.65 C256.36 722.64, 126.75 723.74, -0.69 722.57 M387.86 721.73 C233.68 723.6, 78.93 723.33, 0.48 722.45 M-0.38 721.9 C-2.58 461.17, -2.68 198.47, -0.06 -0.76 M-0.18 721.76 C-1.74 478.32, -2.27 234.34, -0.11 -0.27" stroke="#000000" stroke-width="1" fill="none"></path></g><g stroke-linecap="round" transform="translate(1747.0833333333333 765) rotate(0 193.9999999999999 361)"><path d="M0.63 0.47 C115.77 -2.23, 233.42 -1.99, 387.78 -0.83 M-0.37 0.03 C102.53 -0.31, 206.77 -0.79, 388.26 0.35 M388.04 0.35 C386 227.19, 385.94 455.52, 387.94 721.65 M388.23 0.07 C385.9 285.04, 385.86 570.41, 388.09 722.11 M387.89 722.52 C280.22 722.59, 172.94 723.21, -0.87 721.31 M388.57 722.08 C309.68 723.69, 231.7 723.35, 0.29 721.46 M-0.6 722.2 C1.65 544.31, 1.05 366, -0.32 0.72 M0.23 722.04 C-2.13 487.33, -2.08 252.53, 0.4 0.19" stroke="#000000" stroke-width="1" fill="none"></path></g><g stroke-linecap="round" transform="translate(2253.333333333333 756.25) rotate(0 194 361)"><path d="M0.7 0.85 C99.43 0.32, 200.78 0.47, 387.18 0.05 M0.49 -0.09 C90.4 -1.73, 181.79 -1.71, 387.84 -0.51 M388.29 -0.27 C388.5 237.78, 387.88 475.74, 387.23 721.55 M387.66 0.25 C389.12 160.33, 389.12 320.97, 387.65 721.87 M388.44 722.94 C279.32 723.54, 172.58 724.36, -0.66 723.14 M387.62 722.22 C276.28 720.96, 163.89 720.9, -0.18 722.46 M0.69 722.39 C1.8 459.51, 1.54 194.95, 0.43 -0.31 M0.21 721.85 C2.02 559.15, 1.93 396.98, 0 -0.28" stroke="#000000" stroke-width="1" fill="none"></path></g><g stroke-linecap="round" transform="translate(1220.8333333333333 1344.1666666666665) rotate(0 194 361)"><path d="M1.13 0.17 C129.85 0.88, 260.32 1.83, 388.16 0.29 M-0.09 -0.06 C91.19 -1.36, 181.82 -0.99, 388.54 -0.33 M387.92 0.09 C387.49 149.47, 387.98 298.16, 388.42 722.16 M388.02 0.07 C389.02 225.09, 389.33 449.82, 387.83 721.95 M387.94 722.19 C236.98 721.21, 86.79 721.27, 0.08 722.99 M387.45 722.58 C265.29 719.64, 143.57 719.76, 0.41 722.03 M0.73 721.57 C-1.99 574.57, -1.35 425.52, -0.73 0.62 M-0.1 722.36 C0.19 465.78, 0.14 209.57, 0.19 -0.21" stroke="#000000" stroke-width="1" fill="none"></path></g><g stroke-linecap="round" transform="translate(2258.333333333333 1567.9166666666665) rotate(0 194 361)"><path d="M-0.32 -0.39 C146.86 0.41, 293.22 -0.8, 387.15 -0.49 M-0.01 0.3 C135.98 -0.73, 270.97 -0.91, 388.55 -0.33 M388.21 -0.14 C389.15 148.09, 388.97 297.58, 387.87 721.74 M387.97 -0.39 C385.7 193.59, 385.84 387.02, 388.28 721.81 M388.54 721.15 C243.12 721.51, 99.11 721.52, 1.11 722.07 M387.73 721.87 C242.11 721.51, 95.78 721.63, -0.34 721.61 M-0.33 722.71 C-0.19 522.34, -0.36 323.71, -0.74 0.22 M-0.02 722.08 C-2.52 575.88, -2.52 429.07, 0.15 0.01" stroke="#000000" stroke-width="1" fill="none"></path></g><g stroke-linecap="round" transform="translate(1733.3333333333333 1564.1666666666665) rotate(0 193.9999999999999 361)"><path d="M0.93 0.32 C109.31 -2.49, 219.02 -0.96, 387.1 -0.71 M-0.46 0.39 C100.36 0.32, 200.9 0.22, 388.06 0.57 M387.98 -0.34 C388.8 213.85, 388.82 428.32, 388.29 721.56 M388.27 -0.12 C388.99 229.16, 389.47 459.17, 387.82 722.37 M388.08 721.46 C265.08 721.08, 140.34 720.6, -0.06 722.08 M387.55 722.32 C299.92 721.37, 210.94 721.34, -0.16 721.61 M0.06 721.26 C2.33 557.69, 1.43 393.4, -0.58 -0.53 M-0.23 721.79 C-1.32 444.27, -0.92 166.73, -0.29 -0.34" stroke="#000000" stroke-width="1" fill="none"></path></g><g stroke-linecap="round" transform="translate(609.1666666666667 1919.1666666666663) rotate(0 194 361)"><path d="M0.06 -1.02 C88.73 1.56, 179.02 1.38, 387.37 0.05 M0.27 0.2 C80.93 0.99, 160.81 0.53, 387.97 -0.27 M387.3 0.66 C390.78 212.78, 391.37 426.68, 388.3 722.41 M388.05 0.14 C387.41 225.46, 387.1 451.4, 387.72 721.69 M389.02 721.77 C284.89 720.61, 180.06 722.32, 0.23 722.41 M387.6 721.82 C290.17 723.13, 193.11 723.23, 0.38 722.49 M0.79 721.43 C1.21 487.84, 0.44 254.77, 0.78 0.61 M-0.25 721.8 C-0.75 519.91, -0.6 317.42, -0.07 0.19" stroke="#000000" stroke-width="1" fill="none"></path></g><g stroke-linecap="round" transform="translate(614.833333333333 1020.8333333333333) rotate(0 194 361)"><path d="M-0.99 -0.47 C140.04 -0.52, 280.76 0.04, 387.95 1.13 M0.03 -0.38 C88.32 1.47, 174.94 1.59, 388.21 0 M388.38 0.41 C387.74 246.87, 387.13 494.98, 387.73 721.31 M387.74 0.01 C387.98 186.05, 387.6 371.84, 388.25 721.81 M387.49 721.28 C276.13 720.73, 164.05 719.73, 0.22 721.46 M387.5 722.43 C307.82 724.02, 226.68 723.77, 0.04 722.3 M0.34 722.12 C2.12 547.97, 2.16 374.53, -0.09 0.06 M-0.2 722.38 C-2.96 459.08, -2.45 196.53, -0.31 -0.26" stroke="#000000" stroke-width="1" fill="none"></path></g><g stroke-linecap="round" transform="translate(13.404761904761529 527.9761904761905) rotate(0 191.49999999999997 38.5)"><path d="M0 0.41 C108.64 -2.3, 217.15 -2.72, 381.93 0.85 M-0.29 -0.14 C99.32 -1.34, 197.64 -0.71, 383.11 -0.32 M383.98 1.07 C381.59 23.74, 384.91 41.9, 384.39 75.12 M383.05 0.48 C382.91 26.69, 383.08 51.9, 382.66 76.52 M383.51 78.11 C229.72 77.31, 79.58 76.33, 1.1 77.31 M383.26 76.9 C304.24 76.57, 225.81 76.83, -0.35 77.06 M0.46 78.89 C-0.09 54.72, 1.38 28.08, 1.93 -0.46 M-0.67 76.58 C-0.23 49.13, -0.26 19.17, -0.28 0.28" stroke="#000000" stroke-width="1" fill="none"></path></g><g stroke-linecap="round" transform="translate(13 1313) rotate(0 191.5 38.5)"><path d="M-0.69 -0.69 C115.24 -1.86, 227.9 -0.76, 382.18 -1.17 M-0.06 0.13 C131.43 1.95, 263.24 2.17, 382.5 0.29 M381.58 -1.6 C381.95 20.3, 381.69 35.62, 384.53 76.32 M383.18 -0.86 C383.43 15.49, 383.2 30.82, 382.95 77.98 M384.03 77.74 C243.92 78.5, 104 79.26, -0.02 76.65 M382.76 77.43 C260.67 76.94, 138.55 77.05, -0.33 77.53 M0.87 75.4 C-0.92 50.73, -0.62 22.01, 0.06 1.49 M0.95 77.58 C0.13 61.82, -0.12 45.27, 0.03 -0.85" stroke="#000000" stroke-width="1" fill="none"></path></g><g stroke-linecap="round" transform="translate(1223.8333333333333 530.5) rotate(0 191.5 38.5)"><path d="M-0.3 -0.1 C116.5 1.59, 234.85 1.46, 382.26 -0.28 M0.5 -0.32 C94.32 1.79, 188.66 2.19, 382.89 0.06 M382.79 -0.2 C382.73 21.69, 381.98 45.43, 383.38 75.74 M382.19 -0.79 C383.28 27.35, 382.47 53.8, 382.11 76.23 M382.54 77.77 C277.1 75.46, 170.5 75.51, 0.41 77.57 M382.55 77.07 C269.91 75.38, 158.04 75.86, 0.07 76.66 M-1.18 75.53 C1.48 54.08, 1.24 29.18, -0.87 -1.44 M0.09 76.93 C0.46 55.92, -0.02 37.1, -0.47 0.24" stroke="#000000" stroke-width="1" fill="none"></path></g><g stroke-linecap="round" transform="translate(1753.8333333333333 13) rotate(0 191.4999999999999 38.5)"><path d="M-0.66 0.01 C110.22 1.19, 218.58 2.05, 383.65 -0.24 M0.1 -0.58 C77.76 1.65, 155.3 2.24, 382.75 -0.13 M383.73 -0.21 C382.28 30.54, 383.5 57.45, 384.77 78.65 M382.07 -0.26 C383.88 28.94, 383.01 60.12, 382.67 77.37 M382.65 76.06 C251.5 77.39, 121.44 76.51, 0.58 78.17 M382.72 77.37 C299.91 76.78, 216.54 76.95, 0.46 77.37 M-0.25 75.85 C0.62 46.85, -2.72 19.36, -1.91 0.76 M-0.6 77.4 C1.06 47.91, 0.85 20.39, -0.67 0.96" stroke="#000000" stroke-width="1" fill="none"></path></g><g stroke-linecap="round" transform="translate(1750.0833333333333 768) rotate(0 191.4999999999999 38.5)"><path d="M0.48 -1.09 C108.57 -1.49, 218.48 -1.45, 382.16 -0.41 M0.03 -0.58 C117.5 2.02, 233.94 1.7, 383.36 0.09 M383.88 -1.84 C380.9 17.74, 382.06 39.29, 382.11 78.9 M383.18 -0.84 C383.47 17.46, 384.32 37.03, 383.26 76.78 M383.52 77.21 C271.63 77.71, 160.75 75.91, -0.7 75.83 M383.08 76.85 C232.92 79.26, 82.19 79.5, -0.54 76.68 M0.49 78.06 C-0.59 56.72, -2.36 36.55, 1.79 0.5 M0.1 76.76 C0.01 48.36, -0.36 20.94, 0.47 0.76" stroke="#000000" stroke-width="1" fill="none"></path></g><g stroke-linecap="round" transform="translate(2256.333333333333 759.25) rotate(0 191.5 38.5)"><path d="M0.87 -0.5 C76.02 -0.39, 153.06 -2.2, 383.06 -0.78 M-0.09 -0.5 C119.02 -1.9, 238.14 -2.08, 382.48 0.17 M382.33 1.21 C383.88 22.81, 384.58 44.36, 381.87 75.45 M383.64 -0.45 C382.87 26.11, 383.05 52.26, 382.67 76.78 M383.95 76.31 C264.86 78.44, 147.93 77.19, 1.16 76.87 M383.22 77.28 C263.92 75.43, 144.33 75.35, 0.47 77.38 M0.96 77.47 C1.19 58.01, -2.1 40.46, -0.76 -1.5 M-0.36 77.26 C-1.32 59.03, -0.37 41.01, -0.71 0.39" stroke="#000000" stroke-width="1" fill="none"></path></g><g stroke-linecap="round" transform="translate(1223.8333333333333 1347.1666666666665) rotate(0 191.5 38.5)"><path d="M0.17 -0.02 C129.08 -1.6, 260.25 -2.03, 383.3 -0.79 M-0.06 0.54 C110.4 0.84, 221.53 0.88, 382.66 -0.56 M383.23 -1.11 C384.69 23.05, 384.21 46.91, 383.4 77.23 M383.18 -0.82 C383.67 26.65, 382.87 52.99, 382.88 77.87 M383.19 76.27 C253.29 76.27, 123.18 76.96, 1 77.18 M383.59 76.55 C240.63 74.98, 98.81 75.3, 0.03 76.43 M-1.07 76 C1.78 50.27, -1.25 20.5, 1.55 1.1 M0.91 77.86 C-0.1 54.22, 0.18 30.46, -0.54 -0.71" stroke="#000000" stroke-width="1" fill="none"></path></g><g stroke-linecap="round" transform="translate(2261.333333333333 1570.9166666666665) rotate(0 191.5 38.5)"><path d="M-0.39 -0.33 C90.41 -0.54, 179.31 -0.24, 382.51 0.59 M0.3 0.47 C78.27 -0.06, 156.32 0.57, 382.66 -0.56 M382.66 0.83 C381.06 25.67, 382.65 50.23, 382.34 76.36 M382.03 -0.44 C383.32 17.35, 382.79 35.55, 382.53 77.72 M382.14 76.56 C281.18 78.04, 180.03 79.17, 0.07 77.92 M382.87 77.5 C303.05 76.5, 223.75 75.6, -0.4 76.86 M1.77 76.69 C-1.92 52.99, -0.99 28.63, 0.54 -1.95 M0.2 76.51 C1.07 47.21, -0.11 18.78, 0.02 0.09" stroke="#000000" stroke-width="1" fill="none"></path></g><g stroke-linecap="round" transform="translate(1736.3333333333333 1567.1666666666665) rotate(0 191.4999999999999 38.5)"><path d="M0.33 -0.64 C127.05 -2.67, 256.8 -2.72, 382.28 -0.49 M0.39 0.01 C133.28 1.99, 266.16 1.85, 383.58 -0.02 M382.15 -0.92 C382.77 25.34, 383.57 53.14, 381.9 77.36 M382.69 -0.66 C382.44 27, 383.71 52.46, 383.92 77.19 M382.45 77.81 C268.49 76.93, 152.57 77.1, 0.08 76.14 M383.33 77.37 C296.57 75.06, 210.31 75.07, -0.39 76.57 M-1.85 78.36 C0.8 57.76, 1.36 38.88, -1.34 1.69 M-0.52 76.88 C-0.69 51.4, -0.24 23.29, -0.84 0.99" stroke="#000000" stroke-width="1" fill="none"></path></g><g stroke-linecap="round" transform="translate(612.1666666666667 1922.1666666666663) rotate(0 191.5 38.5)"><path d="M-1.04 -0.22 C118.8 1.01, 236.42 -0.76, 383.05 -1.1 M0.2 0.27 C114.49 -1.58, 228.37 -1.08, 382.72 -0.03 M384.65 0.33 C381.96 31.96, 383.88 61.06, 384.03 77.25 M383.35 0.18 C382.31 20.74, 383.16 42, 382.22 76.68 M382.77 77.82 C277.29 78.88, 173.87 79.22, 0.42 76.42 M382.81 76.78 C271.4 75.78, 159.86 75.82, 0.5 77.14 M-1.41 78.98 C-0.59 55.07, 1.44 34.98, 1.52 -0.39 M-0.49 76.71 C0.12 52.3, -0.07 27.26, 0.48 0.94" stroke="#000000" stroke-width="1" fill="none"></path></g><g stroke-linecap="round" transform="translate(617.833333333333 1023.8333333333333) rotate(0 191.5 38.5)"><path d="M-0.48 0.25 C108.2 3.1, 216.65 1.86, 384.15 -0.88 M-0.39 0.58 C136.03 -0.68, 272.62 0.09, 383 0.25 M384.02 1.68 C382.4 20.78, 384.57 40.56, 381.26 76.15 M383.02 0.57 C382.98 22.07, 382.57 45.5, 382.52 76.87 M382.27 76.62 C281.05 75.04, 177.17 76.23, -0.55 75.91 M383.43 77.56 C246.7 75.19, 110.21 75.09, 0.3 76.65 M0.29 78.29 C-0.33 59.56, 0.3 39.14, 0.15 1.28 M0.96 76.7 C0.01 47.3, 0.81 14.87, -0.65 -0.98" stroke="#000000" stroke-width="1" fill="none"></path></g><g stroke-linecap="round" transform="translate(12.404761904761529 1178.9761904761904) rotate(0 191.49999999999997 32.5)"><path d="M-1.14 -0.2 C106.18 -0.08, 212.9 -1.4, 383.56 -0.95 M0.04 -0.54 C148.85 -0.1, 299.21 -0.47, 383.4 0.2 M384.49 1.04 C383.68 12.8, 382.79 28.59, 384.92 65.27 M382.87 0.25 C383.03 18.13, 382.97 37.15, 382.09 64.73 M382.42 65.5 C285.62 63.12, 191.52 63.52, -0.18 64.84 M383.14 64.96 C295.27 63.08, 206.35 62.95, -0.07 64.72 M-0.89 65.96 C0.94 40.03, 0.63 13.56, 1.1 -0.04 M0.33 65.5 C0.17 48.65, 0.14 31.65, 0.38 -0.1" stroke="#000000" stroke-width="1" fill="none"></path></g><g stroke-linecap="round" transform="translate(12 1963.9999999999998) rotate(0 191.5 32.5)"><path d="M-0.69 0.72 C151.02 0.17, 303.16 0.5, 381.83 0.52 M0.13 -0.16 C139.75 0.27, 279.75 -0.28, 383.29 -0.34 M381.4 -0.29 C385.18 12.54, 381.8 27.7, 382.32 63 M382.14 0.23 C383.73 21.23, 383.65 42.42, 383.98 65.65 M383.74 65.6 C256.4 67.34, 130.95 66.95, -0.35 65.23 M383.43 65.01 C305.44 64.31, 227.84 63.74, 0.53 65.37 M-1.6 63.48 C2.08 49.34, 1.3 36.18, 1.49 -1.89 M0.58 64.47 C1.01 50.27, 0.29 37.13, -0.85 0.25" stroke="#000000" stroke-width="1" fill="none"></path></g><g stroke-linecap="round" transform="translate(1222.8333333333333 1181.5) rotate(0 191.5 32.5)"><path d="M-0.1 -1.11 C125.1 0.22, 249.2 -0.16, 382.72 -0.64 M-0.32 -0.03 C121.5 -1.95, 243.25 -2.04, 383.06 0.02 M382.8 -1.03 C381.92 24.12, 382.24 52.15, 381.74 66.04 M382.21 0.35 C383.03 18.48, 382.39 37, 382.23 64.76 M383.77 64.92 C248.3 63.28, 114.41 64.53, 0.57 64.93 M383.07 64.62 C244.14 63.72, 106.14 63.33, -0.34 65.07 M-1.47 65.92 C1.26 50.89, 0.37 34.55, -1.44 -0.77 M-0.07 65.03 C-1.13 48.68, 0.17 32.8, 0.24 -0.35" stroke="#000000" stroke-width="1" fill="none"></path></g><g stroke-linecap="round" transform="translate(1752.8333333333333 664) rotate(0 191.4999999999999 32.5)"><path d="M0.01 0.98 C115.96 1.36, 232.52 1.9, 382.76 -1.15 M-0.58 -0.19 C103.08 -0.98, 207.19 -0.64, 382.87 0.48 M382.79 -0.1 C384.53 15.43, 382.14 30.41, 384.65 66.74 M382.74 0.59 C382.03 21.73, 383.4 43.7, 383.37 65.42 M382.06 64.67 C251.9 65.1, 119.74 64.9, 1.17 64.01 M383.37 65.02 C241.87 63.69, 100.6 64.4, 0.37 65.44 M-1.15 66.35 C-1.1 37.33, 0.16 11.73, 0.76 1.32 M0.4 65.54 C-0.63 50.21, 0.02 34.1, 0.96 -0.55" stroke="#000000" stroke-width="1" fill="none"></path></g><g stroke-linecap="round" transform="translate(1749.0833333333333 1419) rotate(0 191.4999999999999 32.5)"><path d="M-1.09 -1.09 C134.01 -1.77, 268.33 -1.76, 382.59 0.06 M-0.58 0.59 C130.42 -0.02, 259.96 0.24, 383.09 -0.26 M381.16 -1.68 C381.05 15.43, 382.88 31.02, 384.9 63.78 M382.16 0 C382.43 24.32, 383.6 47.22, 382.78 64.91 M383.21 65.13 C261.34 66.76, 136.96 65.3, -1.17 66.1 M382.85 65.31 C244.75 65.25, 106.7 64.75, -0.32 64.75 M1.06 64.77 C0.03 40.46, -0.31 21.69, 0.5 1.41 M-0.24 64.94 C-0.48 45.61, 0.63 27.53, 0.76 0.75" stroke="#000000" stroke-width="1" fill="none"></path></g><g stroke-linecap="round" transform="translate(2255.333333333333 1410.25) rotate(0 191.5 32.5)"><path d="M-0.5 -0.86 C96.2 -2.36, 189.63 -1.6, 382.22 0.13 M-0.5 -0.08 C142.67 0.3, 285.16 -0.16, 383.17 0 M384.21 0.27 C382.91 25.56, 381.32 48.04, 381.45 65.9 M382.55 -0.58 C381.99 22.87, 381.57 46.21, 382.78 65.07 M382.31 64.62 C236.48 67.27, 88.14 67.98, -0.13 65.14 M383.28 65.46 C293.17 66.26, 203.38 66.32, 0.38 64.67 M0.47 66.85 C-0.74 38.43, 0.52 13.98, -1.5 -1.33 M0.26 64.28 C-0.31 40.68, -0.34 15.18, 0.39 -0.37" stroke="#000000" stroke-width="1" fill="none"></path></g><g stroke-linecap="round" transform="translate(1222.8333333333333 1998.1666666666667) rotate(0 191.5 32.5)"><path d="M-0.02 -1.12 C82.1 -0.48, 163.17 -0.03, 382.21 -0.13 M0.54 -0.36 C132.32 0.25, 264.17 -0.11, 382.44 -0.01 M381.89 1.46 C383.05 22.46, 383.99 43.38, 383.23 65.94 M382.18 0.09 C382.98 23.71, 382.62 48.73, 383.87 65.4 M382.27 65.47 C288.53 65.89, 195.36 66.36, 0.18 65.84 M382.55 64.58 C300.78 66.95, 218.78 67.28, -0.57 65.33 M-1 66.03 C0.01 49.81, -2.42 40.17, 1.1 0.11 M0.86 65.27 C0.89 42.94, 0.63 19.23, -0.71 -0.42" stroke="#000000" stroke-width="1" fill="none"></path></g><g stroke-linecap="round" transform="translate(2260.333333333333 2221.916666666667) rotate(0 191.5 32.5)"><path d="M-0.33 0.28 C111.43 -0.2, 224.34 0.26, 383.59 -1.14 M0.47 0.04 C127.81 -1.3, 256.33 -1.5, 382.44 0.17 M383.83 -1.87 C383.55 18.63, 382.83 37.14, 382.36 63.53 M382.56 -0.11 C382.87 22.43, 383.65 45.65, 383.72 64.64 M382.56 64.34 C265.41 62.7, 148.95 63.41, 0.92 63.9 M383.5 64.47 C268.09 64.1, 151.72 64.1, -0.14 65.01 M-0.31 63.37 C-0.48 42.36, -1.58 21.65, -1.95 1.61 M-0.49 65.56 C-0.47 49.22, 0.39 34.72, 0.09 -0.39" stroke="#000000" stroke-width="1" fill="none"></path></g><g stroke-linecap="round" transform="translate(1735.3333333333333 2218.166666666667) rotate(0 191.4999999999999 32.5)"><path d="M-0.64 -1.16 C136.63 -0.24, 274.08 -1.35, 382.51 0.56 M0.01 0.3 C114.82 -1.3, 229.3 -0.92, 382.98 0.24 M382.08 -0.77 C382.12 24.12, 383.71 47.09, 383.36 65.87 M382.34 -0.87 C383.97 22.52, 382.98 45.17, 383.19 65.01 M383.81 65.92 C298.6 64.39, 214.59 64.04, -0.86 64.11 M383.37 64.8 C275.17 66.03, 167.53 65.86, -0.43 64.63 M1.36 65.52 C-0.95 48.96, -1.51 29.42, 1.69 0.88 M-0.12 64.95 C1.27 40.51, -0.34 14.39, 0.99 0.94" stroke="#000000" stroke-width="1" fill="none"></path></g><g stroke-linecap="round" transform="translate(611.1666666666667 2573.166666666666) rotate(0 191.5 32.5)"><path d="M-0.22 1 C106.41 2.81, 209.91 2.04, 381.9 -0.02 M0.27 0.14 C99.92 -1.1, 200.86 -1.04, 382.97 0.55 M383.33 -0.86 C384.23 19, 383.17 36.9, 383.25 64.54 M383.18 -0.37 C382.48 17.23, 382.39 32.72, 382.68 64.75 M383.82 64.45 C282.27 65.74, 181.98 64.97, -0.58 64.9 M382.78 65.04 C250.12 64.43, 116.93 64.79, 0.14 64.91 M1.98 64.31 C-0.6 47.67, 1.3 29.18, -0.39 0.44 M-0.29 65.83 C0.5 40.12, 0.25 14.44, 0.94 0.04" stroke="#000000" stroke-width="1" fill="none"></path></g><g transform="translate(36.40476190476153 553.4761904761905) rotate(0 60.5 13)"><text x="0" y="18" font-family="Virgil, Segoe UI Emoji" font-size="20px" fill="#000000" text-anchor="start" style="white-space: pre;" direction="ltr">かなトレナー</text></g><g transform="translate(36 1338.5) rotate(0 60.5 13)"><text x="0" y="18" font-family="Virgil, Segoe UI Emoji" font-size="20px" fill="#000000" text-anchor="start" style="white-space: pre;" direction="ltr">かなトレナー</text></g><g transform="translate(1246.8333333333333 556) rotate(0 60.5 13)"><text x="0" y="18" font-family="Virgil, Segoe UI Emoji" font-size="20px" fill="#000000" text-anchor="start" style="white-space: pre;" direction="ltr">かなトレナー</text></g><g transform="translate(1776.8333333333333 38.5) rotate(0 60.5 13)"><text x="0" y="18" font-family="Virgil, Segoe UI Emoji" font-size="20px" fill="#000000" text-anchor="start" style="white-space: pre;" direction="ltr">かなトレナー</text></g><g transform="translate(1773.0833333333333 793.5) rotate(0 60.5 13)"><text x="0" y="18" font-family="Virgil, Segoe UI Emoji" font-size="20px" fill="#000000" text-anchor="start" style="white-space: pre;" direction="ltr">かなトレナー</text></g><g transform="translate(2279.333333333333 784.75) rotate(0 60.5 13)"><text x="0" y="18" font-family="Virgil, Segoe UI Emoji" font-size="20px" fill="#000000" text-anchor="start" style="white-space: pre;" direction="ltr">かなトレナー</text></g><g transform="translate(1246.8333333333333 1372.6666666666665) rotate(0 60.5 13)"><text x="0" y="18" font-family="Virgil, Segoe UI Emoji" font-size="20px" fill="#000000" text-anchor="start" style="white-space: pre;" direction="ltr">かなトレナー</text></g><g transform="translate(2284.333333333333 1596.4166666666665) rotate(0 60.5 13)"><text x="0" y="18" font-family="Virgil, Segoe UI Emoji" font-size="20px" fill="#000000" text-anchor="start" style="white-space: pre;" direction="ltr">かなトレナー</text></g><g transform="translate(1759.3333333333333 1592.6666666666665) rotate(0 60.5 13)"><text x="0" y="18" font-family="Virgil, Segoe UI Emoji" font-size="20px" fill="#000000" text-anchor="start" style="white-space: pre;" direction="ltr">かなトレナー</text></g><g transform="translate(635.1666666666667 1947.6666666666663) rotate(0 60.5 13)"><text x="0" y="18" font-family="Virgil, Segoe UI Emoji" font-size="20px" fill="#000000" text-anchor="start" style="white-space: pre;" direction="ltr">かなトレナー</text></g><g transform="translate(640.833333333333 1049.3333333333333) rotate(0 60.5 13)"><text x="0" y="18" font-family="Virgil, Segoe UI Emoji" font-size="20px" fill="#000000" text-anchor="start" style="white-space: pre;" direction="ltr">かなトレナー</text></g><g stroke-linecap="round"><g transform="translate(342.4047619047616 550.9761904761905) rotate(0 18.293477965258063 -0.05015936279667699)"><path d="M0.17 -1.19 C6.16 -1.04, 29.39 -0.18, 35.39 0.05 M-1.2 0.8 C5.24 1.14, 31.66 1.03, 37.79 1.09" stroke="#000000" stroke-width="1" fill="none"></path></g></g><g stroke-linecap="round"><g transform="translate(342 1336) rotate(0 18.296561721526047 0.5139786126278238)"><path d="M0.73 -0.02 C6.65 0.45, 29.1 2.13, 34.84 2.1 M-0.35 -1.07 C5.98 -0.85, 30.61 0.29, 36.95 0.55" stroke="#000000" stroke-width="1" fill="none"></path></g></g><g stroke-linecap="round"><g transform="translate(1552.833333333333 553.5) rotate(0 17.261635642871283 0.8458431101118151)"><path d="M-1.11 0.88 C4.88 1.19, 29.58 1.78, 35.64 1.75 M0.5 0.3 C6.33 0.27, 28.29 -0.25, 34.5 0.02" stroke="#000000" stroke-width="1" fill="none"></path></g></g><g stroke-linecap="round"><g transform="translate(2082.833333333333 36) rotate(0 18.073191824471678 0.7425590675417197)"><path d="M0.99 0.26 C7.11 0.62, 30.16 2.05, 36.1 2.13 M0.05 -0.64 C6.08 -0.6, 29.18 0.16, 35.21 0.6" stroke="#000000" stroke-width="1" fill="none"></path></g></g><g stroke-linecap="round"><g transform="translate(2079.083333333333 791) rotate(0 18.150345265930582 0.3740529480017756)"><path d="M-1.1 -0.26 C4.67 0.05, 29.1 0.63, 35.14 0.78 M0.52 -1.45 C6.63 -0.86, 31.22 1.67, 37.4 2.2" stroke="#000000" stroke-width="1" fill="none"></path></g></g><g stroke-linecap="round"><g transform="translate(2585.333333333333 782.25) rotate(0 18.376852679494732 0.7050661421380937)"><path d="M-0.87 0.98 C4.86 1.09, 29.13 0.29, 35.29 0.16 M0.87 0.45 C6.92 0.73, 31.88 1.14, 37.62 1.25" stroke="#000000" stroke-width="1" fill="none"></path></g></g><g stroke-linecap="round"><g transform="translate(1552.833333333333 1370.1666666666665) rotate(0 17.358380454406074 1.329855477251101)"><path d="M-1.13 0.6 C4.82 0.79, 29.61 1.23, 35.84 1.17 M0.48 -0.13 C6.24 0.28, 28.95 2.59, 34.82 2.79" stroke="#000000" stroke-width="1" fill="none"></path></g></g><g stroke-linecap="round"><g transform="translate(2590.333333333333 1593.9166666666665) rotate(0 18.10741250043725 0.05133942491090693)"><path d="M0.28 -1.18 C6.19 -1.1, 29.17 -0.33, 35.04 0.13 M-1.03 0.82 C5.28 1.06, 31.33 1.43, 37.24 1.22" stroke="#000000" stroke-width="1" fill="none"></path></g></g><g stroke-linecap="round"><g transform="translate(2065.333333333333 1590.1666666666665) rotate(0 17.611449986323578 0.2534228526316724)"><path d="M-1.17 -0.87 C4.84 -0.75, 30.32 -0.15, 36.39 0.08 M0.41 1.28 C6.27 1.58, 29.42 1.08, 35.65 1.13" stroke="#000000" stroke-width="1" fill="none"></path></g></g><g stroke-linecap="round"><g transform="translate(941.1666666666665 1945.1666666666663) rotate(0 18.45080277881584 0.9503735958877542)"><path d="M1.01 1.14 C7.32 1.23, 30.98 0.56, 36.83 0.35 M0.08 0.69 C6.39 0.95, 30.44 1.56, 36.31 1.55" stroke="#000000" stroke-width="1" fill="none"></path></g></g><g stroke-linecap="round"><g transform="translate(343.4047619047616 561.9761904761905) rotate(0 17.635125796711094 0.5124721454623966)"><path d="M-0.01 1.1 C6.04 1.18, 30.59 1.51, 36.74 1.47 M-1.47 0.62 C4.44 0.26, 29.84 -0.65, 36.18 -0.41" stroke="#000000" stroke-width="1" fill="none"></path></g></g><g stroke-linecap="round"><g transform="translate(343 1347) rotate(0 17.807211220627664 0.08407849947607815)"><path d="M-0.02 -1.16 C6.28 -1.25, 31.29 -0.27, 37.1 0.18 M-1.48 0.85 C4.81 0.83, 30.3 1.51, 36.73 1.28" stroke="#000000" stroke-width="1" fill="none"></path></g></g><g stroke-linecap="round"><g transform="translate(1553.833333333333 564.5) rotate(0 18.31554091832595 -0.10264304345474784)"><path d="M0.88 -0.36 C7.02 -0.13, 30.94 0.13, 36.75 0.25 M-0.12 -1.6 C5.94 -1.13, 30.37 0.9, 36.19 1.39" stroke="#000000" stroke-width="1" fill="none"></path></g></g><g stroke-linecap="round"><g transform="translate(2083.833333333333 47) rotate(0 18.03579167554153 0.34586621654972305)"><path d="M0.26 0.1 C6.45 0.21, 31.21 1.69, 37.13 1.65 M-1.06 -0.89 C5.07 -1.22, 30.78 -0.37, 36.77 -0.13" stroke="#000000" stroke-width="1" fill="none"></path></g></g><g stroke-linecap="round"><g transform="translate(2080.083333333333 802) rotate(0 17.756158882007185 0.29547679709538954)"><path d="M-0.26 -0.86 C5.88 -0.65, 29.8 -0.17, 35.78 0.15 M1.8 1.31 C7.86 1.74, 29.24 1.05, 34.71 1.24" stroke="#000000" stroke-width="1" fill="none"></path></g></g><g stroke-linecap="round"><g transform="translate(2586.333333333333 793.25) rotate(0 18.730311469193566 0.9548787938896552)"><path d="M0.98 -0.71 C6.92 -0.39, 29.45 0.75, 35.16 1.06 M0.03 1.53 C6.4 2.13, 31.15 2.46, 37.43 2.62" stroke="#000000" stroke-width="1" fill="none"></path></g></g><g stroke-linecap="round"><g transform="translate(1553.833333333333 1381.1666666666665) rotate(0 17.810182076459682 0.00901278861798005)"><path d="M0.6 -0.16 C6.63 0.25, 30.4 1.13, 36.17 1.3 M-0.55 -1.28 C5.34 -1.16, 28.94 -1.23, 35.31 -0.66" stroke="#000000" stroke-width="1" fill="none"></path></g></g><g stroke-linecap="round"><g transform="translate(2591.333333333333 1604.9166666666665) rotate(0 18.10741353208209 0.4138770370946645)"><path d="M-1.18 -0.96 C4.74 -0.93, 28.84 0.37, 35.13 0.5 M0.41 1.15 C6.72 1.32, 31.44 1.88, 37.39 1.78" stroke="#000000" stroke-width="1" fill="none"></path></g></g><g stroke-linecap="round"><g transform="translate(2066.333333333333 1601.1666666666665) rotate(0 18.215926329111653 0.49044417256487804)"><path d="M-0.87 0.39 C5.08 0.63, 29.01 0.08, 35.08 0.27 M0.87 -0.44 C7.25 0.04, 31.7 1.43, 37.3 1.43" stroke="#000000" stroke-width="1" fill="none"></path></g></g><g stroke-linecap="round"><g transform="translate(942.1666666666665 1956.1666666666663) rotate(0 18.99999639686189 1.4160729241743866)"><path d="M1.14 0.83 C7.07 0.83, 29.73 1.03, 35.35 1.05 M0.28 0.21 C6.62 0.95, 31.57 2.27, 37.72 2.62" stroke="#000000" stroke-width="1" fill="none"></path></g></g><g stroke-linecap="round"><g transform="translate(343.4047619047616 572.9761904761905) rotate(0 17.353972350452096 0.40834917863830356)"><path d="M0.35 -0.95 C6.13 -1.02, 29.6 0.31, 35.63 0.5 M-0.92 1.16 C4.58 1.18, 28.33 1.78, 34.49 1.77" stroke="#000000" stroke-width="1" fill="none"></path></g></g><g stroke-linecap="round"><g transform="translate(343 1358) rotate(0 18.14949835443872 0.4570642832666465)"><path d="M-1.16 1.1 C4.58 1.07, 28.9 -0.3, 35.18 -0.18 M0.44 0.63 C6.49 0.7, 31.52 0.86, 37.46 0.73" stroke="#000000" stroke-width="1" fill="none"></path></g></g><g stroke-linecap="round"><g transform="translate(1553.833333333333 575.5) rotate(0 18.60252443114291 1.100431929863987)"><path d="M-0.36 0.75 C5.7 0.72, 29.3 0.64, 35.25 0.72 M1.65 0.1 C8.19 0.17, 32.13 1.68, 37.57 2.11" stroke="#000000" stroke-width="1" fill="none"></path></g></g><g stroke-linecap="round"><g transform="translate(2083.833333333333 58) rotate(0 17.673202674156073 1.421665538791558)"><path d="M0.1 1.13 C6.05 1.21, 30.86 0.84, 36.65 0.76 M-1.31 0.67 C4.45 0.92, 29.64 1.99, 36.05 2.17" stroke="#000000" stroke-width="1" fill="none"></path></g></g><g stroke-linecap="round"><g transform="translate(2080.083333333333 813) rotate(0 18.277864631926604 0.2623059826530465)"><path d="M-0.86 -0.22 C5.18 -0.08, 29 0.31, 35.15 0.59 M0.89 -1.39 C7.41 -1.05, 31.67 1.78, 37.41 1.91" stroke="#000000" stroke-width="1" fill="none"></path></g></g><g stroke-linecap="round"><g transform="translate(2586.333333333333 804.25) rotate(0 17.67148773036911 0.28048674172386256)"><path d="M-0.71 -0.84 C5.44 -0.97, 29.92 -0.24, 36.06 0.21 M1.11 1.33 C7.19 1.25, 29.42 1.56, 35.14 1.33" stroke="#000000" stroke-width="1" fill="none"></path></g></g><g stroke-linecap="round"><g transform="translate(1553.833333333333 1392.1666666666665) rotate(0 17.302245396617877 0.26728746209292353)"><path d="M-0.16 0.17 C6.08 0.1, 30.3 -0.02, 36.3 0.2 M-1.7 -0.79 C4.51 -0.77, 29.39 1.28, 35.51 1.32" stroke="#000000" stroke-width="1" fill="none"></path></g></g><g stroke-linecap="round"><g transform="translate(2591.333333333333 1615.9166666666665) rotate(0 17.27039138115947 0.36235994659364223)"><path d="M-0.96 -0.87 C4.91 -0.41, 29.53 1.21, 35.5 1.59 M0.73 1.29 C6.38 1.5, 28.23 0.12, 34.29 -0.22" stroke="#000000" stroke-width="1" fill="none"></path></g></g><g stroke-linecap="round"><g transform="translate(2066.333333333333 1612.1666666666665) rotate(0 18.370941423140493 0.4285791571996924)"><path d="M0.39 -0.92 C6.47 -0.69, 29.24 0.18, 35.27 0.5 M-0.86 1.21 C5.71 1.67, 31.44 1.6, 37.6 1.78" stroke="#000000" stroke-width="1" fill="none"></path></g></g><g stroke-linecap="round"><g transform="translate(942.1666666666665 1967.1666666666663) rotate(0 17.926725369757037 0.5068196035854271)"><path d="M0.83 -0.65 C6.67 -0.86, 30.19 -0.3, 36.05 -0.11 M-0.2 1.63 C5.4 2.04, 29.23 0.85, 35.13 0.85" stroke="#000000" stroke-width="1" fill="none"></path></g></g><g stroke-linecap="round" transform="translate(53.40476190476153 636.9761904761905) rotate(0 153 90)"><path d="M-0.86 1.09 C77.84 1.92, 156.28 2.67, 304.95 1.07 M0.2 -0.4 C64.74 -0.12, 128.42 -0.1, 305.48 -0.67 M306.16 0.36 C303.79 47.57, 305.71 92.25, 305.85 178.2 M305.04 -0.87 C307.07 40.21, 306.92 80.24, 305.19 180.19 M307.43 180.54 C241.18 178.88, 178.5 178.11, 0.5 179.99 M305.72 180.23 C184.14 180.58, 62.69 179.57, -0.67 180.52 M1.25 181.5 C-0.45 126.53, -0.49 72.67, -1.22 1.63 M-0.47 180.97 C1.02 130.94, 1.37 81.4, 0.98 -0.43" stroke="#000000" stroke-width="1" fill="none"></path></g><g stroke-linecap="round" transform="translate(37.40476190476153 857.9761904761905) rotate(0 83.5 63)"><path d="M-0.53 -0.43 C38.63 -2.3, 76.97 -0.1, 167.38 1.96 M-0.32 0.84 C48.33 1.54, 97.36 1.19, 166.56 -0.09 M166.2 1.88 C168.15 37.79, 168.99 76.32, 167.05 125.05 M166.55 -0.47 C166.12 37.6, 166.33 76.07, 167.77 125.1 M166.3 125.63 C131.72 125.79, 94.43 125.81, -0.32 127.47 M166.8 126.88 C105.03 125.46, 40.84 126.37, 0.65 125.58 M-1.47 125.01 C0.76 95.73, -1.75 62.68, -1.32 -1.6 M-0.15 126.71 C-0.35 77.59, -1.26 28.62, -0.33 0.03" stroke="#000000" stroke-width="1" fill="none"></path></g><g stroke-linecap="round" transform="translate(227.40476190476153 858.9761904761905) rotate(0 79.99999999999997 63)"><path d="M1.27 1.3 C59.86 -0.07, 122.65 0.01, 158.53 -0.99 M-0.64 -0.66 C59.55 1.65, 120.99 0.68, 159.85 0.71 M160.46 -0.65 C160.55 37.58, 159.41 77.92, 160.79 124.45 M159.25 -0.68 C159.98 40.32, 160.62 81.36, 159.57 125.46 M159.95 125.38 C102.55 124.33, 45.8 126.35, 1.66 125.11 M159.52 125.97 C126.5 126.56, 95.47 126.72, -0.57 125.47 M1.33 124.33 C-1.31 79.38, 0.3 30.7, 0.99 1.29 M-0.73 126.13 C0.64 99.66, 1.65 73.01, -0.22 -0.7" stroke="#000000" stroke-width="1" fill="none"></path></g><g stroke-linecap="round" transform="translate(38.40476190476153 997.9761904761905) rotate(0 81.99999999999997 11.5)"><path d="M1.96 1.45 C39.12 2.36, 81.6 2.95, 162.54 -1.92 M0.55 -0.32 C64.42 -0.81, 128.72 0.37, 163.33 0.56 M162.72 -1.1 C164.68 7.79, 165.95 12.56, 162.83 24.83 M164.93 0.12 C163.63 6.79, 163.6 13.88, 164.44 22.98 M164.7 22.05 C113.94 23.54, 60.96 24.95, 0.38 24.24 M163.84 22.24 C117.22 21.39, 70.9 23.18, -0.17 23.25 M1.4 22.61 C-0.72 14.47, -0.99 3.92, -0.85 0.22 M0.14 22.07 C0.19 15.88, 0.75 8.48, -0.03 -0.83" stroke="#000000" stroke-width="1" fill="none"></path></g><g stroke-linecap="round" transform="translate(222.40476190476153 999.9761904761905) rotate(0 81.99999999999997 11.5)"><path d="M-0.32 -1.51 C47.48 -1.05, 95.87 2.53, 163.65 0.51 M0.7 -0.19 C63.92 -0.4, 128.07 -1.17, 163.58 0.11 M164.28 -1.86 C164.89 6.9, 166.01 13.23, 163.95 21.34 M164.39 -0.88 C164.82 8.37, 164.55 16.62, 164.31 23.27 M163.9 24.76 C121.97 23.64, 82.89 22.41, 1.19 21.69 M164.91 23.5 C100.13 23.42, 35.88 23.78, -0.82 23.18 M-0.27 22.04 C1.79 16.05, 0.91 9.48, 1.71 -1.04 M0.51 23.39 C-0.72 17.92, 0.08 11.22, -0.72 -0.72" stroke="#000000" stroke-width="1" fill="none"></path></g><g stroke-linecap="round" transform="translate(30.40476190476153 1049.9761904761904) rotate(0 177.49999999999997 52.5)"><path d="M0.76 -0.84 C98 2.69, 193.85 3.18, 355.64 0.3 M-0.52 0.12 C113.61 -1.24, 226.89 -1.38, 354.69 0.58 M356.71 -1.04 C354.72 28.37, 356.78 59.57, 355.77 103.35 M354.28 -0.72 C355.75 41.45, 354.79 81.83, 355.69 104.31 M355.75 105.86 C280.35 104.58, 206.66 104.06, 1.11 104.91 M354.55 105.4 C268.96 103.71, 182.14 102.79, -0.49 105.39 M0.98 104.31 C1.77 76.87, -1.66 53.43, 1.75 -0.11 M-0.21 104.09 C-1.77 73.16, -1.59 43.43, 0.38 0.34" stroke="#000000" stroke-width="1" fill="none"></path></g><g transform="translate(954.833333333333 1035.8333333333333) rotate(0 11.5 23)"><text x="0" y="32" font-family="Virgil, Segoe UI Emoji" font-size="36px" fill="#000000" text-anchor="start" style="white-space: pre;" direction="ltr">X</text></g><g transform="translate(767.833333333333 1184.8333333333333) rotate(0 41.5 23)"><text x="0" y="32" font-family="Virgil, Segoe UI Emoji" font-size="36px" fill="#000000" text-anchor="start" style="white-space: pre;" direction="ltr">Home</text></g><g transform="translate(748.833333333333 1273.8333333333333) rotate(0 60.5 23)"><text x="0" y="32" font-family="Virgil, Segoe UI Emoji" font-size="36px" fill="#000000" text-anchor="start" style="white-space: pre;" direction="ltr">Charts</text></g><g transform="translate(740.833333333333 1354.8333333333333) rotate(0 68.5 23)"><text x="0" y="32" font-family="Virgil, Segoe UI Emoji" font-size="36px" fill="#000000" text-anchor="start" style="white-space: pre;" direction="ltr">Training</text></g><g transform="translate(720.333333333333 1513.8333333333333) rotate(0 89 23)"><text x="0" y="32" font-family="Virgil, Segoe UI Emoji" font-size="36px" fill="#000000" text-anchor="start" style="white-space: pre;" direction="ltr">Resources</text></g><g transform="translate(751.833333333333 1432.8333333333333) rotate(0 57.5 23)"><text x="0" y="32" font-family="Virgil, Segoe UI Emoji" font-size="36px" fill="#000000" text-anchor="start" style="white-space: pre;" direction="ltr">Games</text></g><g stroke-linecap="round"><g transform="translate(740.4999999999995 1291.6640731331736) rotate(0 -165.53501068756566 122.07030598513447)"><path d="M0.37 0.43 C-54.8 40.96, -275.1 202.49, -330.26 242.93 M-0.9 -0.4 C-56.32 40.37, -276.9 203.71, -331.44 244.54" stroke="#000000" stroke-width="1" fill="none"></path></g><g transform="translate(740.4999999999995 1291.6640731331736) rotate(0 -165.53501068756566 122.07030598513447)"><path d="M-314.23 218.76 C-320.73 227.25, -326.37 237.99, -330.6 243.35 M-314.36 220.04 C-319.57 226.85, -323.86 233.41, -330.62 245.13" stroke="#000000" stroke-width="1" fill="none"></path></g><g transform="translate(740.4999999999995 1291.6640731331736) rotate(0 -165.53501068756566 122.07030598513447)"><path d="M-301.98 235.23 C-312.85 237.82, -322.91 242.64, -330.6 243.35 M-302.11 236.5 C-310.72 238.64, -318.42 240.61, -330.62 245.13" stroke="#000000" stroke-width="1" fill="none"></path></g></g><g stroke-linecap="round"><g transform="translate(888.1666666666665 1363.3769075613716) rotate(0 165.86712123317022 -160.62797132132272)"><path d="M-0.4 -0.62 C55.15 -54.28, 276.78 -267.88, 332.13 -321.31 M1.6 1.67 C57.12 -52.36, 276.54 -268.81, 331.43 -322.93" stroke="#000000" stroke-width="1" fill="none"></path></g><g transform="translate(888.1666666666665 1363.3769075613716) rotate(0 165.86712123317022 -160.62797132132272)"><path d="M317.53 -295.05 C322.67 -301.3, 325.47 -305.04, 329.45 -324.18 M319.02 -296.44 C323.06 -305.14, 326.74 -314.47, 331.2 -322.84" stroke="#000000" stroke-width="1" fill="none"></path></g><g transform="translate(888.1666666666665 1363.3769075613716) rotate(0 165.86712123317022 -160.62797132132272)"><path d="M303.12 -309.67 C311.3 -312.87, 317.04 -313.62, 329.45 -324.18 M304.61 -311.05 C313.86 -314.45, 322.63 -318.62, 331.2 -322.84" stroke="#000000" stroke-width="1" fill="none"></path></g></g><g stroke-linecap="round"><g transform="translate(864.833333333333 1460.5000000000002) rotate(0 172.77685650642968 49.0763791729006)"><path d="M0.49 -0.65 C57.68 15.74, 286.7 81.16, 344.05 97.34 M-0.72 1.62 C56.76 18.29, 288.88 82.88, 346.27 98.81" stroke="#000000" stroke-width="1" fill="none"></path></g><g transform="translate(864.833333333333 1460.5000000000002) rotate(0 172.77685650642968 49.0763791729006)"><path d="M315.27 99.56 C327.45 99.46, 337.18 100.63, 346.86 96.84 M316.95 101.79 C323.37 100.23, 329.9 100.1, 345.55 99.01" stroke="#000000" stroke-width="1" fill="none"></path></g><g transform="translate(864.833333333333 1460.5000000000002) rotate(0 172.77685650642968 49.0763791729006)"><path d="M320.77 79.79 C330.7 87.17, 338.37 95.79, 346.86 96.84 M322.45 82.02 C327.56 84.8, 332.88 89.03, 345.55 99.01" stroke="#000000" stroke-width="1" fill="none"></path></g></g><g stroke-linecap="round"><g transform="translate(891.4999999999995 1550.5000000000002) rotate(0 -47.68492057515408 179.1570881842011)"><path d="M0.68 0.22 C-15.46 59.98, -80.05 297.92, -96.05 357.55 M-0.42 -0.71 C-16.28 59.34, -77.98 298.99, -93.95 359.02" stroke="#000000" stroke-width="1" fill="none"></path></g><g transform="translate(891.4999999999995 1550.5000000000002) rotate(0 -47.68492057515408 179.1570881842011)"><path d="M-96.38 327.21 C-96.18 339.32, -94.41 348.93, -94.64 360.67 M-97.1 330 C-95.03 335.29, -95.16 341.75, -93.99 359.42" stroke="#000000" stroke-width="1" fill="none"></path></g><g transform="translate(891.4999999999995 1550.5000000000002) rotate(0 -47.68492057515408 179.1570881842011)"><path d="M-76.53 332.39 C-83.5 342.73, -88.95 350.46, -94.64 360.67 M-77.25 335.19 C-79.34 339.32, -83.59 344.71, -93.99 359.42" stroke="#000000" stroke-width="1" fill="none"></path></g></g><g stroke-linecap="round"><g transform="translate(779.890373571165 1178.4999999999995) rotate(0 -188.62630801683514 -215.8372198075001)"><path d="M-0.08 1.02 C-62.79 -71.15, -313.51 -360.53, -376.28 -432.69 M-1.59 0.51 C-64.44 -71.49, -314.5 -358.79, -377.17 -431.2" stroke="#000000" stroke-width="1" fill="none"></path></g><g transform="translate(779.890373571165 1178.4999999999995) rotate(0 -188.62630801683514 -215.8372198075001)"><path d="M-349.24 -416.45 C-358.89 -421.44, -365.4 -425.9, -377.83 -430.77 M-350.7 -417.52 C-360.04 -422.14, -369.39 -426.53, -376.91 -430.27" stroke="#000000" stroke-width="1" fill="none"></path></g><g transform="translate(779.890373571165 1178.4999999999995) rotate(0 -188.62630801683514 -215.8372198075001)"><path d="M-364.74 -403 C-369.82 -411.97, -371.74 -420.42, -377.83 -430.77 M-366.2 -404.07 C-370.39 -413.1, -374.53 -422.01, -376.91 -430.27" stroke="#000000" stroke-width="1" fill="none"></path></g></g><g stroke-linecap="round" transform="translate(32.10714285714221 1406.9404761904764) rotate(0 50 26.875)"><path d="M-0.97 -1.39 C27.72 -0.15, 57.66 1.56, 101.06 -1.78 M0.63 0.48 C29.12 0.04, 56.38 -0.71, 99.13 0.5 M100.37 0.55 C101.5 10.64, 98.56 26.29, 98.14 52.78 M99.22 -0.86 C99.81 17.96, 100.18 34.99, 100.65 53.13 M98.38 53.92 C60.53 54.62, 23.38 51.78, 1.92 55.21 M99.16 54.03 C75.97 51.77, 53.04 52.42, -0.97 53.22 M-1.41 54.06 C-1.63 39.75, 1.89 24.66, -1.93 1.09 M0.79 53.27 C-0.39 32.77, -0.33 11.84, -0.05 0.89" stroke="#000000" stroke-width="1" fill="none"></path></g><g stroke-linecap="round" transform="translate(145.8571428571422 1405.6904761904764) rotate(0 50 26.875)"><path d="M1 -1.71 C28.92 1.32, 59.84 -1.25, 100.34 0.2 M-0.25 0.92 C23.44 1.76, 47.29 0.24, 100.91 0.85 M99.58 0.85 C101.05 14.27, 101.48 33.99, 98.72 55.41 M99.56 -0.99 C99.78 10.46, 98.58 21.06, 99.84 53.34 M98.15 55 C72.73 55.33, 40.19 54.99, 1.7 52.46 M99.26 53.46 C76.09 52.74, 53.5 54.16, -0.06 54.46 M-0.62 52.34 C2.28 35.88, 0.87 18.21, 1.84 1.39 M-0.82 54.7 C0.64 32.69, -0.86 13.67, -0.01 -0.49" stroke="#000000" stroke-width="1" fill="none"></path></g><g stroke-linecap="round" transform="translate(37.10714285714221 1478.1904761904764) rotate(0 168.125 226.25)"><path d="M-0.86 1.12 C65.99 -2.79, 135.02 -2.24, 334.92 0.32 M-0.11 -0.27 C89.45 0.73, 179.15 0.58, 336.67 0.56 M337.06 -0.62 C333.51 168.63, 333.7 335.05, 335.97 451.85 M336.22 0.34 C336.24 111.4, 335.78 223.16, 335.91 452.98 M337.49 453.44 C244.5 451.67, 150.06 450.54, 1.28 453.38 M336.24 452.17 C255.27 454.52, 173.66 453.82, -0.37 452.93 M-0.09 453.35 C0.4 302.27, -0.56 152.12, -0.29 -0.89 M-0.48 452.65 C-1.43 349.19, -2.18 246.6, -0.07 -0.41" stroke="#000000" stroke-width="1" fill="none"></path></g><g stroke-linecap="round" transform="translate(64.60714285714221 1504.4404761904764) rotate(0 43.125 40.625)"><path d="M1.91 1.31 C24.91 -0.98, 53.88 0.68, 85.27 0.76 M-0.55 0.65 C27.05 0.94, 54.27 0.72, 87.14 0.7 M85.64 -1.86 C84.55 23.04, 85.89 40.8, 86.86 82.72 M86.11 -0.85 C85.69 17.42, 84.89 36.19, 86.5 81.39 M84.49 79.67 C64.01 83.42, 41.43 82.91, 1.18 81.32 M86.59 80.29 C64.17 80.87, 40.66 82, -0.34 81.68 M1.71 82.86 C-1.33 58.65, 0.89 32.8, 0.56 -0.67 M0.01 81.48 C-1.35 61.05, -0.12 42.04, -0.15 0.19" stroke="#000000" stroke-width="1" fill="none"></path></g><g stroke-linecap="round" transform="translate(64.60714285714221 1604.4404761904764) rotate(0 43.125 40.625)"><path d="M-1.83 1.72 C18.99 -1.86, 35.52 -1.96, 86.4 1.97 M0.82 0.75 C29.25 -0.19, 59.39 -1.51, 85.83 0.12 M87.06 0.07 C85.09 29.57, 87.54 55.24, 85.8 82.39 M87.14 -0.63 C87.11 18.54, 86.06 35.18, 85.96 81.77 M85.62 80.47 C58.15 80.9, 32.42 83.07, -1.26 82.78 M86.57 81.01 C63.81 80.52, 42.95 81.6, -0.68 80.82 M-0.88 82.42 C-1.19 64.21, -0.48 45.25, 0.74 1.03 M0.51 81.36 C-0.24 54.21, 0.5 25.63, -0.7 0.9" stroke="#000000" stroke-width="1" fill="none"></path></g><g stroke-linecap="round" transform="translate(63.35714285714221 1703.1904761904764) rotate(0 43.125 40.625)"><path d="M-1.12 -0.4 C34.06 1.12, 66.09 0.45, 84.82 -1.36 M0.85 -0.63 C32.23 1.12, 65.44 0.52, 85.56 -0.09 M87.65 -0.28 C86.42 27.89, 85.06 52.28, 86.52 82.49 M86.98 -0.68 C85.16 22.78, 85.78 43.51, 86.54 80.48 M88.21 82.09 C67.16 82.56, 51.71 81.87, -0.49 81.4 M85.69 81.16 C52.21 81.75, 18.22 80.84, 0.59 80.45 M0.27 81.04 C0.91 59.84, 1.37 35.63, 1.58 1.29 M0.47 80.6 C-0.54 54.16, -0.07 24.88, 0.76 -0.63" stroke="#000000" stroke-width="1" fill="none"></path></g><g stroke-linecap="round" transform="translate(63.35714285714221 1808.1904761904764) rotate(0 43.125 40.625)"><path d="M1.47 -1.81 C18.85 1.1, 42.15 1.43, 85.62 0.44 M-0.27 0.22 C20.79 0.35, 40.99 0.76, 86.74 -0.53 M85.83 -0.8 C87.91 31.17, 84.85 62.73, 86.6 81.49 M86.69 -0.24 C87.04 32.49, 85.88 63.74, 86.42 80.81 M86.3 80.21 C55.16 81.04, 22.78 82.42, 1.83 82.57 M85.61 80.76 C67.47 81.98, 47.5 81.47, -0.61 80.43 M-0.5 82.9 C1.84 53.49, 0.3 30.16, -0.41 -1.51 M0.77 81.92 C0.09 50.04, 1.51 17.92, -0.28 -0.4" stroke="#000000" stroke-width="1" fill="none"></path></g><g stroke-linecap="round" transform="translate(169.6071428571422 1504.4404761904764) rotate(0 43.125 40.625)"><path d="M-0.98 -1.18 C30.69 -1.89, 56.68 -0.73, 87.75 -1.55 M-0.35 -0.22 C30.54 0.31, 59.34 0.79, 85.54 0.19 M86.15 0.5 C85.39 29.44, 87.58 54.32, 87.64 82.35 M85.65 0.67 C85.99 22.46, 86.7 44.1, 85.54 81.68 M86.17 80.63 C64.24 81.82, 40.42 80.56, -0.73 80.75 M86.93 80.82 C58.03 82.63, 30.72 81.55, 0.65 81.55 M1.02 82.16 C0.43 64.61, -0.71 48.06, 0.12 1.73 M0.24 81.5 C-0.54 53.93, -0.51 25.93, 0.95 -0.34" stroke="#000000" stroke-width="1" fill="none"></path></g><g stroke-linecap="round" transform="translate(169.6071428571422 1604.4404761904764) rotate(0 43.125 40.625)"><path d="M1.72 0.42 C32.67 -0.84, 66.45 0.94, 88.22 0.93 M0.75 -0.64 C18.14 -1.1, 34.44 -1.12, 86.37 0.5 M86.32 -0.54 C87.37 20.13, 84.63 35.98, 87.39 79.64 M85.62 0.51 C86.84 27.34, 85.68 55.45, 86.77 81.37 M85.47 80.06 C53.8 80.97, 24.46 79.72, 1.53 80.33 M86.01 80.74 C53.35 82.08, 22.2 80.84, -0.43 80.49 M1.17 80.51 C0.69 52.35, -0.06 24.24, 1.03 0.77 M0.11 81.14 C0.57 56.26, -0.52 29.31, 0.9 -0.17" stroke="#000000" stroke-width="1" fill="none"></path></g><g stroke-linecap="round" transform="translate(168.3571428571422 1703.1904761904764) rotate(0 43.125 40.625)"><path d="M-0.4 1.18 C26.4 0.81, 51 -0.95, 84.89 1.51 M-0.63 -0.14 C18.82 -0.05, 36.46 -1.43, 86.16 0.24 M85.97 0.63 C88.42 18.97, 86.48 39.66, 87.49 80.72 M85.57 -0.54 C86.94 18.94, 85.45 38, 85.48 80.3 M87.09 79.85 C53.71 82.93, 18.95 81.61, 0.15 83.2 M86.16 81.48 C63.56 81.27, 39.72 81.36, -0.8 81.07 M-0.21 81.46 C0.99 64.51, -0.27 47.98, 1.29 0.86 M-0.65 80.6 C0.29 57.79, -1.12 35.44, -0.63 0.74" stroke="#000000" stroke-width="1" fill="none"></path></g><g stroke-linecap="round" transform="translate(168.3571428571422 1808.1904761904764) rotate(0 43.125 40.625)"><path d="M-1.81 -1.6 C33 0.62, 65.76 -1.26, 86.69 -1.27 M0.22 0.39 C23.64 0.43, 47.19 0.72, 85.72 0.81 M85.45 1.24 C85.84 26.73, 86.47 57.46, 86.49 83.09 M86.01 0.79 C87.34 23.95, 86.72 48.81, 85.81 81.83 M85.21 81 C52.48 79.48, 19.71 83.1, 1.32 79.83 M85.76 82.23 C55.37 81.47, 23.37 80.08, -0.82 81.46 M1.65 82.93 C-1.42 58.59, 1.36 35.23, -1.51 1.68 M0.67 80.73 C-0.56 63.89, -1.47 44.44, -0.4 0.14" stroke="#000000" stroke-width="1" fill="none"></path></g><g stroke-linecap="round" transform="translate(269.6071428571422 1503.1904761904764) rotate(0 43.125 40.625)"><path d="M1.39 1.1 C32.78 1.05, 65.84 -0.72, 87.59 -0.97 M-0.71 0.43 C25.71 0.54, 52.06 0.65, 85.94 0.94 M85.52 -0.5 C87.4 25.86, 88.88 53.39, 85.39 79.58 M86.9 0.3 C84.77 28.84, 85.28 58.83, 86.7 81.33 M86.37 82.98 C58.32 81.73, 27.11 82.36, 0.5 80.05 M87.2 80.91 C54.75 81.29, 22.4 82.68, 0.7 82.1 M-1.55 79.91 C2.56 61.95, 0.03 40.7, 1.63 1.34 M0.49 80.46 C-0.65 63.46, 0.51 47.2, -0.75 -0.68" stroke="#000000" stroke-width="1" fill="none"></path></g><g stroke-linecap="round" transform="translate(269.6071428571422 1603.1904761904764) rotate(0 43.125 40.625)"><path d="M0.42 -1.22 C30.66 -2.07, 64.72 1.23, 87.18 -1.91 M-0.64 0.51 C32.43 -1.46, 65.21 -0.53, 86.75 -0.76 M85.71 1.16 C88.49 22.33, 86.13 48.94, 84.64 82.11 M86.76 0.72 C86.44 22.67, 86.68 46.75, 86.37 81.9 M85.06 80.31 C54.48 82.15, 21.48 82.45, -0.92 82.72 M85.74 80.57 C61.46 81.44, 34.89 80.61, -0.76 81.8 M-0.74 82.42 C0.33 52.52, 1.1 23.99, 0.77 0.31 M-0.11 81.69 C0.21 57.51, -1.12 35.98, -0.17 0.12" stroke="#000000" stroke-width="1" fill="none"></path></g><g stroke-linecap="round" transform="translate(268.3571428571422 1701.9404761904764) rotate(0 43.125 40.625)"><path d="M1.18 1.14 C26.43 0.64, 50.78 -1.19, 87.76 -1.77 M-0.14 0.59 C21.27 0.53, 40.48 0.45, 86.49 -0.58 M86.88 1.58 C86.09 29.88, 87.09 61.71, 85.72 79.89 M85.71 0.55 C86.93 24.84, 87.14 50.78, 85.3 82.2 M84.85 82.76 C63.25 82.43, 38.1 81.76, 1.95 80.57 M86.48 81.49 C58.26 80.5, 29.86 80.37, -0.18 80.39 M0.21 82.78 C0.57 51.74, 1.47 22.98, 0.86 -0.27 M-0.65 82.02 C-0.55 51.36, 0.38 22.1, 0.74 -0.91" stroke="#000000" stroke-width="1" fill="none"></path></g><g stroke-linecap="round" transform="translate(268.3571428571422 1806.9404761904764) rotate(0 43.125 40.625)"><path d="M-1.6 0.56 C21.71 1.67, 40.27 1.22, 84.98 -0.63 M0.39 0.49 C27.46 0.71, 55.03 -0.72, 87.06 0.51 M87.49 0.24 C84.26 18.79, 86.43 36.08, 88.09 81.24 M87.04 0.63 C86.24 29.06, 86.78 57.67, 86.83 82.21 M86 81.64 C64.56 82.57, 48.28 82.12, -1.42 82.55 M87.23 81.85 C59.82 80.91, 31.24 80.01, 0.21 81.06 M1.68 79.61 C0.35 60.23, -0.21 35.43, 1.68 -1.5 M-0.52 81.26 C0.28 50.27, -0.91 20.68, 0.14 -0.41" stroke="#000000" stroke-width="1" fill="none"></path></g><g transform="translate(1320.3333333333333 738.4404761904764) rotate(0 95 23)"><text x="0" y="32" font-family="Virgil, Segoe UI Emoji" font-size="36px" fill="#000000" text-anchor="start" style="white-space: pre;" direction="ltr">Flashcards</text></g><g transform="translate(1377.8333333333333 845.9404761904764) rotate(0 37.5 23)"><text x="0" y="32" font-family="Virgil, Segoe UI Emoji" font-size="36px" fill="#000000" text-anchor="start" style="white-space: pre;" direction="ltr">Quiz</text></g><g stroke-linecap="round"><g transform="translate(1512.1071428571422 756.9404761904764) rotate(0 116.36858619964687 -114.8797621472832)"><path d="M0.35 -0.24 C39.29 -38.1, 194.8 -189.81, 233.66 -227.87 M-0.92 -1.41 C37.85 -39.54, 193.74 -191.9, 232.66 -229.52" stroke="#000000" stroke-width="1" fill="none"></path></g><g transform="translate(1512.1071428571422 756.9404761904764) rotate(0 116.36858619964687 -114.8797621472832)"><path d="M219.21 -202.67 C225.19 -211.18, 228.01 -218.33, 232.22 -230.29 M219.35 -201.86 C223.23 -209.27, 225.96 -215.05, 233.57 -229.12" stroke="#000000" stroke-width="1" fill="none"></path></g><g transform="translate(1512.1071428571422 756.9404761904764) rotate(0 116.36858619964687 -114.8797621472832)"><path d="M204.9 -217.38 C215.13 -221.47, 222.29 -224.17, 232.22 -230.29 M205.04 -216.56 C212.34 -220.57, 218.38 -222.95, 233.57 -229.12" stroke="#000000" stroke-width="1" fill="none"></path></g></g><g stroke-linecap="round"><g transform="translate(1458.3571428571422 874.4404761904764) rotate(0 141.68668265262625 27.574929876364767)"><path d="M0.48 -0.35 C47.84 8.73, 236.97 46.22, 284.1 55.56 M-0.73 -1.58 C46.51 8.16, 236.18 47.02, 283.34 56.73" stroke="#000000" stroke-width="1" fill="none"></path></g><g transform="translate(1458.3571428571422 874.4404761904764) rotate(0 141.68668265262625 27.574929876364767)"><path d="M253.07 61.69 C261.23 58.88, 270.2 56.58, 282.6 56.23 M254.07 61.07 C260.74 60.64, 270.06 58.69, 283.58 56.85" stroke="#000000" stroke-width="1" fill="none"></path></g><g transform="translate(1458.3571428571422 874.4404761904764) rotate(0 141.68668265262625 27.574929876364767)"><path d="M257.2 41.59 C264.32 44.73, 272.08 48.36, 282.6 56.23 M258.2 40.97 C263.61 45.79, 271.85 49.06, 283.58 56.85" stroke="#000000" stroke-width="1" fill="none"></path></g></g><g stroke-linecap="round" transform="translate(1832.1071428571422 224.44047619047637) rotate(0 118.125 113.125)"><path d="M0.94 0.48 C83.19 -0.83, 167.44 -0.51, 237.4 1.28 M0.79 -0.11 C51.86 0.34, 103.96 0.36, 235.59 -0.51 M234.76 0.53 C235 81.28, 235.19 163.71, 237.88 226.61 M236.91 -0.19 C237.55 46.23, 236.91 90, 236.24 225.47 M236.95 226.69 C159 228.06, 79.04 226.23, 1.05 225.42 M236.45 226.65 C151.69 224.12, 66.3 224.44, -0.26 226.38 M-0.4 226.64 C0.28 159.98, 1.11 93.27, -0.07 -0.45 M0.35 227 C-1.12 176.34, -0.3 126.72, 0.32 0.72" stroke="#000000" stroke-width="1" fill="none"></path></g><g transform="translate(1785.8571428571422 314.5654761904764) rotate(0 11.5 23)"><text x="0" y="32" font-family="Virgil, Segoe UI Emoji" font-size="36px" fill="#000000" text-anchor="start" style="white-space: pre;" direction="ltr">&lt;</text></g><g transform="translate(2097.107142857142 314.5654761904764) rotate(0 9 23)"><text x="0" y="32" font-family="Virgil, Segoe UI Emoji" font-size="36px" fill="#000000" text-anchor="start" style="white-space: pre;" direction="ltr">&gt;</text></g><g stroke-linecap="round" transform="translate(1819.6071428571422 993.1904761904764) rotate(0 123.75 107.5)"><path d="M-0.98 1.46 C63.58 -1.67, 123.38 -1.17, 246.38 -1.13 M-0.2 -0.74 C52.09 2.04, 102.17 2.11, 248.24 0.66 M245.79 1.46 C246.23 50.67, 248.29 99.18, 247.48 213.44 M247.18 -0.37 C246.4 56.19, 247.27 110.21, 246.87 215.84 M247.57 214.57 C171.26 217.41, 97.26 215.17, 0.33 213.46 M247.08 214.37 C156.7 213.18, 66.06 213.97, 0.03 214.56 M-0.7 213.53 C-1.26 156.09, -0.96 100.75, 0.48 1.54 M-0.6 215.3 C-2.17 149.16, -1.9 82.29, -0.14 0.28" stroke="#000000" stroke-width="1" fill="none"></path></g><g stroke-linecap="round" transform="translate(1784.6071428571422 1256.9404761904764) rotate(0 69.375 15)"><path d="M-0.73 -0.86 C35.26 2.25, 73.09 -1.22, 137.32 1.93 M0.04 -0.26 C41.18 -0.01, 83.73 -1.38, 138.95 -0.94 M137.73 -1.54 C138.33 10.43, 138.57 23.36, 138.82 28.94 M138.35 -0.84 C138.16 7.13, 138.33 16.29, 139.02 30.88 M137.38 30.68 C93.85 30.95, 51.45 30.47, -0.33 30.64 M139.27 29.18 C91.75 31.04, 43.86 31.59, -0.27 29.78 M1.85 31.8 C0.24 19.54, 1.79 8.62, -1.67 1.55 M-0.45 30.65 C-0.32 17.89, -0.41 7.17, 0.54 -0.29" stroke="#000000" stroke-width="1" fill="none"></path></g><g stroke-linecap="round" transform="translate(1957.1071428571422 1256.9404761904764) rotate(0 69.375 15)"><path d="M1.08 -0.8 C32.57 -1.37, 66.76 -1.03, 139.31 0.55 M-0.67 -0.68 C54.16 -1.93, 108.57 -1.63, 139.45 -0.16 M139.72 1.04 C137.23 10.26, 139.61 18.74, 140.58 29.45 M139.17 0.92 C139.86 8.49, 139.27 17.61, 139.14 29.17 M139.06 29.1 C87.68 30.04, 32.85 29.85, 0.49 31.09 M139.05 29.17 C101.99 30.58, 62.97 30.98, -0.27 30.51 M-0.74 31.34 C1.03 20.44, -0.1 9.62, -0.97 -1.08 M0.2 30.17 C-0.49 22.47, 0.39 15.45, 0.71 -0.42" stroke="#000000" stroke-width="1" fill="none"></path></g><g stroke-linecap="round" transform="translate(1959.6071428571422 1311.9404761904764) rotate(0 69.375 15)"><path d="M-0.55 -0.44 C48.16 -0.82, 94.39 0.58, 140.55 0.3 M-0.83 0.77 C46.74 -0.19, 91.95 -0.99, 139.4 -0.22 M139.84 -0.57 C139.8 8.16, 139.26 12.91, 140.56 29.94 M139.26 0.62 C138.17 7.07, 138.49 15.98, 139.16 30.65 M137.67 29.15 C100.19 31.1, 60.19 29.68, -0.71 30.41 M138.33 30.48 C89.73 30.93, 41.29 30.35, -0.51 30.48 M-1.48 30.86 C-0.35 23.73, -0.11 18.89, -0.07 -0.68 M-0.47 29.04 C-0.04 19.09, 0.08 8.77, 0.32 0.61" stroke="#000000" stroke-width="1" fill="none"></path></g><g stroke-linecap="round" transform="translate(1790.8571428571422 1313.1904761904764) rotate(0 69.375 15)"><path d="M-0.9 0.74 C29.58 1.06, 61.47 -1.34, 137.58 -0.74 M-0.16 0.68 C50.46 -1.44, 101.46 -0.45, 139.64 0.2 M139.81 1.82 C140.06 8.68, 139.6 19, 138.64 31.07 M137.78 0.86 C139.07 6.36, 139.03 14.14, 138.66 30.07 M139.79 31.11 C88.81 28.59, 38.81 29.79, -0.7 30.5 M139.21 30.19 C99.11 29.88, 57.97 31.67, -0.1 30.9 M0.97 30.63 C0.1 22.79, -1.05 15.53, 0.96 -1.73 M0.9 30.38 C-0.96 21.63, 0.21 13.6, -0.5 -0.07" stroke="#000000" stroke-width="1" fill="none"></path></g><g transform="translate(1297.3333333333333 1479.4404761904764) rotate(0 118 23)"><text x="0" y="32" font-family="Virgil, Segoe UI Emoji" font-size="36px" fill="#000000" text-anchor="start" style="white-space: pre;" direction="ltr">Memory Game</text></g><g transform="translate(1339.8333333333333 1661.9404761904764) rotate(0 75.5 23)"><text x="0" y="32" font-family="Virgil, Segoe UI Emoji" font-size="36px" fill="#000000" text-anchor="start" style="white-space: pre;" direction="ltr">Hiragana</text></g><g transform="translate(1328.3333333333333 1751.9404761904764) rotate(0 87 23)"><text x="0" y="32" font-family="Virgil, Segoe UI Emoji" font-size="36px" fill="#000000" text-anchor="start" style="white-space: pre;" direction="ltr">Katakana</text></g><g stroke-linecap="round" transform="translate(1778.1071428571422 1701.6904761904764) rotate(0 155.625 141.875)"><path d="M-1.35 -1.32 C72.59 -0.61, 147.18 0.47, 312.47 -0.41 M-0.04 0.28 C120.32 0.02, 239.73 -0.02, 310.86 0.58 M312.54 -1.33 C314.19 73.08, 314.43 147.82, 312.19 284.91 M311.25 0.25 C310.65 70.82, 310.13 141.85, 311.23 283.25 M310.59 285.04 C232.76 284.55, 153.49 285.91, -1.2 284.47 M311.67 283.57 C227.17 285.24, 143.01 285.03, -0.16 283.69 M1.1 283.18 C-3.29 201.18, -2.52 115.93, 1.27 0.29 M0.16 283.42 C-1.17 204.31, 0.19 124.05, 0.73 0.6" stroke="#000000" stroke-width="1" fill="none"></path></g><g stroke-linecap="round" transform="translate(1804.3571428571422 1727.9404761904764) rotate(0 36.25 30)"><path d="M-0.93 1.81 C19.92 -1.32, 38.76 0.59, 70.82 1 M0.59 -0.25 C19.3 -1.28, 38.49 -1.57, 72.28 -0.08 M73.95 -0.76 C71.59 18.68, 72.6 33.84, 74.17 60.38 M72.71 -0.44 C71.69 17.68, 73.47 34.29, 73.46 60.79 M71.54 61.36 C55.14 61.11, 38.4 58.36, 0.11 58.55 M72.34 60.24 C56.71 59.16, 42.47 60.54, -0.94 60.28 M-0.36 61.81 C1.49 44.3, -0.2 31.56, -0.94 -0.84 M-0.86 59.12 C0.68 36.28, -0.41 12.46, 0.27 -0.89" stroke="#000000" stroke-width="1" fill="none"></path></g><g stroke-linecap="round" transform="translate(1805.6071428571422 1806.6904761904764) rotate(0 36.25 30)"><path d="M-1.78 1.86 C17.12 -1.13, 32.29 1.29, 74.22 -0.77 M0.53 -0.92 C24.54 1.14, 48.58 0.94, 72.26 -0.65 M71.8 -0.57 C73.4 11.59, 70.31 23.16, 73.74 61.51 M71.88 -0.81 C71.57 23.34, 71.49 47.1, 72.37 59.16 M72.93 59.88 C51.09 60.59, 28.34 59.59, -0.57 59.71 M72.92 60.78 C53.67 58.58, 37.38 59.35, 0.48 60.46 M0.71 59.76 C1.32 42.76, -1.88 26.68, 0.91 -1.51 M-0.79 60.71 C0.78 40.94, -0.74 21.51, 0.75 -0.56" stroke="#000000" stroke-width="1" fill="none"></path></g><g stroke-linecap="round" transform="translate(1805.6071428571422 1889.1904761904764) rotate(0 36.25 30)"><path d="M-1.95 1.75 C24.39 1.56, 50.51 0.05, 73.3 0.54 M-0.45 -0.82 C23.99 -0.11, 47.86 -0.31, 72.41 -0.71 M73.39 -1.59 C73.97 14.74, 71.8 26.36, 71.47 60 M73.44 0.6 C73.45 11.8, 71.93 25.66, 72.73 59.65 M73.95 59.38 C51.65 58.7, 32.93 58.78, -0.67 61.06 M71.69 59.15 C48.89 60.01, 23.96 58.79, -0.92 59 M0.8 61.56 C0.92 35.43, -0.31 13.44, 0.9 -0.68 M0.5 60.09 C0.66 37.77, -0.63 14.65, 0.53 0.16" stroke="#000000" stroke-width="1" fill="none"></path></g><g stroke-linecap="round" transform="translate(1893.1071428571422 1726.6904761904764) rotate(0 36.25 30)"><path d="M-1.51 1.05 C27.52 -1.14, 57.7 0.66, 72.14 0.42 M-0.94 0.76 C16.19 0.76, 31.64 1.1, 71.8 -0.23 M71.81 0.81 C71.46 18.58, 72.32 39.61, 70.68 60.6 M71.87 -0.66 C72.7 17.21, 71.46 33.26, 71.8 60.51 M74.3 58.1 C57.63 59.83, 41.61 59.82, 1.8 58.51 M72.73 59.68 C54.5 58.63, 38.48 58.47, 0.93 60.78 M1.72 59.23 C0.39 46.33, -1.17 30.64, -1.84 0.2 M-0.24 59.35 C-0.81 36.24, -0.13 13.52, -0.29 0.66" stroke="#000000" stroke-width="1" fill="none"></path></g><g stroke-linecap="round" transform="translate(1894.3571428571422 1805.4404761904764) rotate(0 36.25 30)"><path d="M1.86 1.56 C15.55 1.81, 34.46 2.37, 71.73 0.74 M-0.92 0.1 C28.17 -0.68, 55.29 -0.62, 71.85 -0.99 M71.93 1.32 C71.85 12.06, 71.35 28.9, 74.01 61.9 M71.69 -0.66 C72.38 14.53, 72.43 30.41, 71.66 59.96 M72.38 60.03 C57.34 58.89, 40.97 59.59, -0.29 58.97 M73.28 59.18 C47.81 61.18, 24.87 60.79, 0.46 59.72 M-0.24 61.55 C-1.06 37.96, -0.79 20.13, -1.51 0.5 M0.71 60.72 C0.87 41.77, 0.95 25.87, -0.56 -0.07" stroke="#000000" stroke-width="1" fill="none"></path></g><g stroke-linecap="round" transform="translate(1894.3571428571422 1887.9404761904764) rotate(0 36.25 30)"><path d="M1.75 -0.4 C28.38 1.63, 54.28 1.5, 73.04 0.71 M-0.82 -0.31 C21.34 -0.43, 42.02 0.23, 71.79 -0.79 M70.91 1.05 C74.42 21.14, 72.8 43.49, 72.5 58.21 M73.1 0.95 C71.81 17.43, 73.06 36.23, 72.15 59.78 M71.88 59.29 C53.71 61.24, 36.48 59.86, 1.06 60.6 M71.65 60.31 C49.98 58.71, 25.69 58.49, -1 60.86 M1.56 60.97 C-1.6 41.26, -0.42 23.95, -0.68 1.68 M0.09 60.63 C0.99 41.66, 0.91 25.17, 0.16 -0.89" stroke="#000000" stroke-width="1" fill="none"></path></g><g stroke-linecap="round" transform="translate(1985.6071428571422 1729.1904761904764) rotate(0 36.25 30)"><path d="M0.81 -0.75 C16.32 0.36, 35.09 -1.57, 73.1 -0.5 M-0.66 0.3 C21.29 -0.49, 41.42 -0.25, 73.01 -0.93 M70.6 0.1 C72.22 15.97, 72.2 35.61, 71.01 58.73 M72.18 -0.85 C71.24 13.12, 71.08 26.63, 73.28 59.54 M71.73 60.74 C48.09 59.8, 21.66 58.79, 0.2 61.69 M71.85 59.01 C52.16 59.52, 32.87 59.54, 0.66 59.76 M1.51 61.9 C-0.62 48.15, -0.95 33, -1.32 -0.73 M-0.84 59.96 C-0.69 46.95, 0.41 32.8, 0.02 0.11" stroke="#000000" stroke-width="1" fill="none"></path></g><g stroke-linecap="round" transform="translate(1986.8571428571422 1807.9404761904764) rotate(0 36.25 30)"><path d="M1.56 -0.93 C24.87 0.82, 49.16 -1.44, 73.24 1.54 M0.1 0.84 C18.47 1.31, 37.29 0.02, 71.51 -0.69 M73.82 -0.47 C70.52 15.21, 73.52 33.86, 74.4 59.09 M71.84 -0.37 C71.39 20.2, 72 40.18, 72.46 59.12 M72.53 60.22 C45.68 59.17, 20.84 59.67, -1.03 60.54 M71.68 59.02 C56.09 60.36, 38.41 61.03, -0.28 60.4 M1.55 59.1 C-1.85 39.74, 0.7 19.23, 0.5 -0.19 M0.72 60.44 C-0.32 46.81, 1.22 32.01, -0.07 -0.51" stroke="#000000" stroke-width="1" fill="none"></path></g><g stroke-linecap="round" transform="translate(1986.8571428571422 1890.4404761904764) rotate(0 36.25 30)"><path d="M-0.4 0.96 C16.7 -1.19, 32.35 -0.09, 73.21 -0.24 M-0.31 0.46 C26.63 0.85, 54.68 -0.12, 71.71 0.71 M73.55 1.49 C71.64 22.2, 71.74 44.68, 70.71 60 M73.45 -0.82 C72.5 19.75, 73.3 38.3, 72.28 59.39 M71.79 58.52 C49.74 58.38, 24.88 60.83, 0.6 60.36 M72.81 60.55 C55.44 58.71, 38.87 58.38, 0.86 60.08 M0.97 58.6 C-0.51 39.81, 0.66 19.39, 1.68 -0.11 M0.63 60.81 C-0.96 44.51, 0.23 27.73, -0.89 -0.83" stroke="#000000" stroke-width="1" fill="none"></path></g><g transform="translate(1868.1071428571422 2019.4404761904764) rotate(0 67 23)"><text x="0" y="32" font-family="Virgil, Segoe UI Emoji" font-size="36px" fill="#000000" text-anchor="start" style="white-space: pre;" direction="ltr">Turn: 0</text></g><g stroke-linecap="round"><g transform="translate(1630.6071428571422 1700.4404761904764) rotate(0 44.416703444067366 39.833084697462596)"><path d="M-0.16 -0.13 C14.83 13.27, 75.34 66.25, 90.54 79.59 M-1.7 -1.25 C13.13 12.4, 74.46 67.17, 89.87 80.91" stroke="#000000" stroke-width="1" fill="none"></path></g><g transform="translate(1630.6071428571422 1700.4404761904764) rotate(0 44.416703444067366 39.833084697462596)"><path d="M61.79 70.69 C70.96 75.38, 81.24 76.98, 90.88 81.1 M62.74 70.32 C72.36 73.12, 81.48 78.22, 90.84 80.08" stroke="#000000" stroke-width="1" fill="none"></path></g><g transform="translate(1630.6071428571422 1700.4404761904764) rotate(0 44.416703444067366 39.833084697462596)"><path d="M75.46 55.38 C79.75 65.39, 85.28 72.33, 90.88 81.1 M76.41 55.01 C81.2 63.27, 85.36 73.92, 90.84 80.08" stroke="#000000" stroke-width="1" fill="none"></path></g></g><g transform="translate(2280.607142857142 1750.6904761904764) rotate(0 176 45.5)"><text x="176" y="32.5" font-family="Virgil, Segoe UI Emoji" font-size="36px" fill="#000000" text-anchor="middle" style="white-space: pre;" direction="ltr">You completed it in </text><text x="176" y="78" font-family="Virgil, Segoe UI Emoji" font-size="36px" fill="#000000" text-anchor="middle" style="white-space: pre;" direction="ltr">N turns</text></g><g stroke-linecap="round"><g transform="translate(2131.857142857142 1841.6904761904764) rotate(0 57.6303645494022 -0.0007084008306605938)"><path d="M-0.15 1.13 C19.24 1.02, 97.4 -0.89, 116.95 -1.13 M-1.69 0.67 C17.45 0.82, 96.06 0.95, 115.72 0.47" stroke="#000000" stroke-width="1" fill="none"></path></g><g transform="translate(2131.857142857142 1841.6904761904764) rotate(0 57.6303645494022 -0.0007084008306605938)"><path d="M89.5 10.08 C97.65 6.87, 108.8 4.42, 116.7 -1.16 M87.24 10.79 C95.13 7.07, 103.91 5.05, 116.37 0.68" stroke="#000000" stroke-width="1" fill="none"></path></g><g transform="translate(2131.857142857142 1841.6904761904764) rotate(0 57.6303645494022 -0.0007084008306605938)"><path d="M89.31 -10.44 C97.45 -6.5, 108.66 -1.81, 116.7 -1.16 M87.05 -9.73 C94.86 -7.84, 103.69 -4.24, 116.37 0.68" stroke="#000000" stroke-width="1" fill="none"></path></g></g><g transform="translate(2328.357142857142 1014.4404761904764) rotate(0 121 45.5)"><text x="121" y="32.5" font-family="Virgil, Segoe UI Emoji" font-size="36px" fill="#000000" text-anchor="middle" style="white-space: pre;" direction="ltr">4 of 20 are </text><text x="121" y="78" font-family="Virgil, Segoe UI Emoji" font-size="36px" fill="#000000" text-anchor="middle" style="white-space: pre;" direction="ltr">correct</text></g><g stroke-linecap="round"><g transform="translate(2145.607142857142 1085.4404761904764) rotate(0 46.0235010290703 -0.18745009340346996)"><path d="M0.64 1.02 C15.73 0.7, 75.13 -1.06, 90.32 -1.39 M-0.49 0.51 C15 0.34, 77.25 0.07, 92.54 0.07" stroke="#000000" stroke-width="1" fill="none"></path></g><g transform="translate(2145.607142857142 1085.4404761904764) rotate(0 46.0235010290703 -0.18745009340346996)"><path d="M66.07 8.85 C71.93 8.18, 80.48 5.95, 94.19 -1.67 M63.65 10.35 C69.9 7.28, 76.88 6.75, 92.83 1.06" stroke="#000000" stroke-width="1" fill="none"></path></g><g transform="translate(2145.607142857142 1085.4404761904764) rotate(0 46.0235010290703 -0.18745009340346996)"><path d="M66.02 -11.67 C71.97 -6.64, 80.54 -3.15, 94.19 -1.67 M63.59 -10.17 C69.86 -8.97, 76.85 -5.23, 92.83 1.06" stroke="#000000" stroke-width="1" fill="none"></path></g></g></svg>