<svg width="100" height="100" viewBox="0 0 100 100" fill="none" xmlns="http://www.w3.org/2000/svg">
<path d="M49.664 14.38L38.744 14.128C38.828 15.556 38.66 17.572 38.576 19.168C38.408 20.596 38.24 22.108 38.072 23.704C36.98 23.704 35.888 23.704 34.712 23.704C29.588 23.704 22.196 23.032 19.256 22.528L19.508 32.272C23.456 32.44 30.008 32.776 34.376 32.776C35.3 32.776 36.14 32.776 37.064 32.776C36.728 36.22 36.476 39.748 36.308 43.36C24.548 48.904 15.644 60.16 15.644 70.996C15.644 79.48 20.852 83.176 26.984 83.176C31.436 83.176 35.888 81.832 40.004 79.816C40.34 80.992 40.76 82.168 41.096 83.26L50.756 80.32C50.084 78.304 49.412 76.204 48.824 74.104C55.208 68.812 61.928 59.992 66.464 48.568C72.26 50.836 75.2 55.288 75.2 60.328C75.2 68.56 68.648 76.792 52.436 78.556L57.98 87.376C78.644 84.268 85.616 72.76 85.616 60.832C85.616 51.088 79.148 43.444 69.404 40.252C69.908 38.656 70.58 36.892 70.916 35.968L60.668 33.532C60.584 34.792 60.248 36.892 59.912 38.572C59.408 38.572 58.904 38.572 58.4 38.572C54.284 38.572 49.916 39.16 45.884 40.084C45.968 37.564 46.22 34.96 46.472 32.44C56.804 32.02 68.06 31.012 76.292 29.5L76.208 19.756C66.968 21.94 57.896 23.032 47.648 23.452C47.9 21.772 48.236 20.26 48.488 18.832C48.824 17.572 49.16 16.06 49.664 14.38ZM25.556 68.812C25.556 64.024 29.756 57.64 36.056 53.356C36.224 59.152 36.896 64.948 37.82 70.156C34.796 71.92 31.772 72.928 29.42 72.928C26.732 72.928 25.556 71.5 25.556 68.812ZM45.548 49.24V48.988C48.824 47.98 52.688 47.224 57.14 47.14C54.284 53.944 50.504 59.068 46.556 63.184C45.884 58.984 45.548 54.364 45.548 49.24Z" fill="black"/>
</svg>
