<svg width="100" height="100" viewBox="0 0 100 100" fill="none" xmlns="http://www.w3.org/2000/svg">
<path d="M29.84 21.94L16.904 21.772C17.408 24.376 17.576 27.988 17.576 30.34C17.576 35.464 17.66 45.292 18.5 53.02C20.852 75.532 28.832 83.848 38.072 83.848C44.792 83.848 50.084 78.724 55.628 64.108L47.228 53.86C45.632 60.58 42.272 70.408 38.324 70.408C33.032 70.408 30.512 62.092 29.336 49.996C28.832 43.948 28.748 37.648 28.832 32.188C28.832 29.836 29.252 24.964 29.84 21.94ZM71.84 23.872L61.172 27.316C70.328 37.732 74.78 58.144 76.124 71.668L87.128 67.384C86.204 54.532 79.82 33.532 71.84 23.872Z" fill="black"/>
</svg>
