<svg width="100" height="100" viewBox="0 0 100 100" fill="none" xmlns="http://www.w3.org/2000/svg">
<path d="M65.54 54.532C65.54 67.636 52.1 74.524 31.268 76.876L37.316 87.292C60.668 84.1 77.3 72.928 77.3 54.952C77.3 41.764 67.976 34.204 54.704 34.204C44.876 34.204 35.468 36.64 29.336 38.068C26.564 38.656 22.952 39.244 20.096 39.496L23.288 51.508C25.724 50.584 29 49.24 31.436 48.568C35.72 47.308 44.036 44.452 53.276 44.452C61.172 44.452 65.54 48.988 65.54 54.532ZM32.528 14.212L30.848 24.292C40.508 25.972 58.736 27.652 68.564 28.324L70.244 17.992C61.34 17.908 42.272 16.312 32.528 14.212Z" fill="black"/>
</svg>
