<svg width="100" height="100" viewBox="0 0 100 100" fill="none" xmlns="http://www.w3.org/2000/svg">
<path d="M34.208 13.876L32.612 23.62C42.608 25.3 58.316 27.148 67.136 27.82L68.48 17.992C59.744 17.404 43.616 15.64 34.208 13.876ZM71.42 40.588L65.288 33.616C64.364 33.952 62.096 34.372 60.5 34.54C53.528 35.464 34.46 36.304 30.512 36.304C27.404 36.388 24.38 36.22 22.448 36.052L23.456 47.644C25.22 47.392 27.74 46.972 30.68 46.72C35.468 46.3 45.548 45.376 51.428 45.208C43.784 53.272 26.564 70.408 22.28 74.776C20.012 76.96 17.996 78.724 16.484 79.984L26.396 86.956C32.192 79.564 38.492 72.676 41.348 69.736C43.364 67.72 45.128 66.376 46.892 66.376C48.572 66.376 50.42 67.468 51.344 70.408C51.932 72.508 52.94 76.456 53.78 78.976C55.88 84.436 60.164 86.2 68.144 86.2C72.512 86.2 81.164 85.612 84.608 84.94L85.28 73.936C81.08 74.776 75.284 75.448 68.816 75.448C65.54 75.448 63.692 74.104 62.936 71.5C62.18 69.316 61.256 66.124 60.5 63.856C59.408 60.748 57.896 58.9 55.46 58.144C54.536 57.808 53.024 57.472 52.268 57.556C54.284 55.372 62.096 48.148 65.96 44.872C67.472 43.612 69.236 42.1 71.42 40.588Z" fill="black"/>
</svg>
