<svg width="100" height="100" viewBox="0 0 100 100" fill="none" xmlns="http://www.w3.org/2000/svg">
<path d="M46.808 15.64L34.292 14.38C34.376 19.672 33.704 25.804 32.528 32.188C28.244 32.524 24.296 32.776 21.692 32.86C18.584 32.944 15.728 33.112 12.704 32.86L13.712 44.284C16.232 43.864 20.684 43.276 23.036 42.856C24.632 42.688 27.236 42.352 30.26 42.016C27.236 53.524 21.44 70.492 13.292 81.496L24.212 85.864C31.94 73.516 38.156 53.608 41.348 40.84C43.7 40.672 45.8 40.504 47.144 40.504C52.436 40.504 55.292 41.428 55.292 48.148C55.292 56.464 54.2 66.628 51.932 71.416C50.588 74.188 48.404 75.028 45.632 75.028C43.364 75.028 38.576 74.188 35.3 73.264L37.148 84.352C40.004 84.94 43.952 85.528 47.228 85.528C53.528 85.528 58.232 83.68 61.004 77.8C64.616 70.492 65.792 56.884 65.792 46.972C65.792 34.876 59.492 30.928 50.588 30.928C48.824 30.928 46.304 31.096 43.532 31.264C44.12 28.24 44.708 25.132 45.296 22.612C45.716 20.512 46.304 17.824 46.808 15.64ZM75.704 23.536L65.708 27.82C71.672 35.212 77.636 50.416 79.82 59.74L90.488 54.784C87.968 46.804 80.912 30.76 75.704 23.536Z" fill="black"/>
</svg>
