<svg width="100" height="100" viewBox="0 0 100 100" fill="none" xmlns="http://www.w3.org/2000/svg">
<path d="M46.22 16.228L33.704 14.968C33.872 20.26 33.116 26.392 31.94 32.692C27.656 33.112 23.708 33.364 21.104 33.448C17.996 33.532 15.224 33.7 12.116 33.448L13.124 44.872C15.728 44.452 20.096 43.864 22.532 43.444C24.044 43.276 26.732 42.94 29.756 42.604C26.648 54.112 20.852 71.08 12.704 82.084L23.624 86.452C31.352 74.104 37.568 54.196 40.76 41.428C43.196 41.26 45.296 41.092 46.64 41.092C51.848 41.092 54.788 42.016 54.788 48.736C54.788 57.052 53.612 67.216 51.344 72.004C50 74.776 47.9 75.616 45.044 75.616C42.86 75.616 37.988 74.776 34.796 73.852L36.56 84.94C39.416 85.528 43.448 86.116 46.64 86.116C53.024 86.116 57.644 84.268 60.416 78.388C64.028 71.08 65.204 57.472 65.204 47.56C65.204 35.464 58.904 31.516 50 31.516C48.236 31.516 45.8 31.684 42.944 31.852C43.532 28.828 44.204 25.72 44.708 23.2C45.128 21.1 45.716 18.412 46.22 16.228ZM83.6 9.256L76.88 11.944C79.232 15.136 81.92 20.092 83.684 23.536L90.32 20.68C88.892 17.74 85.784 12.448 83.6 9.256ZM73.604 13.036L66.968 15.808C68.9 18.496 71 22.528 72.68 25.72L65.12 28.996C71.084 36.388 77.048 51.172 79.232 60.496L89.9 55.624C87.548 48.148 81.248 34.12 76.208 26.308L80.324 24.544C78.728 21.436 75.704 16.144 73.604 13.036Z" fill="black"/>
</svg>
