<svg width="100" height="100" viewBox="0 0 100 100" fill="none" xmlns="http://www.w3.org/2000/svg">
<path d="M20.264 39.328L20.852 49.24C33.536 49.996 47.06 49.996 57.392 49.324C58.736 52.18 60.332 55.12 62.096 58.06C59.576 57.808 55.04 57.388 51.512 57.052L50.672 65.032C56.804 65.704 65.876 66.796 70.58 67.72L75.704 59.992C74.192 58.564 73.016 57.304 71.924 55.708C70.412 53.524 68.984 50.92 67.556 48.232C72.596 47.56 77.132 46.636 80.996 45.628L79.316 35.716C75.2 36.808 70.16 38.236 63.272 39.076C62.768 37.732 62.264 36.472 61.844 35.296C61.424 34.036 61.004 32.692 60.584 31.348C66.128 30.592 71.42 29.5 76.04 28.24L74.696 18.58C69.32 20.26 63.944 21.436 58.148 22.192C57.56 19.336 57.056 16.396 56.636 13.372L45.38 14.632C46.388 17.572 47.228 20.26 48.068 22.948C40.34 23.2 31.772 22.864 21.776 21.688L22.364 31.348C32.948 32.356 42.776 32.524 50.672 32.104C51.176 33.532 51.68 35.128 52.352 37.06C52.688 37.984 53.024 38.992 53.444 40C44.12 40.588 32.78 40.504 20.264 39.328ZM36.392 58.816L25.976 56.8C24.044 60.832 22.196 64.948 22.364 70.324C22.532 82.336 32.948 87.292 49.748 87.292C56.636 87.292 64.28 86.704 70.16 85.696L70.748 75.028C64.784 76.204 57.644 76.876 49.664 76.876C38.576 76.876 32.696 74.356 32.696 68.14C32.696 64.528 34.376 61.588 36.392 58.816Z" fill="black"/>
</svg>
