<svg width="200" height="100" viewBox="0 0 200 100" fill="none" xmlns="http://www.w3.org/2000/svg">
<path d="M29.776 26.772L30.364 36.348C43.132 37.608 54.724 37.524 63.376 36.852C70.684 36.348 77.992 34.92 84.04 33.24L82.696 23.664C75.724 25.848 68.836 27.192 61.192 27.696C52.288 28.368 42.04 28.2 29.776 26.772ZM28.264 44.328L28.852 54.24C43.972 55.248 60.352 54.996 70.936 53.82C77.74 53.064 83.956 51.888 88.996 50.628L87.316 40.716C82.444 42.144 76.144 43.824 67.072 44.58C56.992 45.588 43.384 45.84 28.264 44.328ZM56.32 29.124C57.412 33.156 58.252 36.18 60.352 42.144C62.452 48.276 65.56 55.584 70.012 63.06C67.576 62.808 62.956 62.388 59.428 62.052L58.588 70.116C64.72 70.788 73.876 71.796 78.58 72.804L83.62 65.076C82.108 63.648 81.016 62.388 79.84 60.708C75.976 54.828 71.86 46.176 69.844 40.296C67.66 33.828 65.56 26.436 64.552 18.372L53.296 19.632C54.472 22.908 55.48 26.016 56.32 29.124ZM44.392 63.9L33.976 61.884C31.96 65.832 30.196 69.948 30.28 75.408C30.532 87.336 40.948 92.292 57.664 92.292C64.552 92.292 72.28 91.704 78.16 90.78L78.748 80.112C72.7 81.288 65.56 81.876 57.664 81.876C46.492 81.876 40.612 79.356 40.612 73.14C40.612 69.528 42.376 66.672 44.392 63.9ZM147.712 33.744H136.288C136.708 35.34 137.044 38.868 137.044 42.144C137.044 45 137.044 50.712 137.044 53.988C137.044 61.128 137.884 72.3 137.884 78.516C137.884 82.38 136.036 84.396 132.256 84.396C127.636 84.396 124.612 82.464 124.612 80.028C124.612 77.34 127.552 75.576 132.844 75.576C145.276 75.576 155.692 83.976 162.328 90.78L168.04 81.624C161.404 75.408 148.888 67.26 134.104 67.26C121.924 67.26 115.036 72.468 115.036 80.532C115.036 89.436 123.352 93.72 133.516 93.72C144.772 93.72 148.216 88.008 148.216 81.876C148.216 76.416 147.04 61.716 147.04 54.828C147.04 50.964 147.04 44.664 147.04 41.976C147.04 39.036 147.376 35.424 147.712 33.744ZM142.42 46.008L142.504 55.08C146.536 55.08 159.22 54.66 166.612 54.072L166.36 44.748C158.884 45.588 146.368 46.008 142.42 46.008Z" fill="black"/>
</svg>
