<svg width="200" height="100" viewBox="0 0 200 100" fill="none" xmlns="http://www.w3.org/2000/svg">
<g clip-path="url(#clip0_212_261)">
<path d="M37.776 21.772L38.364 31.348C51.132 32.608 62.724 32.524 71.376 31.852C78.684 31.348 85.992 29.92 92.04 28.24L90.696 18.664C83.724 20.848 76.836 22.192 69.192 22.696C60.288 23.368 50.04 23.2 37.776 21.772ZM36.264 39.328L36.852 49.24C51.972 50.248 68.352 49.996 78.936 48.82C85.74 48.064 91.956 46.888 96.996 45.628L95.316 35.716C90.444 37.144 84.144 38.824 75.072 39.58C64.992 40.588 51.384 40.84 36.264 39.328ZM64.32 24.124C65.412 28.156 66.252 31.18 68.352 37.144C70.452 43.276 73.56 50.584 78.012 58.06C75.576 57.808 70.956 57.388 67.428 57.052L66.588 65.116C72.72 65.788 81.876 66.796 86.58 67.804L91.62 60.076C90.108 58.648 89.016 57.388 87.84 55.708C83.976 49.828 79.86 41.176 77.844 35.296C75.66 28.828 73.56 21.436 72.552 13.372L61.296 14.632C62.472 17.908 63.48 21.016 64.32 24.124ZM52.392 58.9L41.976 56.884C39.96 60.832 38.196 64.948 38.28 70.408C38.532 82.336 48.948 87.292 65.664 87.292C72.552 87.292 80.28 86.704 86.16 85.78L86.748 75.112C80.7 76.288 73.56 76.876 65.664 76.876C54.492 76.876 48.612 74.356 48.612 68.14C48.612 64.528 50.376 61.672 52.392 58.9ZM150 39.916L157.56 34.456C155.544 32.188 150.756 28.072 148.32 26.476L140.844 31.936C143.952 34.12 147.564 37.312 150 39.916ZM132.864 33.028L122.364 37.06C123.96 38.908 125.472 41.344 126.396 42.94C129 47.308 132.696 55.372 135.3 61.756C138.408 69.484 142.44 81.076 144.456 89.56L155.04 86.956C152.688 79.48 147.816 65.032 144.624 57.64C142.188 51.76 137.82 42.604 135.384 37.984C134.796 36.808 133.704 34.624 132.864 33.028ZM115.812 53.104L120.6 63.268C126.984 60.412 151.26 46.888 162.012 46.888C167.304 46.888 169.824 49.66 169.824 52.516C169.824 56.884 166.968 59.74 161.088 59.74C158.4 59.74 154.62 58.9 151.596 57.472L151.344 67.216C153.78 68.14 158.232 69.316 161.844 69.316C174.444 69.316 180.156 62.848 180.156 52.432C180.156 45.124 174.696 37.48 162.432 37.48C152.268 37.48 135.72 45.964 123.288 50.836C122.196 51.256 119.004 52.264 115.812 53.104Z" fill="black"/>
</g>
<defs>
<clipPath id="clip0_212_261">
<rect width="200" height="100" fill="white"/>
</clipPath>
</defs>
</svg>
