<svg width="100" height="100" viewBox="0 0 100 100" fill="none" xmlns="http://www.w3.org/2000/svg">
<path d="M72.932 13.372L66.716 15.976C69.32 19.672 71.084 23.032 73.268 27.568L79.568 24.796C77.972 21.436 74.948 16.396 72.932 13.372ZM82.172 9.592L76.04 12.364C78.812 16.06 80.66 19.168 82.928 23.704L89.228 20.68C87.464 17.488 84.356 12.532 82.172 9.592ZM17.156 39.664L17.744 49.576C30.428 50.332 43.952 50.332 54.2 49.66C55.628 52.516 57.14 55.456 58.904 58.396C56.468 58.144 51.848 57.724 48.404 57.388L47.564 65.452C53.612 66.04 62.768 67.132 67.472 68.056L72.512 60.412C71 58.984 69.908 57.724 68.732 56.044C67.304 53.86 65.792 51.256 64.448 48.568C69.488 47.896 74.024 46.972 77.888 45.964L76.208 36.052C72.092 37.228 67.052 38.656 60.164 39.496C59.66 38.152 59.156 36.808 58.736 35.632C58.316 34.372 57.896 33.028 57.476 31.684C62.264 31.096 66.128 30.256 69.32 29.5L67.976 19.84C64.7 20.848 60.332 21.94 55.04 22.612C54.368 19.756 53.864 16.732 53.444 13.708L42.188 14.968C43.196 17.824 44.12 20.596 44.876 23.284C37.232 23.536 28.664 23.2 18.668 22.108L19.256 31.684C29.84 32.692 39.584 32.86 47.564 32.44C48.068 33.952 48.572 35.548 49.244 37.48C49.58 38.404 49.916 39.412 50.252 40.336C41.012 40.924 29.672 40.84 17.156 39.664ZM33.284 59.152L22.868 57.22C20.936 61.168 19.088 65.284 19.172 70.744C19.424 82.672 29.84 87.628 46.64 87.628C53.528 87.628 61.172 87.04 67.052 86.116L67.64 75.364C61.676 76.624 54.452 77.212 46.556 77.212C35.468 77.212 29.588 74.692 29.588 68.476C29.588 64.864 31.268 61.924 33.284 59.152Z" fill="black"/>
</svg>
