<svg width="200" height="100" viewBox="0 0 200 100" fill="none" xmlns="http://www.w3.org/2000/svg">
<path d="M82.1195 18.456L75.9875 20.976C78.5915 24.756 80.3555 28.032 82.4555 32.652L88.8395 29.796C87.2435 26.52 84.2195 21.396 82.1195 18.456ZM91.4435 14.592L85.3115 17.448C87.9995 21.06 89.9315 24.252 92.1995 28.788L98.4995 25.764C96.7355 22.488 93.5435 17.532 91.4435 14.592ZM27.9395 27.108L28.4435 36.768C41.2115 37.944 52.8035 37.944 61.5395 37.272C68.8475 36.684 74.2235 35.592 78.5915 34.5L77.2475 24.924C72.8795 26.268 66.9995 27.528 59.3555 28.116C50.4515 28.788 40.2035 28.536 27.9395 27.108ZM26.4275 44.748L26.9315 54.576C42.1355 55.584 58.4315 55.416 69.0995 54.24C75.9035 53.4 82.0355 52.308 87.0755 51.048L85.4795 41.052C80.6075 42.48 74.2235 44.16 65.2355 45C55.1555 46.008 41.5475 46.176 26.4275 44.748ZM54.3995 29.46C55.4915 33.576 56.4155 36.6 58.4315 42.48C60.6155 48.612 63.6395 55.92 68.1755 63.396C65.6555 63.228 61.1195 62.808 57.5915 62.472L56.7515 70.452C62.8835 71.124 71.9555 72.132 76.6595 73.14L81.7835 65.412C80.2715 63.984 79.0955 62.724 78.0035 61.044C74.1395 55.164 69.9395 46.512 68.0075 40.716C65.7395 34.164 63.7235 26.772 62.7155 18.792L51.4595 19.968C52.6355 23.244 53.5595 26.352 54.3995 29.46ZM42.4715 64.236L32.0555 62.22C30.1235 66.168 28.2755 70.284 28.4435 75.744C28.6115 87.672 39.0275 92.712 55.8275 92.712C62.7155 92.712 70.4435 92.04 76.3235 91.116L76.9115 80.448C70.8635 81.624 63.7235 82.296 55.8275 82.296C44.6555 82.296 38.7755 79.692 38.7755 73.56C38.7755 69.948 40.4555 67.008 42.4715 64.236ZM125.609 38.532L114.773 37.776C114.857 38.784 114.773 40.548 114.689 42.06C114.101 46.26 112.925 55.164 112.925 63.564C112.925 70.368 114.017 77.76 115.529 82.548L124.517 81.372C124.181 79.524 123.761 75.324 123.761 74.064C123.677 72.804 123.761 71.964 124.013 70.788C125.525 61.716 134.429 50.712 148.709 50.712C158.201 50.712 161.897 55.584 161.897 61.8C161.897 69.192 158.033 74.148 148.457 74.148C141.149 74.148 136.613 69.864 133.337 63.648L127.961 71.376C132.245 80.028 140.813 84.144 148.877 84.144C164.165 84.144 171.809 73.812 171.809 61.716C171.809 50.544 163.577 41.892 149.213 41.892C139.133 41.892 128.213 46.764 122.249 56.676C122.333 52.056 123.425 46.512 124.265 42.984C124.601 41.892 125.021 40.044 125.609 38.532ZM149.801 33.996L139.553 34.164C140.057 35.676 140.477 37.104 140.813 38.7C141.737 43.404 142.577 50.796 142.577 59.112C142.577 69.864 140.645 82.296 128.717 89.604L137.873 94.896C149.381 86.412 152.069 73.056 152.069 59.952C152.069 49.536 150.641 39.036 149.801 33.996Z" fill="black"/>
</svg>
