<svg width="200" height="100" viewBox="0 0 200 100" fill="none" xmlns="http://www.w3.org/2000/svg">
<path d="M82.9398 18.456L76.8078 20.976C79.4118 24.756 81.1758 28.032 83.2758 32.652L89.6598 29.796C88.0638 26.52 85.0398 21.396 82.9398 18.456ZM92.2638 14.592L86.1318 17.448C88.8198 21.06 90.7518 24.252 93.0198 28.788L99.3198 25.764C97.5558 22.488 94.3638 17.532 92.2638 14.592ZM28.7598 27.108L29.2638 36.768C42.0318 37.944 53.6238 37.944 62.3598 37.272C69.6678 36.684 75.0438 35.592 79.4118 34.5L78.0678 24.924C73.6998 26.268 67.8198 27.528 60.1758 28.116C51.2718 28.788 41.0238 28.536 28.7598 27.108ZM27.2478 44.748L27.7518 54.576C42.9558 55.584 59.2518 55.416 69.9198 54.24C76.7238 53.4 82.8558 52.308 87.8958 51.048L86.2998 41.052C81.4278 42.48 75.0438 44.16 66.0558 45C55.9758 46.008 42.3678 46.176 27.2478 44.748ZM55.2198 29.46C56.3118 33.576 57.2358 36.6 59.2518 42.48C61.4358 48.612 64.4598 55.92 68.9958 63.396C66.4758 63.228 61.9398 62.808 58.4118 62.472L57.5718 70.452C63.7038 71.124 72.7758 72.132 77.4798 73.14L82.6038 65.412C81.0918 63.984 79.9158 62.724 78.8238 61.044C74.9598 55.164 70.7598 46.512 68.8278 40.716C66.5598 34.164 64.5438 26.772 63.5358 18.792L52.2798 19.968C53.4558 23.244 54.3798 26.352 55.2198 29.46ZM43.2918 64.236L32.8758 62.22C30.9438 66.168 29.0958 70.284 29.2638 75.744C29.4318 87.672 39.8478 92.712 56.6478 92.712C63.5358 92.712 71.2638 92.04 77.1438 91.116L77.7318 80.448C71.6838 81.624 64.5438 82.296 56.6478 82.296C45.4758 82.296 39.5958 79.692 39.5958 73.56C39.5958 69.948 41.2758 67.008 43.2918 64.236ZM145.62 33.744H134.196C134.616 35.34 134.952 38.868 134.952 42.144C134.952 45 134.952 50.712 134.952 53.988C134.952 61.128 135.792 72.3 135.792 78.516C135.792 82.38 133.944 84.396 130.164 84.396C125.544 84.396 122.52 82.464 122.52 80.028C122.52 77.34 125.46 75.576 130.752 75.576C143.184 75.576 153.6 83.976 160.236 90.78L165.948 81.624C159.312 75.408 146.796 67.26 132.012 67.26C119.832 67.26 112.944 72.468 112.944 80.532C112.944 89.436 121.26 93.72 131.424 93.72C142.68 93.72 146.124 88.008 146.124 81.876C146.124 76.416 144.948 61.716 144.948 54.828C144.948 50.964 144.948 44.664 144.948 41.976C144.948 39.036 145.284 35.424 145.62 33.744ZM140.328 46.008L140.412 55.08C144.444 55.08 157.128 54.66 164.52 54.072L164.268 44.748C156.792 45.588 144.276 46.008 140.328 46.008Z" fill="black"/>
</svg>
