<svg width="100" height="100" viewBox="0 0 100 100" fill="none" xmlns="http://www.w3.org/2000/svg">
<path d="M71 16.9H58.904C59.24 18.244 59.66 20.68 59.828 22.696C59.996 24.964 60.164 29.416 60.248 34.036C57.308 34.12 54.368 34.204 51.596 34.204C47.06 34.204 42.944 33.952 38.828 33.364V43.948C43.028 44.2 48.152 44.452 51.848 44.452C54.62 44.452 57.56 44.452 60.416 44.368C60.416 45.46 60.416 46.468 60.416 47.308C60.416 61.504 58.988 68.98 52.604 75.7C50.252 78.304 46.052 80.992 42.776 82.42L52.52 90.064C69.236 79.396 70.748 67.216 70.748 47.392C70.748 46.552 70.748 45.292 70.748 43.948C75.788 43.612 80.408 43.276 84.02 42.856L84.104 31.936C80.408 32.608 75.704 33.112 70.664 33.532C70.664 28.828 70.664 24.46 70.748 22.696C70.748 20.764 70.832 18.748 71 16.9ZM30.176 18.328L17.744 17.152C17.66 19.252 17.576 22.108 17.24 24.376C16.148 31.264 14.468 44.2 14.468 57.976C14.468 68.392 17.408 80.152 19.256 85.192L28.664 84.268C28.58 83.092 28.496 81.664 28.412 80.74C28.412 79.816 28.664 77.968 28.916 76.624C30.008 71.92 32.192 63.436 34.712 56.212L29.42 52.852C28.076 55.876 26.48 59.992 25.388 62.596C23.12 52.18 26.144 34.54 28.244 25.216C28.58 23.452 29.504 20.428 30.176 18.328ZM77.636 13.96L71.924 15.724C73.604 19.168 75.116 24.04 76.292 27.652L82.088 25.72C81.164 22.528 79.232 17.32 77.636 13.96ZM86.288 11.272L80.576 13.12C82.256 16.48 83.936 21.268 85.196 24.88L90.908 23.032C89.9 19.84 87.884 14.632 86.288 11.272Z" fill="black"/>
</svg>
