<svg width="100" height="100" viewBox="0 0 100 100" fill="none" xmlns="http://www.w3.org/2000/svg">
<path d="M31.52 57.388L20.432 56.38C19.844 59.572 18.836 63.604 18.836 68.476C18.836 80.068 28.496 86.536 47.732 86.536C59.492 86.536 69.572 85.36 76.88 83.596L76.796 71.836C69.404 73.852 58.652 75.112 47.312 75.112C35.216 75.112 30.092 71.332 30.092 65.872C30.092 63.1 30.68 60.412 31.52 57.388ZM73.856 13.12L67.22 15.808C68.396 17.488 69.656 19.588 70.832 21.772C64.364 22.36 55.292 22.864 47.312 22.864C38.492 22.864 30.68 22.528 24.464 21.772V32.944C31.268 33.448 38.576 33.868 47.396 33.868C55.376 33.868 65.792 33.28 71.672 32.86V23.452C72.428 24.88 73.184 26.308 73.772 27.568L80.576 24.628C78.98 21.52 75.956 16.144 73.856 13.12ZM83.852 9.33999L77.132 12.028C79.484 15.22 82.172 20.092 83.936 23.62L90.656 20.764C89.144 17.824 86.036 12.448 83.852 9.33999Z" fill="black"/>
</svg>
