<svg width="200" height="100" viewBox="0 0 200 100" fill="none" xmlns="http://www.w3.org/2000/svg">
<path d="M67.492 27.696L60.184 30.72C63.292 35.088 65.392 39.12 67.912 44.412L75.472 41.136C73.54 37.272 69.844 31.224 67.492 27.696ZM78.748 23.076L71.524 26.352C74.632 30.552 76.984 34.416 79.672 39.708L86.98 36.18C85.048 32.4 81.268 26.436 78.748 23.076ZM45.82 20.892L32.296 20.808C33.052 24.084 33.388 28.116 33.388 32.148C33.388 39.288 32.548 61.38 32.548 72.636C32.548 87 41.452 93.048 55.228 93.048C74.38 93.048 86.224 81.792 91.684 73.812L84.04 64.488C77.992 73.644 69.172 81.624 55.312 81.624C48.76 81.624 43.72 78.852 43.72 70.368C43.72 59.952 44.392 41.136 44.728 32.148C44.896 28.788 45.316 24.504 45.82 20.892ZM126.88 38.532L116.044 37.776C116.128 38.784 116.044 40.548 115.96 42.06C115.372 46.26 114.196 55.164 114.196 63.564C114.196 70.368 115.288 77.76 116.8 82.548L125.788 81.372C125.452 79.524 125.032 75.324 125.032 74.064C124.948 72.804 125.032 71.964 125.284 70.788C126.796 61.716 135.7 50.712 149.98 50.712C159.472 50.712 163.168 55.584 163.168 61.8C163.168 69.192 159.304 74.148 149.728 74.148C142.42 74.148 137.884 69.864 134.608 63.648L129.232 71.376C133.516 80.028 142.084 84.144 150.148 84.144C165.436 84.144 173.08 73.812 173.08 61.716C173.08 50.544 164.848 41.892 150.484 41.892C140.404 41.892 129.484 46.764 123.52 56.676C123.604 52.056 124.696 46.512 125.536 42.984C125.872 41.892 126.292 40.044 126.88 38.532ZM151.072 33.996L140.824 34.164C141.328 35.676 141.748 37.104 142.084 38.7C143.008 43.404 143.848 50.796 143.848 59.112C143.848 69.864 141.916 82.296 129.988 89.604L139.144 94.896C150.652 86.412 153.34 73.056 153.34 59.952C153.34 49.536 151.912 39.036 151.072 33.996Z" fill="black"/>
</svg>
