<svg width="200" height="100" viewBox="0 0 200 100" fill="none" xmlns="http://www.w3.org/2000/svg">
<path d="M67.492 27.696L60.184 30.72C63.292 35.088 65.392 39.12 67.912 44.412L75.472 41.136C73.54 37.272 69.844 31.224 67.492 27.696ZM78.748 23.076L71.524 26.352C74.632 30.552 76.984 34.416 79.672 39.708L86.98 36.18C85.048 32.4 81.268 26.436 78.748 23.076ZM45.82 20.892L32.296 20.808C33.052 24.084 33.388 28.116 33.388 32.148C33.388 39.288 32.548 61.38 32.548 72.636C32.548 87 41.452 93.048 55.228 93.048C74.38 93.048 86.224 81.792 91.684 73.812L84.04 64.488C77.992 73.644 69.172 81.624 55.312 81.624C48.76 81.624 43.72 78.852 43.72 70.368C43.72 59.952 44.392 41.136 44.728 32.148C44.896 28.788 45.316 24.504 45.82 20.892ZM147.712 33.744H136.288C136.708 35.34 137.044 38.868 137.044 42.144C137.044 45 137.044 50.712 137.044 53.988C137.044 61.128 137.884 72.3 137.884 78.516C137.884 82.38 136.036 84.396 132.256 84.396C127.636 84.396 124.612 82.464 124.612 80.028C124.612 77.34 127.552 75.576 132.844 75.576C145.276 75.576 155.692 83.976 162.328 90.78L168.04 81.624C161.404 75.408 148.888 67.26 134.104 67.26C121.924 67.26 115.036 72.468 115.036 80.532C115.036 89.436 123.352 93.72 133.516 93.72C144.772 93.72 148.216 88.008 148.216 81.876C148.216 76.416 147.04 61.716 147.04 54.828C147.04 50.964 147.04 44.664 147.04 41.976C147.04 39.036 147.376 35.424 147.712 33.744ZM142.42 46.008L142.504 55.08C146.536 55.08 159.22 54.66 166.612 54.072L166.36 44.748C158.884 45.588 146.368 46.008 142.42 46.008Z" fill="black"/>
</svg>
