<svg width="200" height="100" viewBox="0 0 200 100" fill="none" xmlns="http://www.w3.org/2000/svg">
<g clip-path="url(#clip0_212_589)">
<path d="M75.492 22.696L68.184 25.72C71.292 30.088 73.392 34.12 75.912 39.412L83.472 36.136C81.54 32.272 77.844 26.224 75.492 22.696ZM86.748 18.076L79.524 21.352C82.632 25.552 84.984 29.416 87.672 34.708L94.98 31.18C93.048 27.4 89.268 21.436 86.748 18.076ZM53.82 15.892L40.296 15.808C41.052 19.084 41.388 23.116 41.388 27.148C41.388 34.288 40.548 56.38 40.548 67.636C40.548 82 49.452 88.048 63.228 88.048C82.38 88.048 94.224 76.792 99.684 68.812L92.04 59.488C85.992 68.644 77.172 76.624 63.312 76.624C56.76 76.624 51.72 73.852 51.72 65.368C51.72 54.952 52.392 36.136 52.728 27.148C52.896 23.788 53.316 19.504 53.82 15.892ZM150 39.916L157.56 34.456C155.544 32.188 150.756 28.072 148.32 26.476L140.844 31.936C143.952 34.12 147.564 37.312 150 39.916ZM132.864 33.028L122.364 37.06C123.96 38.908 125.472 41.344 126.396 42.94C129 47.308 132.696 55.372 135.3 61.756C138.408 69.484 142.44 81.076 144.456 89.56L155.04 86.956C152.688 79.48 147.816 65.032 144.624 57.64C142.188 51.76 137.82 42.604 135.384 37.984C134.796 36.808 133.704 34.624 132.864 33.028ZM115.812 53.104L120.6 63.268C126.984 60.412 151.26 46.888 162.012 46.888C167.304 46.888 169.824 49.66 169.824 52.516C169.824 56.884 166.968 59.74 161.088 59.74C158.4 59.74 154.62 58.9 151.596 57.472L151.344 67.216C153.78 68.14 158.232 69.316 161.844 69.316C174.444 69.316 180.156 62.848 180.156 52.432C180.156 45.124 174.696 37.48 162.432 37.48C152.268 37.48 135.72 45.964 123.288 50.836C122.196 51.256 119.004 52.264 115.812 53.104Z" fill="black"/>
</g>
<defs>
<clipPath id="clip0_212_589">
<rect width="200" height="100" fill="white"/>
</clipPath>
</defs>
</svg>
