<svg width="100" height="100" viewBox="0 0 100 100" fill="none" xmlns="http://www.w3.org/2000/svg">
<path d="M72.26 16.06H61.004C61.256 17.74 61.592 21.688 61.592 23.788V33.28C53.948 33.952 45.8 34.708 38.66 35.38C38.66 32.104 38.744 29.248 38.744 27.316C38.744 23.788 38.828 21.436 39.248 18.58H27.404C27.824 21.604 28.076 24.46 28.076 27.904C28.076 29.332 28.076 32.44 28.076 36.388C25.388 36.64 23.204 36.808 21.692 36.976C17.408 37.396 13.544 37.564 11.108 37.564L12.284 48.316C14.468 47.98 19.676 47.14 22.364 46.804C23.792 46.636 25.724 46.468 27.992 46.216C27.992 54.028 27.992 62.176 28.076 65.788C28.496 80.32 31.1 84.856 52.856 84.856C60.836 84.856 71.168 84.184 76.796 83.512L77.216 72.088C70.916 73.18 60.332 74.188 52.1 74.188C39.5 74.188 38.744 72.34 38.576 64.108C38.408 60.496 38.492 52.768 38.576 45.04C45.716 44.284 53.948 43.528 61.424 42.94C61.34 46.972 61.088 50.836 60.752 53.104C60.584 54.7 59.828 55.036 58.148 55.036C56.468 55.036 53.024 54.532 50.42 53.944L50.168 63.268C53.108 63.688 59.828 64.528 62.852 64.528C67.136 64.528 69.236 63.436 70.16 58.984C70.832 55.456 71.168 48.568 71.42 42.184C73.856 42.016 76.04 41.932 77.888 41.848C80.072 41.764 84.524 41.68 85.952 41.764V31.432C83.516 31.684 80.24 31.852 77.888 32.02C75.956 32.104 73.856 32.272 71.588 32.44C71.672 29.668 71.672 26.644 71.756 23.368C71.84 21.1 72.092 17.404 72.26 16.06Z" fill="black"/>
</svg>
