<svg width="100" height="100" viewBox="0 0 100 100" fill="none" xmlns="http://www.w3.org/2000/svg">
<path d="M57.308 61.504L47.312 60.496C46.64 63.856 45.8 67.888 45.8 71.752C45.8 80.236 53.444 85.108 67.556 85.108C74.276 85.108 79.988 84.52 84.692 83.932L85.112 73.18C79.064 74.272 73.268 74.944 67.64 74.944C58.652 74.944 56.132 72.172 56.132 68.476C56.132 66.628 56.636 63.856 57.308 61.504ZM47.816 14.968L34.964 13.96C35.216 15.892 35.048 19.336 34.712 22.444C34.544 23.788 34.292 25.384 33.956 27.232C31.352 27.4 28.832 27.484 26.396 27.484C22.952 27.484 20.096 27.316 15.812 26.812L16.064 37.312C19.004 37.48 22.196 37.648 26.228 37.648C27.992 37.648 29.84 37.564 31.772 37.48C31.268 39.916 30.596 42.268 30.008 44.536C26.9 56.296 20.516 73.936 15.476 82.336L27.152 86.284C31.856 76.288 37.484 59.152 40.508 47.392C41.432 43.948 42.272 40.252 43.028 36.64C48.656 35.968 54.368 35.044 59.408 33.868V23.368C54.788 24.46 50.084 25.384 45.38 26.056C45.632 24.88 45.884 23.788 46.052 22.864C46.388 21.016 47.144 17.236 47.816 14.968ZM52.772 40.336V50.164C58.064 49.576 63.272 49.324 68.984 49.324C74.108 49.324 79.232 49.828 83.432 50.332L83.684 40.252C78.728 39.748 73.688 39.496 68.9 39.496C63.524 39.496 57.476 39.916 52.772 40.336Z" fill="black"/>
</svg>
