<svg width="100" height="100" viewBox="0 0 100 100" fill="none" xmlns="http://www.w3.org/2000/svg">
<path d="M46.052 15.052L34.124 14.548C34.292 17.32 34.208 19.42 33.704 23.032C33.536 24.04 33.368 25.216 33.2 26.476C28.076 26.392 21.776 25.72 16.736 24.88V35.296C21.02 35.716 25.976 35.968 31.268 36.052C29.084 45.292 25.724 56.464 21.692 64.276L31.604 67.804C32.444 66.376 33.032 65.284 33.956 64.108C38.996 57.724 47.564 54.28 57.224 54.28C65.456 54.28 69.74 58.48 69.74 63.52C69.74 75.868 51.176 78.136 32.78 75.112L35.72 85.948C62.852 88.888 81.08 82.084 81.08 63.184C81.08 52.432 72.092 45.208 58.484 45.208C51.008 45.208 44.456 46.72 37.652 50.5C38.912 46.384 40.256 41.008 41.432 35.884C52.688 35.296 66.044 33.7 74.78 32.272L74.612 22.276C64.448 24.46 53.108 25.72 43.532 26.224C43.7 25.3 43.868 24.376 44.036 23.62C44.624 20.848 45.128 17.992 46.052 15.052Z" fill="black"/>
</svg>
