<svg width="200" height="100" viewBox="0 0 200 100" fill="none" xmlns="http://www.w3.org/2000/svg">
<path d="M53.968 20.052L42.04 19.548C42.208 22.32 42.124 24.504 41.704 28.032C40.612 36.684 35.908 57.096 29.692 69.36L39.604 72.804C40.36 71.376 41.032 70.368 41.956 69.192C46.912 62.808 55.48 59.28 65.14 59.28C73.372 59.28 77.74 63.564 77.74 68.52C77.74 80.952 59.176 83.136 40.696 80.196L43.636 91.032C70.852 93.972 89.08 87.084 89.08 68.268C89.08 57.432 80.008 50.292 66.484 50.292C58.924 50.292 52.372 51.804 45.568 55.5C48.088 47.688 50.608 35.34 51.952 28.62C52.624 25.932 53.128 23.076 53.968 20.052ZM24.652 29.88L24.736 40.296C29.692 40.8 35.74 41.136 42.124 41.136C54.304 41.136 72.112 39.12 82.78 37.356L82.528 27.276C68.752 30.216 52.792 31.476 42.04 31.476C36.832 31.476 30.112 30.804 24.652 29.88ZM147.712 33.744H136.288C136.708 35.34 137.044 38.868 137.044 42.144C137.044 45 137.044 50.712 137.044 53.988C137.044 61.128 137.884 72.3 137.884 78.516C137.884 82.38 136.036 84.396 132.256 84.396C127.636 84.396 124.612 82.464 124.612 80.028C124.612 77.34 127.552 75.576 132.844 75.576C145.276 75.576 155.692 83.976 162.328 90.78L168.04 81.624C161.404 75.408 148.888 67.26 134.104 67.26C121.924 67.26 115.036 72.468 115.036 80.532C115.036 89.436 123.352 93.72 133.516 93.72C144.772 93.72 148.216 88.008 148.216 81.876C148.216 76.416 147.04 61.716 147.04 54.828C147.04 50.964 147.04 44.664 147.04 41.976C147.04 39.036 147.376 35.424 147.712 33.744ZM142.42 46.008L142.504 55.08C146.536 55.08 159.22 54.66 166.612 54.072L166.36 44.748C158.884 45.588 146.368 46.008 142.42 46.008Z" fill="black"/>
</svg>
