<svg width="200" height="100" viewBox="0 0 200 100" fill="none" xmlns="http://www.w3.org/2000/svg">
<path d="M53.968 20.052L42.04 19.548C42.208 22.32 42.124 24.504 41.704 28.032C40.612 36.684 35.908 57.096 29.692 69.36L39.604 72.804C40.36 71.376 41.032 70.368 41.956 69.192C46.912 62.808 55.48 59.28 65.14 59.28C73.372 59.28 77.74 63.564 77.74 68.52C77.74 80.952 59.176 83.136 40.696 80.196L43.636 91.032C70.852 93.972 89.08 87.084 89.08 68.268C89.08 57.432 80.008 50.292 66.484 50.292C58.924 50.292 52.372 51.804 45.568 55.5C48.088 47.688 50.608 35.34 51.952 28.62C52.624 25.932 53.128 23.076 53.968 20.052ZM24.652 29.88L24.736 40.296C29.692 40.8 35.74 41.136 42.124 41.136C54.304 41.136 72.112 39.12 82.78 37.356L82.528 27.276C68.752 30.216 52.792 31.476 42.04 31.476C36.832 31.476 30.112 30.804 24.652 29.88ZM126.88 38.532L116.044 37.776C116.128 38.784 116.044 40.548 115.96 42.06C115.372 46.26 114.196 55.164 114.196 63.564C114.196 70.368 115.288 77.76 116.8 82.548L125.788 81.372C125.452 79.524 125.032 75.324 125.032 74.064C124.948 72.804 125.032 71.964 125.284 70.788C126.796 61.716 135.7 50.712 149.98 50.712C159.472 50.712 163.168 55.584 163.168 61.8C163.168 69.192 159.304 74.148 149.728 74.148C142.42 74.148 137.884 69.864 134.608 63.648L129.232 71.376C133.516 80.028 142.084 84.144 150.148 84.144C165.436 84.144 173.08 73.812 173.08 61.716C173.08 50.544 164.848 41.892 150.484 41.892C140.404 41.892 129.484 46.764 123.52 56.676C123.604 52.056 124.696 46.512 125.536 42.984C125.872 41.892 126.292 40.044 126.88 38.532ZM151.072 33.996L140.824 34.164C141.328 35.676 141.748 37.104 142.084 38.7C143.008 43.404 143.848 50.796 143.848 59.112C143.848 69.864 141.916 82.296 129.988 89.604L139.144 94.896C150.652 86.412 153.34 73.056 153.34 59.952C153.34 49.536 151.912 39.036 151.072 33.996Z" fill="black"/>
</svg>
