<svg width="100" height="100" viewBox="0 0 100 100" fill="none" xmlns="http://www.w3.org/2000/svg">
<path d="M13.964 24.208L15.056 35.716C24.8 33.616 41.936 31.768 49.832 30.928C44.204 35.212 37.4 44.788 37.4 56.884C37.4 75.028 54.032 84.52 71.588 85.696L75.536 74.188C61.34 73.432 48.404 68.392 48.404 54.616C48.404 44.62 55.964 33.7 66.128 31.012C70.58 30.004 77.804 30.004 82.34 29.92L82.256 19.168C76.376 19.336 67.136 19.924 58.484 20.596C43.112 21.94 29.252 23.2 22.28 23.788C20.6 23.956 17.324 24.124 13.964 24.208Z" fill="black"/>
</svg>
