<svg width="200" height="100" viewBox="0 0 200 100" fill="none" xmlns="http://www.w3.org/2000/svg">
<g clip-path="url(#clip0_212_529)">
<path d="M61.548 23.284L61.632 34.036C72.132 35.044 87.42 35.044 97.668 34.036V23.2C88.68 24.292 71.88 24.712 61.548 23.284ZM68.268 59.152L58.692 58.312C57.684 62.596 57.18 65.872 57.18 69.232C57.18 77.8 64.152 83.008 78.6 83.008C88.092 83.008 94.896 82.42 100.356 81.328L100.104 69.988C92.796 71.584 86.58 72.256 79.104 72.256C70.536 72.256 67.26 69.988 67.26 66.208C67.26 64.024 67.596 62.008 68.268 59.152ZM48.612 17.656L36.852 16.732C36.768 19.42 36.348 22.612 36.012 24.88C35.088 31.432 32.568 45.544 32.568 58.228C32.568 69.652 34.164 79.9 35.844 85.612L45.504 85.024C45.42 83.848 45.42 82.42 45.336 81.496C45.336 80.656 45.588 78.808 45.84 77.548C46.68 73.096 49.452 64.024 51.888 56.968L46.68 52.852C45.42 55.708 44.076 58.564 42.816 61.42C42.564 59.74 42.48 57.64 42.48 55.96C42.48 47.56 45.42 30.76 46.596 25.216C46.932 23.704 48.024 19.42 48.612 17.656ZM150 39.916L157.56 34.456C155.544 32.188 150.756 28.072 148.32 26.476L140.844 31.936C143.952 34.12 147.564 37.312 150 39.916ZM132.864 33.028L122.364 37.06C123.96 38.908 125.472 41.344 126.396 42.94C129 47.308 132.696 55.372 135.3 61.756C138.408 69.484 142.44 81.076 144.456 89.56L155.04 86.956C152.688 79.48 147.816 65.032 144.624 57.64C142.188 51.76 137.82 42.604 135.384 37.984C134.796 36.808 133.704 34.624 132.864 33.028ZM115.812 53.104L120.6 63.268C126.984 60.412 151.26 46.888 162.012 46.888C167.304 46.888 169.824 49.66 169.824 52.516C169.824 56.884 166.968 59.74 161.088 59.74C158.4 59.74 154.62 58.9 151.596 57.472L151.344 67.216C153.78 68.14 158.232 69.316 161.844 69.316C174.444 69.316 180.156 62.848 180.156 52.432C180.156 45.124 174.696 37.48 162.432 37.48C152.268 37.48 135.72 45.964 123.288 50.836C122.196 51.256 119.004 52.264 115.812 53.104Z" fill="black"/>
</g>
<defs>
<clipPath id="clip0_212_529">
<rect width="200" height="100" fill="white"/>
</clipPath>
</defs>
</svg>
