<svg width="100" height="100" viewBox="0 0 100 100" fill="none" xmlns="http://www.w3.org/2000/svg">
<path d="M47.816 71.08C47.816 67.888 51.008 65.872 55.796 65.872C58.064 65.872 60.332 66.208 62.516 66.796C62.516 67.384 62.516 67.888 62.516 68.308C62.516 73.264 60.752 75.952 55.628 75.952C51.176 75.952 47.816 74.524 47.816 71.08ZM72.764 16.228H60.752C61.088 17.908 61.34 20.512 61.34 21.772C61.34 23.536 61.424 26.98 61.424 31.096C59.492 31.18 57.476 31.18 55.544 31.18C50.504 31.18 45.632 30.928 40.844 30.424V40.42C45.8 40.756 50.588 40.924 55.544 40.924C57.476 40.924 59.492 40.924 61.508 40.84C61.592 46.804 61.928 52.936 62.096 58.144C60.416 57.892 58.568 57.808 56.636 57.808C45.212 57.808 37.988 63.688 37.988 72.172C37.988 80.992 45.212 85.864 56.804 85.864C68.144 85.864 72.68 80.152 73.184 72.088C76.544 74.356 79.904 77.296 83.432 80.572L89.228 71.752C85.196 68.056 79.904 63.772 72.932 60.916C72.596 55.204 72.176 48.484 72.008 40.336C76.628 40 80.996 39.496 85.028 38.908V28.408C80.996 29.248 76.628 29.92 72.008 30.34C72.092 26.644 72.176 23.536 72.26 21.688C72.344 19.84 72.512 17.824 72.764 16.228ZM31.772 17.152L20.18 16.144C20.096 18.832 19.676 22.024 19.34 24.376C18.416 30.844 15.896 46.72 15.896 59.404C15.896 70.828 17.492 80.404 19.256 86.284L28.748 85.528C28.664 84.352 28.58 82.924 28.58 82.084C28.58 81.16 28.748 79.312 29 78.136C30.008 73.6 32.696 65.032 35.048 58.144L29.924 53.944C28.664 56.8 27.236 59.656 26.144 62.596C25.892 60.916 25.808 58.816 25.808 57.136C25.808 48.736 28.58 30.256 29.84 24.628C30.092 23.116 31.1 18.832 31.772 17.152Z" fill="black"/>
</svg>
