<svg width="100" height="100" viewBox="0 0 100 100" fill="none" xmlns="http://www.w3.org/2000/svg">
<path d="M15.392 21.94L16.232 32.86C18.08 32.524 19.424 32.356 21.272 32.104C23.708 31.768 29 31.18 32.276 30.844C24.464 40.84 18.752 51.004 18.752 64.696C18.752 79.984 30.26 87.376 43.7 87.376C67.22 87.376 73.772 69.232 72.596 50.08C75.452 55.036 78.476 59.32 81.92 63.184L88.724 53.44C75.872 41.596 72.428 28.24 70.832 17.74L60.164 20.68C60.668 22.192 61.172 23.704 61.676 25.216C68.396 55.96 62.6 76.036 43.952 76.036C35.888 76.036 29.588 72.172 29.588 62.344C29.588 46.216 40.844 33.28 46.64 28.912C47.9 28.156 49.58 27.568 50.84 27.064L47.732 17.74C42.104 19.756 28.16 21.604 20.18 21.94C18.584 22.024 16.904 22.024 15.392 21.94Z" fill="black"/>
</svg>
