<svg width="100" height="100" viewBox="0 0 100 100" fill="none" xmlns="http://www.w3.org/2000/svg">
<path d="M76.376 14.464L70.076 16.396C71.924 20.008 73.604 24.712 74.948 28.66L81.248 26.56C80.072 23.116 77.888 17.908 76.376 14.464ZM85.364 11.272L79.316 13.372C81.08 16.816 82.928 21.688 84.272 25.468L90.572 23.368C89.312 20.008 87.212 14.716 85.364 11.272ZM13.544 23.284L14.3 34.204C16.232 33.868 17.492 33.7 19.256 33.448C21.776 33.112 27.068 32.524 30.26 32.188C22.448 42.184 16.82 52.432 16.82 66.04C16.82 81.244 28.328 88.636 41.852 88.636C65.288 88.636 71.84 70.66 70.664 51.508C73.436 56.38 76.544 60.664 79.988 64.444L86.792 54.784C73.94 42.94 70.496 29.668 68.816 19.084L58.232 22.024C58.82 23.788 59.408 25.552 59.996 27.232C66.464 57.64 60.5 77.38 42.02 77.38C33.956 77.38 27.572 73.516 27.572 63.688C27.572 47.56 38.912 34.54 44.624 30.256C45.968 29.5 47.648 28.912 48.908 28.408L45.716 19.084C40.256 21.1 26.228 22.864 18.248 23.284C16.652 23.368 14.972 23.368 13.544 23.284Z" fill="black"/>
</svg>
