<svg width="200" height="100" viewBox="0 0 200 100" fill="none" xmlns="http://www.w3.org/2000/svg">
<path d="M76.732 24.168L66.232 27.108C72.028 45.336 78.748 59.364 87.904 69.528L94.708 59.868C81.94 48.024 78.412 34.668 76.732 24.168ZM21.46 28.368L22.216 39.288C24.148 38.868 25.492 38.7 27.256 38.448C29.692 38.196 35.068 37.524 38.26 37.272C30.448 47.268 24.82 57.432 24.82 71.124C24.82 86.328 36.244 93.72 49.768 93.72C77.74 93.72 81.772 68.1 77.068 45.42L67.24 29.376C74.716 61.464 69.088 82.38 50.02 82.38C41.956 82.38 35.572 78.516 35.572 68.688C35.572 52.56 46.912 39.624 52.624 35.256C53.884 34.584 55.648 33.912 56.824 33.492L53.632 24.168C48.172 26.184 34.144 27.948 26.248 28.368C24.652 28.452 22.972 28.452 21.46 28.368ZM84.292 19.464L78.076 21.48C79.924 25.008 81.52 29.712 82.948 33.744L89.164 31.644C88.072 28.2 85.888 22.992 84.292 19.464ZM93.28 16.272L87.232 18.372C89.08 21.9 90.928 26.688 92.188 30.552L98.488 28.452C97.228 25.008 95.128 19.8 93.28 16.272ZM126.88 38.532L116.044 37.776C116.128 38.784 116.044 40.548 115.96 42.06C115.372 46.26 114.196 55.164 114.196 63.564C114.196 70.368 115.288 77.76 116.8 82.548L125.788 81.372C125.452 79.524 125.032 75.324 125.032 74.064C124.948 72.804 125.032 71.964 125.284 70.788C126.796 61.716 135.7 50.712 149.98 50.712C159.472 50.712 163.168 55.584 163.168 61.8C163.168 69.192 159.304 74.148 149.728 74.148C142.42 74.148 137.884 69.864 134.608 63.648L129.232 71.376C133.516 80.028 142.084 84.144 150.148 84.144C165.436 84.144 173.08 73.812 173.08 61.716C173.08 50.544 164.848 41.892 150.484 41.892C140.404 41.892 129.484 46.764 123.52 56.676C123.604 52.056 124.696 46.512 125.536 42.984C125.872 41.892 126.292 40.044 126.88 38.532ZM151.072 33.996L140.824 34.164C141.328 35.676 141.748 37.104 142.084 38.7C143.008 43.404 143.848 50.796 143.848 59.112C143.848 69.864 141.916 82.296 129.988 89.604L139.144 94.896C150.652 86.412 153.34 73.056 153.34 59.952C153.34 49.536 151.912 39.036 151.072 33.996Z" fill="black"/>
</svg>
