<svg width="200" height="100" viewBox="0 0 200 100" fill="none" xmlns="http://www.w3.org/2000/svg">
<g clip-path="url(#clip0_212_601)">
<path d="M84.732 19.168L74.232 22.108C80.028 40.336 86.748 54.364 95.904 64.528L102.708 54.868C89.94 43.024 86.412 29.668 84.732 19.168ZM29.46 23.368L30.216 34.288C32.148 33.868 33.492 33.7 35.256 33.448C37.692 33.196 43.068 32.524 46.26 32.272C38.448 42.268 32.82 52.432 32.82 66.124C32.82 81.328 44.244 88.72 57.768 88.72C85.74 88.72 89.772 63.1 85.068 40.42L75.24 24.376C82.716 56.464 77.088 77.38 58.02 77.38C49.956 77.38 43.572 73.516 43.572 63.688C43.572 47.56 54.912 34.624 60.624 30.256C61.884 29.584 63.648 28.912 64.824 28.492L61.632 19.168C56.172 21.184 42.144 22.948 34.248 23.368C32.652 23.452 30.972 23.452 29.46 23.368ZM92.292 14.464L86.076 16.48C87.924 20.008 89.52 24.712 90.948 28.744L97.164 26.644C96.072 23.2 93.888 17.992 92.292 14.464ZM101.28 11.272L95.232 13.372C97.08 16.9 98.928 21.688 100.188 25.552L106.488 23.452C105.228 20.008 103.128 14.8 101.28 11.272ZM150 39.916L157.56 34.456C155.544 32.188 150.756 28.072 148.32 26.476L140.844 31.936C143.952 34.12 147.564 37.312 150 39.916ZM132.864 33.028L122.364 37.06C123.96 38.908 125.472 41.344 126.396 42.94C129 47.308 132.696 55.372 135.3 61.756C138.408 69.484 142.44 81.076 144.456 89.56L155.04 86.956C152.688 79.48 147.816 65.032 144.624 57.64C142.188 51.76 137.82 42.604 135.384 37.984C134.796 36.808 133.704 34.624 132.864 33.028ZM115.812 53.104L120.6 63.268C126.984 60.412 151.26 46.888 162.012 46.888C167.304 46.888 169.824 49.66 169.824 52.516C169.824 56.884 166.968 59.74 161.088 59.74C158.4 59.74 154.62 58.9 151.596 57.472L151.344 67.216C153.78 68.14 158.232 69.316 161.844 69.316C174.444 69.316 180.156 62.848 180.156 52.432C180.156 45.124 174.696 37.48 162.432 37.48C152.268 37.48 135.72 45.964 123.288 50.836C122.196 51.256 119.004 52.264 115.812 53.104Z" fill="black"/>
</g>
<defs>
<clipPath id="clip0_212_601">
<rect width="200" height="100" fill="white"/>
</clipPath>
</defs>
</svg>
