<svg width="100" height="100" viewBox="0 0 100 100" fill="none" xmlns="http://www.w3.org/2000/svg">
<path d="M13.544 23.284L14.3 34.204C16.232 33.868 17.492 33.7 19.256 33.448C21.776 33.112 27.068 32.524 30.26 32.188C22.448 42.184 16.82 52.432 16.82 66.04C16.82 81.244 28.328 88.636 41.852 88.636C65.288 88.636 71.84 70.66 70.664 51.508C73.436 56.38 76.544 60.664 79.988 64.444L86.792 54.784C73.94 42.94 70.496 29.668 68.816 19.084L58.232 22.024C58.82 23.788 59.408 25.552 59.996 27.232C66.464 57.64 60.5 77.38 42.02 77.38C33.956 77.38 27.572 73.516 27.572 63.688C27.572 47.56 38.912 34.54 44.624 30.256C45.968 29.5 47.648 28.912 48.908 28.408L45.716 19.084C40.256 21.1 26.228 22.864 18.248 23.284C16.652 23.368 14.972 23.368 13.544 23.284ZM76.712 21.268C76.712 18.748 78.728 16.732 81.248 16.732C83.768 16.732 85.868 18.748 85.868 21.268C85.868 23.788 83.768 25.888 81.248 25.888C78.728 25.888 76.712 23.788 76.712 21.268ZM71.504 21.268C71.504 26.644 75.872 31.012 81.248 31.012C86.624 31.012 90.992 26.644 90.992 21.268C90.992 15.892 86.624 11.524 81.248 11.524C75.872 11.524 71.504 15.892 71.504 21.268Z" fill="black"/>
</svg>
