<svg width="100" height="100" viewBox="0 0 100 100" fill="none" xmlns="http://www.w3.org/2000/svg">
<path d="M10.52 58.48L20.6 68.896C22.028 66.628 23.96 63.352 25.892 60.58C29.504 55.792 35.552 47.56 38.912 43.36C41.348 40.252 43.028 39.832 45.884 43.108C49.916 47.56 56.216 55.456 61.424 61.588C66.716 67.888 73.688 76.288 79.736 82L88.556 72.088C80.576 64.864 73.352 57.388 67.976 51.508C63.02 46.132 56.384 37.48 50.588 31.936C44.456 25.888 38.996 26.476 33.2 33.196C27.908 39.244 21.524 47.896 17.576 51.928C15.056 54.616 13.04 56.464 10.52 58.48ZM67.556 24.124L60.248 27.148C63.356 31.516 65.54 35.548 67.976 40.84L75.536 37.564C73.604 33.7 69.992 27.652 67.556 24.124ZM78.812 19.504L71.588 22.864C74.696 27.064 76.964 30.844 79.736 36.136L87.044 32.608C85.112 28.828 81.332 22.864 78.812 19.504Z" fill="black"/>
</svg>
