<svg width="100" height="100" viewBox="0 0 100 100" fill="none" xmlns="http://www.w3.org/2000/svg">
<path d="M45.884 72.676C45.884 69.904 48.488 67.972 53.192 67.972C55.208 67.972 57.308 68.308 59.408 68.812C59.408 69.568 59.408 70.24 59.408 70.828C59.408 74.86 57.644 77.296 52.52 77.296C48.488 77.296 45.884 75.7 45.884 72.676ZM86.372 11.272L80.66 13.12C82.34 16.396 83.936 20.932 85.196 24.628L90.908 22.696C89.9 19.504 87.968 14.548 86.372 11.272ZM29.336 18.244L17.66 17.32C17.576 20.008 17.156 23.284 16.904 25.468C15.896 31.936 13.544 47.896 13.544 60.58C13.544 72.004 15.14 81.58 16.904 87.46L26.396 86.788C26.312 85.528 26.312 84.184 26.312 83.26C26.228 82.336 26.48 80.572 26.732 79.396C27.74 74.776 30.428 66.208 32.864 59.32L27.572 55.204C26.396 57.976 24.968 61.168 23.792 64.108C23.54 62.344 23.456 59.992 23.456 58.396C23.456 49.996 26.06 31.348 27.32 25.804C27.656 24.292 28.664 20.008 29.336 18.244ZM77.636 13.96L72.008 15.724C72.68 17.236 73.352 18.916 74.024 20.596C65.036 21.604 54.452 21.94 40.844 21.016V30.256C47.396 30.592 53.36 30.676 58.652 30.592V41.092C52.52 41.176 46.136 41.092 39.584 40.588L39.668 50.248C46.136 50.584 52.604 50.668 58.736 50.5C58.82 53.86 58.904 57.304 59.072 60.496C57.308 60.244 55.46 60.16 53.528 60.16C42.188 60.16 36.308 66.04 36.308 73.348C36.308 82.42 44.12 86.704 53.864 86.704C64.784 86.704 69.404 81.664 69.404 74.272C69.404 73.936 69.404 73.6 69.404 73.264C73.436 75.784 77.3 78.976 80.828 82.504L86.288 73.348C83.012 70.408 77.3 65.704 68.9 62.764C68.732 58.9 68.48 54.7 68.396 50.164C73.604 49.912 78.476 49.576 82.592 49.072V39.412C78.224 39.916 73.436 40.42 68.312 40.672V30.172C71.588 30.004 74.612 29.752 77.468 29.416V26.98L82.088 25.468C81.164 22.192 79.232 17.32 77.636 13.96Z" fill="black"/>
</svg>
