<svg width="100" height="100" viewBox="0 0 100 100" fill="none" xmlns="http://www.w3.org/2000/svg">
<path d="M31.856 72.508C31.856 69.652 35.132 67.3 41.096 67.3C43.448 67.3 45.716 67.552 47.984 67.888C48.068 69.4 48.068 70.576 48.068 71.5C48.068 76.372 45.128 77.632 40.676 77.632C34.88 77.632 31.856 75.7 31.856 72.508ZM58.148 14.044H46.808C47.144 15.64 47.312 18.244 47.312 19.84C47.312 20.848 47.312 22.192 47.312 23.788C46.22 23.788 45.128 23.788 44.036 23.788C38.912 23.788 29.336 22.948 23.288 21.94L23.54 31.516C29.084 32.272 38.828 33.028 44.12 33.028C45.128 33.028 46.136 33.028 47.228 33.028C47.144 35.884 47.144 38.908 47.144 41.68C45.8 41.68 44.456 41.68 43.112 41.68C38.66 41.68 28.328 41.092 22.868 40.084L22.952 49.996C28.496 50.668 38.072 51.088 42.944 51.088C44.456 51.088 45.884 51.088 47.312 51.088C47.396 53.608 47.48 56.296 47.648 58.9C45.968 58.732 44.204 58.648 42.44 58.648C29.504 58.648 21.692 64.612 21.692 73.096C21.692 82 28.748 87.124 42.188 87.124C53.276 87.124 58.736 81.58 58.736 74.44C58.736 73.516 58.736 72.508 58.652 71.332C65.372 74.356 71.084 78.808 75.62 83.008L81.668 73.6C76.796 69.568 68.732 63.94 58.148 60.916C57.896 57.556 57.728 54.112 57.56 50.92C65.624 50.668 72.176 50.08 79.736 49.24L79.82 39.328C73.016 40.252 65.876 40.924 57.392 41.344C57.392 38.74 57.392 35.632 57.392 32.692C65.54 32.272 73.184 31.516 78.728 30.844L78.812 21.184C71.42 22.444 64.448 23.116 57.56 23.452C57.56 22.108 57.56 20.848 57.644 20.008C57.728 17.824 57.896 15.724 58.148 14.044Z" fill="black"/>
</svg>
