<svg width="200" height="100" viewBox="0 0 200 100" fill="none" xmlns="http://www.w3.org/2000/svg">
<path d="M33.892 23.496L34.312 34.248C36.496 33.996 39.436 33.66 41.2 33.576C44.98 33.324 52.288 33.072 55.648 32.988C53.128 38.196 49.684 46.428 46.744 53.064C43.72 59.7 40.696 67.428 37.924 71.544C36.328 73.644 35.236 74.4 33.556 74.4C31.54 74.4 29.944 72.972 29.944 70.2C29.944 64.068 37 57.432 49.264 57.432C66.568 57.432 81.352 67.008 91.684 76.164L96.556 64.488C87.736 58.44 70.6 48.024 51.028 48.024C33.052 48.024 20.2 58.356 20.2 71.796C20.2 80.364 25.744 85.404 33.052 85.404C38.848 85.404 42.796 83.136 46.156 78.012C49.6 72.72 53.632 62.724 56.992 54.996C60.772 46.26 65.308 35.424 68.164 30.636C68.836 29.544 69.844 28.452 70.936 27.192L64.3 21.9C62.788 22.488 60.604 22.992 58.504 23.16C54.64 23.496 45.736 23.832 40.864 23.832C39.1 23.832 36.16 23.664 33.892 23.496ZM89.164 43.32L78.16 42.06C78.496 44.664 78.412 48.024 78.244 51.3C77.488 61.128 74.968 76.836 54.22 85.74L63.208 93.048C83.284 82.632 87.988 67.176 89.164 43.32ZM126.88 38.532L116.044 37.776C116.128 38.784 116.044 40.548 115.96 42.06C115.372 46.26 114.196 55.164 114.196 63.564C114.196 70.368 115.288 77.76 116.8 82.548L125.788 81.372C125.452 79.524 125.032 75.324 125.032 74.064C124.948 72.804 125.032 71.964 125.284 70.788C126.796 61.716 135.7 50.712 149.98 50.712C159.472 50.712 163.168 55.584 163.168 61.8C163.168 69.192 159.304 74.148 149.728 74.148C142.42 74.148 137.884 69.864 134.608 63.648L129.232 71.376C133.516 80.028 142.084 84.144 150.148 84.144C165.436 84.144 173.08 73.812 173.08 61.716C173.08 50.544 164.848 41.892 150.484 41.892C140.404 41.892 129.484 46.764 123.52 56.676C123.604 52.056 124.696 46.512 125.536 42.984C125.872 41.892 126.292 40.044 126.88 38.532ZM151.072 33.996L140.824 34.164C141.328 35.676 141.748 37.104 142.084 38.7C143.008 43.404 143.848 50.796 143.848 59.112C143.848 69.864 141.916 82.296 129.988 89.604L139.144 94.896C150.652 86.412 153.34 73.056 153.34 59.952C153.34 49.536 151.912 39.036 151.072 33.996Z" fill="black"/>
</svg>
