<svg width="200" height="100" viewBox="0 0 200 100" fill="none" xmlns="http://www.w3.org/2000/svg">
<g clip-path="url(#clip0_212_553)">
<path d="M41.892 18.496L42.312 29.248C44.496 28.996 47.436 28.66 49.2 28.576C52.98 28.324 60.288 28.072 63.648 27.988C61.128 33.196 57.684 41.428 54.744 48.064C51.72 54.7 48.696 62.428 45.924 66.544C44.328 68.644 43.236 69.4 41.556 69.4C39.54 69.4 37.944 67.972 37.944 65.2C37.944 59.068 45 52.432 57.264 52.432C74.568 52.432 89.352 62.008 99.684 71.164L104.556 59.488C95.736 53.44 78.6 43.024 59.028 43.024C41.052 43.024 28.2 53.356 28.2 66.796C28.2 75.364 33.744 80.404 41.052 80.404C46.848 80.404 50.796 78.136 54.156 73.012C57.6 67.72 61.632 57.724 64.992 49.996C68.772 41.26 73.308 30.424 76.164 25.636C76.836 24.544 77.844 23.452 78.936 22.192L72.3 16.9C70.788 17.488 68.604 17.992 66.504 18.16C62.64 18.496 53.736 18.832 48.864 18.832C47.1 18.832 44.16 18.664 41.892 18.496ZM97.164 38.32L86.16 37.06C86.496 39.664 86.412 43.024 86.244 46.3C85.488 56.128 82.968 71.836 62.22 80.74L71.208 88.048C91.284 77.632 95.988 62.176 97.164 38.32ZM150 39.916L157.56 34.456C155.544 32.188 150.756 28.072 148.32 26.476L140.844 31.936C143.952 34.12 147.564 37.312 150 39.916ZM132.864 33.028L122.364 37.06C123.96 38.908 125.472 41.344 126.396 42.94C129 47.308 132.696 55.372 135.3 61.756C138.408 69.484 142.44 81.076 144.456 89.56L155.04 86.956C152.688 79.48 147.816 65.032 144.624 57.64C142.188 51.76 137.82 42.604 135.384 37.984C134.796 36.808 133.704 34.624 132.864 33.028ZM115.812 53.104L120.6 63.268C126.984 60.412 151.26 46.888 162.012 46.888C167.304 46.888 169.824 49.66 169.824 52.516C169.824 56.884 166.968 59.74 161.088 59.74C158.4 59.74 154.62 58.9 151.596 57.472L151.344 67.216C153.78 68.14 158.232 69.316 161.844 69.316C174.444 69.316 180.156 62.848 180.156 52.432C180.156 45.124 174.696 37.48 162.432 37.48C152.268 37.48 135.72 45.964 123.288 50.836C122.196 51.256 119.004 52.264 115.812 53.104Z" fill="black"/>
</g>
<defs>
<clipPath id="clip0_212_553">
<rect width="200" height="100" fill="white"/>
</clipPath>
</defs>
</svg>
