<svg width="100" height="100" viewBox="0 0 100 100" fill="none" xmlns="http://www.w3.org/2000/svg">
<path d="M66.716 16.144L55.124 15.052C55.124 16.984 54.872 20.596 54.452 23.032C54.284 24.292 54.032 25.636 53.696 27.064C47.228 27.316 41.012 28.912 34.628 32.104C34.04 30.34 33.536 28.576 33.116 26.98C32.444 24.46 31.772 21.688 31.268 18.916L20.264 22.36C21.776 25.384 22.7 28.072 23.624 31.096C24.38 33.364 25.052 35.632 25.892 37.9C18.248 44.62 13.46 54.868 13.46 64.444C13.46 75.28 19.844 81.16 26.816 81.16C33.032 81.16 37.736 78.388 43.364 72.256C44.204 73.348 45.212 74.44 46.22 75.532L54.704 68.812C53.108 67.3 51.596 65.536 50.084 63.772C54.872 56.464 58.568 46.804 61.508 37.06C69.908 39.328 75.116 46.3 75.116 55.624C75.116 66.124 67.808 75.616 49.412 77.128L55.796 86.872C73.268 84.184 85.952 74.02 85.952 56.212C85.952 41.512 77.216 30.844 64.028 27.82C64.28 26.728 64.532 25.72 64.784 24.628C65.288 22.528 66.044 18.412 66.716 16.144ZM23.288 63.604C23.288 58.396 25.556 52.432 29.504 47.812C31.94 54.112 34.628 59.824 37.316 63.94C34.208 67.72 31.1 70.324 28.076 70.324C25.052 70.324 23.288 67.72 23.288 63.604ZM37.652 41.26C41.6 38.908 46.052 37.144 51.176 36.556C49.244 42.772 46.724 49.324 43.7 54.7C41.684 51.34 39.584 46.468 37.652 41.26Z" fill="black"/>
</svg>
