<svg width="100" height="100" viewBox="0 0 100 100" fill="none" xmlns="http://www.w3.org/2000/svg">
<path d="M27.74 71.248C27.74 67.636 31.688 65.368 38.24 65.368C40.592 65.368 42.944 65.62 45.128 65.956C45.212 67.132 45.212 68.14 45.212 68.896C45.212 74.524 43.28 76.876 37.904 76.876C32.024 76.876 27.74 75.364 27.74 71.248ZM55.88 14.632H43.196C43.7 16.732 43.952 20.344 44.12 24.46C44.204 28.072 44.204 33.028 44.204 38.152C44.204 42.604 44.54 49.744 44.792 56.296C43.196 56.128 41.516 56.044 39.836 56.044C24.38 56.044 16.904 63.016 16.904 71.752C16.904 83.176 26.732 87.124 38.744 87.124C52.856 87.124 56.636 80.068 56.636 72.592C56.636 71.752 56.636 70.744 56.552 69.652C64.028 73.096 70.328 78.052 75.116 82.84L81.584 72.844C75.788 67.468 66.716 61.588 56.048 58.48C55.628 52.264 55.292 45.544 55.124 40.504C61.928 40.336 71.84 39.916 78.896 39.328L78.56 29.332C71.588 30.172 61.76 30.508 55.04 30.592C55.04 28.408 55.04 26.392 55.124 24.46C55.208 21.184 55.46 17.068 55.88 14.632Z" fill="black"/>
</svg>
