<svg width="200" height="100" viewBox="0 0 200 100" fill="none" xmlns="http://www.w3.org/2000/svg">
<g clip-path="url(#clip0_212_565)">
<path d="M54.324 14.548L42.816 14.128C42.732 16.396 42.48 19.756 42.144 22.864C40.884 31.6 39.792 41.932 39.792 49.828C39.792 55.456 40.296 60.58 40.8 63.856L51.132 63.1C50.712 59.236 50.628 56.548 50.796 54.196C51.132 43.192 59.868 28.24 69.78 28.24C76.752 28.24 81.12 35.464 81.12 48.4C81.12 68.728 68.016 74.944 49.284 77.8L55.668 87.544C77.928 83.428 92.46 72.172 92.46 48.4C92.46 29.92 83.388 18.412 71.712 18.412C62.304 18.412 54.912 25.552 50.88 32.02C51.384 27.316 53.148 18.664 54.324 14.548ZM150 39.916L157.56 34.456C155.544 32.188 150.756 28.072 148.32 26.476L140.844 31.936C143.952 34.12 147.564 37.312 150 39.916ZM132.864 33.028L122.364 37.06C123.96 38.908 125.472 41.344 126.396 42.94C129 47.308 132.696 55.372 135.3 61.756C138.408 69.484 142.44 81.076 144.456 89.56L155.04 86.956C152.688 79.48 147.816 65.032 144.624 57.64C142.188 51.76 137.82 42.604 135.384 37.984C134.796 36.808 133.704 34.624 132.864 33.028ZM115.812 53.104L120.6 63.268C126.984 60.412 151.26 46.888 162.012 46.888C167.304 46.888 169.824 49.66 169.824 52.516C169.824 56.884 166.968 59.74 161.088 59.74C158.4 59.74 154.62 58.9 151.596 57.472L151.344 67.216C153.78 68.14 158.232 69.316 161.844 69.316C174.444 69.316 180.156 62.848 180.156 52.432C180.156 45.124 174.696 37.48 162.432 37.48C152.268 37.48 135.72 45.964 123.288 50.836C122.196 51.256 119.004 52.264 115.812 53.104Z" fill="black"/>
</g>
<defs>
<clipPath id="clip0_212_565">
<rect width="200" height="100" fill="white"/>
</clipPath>
</defs>
</svg>
