<svg width="200" height="100" viewBox="0 0 200 100" fill="none" xmlns="http://www.w3.org/2000/svg">
<path d="M46.324 19.548L34.816 19.128C34.732 21.396 34.48 24.756 34.144 27.864C32.884 36.6 31.792 46.932 31.792 54.828C31.792 60.456 32.296 65.58 32.8 68.856L43.132 68.1C42.712 64.236 42.628 61.548 42.796 59.196C43.132 48.192 51.868 33.24 61.78 33.24C68.752 33.24 73.12 40.464 73.12 53.4C73.12 73.728 60.016 79.944 41.284 82.8L47.668 92.544C69.928 88.428 84.46 77.172 84.46 53.4C84.46 34.92 75.388 23.412 63.712 23.412C54.304 23.412 46.912 30.552 42.88 37.02C43.384 32.316 45.148 23.664 46.324 19.548ZM147.712 33.744H136.288C136.708 35.34 137.044 38.868 137.044 42.144C137.044 45 137.044 50.712 137.044 53.988C137.044 61.128 137.884 72.3 137.884 78.516C137.884 82.38 136.036 84.396 132.256 84.396C127.636 84.396 124.612 82.464 124.612 80.028C124.612 77.34 127.552 75.576 132.844 75.576C145.276 75.576 155.692 83.976 162.328 90.78L168.04 81.624C161.404 75.408 148.888 67.26 134.104 67.26C121.924 67.26 115.036 72.468 115.036 80.532C115.036 89.436 123.352 93.72 133.516 93.72C144.772 93.72 148.216 88.008 148.216 81.876C148.216 76.416 147.04 61.716 147.04 54.828C147.04 50.964 147.04 44.664 147.04 41.976C147.04 39.036 147.376 35.424 147.712 33.744ZM142.42 46.008L142.504 55.08C146.536 55.08 159.22 54.66 166.612 54.072L166.36 44.748C158.884 45.588 146.368 46.008 142.42 46.008Z" fill="black"/>
</svg>
