<svg width="100" height="100" viewBox="0 0 100 100" fill="none" xmlns="http://www.w3.org/2000/svg">
<path d="M26.228 18.58L26.396 29.584C28.244 29.248 31.268 28.996 33.368 28.828C37.4 28.576 49.076 27.988 53.696 27.82C47.06 34.708 26.312 51.592 15.14 60.16L23.036 68.476C32.024 59.32 41.18 51.004 54.2 51.004C63.776 51.004 69.908 55.96 69.908 62.596C69.908 73.684 56.132 78.64 32.864 75.616L35.804 86.536C66.884 89.056 81.416 79.312 81.416 62.68C81.416 50.92 71.336 42.184 56.552 42.184C54.452 42.184 51.344 42.436 48.572 43.276C55.88 37.732 63.944 31.264 68.816 27.652C69.992 26.896 71.924 25.636 73.436 24.796L67.808 17.404C66.212 17.824 63.692 18.16 61.76 18.328C56.3 18.664 37.568 18.916 33.032 18.916C30.26 18.916 27.572 18.748 26.228 18.58Z" fill="black"/>
</svg>
