<svg width="100" height="100" viewBox="0 0 100 100" fill="none" xmlns="http://www.w3.org/2000/svg">
<path d="M30.848 21.436C30.848 22.36 30.68 24.712 30.512 27.904C26.9 28.408 23.204 28.828 20.768 28.996C17.828 29.164 15.896 29.164 13.46 29.08L14.552 39.832C19.256 39.16 25.724 38.32 29.84 37.816C29.756 39.832 29.588 41.848 29.42 43.78C24.632 50.836 16.232 61.924 11.444 67.804L18.08 76.96C21.02 73.012 25.136 66.88 28.664 61.588C28.58 68.644 28.496 73.516 28.328 80.068C28.328 81.412 28.244 84.436 28.076 86.284H39.668C39.416 84.352 39.164 81.328 39.08 79.816C38.576 71.92 38.576 64.864 38.576 57.976C38.576 55.792 38.66 53.356 38.744 50.92C45.8 44.452 53.612 40.168 62.516 40.168C70.916 40.168 76.208 46.216 76.208 52.768C76.292 65.872 65.708 71.92 50.924 74.104L55.964 84.268C76.796 80.152 87.464 69.988 87.464 53.02C87.38 39.496 77.216 30.34 64.28 30.34C56.72 30.34 48.068 32.692 39.584 38.992C39.668 38.236 39.668 37.396 39.752 36.64C41.18 34.456 42.86 31.684 44.036 30.172L40.928 26.224C41.6 20.932 42.272 16.648 42.776 14.296L30.512 13.876C30.932 16.48 30.848 19 30.848 21.436Z" fill="black"/>
</svg>
