<?xml version="1.0" standalone="no"?>
<!DOCTYPE svg PUBLIC "-//W3C//DTD SVG 20010904//EN"
 "http://www.w3.org/TR/2001/REC-SVG-20010904/DTD/svg10.dtd">
<svg version="1.0" xmlns="http://www.w3.org/2000/svg"
 width="500.000000pt" height="500.000000pt" viewBox="0 0 500.000000 500.000000"
 preserveAspectRatio="xMidYMid meet">
<metadata>
Created by potrace 1.13, written by Peter Selinger 2001-2015
</metadata>
<g transform="translate(0.000000,500.000000) scale(0.100000,-0.100000)"
fill="#000000" stroke="none">
<g>
<path d="M2084 4518 c-16 -26 245 -242 417 -346 163 -97 397 -202 453 -202 71
0 110 105 68 186 -29 57 -89 122 -131 143 -20 10 -58 22 -86 25 -176 25 -462
108 -588 172 -70 35 -120 43 -133 22z"/>
</g>
<g>
<path d="M2610 3305 c-112 -26 -307 -94 -510 -180 -229 -97 -377 -151 -452
-166 -47 -9 -61 -8 -113 11 -93 34 -115 36 -115 13 0 -53 125 -169 250 -233
68 -35 86 -29 226 75 281 211 668 375 882 375 159 0 260 -112 298 -330 21
-121 14 -405 -15 -595 -73 -487 -223 -917 -528 -1523 -73 -145 -133 -268 -133
-273 0 -6 10 -9 23 -7 24 3 103 116 279 399 436 700 608 1144 625 1611 9 235
-21 382 -115 563 -61 115 -136 194 -229 237 -63 30 -76 32 -188 35 -78 1 -143
-3 -185 -12z"/>
</g>
</g>
</svg>
