<?xml version="1.0" standalone="no"?>
<!DOCTYPE svg PUBLIC "-//W3C//DTD SVG 20010904//EN"
 "http://www.w3.org/TR/2001/REC-SVG-20010904/DTD/svg10.dtd">
<svg version="1.0" xmlns="http://www.w3.org/2000/svg"
 width="500.000000pt" height="500.000000pt" viewBox="0 0 500.000000 500.000000"
 preserveAspectRatio="xMidYMid meet">
<metadata>
Created by potrace 1.13, written by Peter Selinger 2001-2015
</metadata>
<g transform="translate(0.000000,500.000000) scale(0.100000,-0.100000)"
fill="#000000" stroke="none">
<g>
<path d="M643 3543 c2 -16 17 -66 31 -113 15 -47 50 -186 77 -310 143 -645
276 -1088 414 -1375 93 -193 245 -406 388 -541 193 -184 300 -231 366 -160 26
28 27 42 7 121 -33 127 -19 237 68 539 48 167 55 206 33 206 -20 0 -36 -21
-114 -150 -228 -376 -209 -367 -377 -198 -194 196 -276 360 -412 828 -79 272
-143 561 -179 810 -18 127 -37 170 -109 248 -67 73 -134 122 -168 122 -28 0
-30 -2 -25 -27z"/>
</g>
<g>
<path d="M3300 3499 c0 -5 48 -61 108 -122 124 -130 208 -232 279 -337 201
-300 311 -606 353 -980 10 -85 19 -121 49 -185 21 -44 52 -97 70 -118 28 -31
39 -37 73 -37 87 0 126 92 115 275 -20 318 -149 632 -393 955 -116 152 -223
262 -408 418 -94 79 -190 142 -217 142 -16 0 -29 -5 -29 -11z"/>
</g>
</g>
</svg>
