<?xml version="1.0" standalone="no"?>
<!DOCTYPE svg PUBLIC "-//W3C//DTD SVG 20010904//EN"
 "http://www.w3.org/TR/2001/REC-SVG-20010904/DTD/svg10.dtd">
<svg version="1.0" xmlns="http://www.w3.org/2000/svg"
 width="500.000000pt" height="500.000000pt" viewBox="0 0 500.000000 500.000000"
 preserveAspectRatio="xMidYMid meet">
<metadata>
Created by potrace 1.13, written by Peter Selinger 2001-2015
</metadata>
<g transform="translate(0.000000,500.000000) scale(0.100000,-0.100000)"
fill="#000000" stroke="none">
<g>
<path d="M1477 4413 c-17 -16 -3 -42 47 -90 30 -28 65 -70 78 -94 22 -42 23
-52 22 -254 -1 -115 -5 -309 -9 -431 l-7 -222 -137 -35 c-75 -20 -210 -53
-301 -73 -207 -45 -252 -44 -330 9 -81 55 -101 49 -70 -20 35 -78 149 -180
228 -202 31 -9 147 12 477 88 72 16 131 29 131 28 1 -1 -2 -123 -7 -272 -4
-148 -8 -387 -9 -530 l0 -260 -122 -75 c-358 -220 -533 -379 -620 -560 -59
-122 -49 -306 25 -429 51 -85 152 -171 270 -230 257 -129 409 -104 503 81 77
153 124 519 124 976 l0 193 78 35 c200 91 543 216 712 259 304 77 605 71 842
-15 193 -71 326 -209 372 -386 20 -78 21 -238 1 -320 -64 -275 -302 -507 -785
-769 -138 -74 -166 -95 -157 -119 8 -21 36 -20 121 5 357 106 739 339 919 562
110 135 159 283 159 477 0 152 -18 242 -74 360 -34 71 -55 100 -132 175 -104
102 -196 159 -331 206 -141 47 -254 62 -445 56 -340 -11 -674 -104 -1143 -319
-70 -32 -130 -58 -132 -58 -12 0 7 986 19 997 2 3 136 33 298 68 462 99 516
113 534 140 12 18 12 28 3 48 -9 20 -31 33 -98 57 -80 29 -230 70 -258 70 -7
0 -28 -14 -48 -31 -24 -21 -68 -42 -138 -64 -139 -44 -285 -81 -292 -74 -3 3
1 120 9 260 12 205 20 273 40 354 14 55 26 123 26 150 0 47 -3 54 -47 97 -56
54 -135 105 -236 154 -71 34 -97 40 -110 27z m103 -2699 c-26 -451 -75 -687
-159 -771 -39 -39 -79 -48 -156 -34 -91 17 -160 54 -229 123 -81 83 -101 124
-101 213 0 126 67 232 218 348 79 60 430 297 434 293 2 -1 -2 -78 -7 -172z"/>
</g>
<g>
<path d="M3412 4018 c-7 -7 -12 -17 -12 -22 0 -6 45 -42 99 -79 55 -38 122
-92 150 -121 61 -65 178 -242 257 -390 69 -127 103 -157 189 -164 52 -4 54 -3
74 29 48 79 15 200 -94 345 -145 193 -298 300 -542 380 -121 40 -106 37 -121
22z"/>
</g>
</g>
</svg>
