<?xml version="1.0" encoding="utf-8"?>
<!-- Generator: Adobe Illustrator 16.0.0, SVG Export Plug-In . SVG Version: 6.00 Build 0)  -->
<!DOCTYPE svg PUBLIC "-//W3C//DTD SVG 1.1//EN" "http://www.w3.org/Graphics/SVG/1.1/DTD/svg11.dtd">
<svg version="1.1" id="Layer_1" xmlns="http://www.w3.org/2000/svg" xmlns:xlink="http://www.w3.org/1999/xlink" x="0px" y="0px"
	 width="500px" height="500px" viewBox="0 0 500 500" enable-background="new 0 0 500 500" xml:space="preserve">
<g>
	<path d="M305.594,237.156c9.094,13.031,16.266,22.797,21.484,29.297c9.094,10.438,14.953,18.25,17.578,23.438
		c2.594,7.813,4.547,16.297,5.859,25.391c1.281,7.813,1.953,13.672,1.953,17.578c-1.313,5.219-4.578,6.531-9.766,3.906
		c-13.031-16.906-29.969-27.984-50.781-33.203c-2.625-1.281-2.625-2.594,0-3.906c13,1.313,21.484,1.953,25.391,1.953
		s5.188-2.594,3.906-7.813l-33.203-50.781c-23.438,6.531-44.281,12.391-62.5,17.578c-10.437,2.625-16.938,3.906-19.531,3.906
		c-6.531-1.281-16.296-5.859-29.297-13.672c-3.906-3.906-3.266-5.859,1.953-5.859c9.094,2.625,15.625,3.906,19.531,3.906
		c13-1.282,40.344-7.813,82.031-19.531l-39.063-76.172c-19.531,5.219-36.469,10.437-50.781,15.625
		c-10.437,3.906-20.203,7.813-29.297,11.719c-7.813,5.219-13.672,7.813-17.578,7.813c-7.813-3.906-13.672-7.813-17.578-11.719
		s-6.531-6.5-7.813-7.813c-3.906-5.188-3.266-7.141,1.953-5.859c6.5,3.906,13,5.219,19.531,3.906
		c16.907-3.906,48.828-13,95.703-27.344l-27.344-64.453c-3.906-9.094-11.719-14.313-23.438-15.625c-1.313-1.282-1.313-2.594,0-3.906
		c7.813-1.282,14.954-1.953,21.484-1.953c15.625,1.313,23.438,4.578,23.438,9.766c0,3.906,0.641,9.125,1.953,15.625
		c2.594,15.625,9.094,33.875,19.531,54.688c29.938-7.813,49.469-13,58.594-15.625c6.5-3.906,11.719-5.188,15.625-3.906
		c9.094,1.313,16.906,3.906,23.438,7.813c6.5,5.219,5.859,9.125-1.953,11.719c-26.063,1.313-56,5.859-89.844,13.672
		c14.313,31.25,27.344,56.641,39.063,76.172c15.625-3.906,28.625-7.813,39.063-11.719c5.188-2.594,9.766-5.188,13.672-7.813
		c10.406,0,18.859,1.953,25.391,5.859c5.188,5.219,3.906,9.125-3.906,11.719C349.203,226.75,327.719,231.968,305.594,237.156z
		 M319.266,434.422c-5.219,1.281-18.25,1.953-39.063,1.953c-56,0-94.421-6.531-115.234-19.531
		c-18.25-11.719-27.344-26.672-27.344-44.922c0-2.594,1.282-7.813,3.906-15.625c3.906-3.906,5.859-3.234,5.859,1.953
		c-1.313,2.625-1.953,6.531-1.953,11.719c0,14.344,10.406,25.391,31.25,33.203c22.125,7.813,47.516,11.719,76.172,11.719
		c10.406,0,21.484-1.281,33.203-3.906c9.094-1.281,20.172,1.953,33.203,9.766C324.453,427.281,324.453,431.797,319.266,434.422z"/>
</g>
</svg>
