<?xml version="1.0" encoding="utf-8"?>
<!-- Generator: Adobe Illustrator 16.0.0, SVG Export Plug-In . SVG Version: 6.00 Build 0)  -->
<!DOCTYPE svg PUBLIC "-//W3C//DTD SVG 1.1//EN" "http://www.w3.org/Graphics/SVG/1.1/DTD/svg11.dtd">
<svg version="1.1" id="Layer_1" xmlns="http://www.w3.org/2000/svg" xmlns:xlink="http://www.w3.org/1999/xlink" x="0px" y="0px"
	 width="500px" height="500px" viewBox="0 0 500 500" enable-background="new 0 0 500 500" xml:space="preserve">
<g>
	<path d="M286.063,78.215c3.906,7.813,3.906,13.031,0,15.625c-6.531,3.906-12.391,9.125-17.578,15.625
		c-13.031,16.938-25.391,33.875-37.109,50.781c-18.25,24.75-35.828,48.188-52.734,70.313c-2.625,2.625-3.906,6.531-3.906,11.719
		c0,3.906,1.282,8.484,3.906,13.672c52.063,67.719,82.672,109.375,91.797,125c11.719,19.531,18.859,32.563,21.484,39.063
		c1.281,3.906,1.953,9.125,1.953,15.625s-2.625,11.047-7.813,13.672c-5.219,2.594-9.766,0-13.672-7.813
		c-33.875-67.688-69.031-128.906-105.469-183.594c-2.625-5.188-3.906-10.406-3.906-15.625c0-5.188,1.282-10.406,3.906-15.625
		c42.969-59.875,72.906-107.422,89.844-142.578c3.906-6.5,5.859-13,5.859-19.531c0-5.188-1.313-10.406-3.906-15.625
		c-2.625-5.188-1.313-6.5,3.906-3.906C274.344,56.73,282.156,67.809,286.063,78.215z"/>
</g>
</svg>
