<?xml version="1.0" encoding="utf-8"?>
<!-- Generator: Adobe Illustrator 16.0.0, SVG Export Plug-In . SVG Version: 6.00 Build 0)  -->
<!DOCTYPE svg PUBLIC "-//W3C//DTD SVG 1.1//EN" "http://www.w3.org/Graphics/SVG/1.1/DTD/svg11.dtd">
<svg version="1.1" id="Layer_1" xmlns="http://www.w3.org/2000/svg" xmlns:xlink="http://www.w3.org/1999/xlink" x="0px" y="0px"
	 width="500px" height="500px" viewBox="0 0 500 500" enable-background="new 0 0 500 500" xml:space="preserve">
<g>
	<path d="M120.047,214.719c-5.219,36.469-7.813,66.406-7.813,89.844s1.282,40.375,3.906,50.781c2.594,5.219,5.859,5.219,9.766,0
		l21.484-44.922c2.594-2.594,3.906-1.953,3.906,1.953c-7.813,26.063-13.031,44.281-15.625,54.688
		c-1.313,7.813-1.953,17.578-1.953,29.297c0,3.906,1.282,9.125,3.906,15.625c-1.313,9.125-6.531,11.719-15.625,7.813
		c-9.125-9.094-15.625-23.438-19.531-42.969s-5.859-50.781-5.859-93.75c0-35.156,5.859-83.313,17.578-144.531
		c3.906-20.813,5.859-35.797,5.859-44.922c0-6.5-1.313-11.719-3.906-15.625c-2.625-5.188-1.313-6.5,3.906-3.906
		c18.219,14.343,26.672,25.391,25.391,33.203C133.719,142.453,125.235,178.281,120.047,214.719z M213.797,206.906
		c-5.219-2.594-5.859-5.188-1.953-7.813c9.094-1.282,18.219-3.235,27.344-5.859c40.344-10.406,72.266-17.578,95.703-21.484v-54.688
		c0-18.219-1.313-31.25-3.906-39.063c-1.313-3.906-5.859-9.766-13.672-17.578c-3.906-3.906-2.625-5.188,3.906-3.906
		c6.5,1.313,11.719,3.266,15.625,5.859c9.094,5.219,15.625,9.766,19.531,13.672c2.594,2.625,3.906,5.859,3.906,9.766
		c-2.625,7.813-3.906,14.984-3.906,21.484v58.594c18.219-3.906,32.531-6.5,42.969-7.813c11.719,0,20.813,4.578,27.344,13.672
		c3.906,6.531,1.953,9.766-5.859,9.766c-20.844,1.313-42.328,3.266-64.453,5.859c0,89.844-5.859,149.75-17.578,179.688
		c-10.438,27.344-27.344,54.688-50.781,82.031c-6.531,5.188-8.484,4.547-5.859-1.953c20.813-28.625,35.156-62.5,42.969-101.563
		c6.5-32.531,9.766-84.625,9.766-156.25c-36.469,3.906-67.719,9.125-93.75,15.625C232.016,206.266,222.891,206.906,213.797,206.906z
		"/>
</g>
</svg>
