<?xml version="1.0" encoding="UTF-8" standalone="no"?>
<!-- Created with Inkscape (http://www.inkscape.org/) -->

<svg
   xmlns:dc="http://purl.org/dc/elements/1.1/"
   xmlns:cc="http://creativecommons.org/ns#"
   xmlns:rdf="http://www.w3.org/1999/02/22-rdf-syntax-ns#"
   xmlns:svg="http://www.w3.org/2000/svg"
   xmlns="http://www.w3.org/2000/svg"
   xmlns:sodipodi="http://sodipodi.sourceforge.net/DTD/sodipodi-0.dtd"
   xmlns:inkscape="http://www.inkscape.org/namespaces/inkscape"
   width="500"
   height="500"
   viewBox="0 0 132.29167 132.29167"
   version="1.1"
   id="svg8"
   inkscape:version="0.92.4 (5da689c313, 2019-01-14)"
   sodipodi:docname="Japanese_Katakana_kyokashotai_E.svg">
  <defs
     id="defs2" />
  <sodipodi:namedview
     id="base"
     pagecolor="#ffffff"
     bordercolor="#666666"
     borderopacity="1.0"
     inkscape:pageopacity="0.0"
     inkscape:pageshadow="2"
     inkscape:zoom="0.7"
     inkscape:cx="-37.504531"
     inkscape:cy="449.66831"
     inkscape:document-units="mm"
     inkscape:current-layer="text52"
     showgrid="false"
     units="px"
     inkscape:window-width="1440"
     inkscape:window-height="837"
     inkscape:window-x="-8"
     inkscape:window-y="-8"
     inkscape:window-maximized="1" />
  <metadata
     id="metadata5">
    <rdf:RDF>
      <cc:Work
         rdf:about="">
        <dc:format>image/svg+xml</dc:format>
        <dc:type
           rdf:resource="http://purl.org/dc/dcmitype/StillImage" />
        <dc:title />
      </cc:Work>
    </rdf:RDF>
  </metadata>
  <g
     inkscape:label="Layer 1"
     inkscape:groupmode="layer"
     id="layer1"
     transform="translate(0,-164.70835)">
    <g
       aria-label="リ"
       style="font-style:normal;font-variant:normal;font-weight:normal;font-stretch:normal;font-size:25.39999962px;line-height:1.25;font-family:MHGKyokashotaiTHK;-inkscape-font-specification:MHGKyokashotaiTHK;letter-spacing:0px;word-spacing:0px;fill:#000000;fill-opacity:1;stroke:none;stroke-width:0.26458332"
       id="text12">
      <g
         aria-label="イ"
         style="font-style:normal;font-variant:normal;font-weight:normal;font-stretch:normal;font-size:25.39999962px;line-height:1.25;font-family:MHGKyokashotaiTHK;-inkscape-font-specification:MHGKyokashotaiTHK;letter-spacing:0px;word-spacing:0px;fill:#000000;fill-opacity:1;stroke:none;stroke-width:0.07000434"
         id="text20">
        <g
           aria-label="ウ"
           style="font-style:normal;font-variant:normal;font-weight:normal;font-stretch:normal;font-size:25.39999962px;line-height:1.25;font-family:MHGKyokashotaiTHK;-inkscape-font-specification:MHGKyokashotaiTHK;letter-spacing:0px;word-spacing:0px;fill:#000000;fill-opacity:1;stroke:none;stroke-width:0.01852198"
           id="text36">
          <g
             aria-label="エ"
             style="font-style:normal;font-variant:normal;font-weight:normal;font-stretch:normal;font-size:25.39999962px;line-height:1.25;font-family:MHGKyokashotaiTHK;-inkscape-font-specification:MHGKyokashotaiTHK;letter-spacing:0px;word-spacing:0px;fill:#000000;fill-opacity:1;stroke:none;stroke-width:0.00490061"
             id="text52">
            <path
               d="m 119.11076,253.18941 c -4.37445,-3.66889 -9.59556,-5.78556 -15.52222,-6.06778 l -3.810002,0.98778 c -14.67556,1.12888 -25.682227,2.25777 -33.020004,3.38666 l 1.552222,-32.59667 c 1.834444,-2.11666 2.116666,-3.81 0.564444,-4.93888 -2.822222,-2.96334 -5.221111,-5.08 -7.055555,-6.63223 11.006666,-1.41111 21.59,-2.39889 31.891111,-3.81 3.668889,-0.42333 4.374445,-1.97555 2.257778,-3.81 -3.386667,-1.83444 -6.35,-2.82222 -8.89,-2.82222 -1.411111,0.42333 -3.245556,1.27 -5.503333,2.82222 -9.172223,1.83445 -17.780001,3.10445 -25.823334,4.37445 -9.313334,1.41111 -15.09889,2.25778 -17.63889,2.25778 -3.386666,0 -5.503333,-0.56445 -6.632222,-1.69334 -1.552222,-0.70555 -1.834445,-0.42333 -1.128889,1.12889 1.411111,2.11667 3.527778,3.95111 6.067778,5.50333 1.128889,0.70556 2.681111,0.56445 4.938889,-0.56444 3.245556,-0.70556 5.926667,-1.27 7.761111,-1.69333 1.411111,-0.28223 4.233334,-0.70556 8.184445,-1.12889 2.963333,2.25778 4.515556,5.22111 4.515556,8.89 v 35.27778 c -13.264445,2.11666 -26.52889,4.65666 -39.793335,7.19666 -1.834444,0.42334 -3.668889,0.42334 -5.503333,0.42334 -1.128889,0 -2.116667,-0.14111 -3.245556,-0.42334 -1.128889,-0.42333 -1.27,0 -0.564444,0.98778 1.834444,1.55222 4.374444,2.96333 7.761111,4.51556 0.705556,0.28222 3.386667,-0.42334 8.184445,-1.69334 6.914444,-1.97555 17.074444,-3.66889 30.338889,-5.50333 13.264445,-1.83444 23.001112,-2.82222 29.210001,-2.82222 8.89,0 18.203337,0.98778 28.081117,2.82222 3.66889,0 4.65666,-1.55222 2.82222,-4.37444 z"
               style="font-size:141.1111145px;stroke-width:0.00490061"
               id="path60"
               inkscape:connector-curvature="0" />
          </g>
        </g>
      </g>
    </g>
  </g>
</svg>
