<?xml version="1.0" encoding="UTF-8" standalone="no"?>
<!-- Created with Inkscape (http://www.inkscape.org/) -->

<svg
   xmlns:dc="http://purl.org/dc/elements/1.1/"
   xmlns:cc="http://creativecommons.org/ns#"
   xmlns:rdf="http://www.w3.org/1999/02/22-rdf-syntax-ns#"
   xmlns:svg="http://www.w3.org/2000/svg"
   xmlns="http://www.w3.org/2000/svg"
   xmlns:sodipodi="http://sodipodi.sourceforge.net/DTD/sodipodi-0.dtd"
   xmlns:inkscape="http://www.inkscape.org/namespaces/inkscape"
   width="500"
   height="500"
   viewBox="0 0 132.29167 132.29167"
   version="1.1"
   id="svg8"
   inkscape:version="0.92.4 (5da689c313, 2019-01-14)"
   sodipodi:docname="Japanese_Katakana_kyokashotai_O.svg">
  <defs
     id="defs2" />
  <sodipodi:namedview
     id="base"
     pagecolor="#ffffff"
     bordercolor="#666666"
     borderopacity="1.0"
     inkscape:pageopacity="0.0"
     inkscape:pageshadow="2"
     inkscape:zoom="0.49497475"
     inkscape:cx="-77.864758"
     inkscape:cy="115.5927"
     inkscape:document-units="mm"
     inkscape:current-layer="text65"
     showgrid="false"
     units="px"
     inkscape:window-width="1440"
     inkscape:window-height="837"
     inkscape:window-x="-8"
     inkscape:window-y="-8"
     inkscape:window-maximized="1" />
  <metadata
     id="metadata5">
    <rdf:RDF>
      <cc:Work
         rdf:about="">
        <dc:format>image/svg+xml</dc:format>
        <dc:type
           rdf:resource="http://purl.org/dc/dcmitype/StillImage" />
        <dc:title></dc:title>
      </cc:Work>
    </rdf:RDF>
  </metadata>
  <g
     inkscape:label="Layer 1"
     inkscape:groupmode="layer"
     id="layer1"
     transform="translate(0,-164.70835)">
    <g
       aria-label="リ"
       style="font-style:normal;font-variant:normal;font-weight:normal;font-stretch:normal;font-size:25.39999962px;line-height:1.25;font-family:MHGKyokashotaiTHK;-inkscape-font-specification:MHGKyokashotaiTHK;letter-spacing:0px;word-spacing:0px;fill:#000000;fill-opacity:1;stroke:none;stroke-width:0.26458332"
       id="text12">
      <g
         aria-label="イ"
         style="font-style:normal;font-variant:normal;font-weight:normal;font-stretch:normal;font-size:25.39999962px;line-height:1.25;font-family:MHGKyokashotaiTHK;-inkscape-font-specification:MHGKyokashotaiTHK;letter-spacing:0px;word-spacing:0px;fill:#000000;fill-opacity:1;stroke:none;stroke-width:0.07000434"
         id="text20">
        <g
           aria-label="ウ"
           style="font-style:normal;font-variant:normal;font-weight:normal;font-stretch:normal;font-size:25.39999962px;line-height:1.25;font-family:MHGKyokashotaiTHK;-inkscape-font-specification:MHGKyokashotaiTHK;letter-spacing:0px;word-spacing:0px;fill:#000000;fill-opacity:1;stroke:none;stroke-width:0.01852198"
           id="text36">
          <g
             aria-label="エ"
             style="font-style:normal;font-variant:normal;font-weight:normal;font-stretch:normal;font-size:25.39999962px;line-height:1.25;font-family:MHGKyokashotaiTHK;-inkscape-font-specification:MHGKyokashotaiTHK;letter-spacing:0px;word-spacing:0px;fill:#000000;fill-opacity:1;stroke:none;stroke-width:0.00490061"
             id="text52">
            <g
               aria-label="オ"
               style="font-style:normal;font-variant:normal;font-weight:normal;font-stretch:normal;font-size:25.39999962px;line-height:1.25;font-family:MHGKyokashotaiTHK;-inkscape-font-specification:MHGKyokashotaiTHK;letter-spacing:0px;word-spacing:0px;fill:#000000;fill-opacity:1;stroke:none;stroke-width:0.00129662"
               id="text65">
              <path
                 d="m 111.58319,202.19264 c -2.96334,-2.11667 -6.06778,-3.66889 -9.31334,-4.37445 -1.55222,0 -3.245551,0.42334 -5.079995,1.12889 -2.116667,0.28223 -4.938889,0.84667 -8.184445,1.69334 -3.668889,0.28222 -7.761111,0.84666 -12.135556,1.55222 v -8.74889 c 0,-1.55222 0.141111,-3.95111 0.564445,-7.19667 1.128888,-1.83444 1.27,-3.10444 0.564444,-3.81 -2.963333,-2.96333 -6.35,-4.79777 -10.018889,-5.50333 -1.411111,0 -1.552222,0.56444 -0.423333,1.55222 2.54,1.83445 3.81,3.95111 3.81,6.06778 v 18.76778 c -17.63889,2.54 -31.60889,5.08 -41.910001,7.19667 -2.54,0.56444 -4.938889,0.14111 -7.196667,-0.56445 -1.411111,-0.70555 -1.834445,-0.42333 -1.128889,1.12889 0,0.28222 0.987778,1.12889 2.822222,2.11667 1.834445,1.12889 3.81,2.11666 6.067778,2.82222 1.834445,-0.70556 3.668889,-1.27 5.503334,-1.69333 8.043333,-1.69334 15.098889,-3.24556 20.884444,-4.37445 l 11.147779,-2.25778 c -4.092223,7.33778 -10.865556,16.36889 -20.461112,26.52889 -9.031111,9.59556 -18.344445,17.49778 -27.516667,23.70667 -1.128889,1.12889 -0.846667,1.41111 1.128889,1.12889 5.08,-1.83445 13.687778,-7.76111 25.823333,-17.63889 6.208889,-5.22111 14.534445,-13.68778 24.835557,-25.4 l 1.128889,50.65889 c 0,2.25778 -0.846667,3.38667 -2.257778,3.38667 -1.411111,0 -3.104445,-0.42334 -4.938889,-1.12889 l -9.454445,-3.81 c -1.411111,-0.56445 -1.834444,-0.42334 -0.987778,0.98777 5.785556,4.09223 10.16,7.19667 12.700001,9.45445 2.54,2.39889 4.374444,5.36222 5.503333,8.18444 0.705556,1.55223 1.27,1.27 2.116667,-0.42333 2.54,-5.22111 3.951111,-9.45444 3.951111,-12.7 -0.846667,-8.18444 -1.552222,-16.93333 -1.693333,-26.52889 l -0.564445,-37.39445 c 6.914445,-0.84666 13.546667,-1.55222 19.896667,-1.69333 4.374449,-0.14111 9.172219,0.28222 14.252219,1.12889 2.96334,-0.84667 3.10445,-1.97556 0.56445,-3.95111 z"
                 style="font-size:141.1111145px;stroke-width:0.00129662"
                 id="path3771" />
            </g>
          </g>
        </g>
      </g>
    </g>
  </g>
</svg>
