<svg width="100" height="100" viewBox="0 0 100 100" fill="none" xmlns="http://www.w3.org/2000/svg">
<path d="M88.136 25.216L81.5 19C79.904 19.42 75.284 19.756 72.932 19.756C68.564 19.756 32.948 19.756 27.656 19.756C24.212 19.756 20.684 19.336 17.408 18.832V30.592C21.356 30.172 24.212 30.004 27.656 30.004C32.948 30.004 66.38 30.004 71.504 30.004C69.32 34.12 62.768 41.512 55.964 45.628L64.7 52.6C73.016 46.72 80.996 36.052 84.944 29.5C85.7 28.324 87.296 26.308 88.136 25.216ZM53.948 36.472H41.768C42.188 39.244 42.272 41.428 42.272 44.116C42.272 57.892 40.256 66.712 29.672 74.104C26.564 76.456 23.54 77.884 20.768 78.808L30.596 86.788C53.444 74.44 53.948 57.304 53.948 36.472Z" fill="black"/>
</svg>
