<?xml version="1.0" encoding="UTF-8" standalone="no"?>
<!-- Created with Inkscape (http://www.inkscape.org/) -->

<svg
   xmlns:dc="http://purl.org/dc/elements/1.1/"
   xmlns:cc="http://creativecommons.org/ns#"
   xmlns:rdf="http://www.w3.org/1999/02/22-rdf-syntax-ns#"
   xmlns:svg="http://www.w3.org/2000/svg"
   xmlns="http://www.w3.org/2000/svg"
   xmlns:sodipodi="http://sodipodi.sourceforge.net/DTD/sodipodi-0.dtd"
   xmlns:inkscape="http://www.inkscape.org/namespaces/inkscape"
   width="500"
   height="500"
   viewBox="0 0 132.29167 132.29167"
   version="1.1"
   id="svg8"
   inkscape:version="0.92.4 (5da689c313, 2019-01-14)"
   sodipodi:docname="Japanese_Katakana_kyokashotai_I.svg">
  <defs
     id="defs2" />
  <sodipodi:namedview
     id="base"
     pagecolor="#ffffff"
     bordercolor="#666666"
     borderopacity="1.0"
     inkscape:pageopacity="0.0"
     inkscape:pageshadow="2"
     inkscape:zoom="0.7"
     inkscape:cx="-37.504531"
     inkscape:cy="449.66831"
     inkscape:document-units="mm"
     inkscape:current-layer="text20"
     showgrid="false"
     units="px"
     inkscape:window-width="1440"
     inkscape:window-height="837"
     inkscape:window-x="-8"
     inkscape:window-y="-8"
     inkscape:window-maximized="1" />
  <metadata
     id="metadata5">
    <rdf:RDF>
      <cc:Work
         rdf:about="">
        <dc:format>image/svg+xml</dc:format>
        <dc:type
           rdf:resource="http://purl.org/dc/dcmitype/StillImage" />
        <dc:title />
      </cc:Work>
    </rdf:RDF>
  </metadata>
  <g
     inkscape:label="Layer 1"
     inkscape:groupmode="layer"
     id="layer1"
     transform="translate(0,-164.70835)">
    <g
       aria-label="リ"
       style="font-style:normal;font-variant:normal;font-weight:normal;font-stretch:normal;font-size:25.39999962px;line-height:1.25;font-family:MHGKyokashotaiTHK;-inkscape-font-specification:MHGKyokashotaiTHK;letter-spacing:0px;word-spacing:0px;fill:#000000;fill-opacity:1;stroke:none;stroke-width:0.26458332"
       id="text12">
      <g
         aria-label="イ"
         style="font-style:normal;font-variant:normal;font-weight:normal;font-stretch:normal;font-size:25.39999962px;line-height:1.25;font-family:MHGKyokashotaiTHK;-inkscape-font-specification:MHGKyokashotaiTHK;letter-spacing:0px;word-spacing:0px;fill:#000000;fill-opacity:1;stroke:none;stroke-width:0.07000434"
         id="text20">
        <path
           d="m 98.706999,186.2075 c -3.527782,-5.22112 -6.208894,-7.90223 -7.761116,-8.18445 -1.834444,-0.84667 -2.398889,-0.42333 -1.693333,0.98778 1.128889,1.97555 1.552222,3.95111 1.128889,6.06778 -14.252223,21.02555 -33.161112,39.93444 -56.726668,56.86778 -1.128889,1.83444 -0.705556,2.39888 1.128889,1.55222 14.252222,-8.32556 26.811111,-17.63889 37.394445,-27.51667 2.257778,1.12889 3.386667,2.82222 3.386667,4.93889 v 11.57111 l -1.693334,34.29 c -0.141111,1.83445 -0.423333,4.09222 -1.128889,7.05556 0,3.38666 0.705556,6.20889 2.257778,8.32555 2.116667,2.96334 3.668889,2.54 4.374445,-1.12889 0.423333,-1.83444 0.564444,-4.23333 0.564444,-7.19666 0,-19.05 0.141111,-37.39445 0.564445,-55.03334 -1.128889,-1.55222 -3.104445,-3.10444 -6.067778,-4.93889 7.337778,-7.47889 14.675556,-15.52222 22.013334,-24.27111 2.540002,-0.42333 3.527782,-1.55222 2.257782,-3.38666 z"
           style="font-size:141.1111145px;stroke-width:0.07000434"
           id="path22"
           inkscape:connector-curvature="0" />
      </g>
    </g>
  </g>
</svg>
