<?xml version="1.0" encoding="UTF-8" standalone="no"?>
<!-- Created with Inkscape (http://www.inkscape.org/) -->

<svg
   xmlns:dc="http://purl.org/dc/elements/1.1/"
   xmlns:cc="http://creativecommons.org/ns#"
   xmlns:rdf="http://www.w3.org/1999/02/22-rdf-syntax-ns#"
   xmlns:svg="http://www.w3.org/2000/svg"
   xmlns="http://www.w3.org/2000/svg"
   xmlns:sodipodi="http://sodipodi.sourceforge.net/DTD/sodipodi-0.dtd"
   xmlns:inkscape="http://www.inkscape.org/namespaces/inkscape"
   width="500"
   height="500"
   viewBox="0 0 132.29167 132.29167"
   version="1.1"
   id="svg8"
   inkscape:version="0.92.4 (5da689c313, 2019-01-14)"
   sodipodi:docname="Japanese_Katakana_kyokashotai_U.svg">
  <defs
     id="defs2" />
  <sodipodi:namedview
     id="base"
     pagecolor="#ffffff"
     bordercolor="#666666"
     borderopacity="1.0"
     inkscape:pageopacity="0.0"
     inkscape:pageshadow="2"
     inkscape:zoom="0.7"
     inkscape:cx="-37.504531"
     inkscape:cy="449.66831"
     inkscape:document-units="mm"
     inkscape:current-layer="text36"
     showgrid="false"
     units="px"
     inkscape:window-width="1440"
     inkscape:window-height="837"
     inkscape:window-x="-8"
     inkscape:window-y="-8"
     inkscape:window-maximized="1" />
  <metadata
     id="metadata5">
    <rdf:RDF>
      <cc:Work
         rdf:about="">
        <dc:format>image/svg+xml</dc:format>
        <dc:type
           rdf:resource="http://purl.org/dc/dcmitype/StillImage" />
        <dc:title />
      </cc:Work>
    </rdf:RDF>
  </metadata>
  <g
     inkscape:label="Layer 1"
     inkscape:groupmode="layer"
     id="layer1"
     transform="translate(0,-164.70835)">
    <g
       aria-label="リ"
       style="font-style:normal;font-variant:normal;font-weight:normal;font-stretch:normal;font-size:25.39999962px;line-height:1.25;font-family:MHGKyokashotaiTHK;-inkscape-font-specification:MHGKyokashotaiTHK;letter-spacing:0px;word-spacing:0px;fill:#000000;fill-opacity:1;stroke:none;stroke-width:0.26458332"
       id="text12">
      <g
         aria-label="イ"
         style="font-style:normal;font-variant:normal;font-weight:normal;font-stretch:normal;font-size:25.39999962px;line-height:1.25;font-family:MHGKyokashotaiTHK;-inkscape-font-specification:MHGKyokashotaiTHK;letter-spacing:0px;word-spacing:0px;fill:#000000;fill-opacity:1;stroke:none;stroke-width:0.07000434"
         id="text20">
        <g
           aria-label="ウ"
           style="font-style:normal;font-variant:normal;font-weight:normal;font-stretch:normal;font-size:25.39999962px;line-height:1.25;font-family:MHGKyokashotaiTHK;-inkscape-font-specification:MHGKyokashotaiTHK;letter-spacing:0px;word-spacing:0px;fill:#000000;fill-opacity:1;stroke:none;stroke-width:0.01852198"
           id="text36">
          <path
             d="m 108.94491,203.61386 -7.62,-6.63222 c -0.42333,-0.28223 -1.693329,-0.14112 -3.951109,0.56444 -9.877777,1.83444 -20.743333,3.52778 -32.455555,4.93889 l 0.564444,-12.13556 c 0,-1.41111 0.282223,-2.68111 1.128889,-3.81 0.987778,-1.12889 0.846667,-2.25778 -0.564444,-3.24555 -4.515556,-3.38667 -7.761112,-4.93889 -10.018889,-4.93889 -1.834445,0 -2.116667,0.42333 -0.987778,1.55222 2.822222,2.25778 4.374444,4.65667 4.374444,7.19667 v 15.94555 c -12.135555,1.83445 -22.295556,3.10445 -30.338889,3.95111 l -4.374445,-4.51555 c -1.834444,-0.70556 -2.398889,-0.28222 -1.693333,1.12889 0.423333,0.42333 0.705555,0.98778 1.128889,1.69333 0.705555,1.12889 1.128889,2.68111 1.128889,4.93889 v 13.82889 c 0,1.41111 -0.282223,3.38667 -0.564445,6.06778 0,3.24555 1.552222,6.20889 4.374445,8.74889 1.128889,1.12889 1.975555,0.98777 2.822222,-0.56445 v -4.93889 l -1.693333,-23.70666 c 1.411111,1.55222 3.104444,1.69333 4.938889,0.56444 16.933333,-1.83444 38.100001,-4.37444 63.35889,-7.76111 0.42333,0.42333 0.70556,0.98778 1.12889,1.69333 -6.20889,16.93334 -13.123335,31.46778 -20.884446,43.60334 -8.043333,12.41777 -18.062223,23.70666 -29.774445,33.58444 -0.423333,1.83445 0.141111,2.39889 1.552222,1.69334 13.264445,-10.30112 23.847779,-20.88445 32.032223,-31.46778 8.466667,-11.00667 16.651116,-25.96445 24.835555,-44.59112 2.11667,-1.12888 2.82222,-2.39888 1.55222,-3.38666 z"
             style="font-size:141.1111145px;stroke-width:0.01852198"
             id="path38"
             inkscape:connector-curvature="0" />
        </g>
      </g>
    </g>
  </g>
</svg>
