<svg width="100" height="100" viewBox="0 0 100 100" fill="none" xmlns="http://www.w3.org/2000/svg">
<path d="M65.456 14.716H53.444C53.864 16.984 54.032 19.672 54.284 23.284C54.956 37.144 55.124 60.16 55.124 71.752C55.124 74.104 54.368 75.196 52.268 75.196C49.412 75.196 44.876 74.86 41.012 74.272L42.02 85.192C46.808 85.528 51.428 85.696 56.552 85.696C62.936 85.696 66.044 82.588 65.96 77.212C65.792 60.244 65.204 37.144 64.952 23.284C64.868 20.596 65.036 17.404 65.456 14.716ZM17.492 28.744V39.916C20.432 39.748 23.96 39.58 27.068 39.58C31.688 39.58 72.764 39.58 76.04 39.58C78.308 39.58 81.584 39.664 84.188 39.748V28.66C82.172 28.912 78.224 29.332 75.536 29.332C71.42 29.332 32.612 29.332 26.732 29.332C23.876 29.332 19.844 28.996 17.492 28.744ZM12.956 68.728L20.684 77.464C35.132 69.82 50 56.632 56.804 46.468L56.72 37.48H51.26C45.212 47.392 30.512 60.328 12.956 68.728Z" fill="black"/>
</svg>
