<?xml version="1.0" encoding="UTF-8" standalone="no"?>
<!-- Created with Inkscape (http://www.inkscape.org/) -->

<svg
   xmlns:dc="http://purl.org/dc/elements/1.1/"
   xmlns:cc="http://creativecommons.org/ns#"
   xmlns:rdf="http://www.w3.org/1999/02/22-rdf-syntax-ns#"
   xmlns:svg="http://www.w3.org/2000/svg"
   xmlns="http://www.w3.org/2000/svg"
   xmlns:sodipodi="http://sodipodi.sourceforge.net/DTD/sodipodi-0.dtd"
   xmlns:inkscape="http://www.inkscape.org/namespaces/inkscape"
   width="500"
   height="500"
   viewBox="0 0 132.29167 132.29167"
   version="1.1"
   id="svg8"
   inkscape:version="0.92.4 (5da689c313, 2019-01-14)"
   sodipodi:docname="Japanese_Katakana_kyokashotai_KA.svg">
  <defs
     id="defs2" />
  <sodipodi:namedview
     id="base"
     pagecolor="#ffffff"
     bordercolor="#666666"
     borderopacity="1.0"
     inkscape:pageopacity="0.0"
     inkscape:pageshadow="2"
     inkscape:zoom="0.49497475"
     inkscape:cx="-84.935826"
     inkscape:cy="153.78086"
     inkscape:document-units="mm"
     inkscape:current-layer="text3785"
     showgrid="false"
     units="px"
     inkscape:window-width="1440"
     inkscape:window-height="837"
     inkscape:window-x="-8"
     inkscape:window-y="-8"
     inkscape:window-maximized="1" />
  <metadata
     id="metadata5">
    <rdf:RDF>
      <cc:Work
         rdf:about="">
        <dc:format>image/svg+xml</dc:format>
        <dc:type
           rdf:resource="http://purl.org/dc/dcmitype/StillImage" />
        <dc:title></dc:title>
      </cc:Work>
    </rdf:RDF>
  </metadata>
  <g
     inkscape:label="Layer 1"
     inkscape:groupmode="layer"
     id="layer1"
     transform="translate(0,-164.70835)">
    <g
       aria-label="リ"
       style="font-style:normal;font-variant:normal;font-weight:normal;font-stretch:normal;font-size:25.39999962px;line-height:1.25;font-family:MHGKyokashotaiTHK;-inkscape-font-specification:MHGKyokashotaiTHK;letter-spacing:0px;word-spacing:0px;fill:#000000;fill-opacity:1;stroke:none;stroke-width:0.26458332"
       id="text12">
      <g
         aria-label="イ"
         style="font-style:normal;font-variant:normal;font-weight:normal;font-stretch:normal;font-size:25.39999962px;line-height:1.25;font-family:MHGKyokashotaiTHK;-inkscape-font-specification:MHGKyokashotaiTHK;letter-spacing:0px;word-spacing:0px;fill:#000000;fill-opacity:1;stroke:none;stroke-width:0.07000434"
         id="text20">
        <g
           aria-label="ウ"
           style="font-style:normal;font-variant:normal;font-weight:normal;font-stretch:normal;font-size:25.39999962px;line-height:1.25;font-family:MHGKyokashotaiTHK;-inkscape-font-specification:MHGKyokashotaiTHK;letter-spacing:0px;word-spacing:0px;fill:#000000;fill-opacity:1;stroke:none;stroke-width:0.01852198"
           id="text36">
          <g
             aria-label="エ"
             style="font-style:normal;font-variant:normal;font-weight:normal;font-stretch:normal;font-size:25.39999962px;line-height:1.25;font-family:MHGKyokashotaiTHK;-inkscape-font-specification:MHGKyokashotaiTHK;letter-spacing:0px;word-spacing:0px;fill:#000000;fill-opacity:1;stroke:none;stroke-width:0.00490061"
             id="text52">
            <g
               aria-label="オ"
               style="font-style:normal;font-variant:normal;font-weight:normal;font-stretch:normal;font-size:25.39999962px;line-height:1.25;font-family:MHGKyokashotaiTHK;-inkscape-font-specification:MHGKyokashotaiTHK;letter-spacing:0px;word-spacing:0px;fill:#000000;fill-opacity:1;stroke:none;stroke-width:0.00129662"
               id="text65">
              <g
                 aria-label="カ"
                 style="font-style:normal;font-variant:normal;font-weight:normal;font-stretch:normal;font-size:25.39999962px;line-height:1.25;font-family:MHGKyokashotaiTHK;-inkscape-font-specification:MHGKyokashotaiTHK;letter-spacing:0px;word-spacing:0px;fill:#000000;fill-opacity:1;stroke:none;stroke-width:0.00034306"
                 id="text3785">
                <path
                   d="m 113.12695,206.21927 -7.05555,-4.93889 c -0.42333,-0.42333 -1.83445,0 -4.51556,1.12889 l -30.197776,5.50334 c 2.822222,-5.50334 5.503334,-11.71223 7.62,-18.76778 1.834445,-1.12889 2.257778,-2.11667 1.128889,-3.24556 -4.374444,-4.79778 -7.478889,-7.19666 -9.313333,-7.19666 -1.834445,-0.70556 -2.398889,-0.42334 -1.693334,1.12888 2.257778,2.11667 3.245556,3.95112 3.245556,5.50334 0,1.41111 -0.423333,3.81 -1.552222,7.19666 -1.128889,3.24556 -3.104445,8.74889 -6.067778,16.51 l -24.271112,4.37445 c -4.374444,0.84667 -8.043333,0.70555 -11.006667,0 -1.552222,-0.70556 -1.834444,-0.14111 -1.128889,1.69333 1.834445,1.41111 4.797778,3.24556 8.748889,5.50334 1.128889,-0.42334 2.257778,-0.84667 3.386667,-1.12889 6.632223,-1.83445 13.828889,-3.52778 21.44889,-4.93889 -10.301112,23.14222 -24.835557,44.02667 -43.462224,62.79444 -0.423333,1.83445 0.141111,2.39889 1.552223,1.69334 11.43,-9.87778 20.884444,-19.89667 28.222222,-29.77445 8.043334,-11.00666 15.381112,-23.14222 22.013334,-36.40667 11.006667,-2.54 21.590001,-4.51555 31.891115,-6.06777 1.55222,-0.28223 2.25777,0.42333 2.25777,2.25777 -1.12888,10.58334 -4.656662,23.28334 -10.442217,37.95889 -4.092223,10.30112 -8.466667,17.92112 -13.264445,22.57778 -1.834445,1.83445 -3.668889,2.54 -5.503334,1.69334 -3.668889,-1.69334 -7.337778,-3.95111 -11.006667,-6.63223 -1.552222,-0.70555 -1.834444,-0.28222 -1.128889,1.12889 5.503334,5.50334 9.031112,9.03111 10.442223,10.44223 1.128889,1.12888 2.257778,3.38666 3.386667,6.63222 0.705555,0.70555 1.411111,0.70555 2.116666,0 6.350001,-6.20889 11.571112,-14.11111 16.086667,-23.70667 6.208889,-13.26444 11.712219,-29.77444 16.509999,-49.53 2.54,-1.12889 3.10445,-2.25778 1.55222,-3.38667 z"
                   style="font-size:141.1111145px;stroke-width:0.00034306"
                   id="path3787"
                   inkscape:connector-curvature="0" />
              </g>
            </g>
          </g>
        </g>
      </g>
    </g>
  </g>
</svg>
