<svg width="100" height="100" viewBox="0 0 100 100" fill="none" xmlns="http://www.w3.org/2000/svg">
<path d="M52.688 14.632H40.256C40.592 16.648 40.928 20.512 40.928 22.36C40.844 44.536 36.98 58.816 25.976 69.736C22.616 73.18 18.416 75.952 14.888 77.884L24.716 85.78C43.28 72.592 51.176 55.54 52.1 22.192C52.184 20.176 52.436 16.648 52.688 14.632ZM81.164 32.692L73.94 29.08C71.924 29.5 69.74 29.668 67.556 29.668H28.664C25.472 29.668 21.188 29.5 17.66 29.08V40.168C21.188 39.832 25.892 39.748 28.748 39.748H69.74C69.74 48.82 68.564 65.62 66.128 70.912C65.288 73.012 64.112 73.936 61.424 73.936C58.064 73.936 53.78 73.432 49.58 72.76L50.924 83.932C55.04 84.268 59.996 84.688 64.868 84.688C70.58 84.688 73.856 82.42 75.62 78.22C79.232 69.652 80.324 46.216 80.66 37.06C80.66 36.136 80.912 34.036 81.164 32.692Z" fill="black"/>
</svg>
