<svg width="100" height="100" viewBox="0 0 100 100" fill="none" xmlns="http://www.w3.org/2000/svg">
<path d="M38.576 22.024C39.92 28.828 48.068 71.164 49.328 78.724C49.916 81.244 50.084 84.1 50.504 87.208L62.6 85.108C61.844 82.336 61.088 79.312 60.5 76.876C58.736 68.308 50.42 25.804 49.58 20.26C49.244 18.244 48.908 15.388 48.74 13.792L36.812 15.724C37.484 17.656 38.072 19.672 38.576 22.024ZM15.644 32.776L17.912 44.368C20.768 43.612 22.952 43.108 25.556 42.604C31.856 41.512 60.752 36.892 69.656 35.464C72.176 35.128 75.62 34.624 77.468 34.54L75.368 23.452C73.352 24.04 70.16 24.796 67.556 25.216C59.996 26.728 30.596 31.264 23.456 32.104C20.768 32.44 18.248 32.608 15.644 32.776ZM15.728 57.388L18.08 68.644C19.928 68.14 22.868 67.636 26.48 66.964C34.796 65.368 65.036 60.412 75.704 58.816C78.812 58.312 82.256 57.724 84.524 57.556L82.34 46.468C80.072 47.056 76.964 47.812 73.688 48.4C64.028 50.248 33.368 55.204 24.38 56.464C21.776 56.884 17.912 57.304 15.728 57.388Z" fill="black"/>
</svg>
