<?xml version="1.0" encoding="UTF-8" standalone="no"?>
<!-- Created with Inkscape (http://www.inkscape.org/) -->

<svg
   xmlns:dc="http://purl.org/dc/elements/1.1/"
   xmlns:cc="http://creativecommons.org/ns#"
   xmlns:rdf="http://www.w3.org/1999/02/22-rdf-syntax-ns#"
   xmlns:svg="http://www.w3.org/2000/svg"
   xmlns="http://www.w3.org/2000/svg"
   xmlns:sodipodi="http://sodipodi.sourceforge.net/DTD/sodipodi-0.dtd"
   xmlns:inkscape="http://www.inkscape.org/namespaces/inkscape"
   width="500"
   height="500"
   viewBox="0 0 132.29167 132.29167"
   version="1.1"
   id="svg8"
   inkscape:version="0.92.4 (5da689c313, 2019-01-14)"
   sodipodi:docname="Japanese_Katakana_kyokashotai_KI.svg">
  <defs
     id="defs2" />
  <sodipodi:namedview
     id="base"
     pagecolor="#ffffff"
     bordercolor="#666666"
     borderopacity="1.0"
     inkscape:pageopacity="0.0"
     inkscape:pageshadow="2"
     inkscape:zoom="0.49497475"
     inkscape:cx="-327.37244"
     inkscape:cy="153.78086"
     inkscape:document-units="mm"
     inkscape:current-layer="text25"
     showgrid="false"
     units="px"
     inkscape:window-width="1440"
     inkscape:window-height="837"
     inkscape:window-x="-8"
     inkscape:window-y="-8"
     inkscape:window-maximized="1" />
  <metadata
     id="metadata5">
    <rdf:RDF>
      <cc:Work
         rdf:about="">
        <dc:format>image/svg+xml</dc:format>
        <dc:type
           rdf:resource="http://purl.org/dc/dcmitype/StillImage" />
        <dc:title></dc:title>
      </cc:Work>
    </rdf:RDF>
  </metadata>
  <g
     inkscape:label="Layer 1"
     inkscape:groupmode="layer"
     id="layer1"
     transform="translate(0,-164.70835)">
    <g
       aria-label="リ"
       style="font-style:normal;font-variant:normal;font-weight:normal;font-stretch:normal;font-size:25.39999962px;line-height:1.25;font-family:MHGKyokashotaiTHK;-inkscape-font-specification:MHGKyokashotaiTHK;letter-spacing:0px;word-spacing:0px;fill:#000000;fill-opacity:1;stroke:none;stroke-width:0.26458332"
       id="text12">
      <g
         aria-label="イ"
         style="font-style:normal;font-variant:normal;font-weight:normal;font-stretch:normal;font-size:25.39999962px;line-height:1.25;font-family:MHGKyokashotaiTHK;-inkscape-font-specification:MHGKyokashotaiTHK;letter-spacing:0px;word-spacing:0px;fill:#000000;fill-opacity:1;stroke:none;stroke-width:0.07000434"
         id="text20">
        <g
           aria-label="ウ"
           style="font-style:normal;font-variant:normal;font-weight:normal;font-stretch:normal;font-size:25.39999962px;line-height:1.25;font-family:MHGKyokashotaiTHK;-inkscape-font-specification:MHGKyokashotaiTHK;letter-spacing:0px;word-spacing:0px;fill:#000000;fill-opacity:1;stroke:none;stroke-width:0.01852198"
           id="text36">
          <g
             aria-label="エ"
             style="font-style:normal;font-variant:normal;font-weight:normal;font-stretch:normal;font-size:25.39999962px;line-height:1.25;font-family:MHGKyokashotaiTHK;-inkscape-font-specification:MHGKyokashotaiTHK;letter-spacing:0px;word-spacing:0px;fill:#000000;fill-opacity:1;stroke:none;stroke-width:0.00490061"
             id="text52">
            <g
               aria-label="オ"
               style="font-style:normal;font-variant:normal;font-weight:normal;font-stretch:normal;font-size:25.39999962px;line-height:1.25;font-family:MHGKyokashotaiTHK;-inkscape-font-specification:MHGKyokashotaiTHK;letter-spacing:0px;word-spacing:0px;fill:#000000;fill-opacity:1;stroke:none;stroke-width:0.00129662"
               id="text65">
              <g
                 aria-label="カ"
                 style="font-style:normal;font-variant:normal;font-weight:normal;font-stretch:normal;font-size:25.39999962px;line-height:1.25;font-family:MHGKyokashotaiTHK;-inkscape-font-specification:MHGKyokashotaiTHK;letter-spacing:0px;word-spacing:0px;fill:#000000;fill-opacity:1;stroke:none;stroke-width:0.00034306"
                 id="text3785">
                <g
                   aria-label="キ"
                   style="font-style:normal;font-variant:normal;font-weight:normal;font-stretch:normal;font-size:25.39999962px;line-height:1.25;font-family:MHGKyokashotaiTHK;-inkscape-font-specification:MHGKyokashotaiTHK;letter-spacing:0px;word-spacing:0px;fill:#000000;fill-opacity:1;stroke:none;stroke-width:0.00009077"
                   id="text25">
                  <path
                     d="m 114.04393,224.04869 c -2.25778,-1.55222 -6.20889,-2.68111 -12.13555,-3.38666 -1.41112,0 -3.104449,0.56444 -4.938894,1.69333 -9.877778,2.54 -19.332223,4.93889 -28.081112,7.19667 L 64.372819,206.4098 c 7.761111,-2.25778 15.804444,-4.79778 24.271111,-7.76111 2.257778,-0.70555 2.257778,-1.83444 0,-3.24555 -2.54,-0.84667 -4.797778,-1.12889 -6.632222,-1.12889 -2.116667,0 -3.81,0.14111 -4.938889,0.56444 l -3.245556,2.11667 c -2.963333,1.55222 -6.491111,2.96333 -10.442222,4.51555 -0.846667,-4.09222 -1.552222,-7.62 -2.257778,-10.58333 -0.423333,-1.83444 -0.423333,-3.81 0,-6.06778 0.705556,-2.11666 0.564444,-3.52778 -0.564445,-3.81 -4.797777,-1.55222 -8.607778,-2.25778 -11.571111,-2.25778 -1.411111,0 -1.693333,0.56445 -0.564444,1.69334 3.386666,0.70555 5.221111,3.10444 6.067778,7.19666 l 3.386666,15.94556 c -8.184444,2.96333 -14.816667,5.22111 -19.896667,6.63222 -2.54,0.70556 -5.362222,0.70556 -8.325556,0 -1.411111,-0.70555 -1.552222,-0.42333 -0.564444,1.12889 3.668889,2.11667 6.35,3.52778 7.761111,3.81 0.705556,0 2.257778,-0.42333 4.374445,-1.12889 5.926667,-1.83444 11.853333,-3.81 17.638889,-6.06777 l 4.515556,23.14222 c -9.595556,2.96333 -21.44889,6.77333 -35.277779,11.57111 -3.81,1.41111 -6.914444,2.25778 -9.454445,2.25778 -1.411111,0 -1.693333,0.56444 -0.564444,1.69333 2.54,1.12889 5.362222,1.97556 8.325556,2.68111 0.705555,-0.28222 2.116666,-1.12889 4.374444,-2.11667 9.172223,-4.23333 20.461112,-7.90222 33.584446,-11.57111 l 6.067777,30.76223 c 0.423334,1.83444 0.564445,3.66889 0.564445,5.64444 0,2.82222 1.693333,6.20889 4.938889,9.87778 2.681111,1.83444 4.092222,1.27 4.515556,-1.69333 -1.128889,-4.79778 -4.656667,-20.17889 -10.583334,-46.28445 10.301111,-2.25778 18.062223,-3.52778 23.283334,-4.37444 6.208889,-0.98778 11.994444,-1.55223 17.638894,-1.12889 3.95111,-0.42334 5.08,-1.83445 3.24555,-4.37445 z"
                     style="font-size:141.1111145px;stroke-width:0.00009077"
                     id="path27" />
                </g>
              </g>
            </g>
          </g>
        </g>
      </g>
    </g>
  </g>
</svg>
