<svg width="200" height="100" viewBox="0 0 200 100" fill="none" xmlns="http://www.w3.org/2000/svg">
<path d="M46.576 27.024C47.92 33.828 56.068 76.164 57.328 83.724C57.916 86.244 58.084 89.1 58.504 92.208L70.6 90.108C69.844 87.336 69.088 84.312 68.5 81.876C66.736 73.308 58.42 30.804 57.58 25.26C57.244 23.244 56.908 20.388 56.74 18.792L44.812 20.724C45.484 22.656 46.072 24.672 46.576 27.024ZM23.644 37.776L25.912 49.368C28.768 48.612 30.952 48.108 33.556 47.604C39.856 46.512 68.752 41.892 77.656 40.464C80.176 40.128 83.62 39.624 85.468 39.54L83.368 28.452C81.352 29.04 78.16 29.796 75.556 30.216C67.996 31.728 38.596 36.264 31.456 37.104C28.768 37.44 26.248 37.608 23.644 37.776ZM23.728 62.388L26.08 73.644C27.928 73.14 30.868 72.636 34.48 71.964C42.796 70.368 73.036 65.412 83.704 63.816C86.812 63.312 90.256 62.724 92.524 62.556L90.34 51.468C88.072 52.056 84.964 52.812 81.688 53.4C72.028 55.248 41.368 60.204 32.38 61.464C29.776 61.884 25.912 62.304 23.728 62.388ZM163.672 47.016L155.608 43.068C154.516 43.656 151.072 43.992 149.392 43.992C145.36 43.992 132.088 43.992 127.804 43.992C125.62 43.992 121.756 43.74 119.488 43.404V54.492C121.924 54.324 125.284 54.156 127.888 54.156C130.324 54.156 146.62 54.156 150.652 54.156C150.232 59.784 147.712 75.996 146.62 81.54H158.212C159.22 75.492 162.076 56.424 162.916 50.544C163 49.62 163.336 48.108 163.672 47.016ZM111.844 77.424V88.428C114.952 88.26 117.136 88.176 120.076 88.176C124.36 88.176 159.976 88.176 164.344 88.176C166.528 88.176 170.644 88.26 172.408 88.344V77.508C170.224 77.76 166.276 77.928 164.176 77.928C160.06 77.928 125.116 77.928 120.076 77.928C117.22 77.928 114.028 77.676 111.844 77.424Z" fill="black"/>
</svg>
