<svg width="200" height="100" viewBox="0 0 200 100" fill="none" xmlns="http://www.w3.org/2000/svg">
<path d="M46.576 27.024C47.92 33.828 56.068 76.164 57.328 83.724C57.916 86.244 58.084 89.1 58.504 92.208L70.6 90.108C69.844 87.336 69.088 84.312 68.5 81.876C66.736 73.308 58.42 30.804 57.58 25.26C57.244 23.244 56.908 20.388 56.74 18.792L44.812 20.724C45.484 22.656 46.072 24.672 46.576 27.024ZM23.644 37.776L25.912 49.368C28.768 48.612 30.952 48.108 33.556 47.604C39.856 46.512 68.752 41.892 77.656 40.464C80.176 40.128 83.62 39.624 85.468 39.54L83.368 28.452C81.352 29.04 78.16 29.796 75.556 30.216C67.996 31.728 38.596 36.264 31.456 37.104C28.768 37.44 26.248 37.608 23.644 37.776ZM23.728 62.388L26.08 73.644C27.928 73.14 30.868 72.636 34.48 71.964C42.796 70.368 73.036 65.412 83.704 63.816C86.812 63.312 90.256 62.724 92.524 62.556L90.34 51.468C88.072 52.056 84.964 52.812 81.688 53.4C72.028 55.248 41.368 60.204 32.38 61.464C29.776 61.884 25.912 62.304 23.728 62.388ZM133.6 33.66L122.26 36.348C123.184 38.112 124.108 40.212 124.696 42.312C127.384 51.048 135.028 81.036 137.128 88.344C137.8 90.696 138.304 93.468 138.64 95.736L149.98 92.88C149.392 91.2 148.216 87.504 147.796 85.992C145.696 79.02 137.8 50.124 134.944 40.044C134.44 37.86 133.852 35.676 133.6 33.66ZM173.92 46.68L167.116 41.892C166.024 42.396 164.344 42.9 162.916 43.236C156.952 44.58 123.352 50.964 118.816 51.636C116.044 52.14 113.692 52.392 111.088 52.644L113.692 62.64C120.58 61.128 154.768 53.988 159.136 53.232C156.868 57.348 151.072 64.404 146.704 68.268L156.028 72.888C161.908 66.672 170.308 53.988 173.92 46.68Z" fill="black"/>
</svg>
