<svg width="200" height="100" viewBox="0 0 200 100" fill="none" xmlns="http://www.w3.org/2000/svg">
<path d="M79.924 17.868L73.288 20.556C75.556 23.832 78.076 28.788 79.84 32.232L86.56 29.376C84.964 26.268 82.024 20.892 79.924 17.868ZM89.836 14.088L83.2 16.776C85.468 19.968 88.24 24.84 89.92 28.368L96.64 25.512C95.128 22.572 92.02 17.196 89.836 14.088ZM45.316 28.536C46.66 35.34 54.808 77.676 56.068 85.236C56.656 87.756 56.824 90.612 57.244 93.72L69.34 91.62C68.584 88.848 67.828 85.824 67.24 83.388C65.476 74.82 57.16 32.316 56.32 26.772C55.984 24.756 55.648 21.9 55.48 20.304L43.552 22.152C44.224 24.168 44.812 26.184 45.316 28.536ZM22.384 39.288L24.652 50.796C27.508 50.124 29.692 49.62 32.296 49.116C38.596 48.024 67.492 43.404 76.396 41.976C78.916 41.64 82.36 41.136 84.208 40.968L82.108 29.964C80.092 30.552 76.9 31.224 74.296 31.728C66.736 33.24 37.336 37.776 30.196 38.616C27.508 38.952 24.988 39.12 22.384 39.288ZM22.468 63.9L24.82 75.156C26.752 74.652 29.608 74.064 33.22 73.476C41.536 71.88 71.776 66.924 82.444 65.328C85.552 64.824 88.996 64.152 91.264 63.984L89.08 52.896C86.812 53.568 83.704 54.24 80.428 54.912C70.768 56.76 40.108 61.716 31.12 62.976C28.516 63.396 24.652 63.816 22.468 63.9ZM163.672 47.016L155.608 43.068C154.516 43.656 151.072 43.992 149.392 43.992C145.36 43.992 132.088 43.992 127.804 43.992C125.62 43.992 121.756 43.74 119.488 43.404V54.492C121.924 54.324 125.284 54.156 127.888 54.156C130.324 54.156 146.62 54.156 150.652 54.156C150.232 59.784 147.712 75.996 146.62 81.54H158.212C159.22 75.492 162.076 56.424 162.916 50.544C163 49.62 163.336 48.108 163.672 47.016ZM111.844 77.424V88.428C114.952 88.26 117.136 88.176 120.076 88.176C124.36 88.176 159.976 88.176 164.344 88.176C166.528 88.176 170.644 88.26 172.408 88.344V77.508C170.224 77.76 166.276 77.928 164.176 77.928C160.06 77.928 125.116 77.928 120.076 77.928C117.22 77.928 114.028 77.676 111.844 77.424Z" fill="black"/>
</svg>
