<svg width="200" height="100" viewBox="0 0 200 100" fill="none" xmlns="http://www.w3.org/2000/svg">
<path d="M79.924 17.868L73.288 20.556C75.556 23.832 78.076 28.788 79.84 32.232L86.56 29.376C84.964 26.268 82.024 20.892 79.924 17.868ZM89.836 14.088L83.2 16.776C85.468 19.968 88.24 24.84 89.92 28.368L96.64 25.512C95.128 22.572 92.02 17.196 89.836 14.088ZM45.316 28.536C46.66 35.34 54.808 77.676 56.068 85.236C56.656 87.756 56.824 90.612 57.244 93.72L69.34 91.62C68.584 88.848 67.828 85.824 67.24 83.388C65.476 74.82 57.16 32.316 56.32 26.772C55.984 24.756 55.648 21.9 55.48 20.304L43.552 22.152C44.224 24.168 44.812 26.184 45.316 28.536ZM22.384 39.288L24.652 50.796C27.508 50.124 29.692 49.62 32.296 49.116C38.596 48.024 67.492 43.404 76.396 41.976C78.916 41.64 82.36 41.136 84.208 40.968L82.108 29.964C80.092 30.552 76.9 31.224 74.296 31.728C66.736 33.24 37.336 37.776 30.196 38.616C27.508 38.952 24.988 39.12 22.384 39.288ZM22.468 63.9L24.82 75.156C26.752 74.652 29.608 74.064 33.22 73.476C41.536 71.88 71.776 66.924 82.444 65.328C85.552 64.824 88.996 64.152 91.264 63.984L89.08 52.896C86.812 53.568 83.704 54.24 80.428 54.912C70.768 56.76 40.108 61.716 31.12 62.976C28.516 63.396 24.652 63.816 22.468 63.9ZM117.808 39.624V49.704C119.908 49.62 125.116 49.452 128.224 49.452C135.028 49.452 152.752 49.452 156.028 49.452C156.028 52.224 156.028 78.516 156.028 87.084C156.028 88.764 156.028 91.956 155.944 93.3H166.444C166.444 91.872 166.36 88.932 166.36 87.588C166.36 80.952 166.36 48.864 166.36 45.504C166.36 43.74 166.36 40.968 166.444 39.792C165.1 39.876 161.992 39.96 160.06 39.96C153.088 39.96 135.112 39.96 128.224 39.96C125.116 39.96 119.992 39.792 117.808 39.624ZM119.992 59.28V69.276C122.008 69.108 126.04 69.108 129.232 69.108C133.348 69.108 158.548 69.108 160.9 69.108V59.532C158.632 59.532 133.348 59.532 129.232 59.532C126.04 59.532 122.176 59.448 119.992 59.28ZM116.968 79.86V90.192C118.312 90.192 121.756 90.024 124.192 90.024C129.4 90.024 156.364 90.024 160.984 90.024V80.196C157.372 80.196 129.4 80.196 124.192 80.196C121.168 80.196 118.312 80.028 116.968 79.86Z" fill="black"/>
</svg>
