<svg width="100" height="100" viewBox="0 0 100 100" fill="none" xmlns="http://www.w3.org/2000/svg">
<path d="M73.436 13.204L66.716 15.976C68.984 19.168 71.588 24.208 73.352 27.652L80.072 24.712C78.476 21.604 75.536 16.312 73.436 13.204ZM83.348 9.424L76.712 12.196C78.98 15.304 81.668 20.26 83.432 23.704L90.152 20.848C88.64 17.908 85.532 12.616 83.348 9.424ZM80.912 31.684L72.344 26.392C70.412 27.064 67.64 27.4 65.036 27.4C62.348 27.4 44.792 27.4 41.012 27.4L37.148 36.976H65.456C64.112 43.192 59.24 53.272 53.528 59.824C46.22 68.14 36.896 75.448 19.676 80.656L29.588 89.476C45.38 83.26 55.544 75.532 63.524 65.788C71.084 56.464 75.872 45.208 78.14 37.732C78.812 35.632 79.988 33.364 80.912 31.684ZM53.528 18.412L41.264 14.38C40.508 17.236 38.744 21.184 37.484 23.2C33.284 30.424 25.976 41.26 11.192 50.248L20.684 57.22C32.696 48.988 42.776 37.144 48.404 26.98C49.412 25.216 51.596 21.352 53.528 18.412Z" fill="black"/>
</svg>
