<svg width="100" height="100" viewBox="0 0 100 100" fill="none" xmlns="http://www.w3.org/2000/svg">
<path d="M45.632 16.228L32.696 13.708C32.528 16.312 31.856 19.504 30.932 22.276C29.924 25.468 28.328 29.92 26.06 33.784C22.868 39.076 17.492 46.636 11.444 51.088L22.028 57.472C27.572 52.516 33.284 44.452 36.644 37.816C38.828 33.532 41.432 27.316 42.86 23.116C43.616 21.268 44.708 18.412 45.632 16.228ZM32.36 29.248L31.52 39.832C39.08 39.832 70.916 39.832 76.796 39.832C78.728 39.832 82.34 39.832 85.532 40.084V28.66C82.76 29.08 78.896 29.248 76.796 29.248C71 29.248 39.08 29.248 32.36 29.248ZM65.204 35.296H53.528C53.192 55.54 45.716 67.132 36.14 74.44C34.208 76.12 31.268 77.8 28.244 79.06L39.584 86.62C55.796 76.456 64.616 60.076 65.204 35.296Z" fill="black"/>
</svg>
