<svg width="100" height="100" viewBox="0 0 100 100" fill="none" xmlns="http://www.w3.org/2000/svg">
<path d="M72.764 14.128L66.128 16.9C68.396 20.092 71 25.132 72.68 28.492L79.4 25.636C77.888 22.528 74.864 17.236 72.764 14.128ZM82.676 10.348L76.04 13.036C78.392 16.228 81.08 21.1 82.844 24.628L89.48 21.772C87.968 18.832 84.944 13.456 82.676 10.348ZM44.876 18.16L31.94 15.64C31.772 18.244 31.1 21.436 30.176 24.208C29.084 27.484 27.572 31.852 25.304 35.716C22.112 41.008 16.652 48.568 10.688 53.02L21.272 59.404C26.816 54.532 32.528 46.384 35.888 39.748C38.072 35.464 40.592 29.248 42.104 25.048C42.776 23.284 43.952 20.344 44.876 18.16ZM31.604 31.18L30.68 41.764C38.576 41.764 71.756 41.764 76.04 41.764C77.972 41.764 81.584 41.764 84.776 42.016V30.592C82.004 31.012 78.14 31.18 76.04 31.18C71.756 31.18 38.912 31.18 31.604 31.18ZM64.448 37.228H52.772C52.436 57.472 44.96 69.064 35.384 76.372C33.452 78.052 30.512 79.732 27.488 80.992L38.828 88.636C55.04 78.388 63.86 62.008 64.448 37.228Z" fill="black"/>
</svg>
