<svg width="100" height="100" viewBox="0 0 100 100" fill="none" xmlns="http://www.w3.org/2000/svg">
<path d="M21.104 22.36V34.12C23.456 33.952 27.992 33.784 31.52 33.784H69.32V75.28C69.32 78.388 69.236 81.412 69.152 83.932H81.332C81.164 81.328 80.912 76.96 80.912 74.02V30.508C80.912 27.988 81.08 24.712 81.164 22.696C79.736 22.78 76.292 22.948 73.856 22.948H31.52C28.58 22.948 24.296 22.696 21.104 22.36ZM20.096 67.972V80.068C22.868 79.732 27.572 79.564 30.848 79.564H75.956V68.476H30.512C26.732 68.476 22.952 68.224 20.096 67.972Z" fill="black"/>
</svg>
