<svg width="100" height="100" viewBox="0 0 100 100" fill="none" xmlns="http://www.w3.org/2000/svg">
<path d="M70.664 11.86L63.776 14.716C65.96 17.908 68.648 22.528 70.244 26.14L77.3 23.2C75.788 20.092 72.848 14.968 70.664 11.86ZM82.088 9.172L75.032 12.028C77.384 15.136 79.988 19.84 81.752 23.284L88.808 20.344C87.212 17.32 84.188 12.28 82.088 9.172ZM19.088 25.048V36.808C21.524 36.64 25.976 36.472 29.588 36.472H67.304V77.968C67.304 81.076 67.22 84.1 67.136 86.62H79.316C79.148 84.016 78.98 79.564 78.98 76.708V33.196C78.98 30.676 79.148 27.4 79.232 25.384C77.804 25.468 74.276 25.636 71.84 25.636H29.504C26.648 25.636 22.28 25.384 19.088 25.048ZM18.08 70.66V82.756C20.852 82.42 25.64 82.252 28.916 82.252H73.94V71.164H28.58C24.8 71.164 20.936 70.912 18.08 70.66Z" fill="black"/>
</svg>
