<svg width="100" height="100" viewBox="0 0 100 100" fill="none" xmlns="http://www.w3.org/2000/svg">
<path d="M70.832 44.956V22.948C70.832 19.588 71.168 16.9 71.336 15.22H59.324C59.66 16.816 59.828 19.588 59.828 22.948V45.292C59.828 65.956 52.772 73.264 36.476 78.892L45.464 87.376C65.792 78.388 70.832 65.704 70.832 44.956ZM40.424 15.892H28.496C28.832 18.496 29 21.1 29 23.452V53.524C29 57.304 28.748 60.748 28.58 62.344H40.34C40.172 60.748 39.92 57.304 39.92 53.524V23.536C39.92 20.176 40.256 17.488 40.424 15.892ZM12.788 31.012V42.436C14.72 42.352 17.66 42.184 21.86 42.184H77.048C81.416 42.184 84.44 42.184 86.288 42.436V31.264C83.936 31.6 81.416 31.852 76.964 31.852H21.86C17.744 31.852 14.3 31.264 12.788 31.012Z" fill="black"/>
</svg>
