<svg width="100" height="100" viewBox="0 0 100 100" fill="none" xmlns="http://www.w3.org/2000/svg">
<path d="M76.628 16.732L70.916 18.496C72.596 21.94 74.024 26.476 75.2 30.088L80.996 28.156C80.072 24.88 78.224 20.008 76.628 16.732ZM85.28 14.044L79.568 15.808C81.248 19.168 82.844 23.62 84.104 27.316L89.816 25.468C88.808 22.276 86.876 17.32 85.28 14.044ZM69.404 46.216V24.292C69.404 20.848 69.74 18.16 69.908 16.48H57.98C58.232 18.076 58.4 20.848 58.4 24.292V46.636C58.4 67.216 51.344 74.524 35.048 80.152L44.12 88.636C64.364 79.732 69.404 66.964 69.404 46.216ZM38.996 17.236H27.068C27.404 19.756 27.572 22.36 27.572 24.796V54.868C27.572 58.648 27.32 62.008 27.152 63.604H38.912C38.744 62.008 38.492 58.564 38.492 54.868V24.796C38.492 21.436 38.828 18.748 38.996 17.236ZM11.36 32.356V43.78C13.292 43.612 16.232 43.444 20.516 43.444H75.62C79.988 43.444 83.012 43.444 84.86 43.696V32.524C82.508 32.944 79.988 33.112 75.536 33.112H20.516C16.316 33.112 12.872 32.608 11.36 32.356Z" fill="black"/>
</svg>
