<svg width="100" height="100" viewBox="0 0 100 100" fill="none" xmlns="http://www.w3.org/2000/svg">
<path d="M33.872 15.556L27.824 24.796C33.368 27.904 42.104 33.532 46.808 36.808L53.024 27.568C48.656 24.46 39.416 18.58 33.872 15.556ZM18.332 75.196L24.632 86.2C32.024 84.856 44.12 80.656 52.688 75.868C66.38 67.888 78.308 57.304 86.036 45.628L79.568 34.204C72.932 46.216 61.172 57.724 46.892 65.704C37.736 70.744 27.74 73.6 18.332 75.196ZM20.936 34.708L14.888 43.948C20.516 46.972 29.252 52.6 33.956 55.96L40.172 46.552C35.804 43.444 26.564 37.732 20.936 34.708Z" fill="black"/>
</svg>
