<svg width="200" height="100" viewBox="0 0 200 100" fill="none" xmlns="http://www.w3.org/2000/svg">
<path d="M41.872 20.556L35.824 29.796C41.368 32.904 50.104 38.532 54.808 41.808L61.024 32.568C56.656 29.46 47.416 23.58 41.872 20.556ZM26.332 80.196L32.632 91.2C40.024 89.856 52.12 85.656 60.688 80.868C74.38 72.888 86.308 62.304 94.036 50.628L87.568 39.204C80.932 51.216 69.172 62.724 54.892 70.704C45.736 75.744 35.74 78.6 26.332 80.196ZM28.936 39.708L22.888 48.948C28.516 51.972 37.252 57.6 41.956 60.96L48.172 51.552C43.804 48.444 34.564 42.732 28.936 39.708ZM117.808 39.624V49.704C119.908 49.62 125.116 49.452 128.224 49.452C135.028 49.452 152.752 49.452 156.028 49.452C156.028 52.224 156.028 78.516 156.028 87.084C156.028 88.764 156.028 91.956 155.944 93.3H166.444C166.444 91.872 166.36 88.932 166.36 87.588C166.36 80.952 166.36 48.864 166.36 45.504C166.36 43.74 166.36 40.968 166.444 39.792C165.1 39.876 161.992 39.96 160.06 39.96C153.088 39.96 135.112 39.96 128.224 39.96C125.116 39.96 119.992 39.792 117.808 39.624ZM119.992 59.28V69.276C122.008 69.108 126.04 69.108 129.232 69.108C133.348 69.108 158.548 69.108 160.9 69.108V59.532C158.632 59.532 133.348 59.532 129.232 59.532C126.04 59.532 122.176 59.448 119.992 59.28ZM116.968 79.86V90.192C118.312 90.192 121.756 90.024 124.192 90.024C129.4 90.024 156.364 90.024 160.984 90.024V80.196C157.372 80.196 129.4 80.196 124.192 80.196C121.168 80.196 118.312 80.028 116.968 79.86Z" fill="black"/>
</svg>
