<svg width="200" height="100" viewBox="0 0 200 100" fill="none" xmlns="http://www.w3.org/2000/svg">
<path d="M41.872 20.556L35.824 29.796C41.368 32.904 50.104 38.532 54.808 41.808L61.024 32.568C56.656 29.46 47.416 23.58 41.872 20.556ZM26.332 80.196L32.632 91.2C40.024 89.856 52.12 85.656 60.688 80.868C74.38 72.888 86.308 62.304 94.036 50.628L87.568 39.204C80.932 51.216 69.172 62.724 54.892 70.704C45.736 75.744 35.74 78.6 26.332 80.196ZM28.936 39.708L22.888 48.948C28.516 51.972 37.252 57.6 41.956 60.96L48.172 51.552C43.804 48.444 34.564 42.732 28.936 39.708ZM163.672 47.016L155.608 43.068C154.516 43.656 151.072 43.992 149.392 43.992C145.36 43.992 132.088 43.992 127.804 43.992C125.62 43.992 121.756 43.74 119.488 43.404V54.492C121.924 54.324 125.284 54.156 127.888 54.156C130.324 54.156 146.62 54.156 150.652 54.156C150.232 59.784 147.712 75.996 146.62 81.54H158.212C159.22 75.492 162.076 56.424 162.916 50.544C163 49.62 163.336 48.108 163.672 47.016ZM111.844 77.424V88.428C114.952 88.26 117.136 88.176 120.076 88.176C124.36 88.176 159.976 88.176 164.344 88.176C166.528 88.176 170.644 88.26 172.408 88.344V77.508C170.224 77.76 166.276 77.928 164.176 77.928C160.06 77.928 125.116 77.928 120.076 77.928C117.22 77.928 114.028 77.676 111.844 77.424Z" fill="black"/>
</svg>
