<svg width="200" height="100" viewBox="0 0 200 100" fill="none" xmlns="http://www.w3.org/2000/svg">
<path d="M79.3278 22.572L72.2718 25.428C75.3798 29.796 77.2278 33.408 79.7478 38.7L86.9718 35.508C85.1238 31.644 81.6798 26.1 79.3278 22.572ZM90.9198 18.456L83.7798 21.48C86.8878 25.68 88.9038 28.956 91.5918 34.248L98.8158 31.056C96.7998 27.36 93.5238 21.816 90.9198 18.456ZM42.8718 20.892L36.7398 30.132C42.2838 33.24 51.1038 38.952 55.7238 42.228L62.0238 32.904C57.6558 29.88 48.4158 23.916 42.8718 20.892ZM27.3318 80.532L33.6318 91.62C41.0238 90.276 53.1198 86.076 61.6038 81.204C75.3798 73.308 87.2238 62.64 95.0358 51.048L88.5678 39.624C81.8478 51.636 70.1718 63.144 55.8918 71.124C46.7358 76.164 36.6558 78.936 27.3318 80.532ZM29.9358 40.044L23.8038 49.368C29.5158 52.308 38.1678 58.02 42.9558 61.296L49.0878 51.888C44.8038 48.864 35.5638 43.068 29.9358 40.044ZM131.508 33.66L120.168 36.348C121.092 38.112 122.016 40.212 122.604 42.312C125.292 51.048 132.936 81.036 135.036 88.344C135.708 90.696 136.212 93.468 136.548 95.736L147.888 92.88C147.3 91.2 146.124 87.504 145.704 85.992C143.604 79.02 135.708 50.124 132.852 40.044C132.348 37.86 131.76 35.676 131.508 33.66ZM171.828 46.68L165.024 41.892C163.932 42.396 162.252 42.9 160.824 43.236C154.86 44.58 121.26 50.964 116.724 51.636C113.952 52.14 111.6 52.392 108.996 52.644L111.6 62.64C118.488 61.128 152.676 53.988 157.044 53.232C154.776 57.348 148.98 64.404 144.612 68.268L153.936 72.888C159.816 66.672 168.216 53.988 171.828 46.68Z" fill="black"/>
</svg>
