<svg width="100" height="100" viewBox="0 0 100 100" fill="none" xmlns="http://www.w3.org/2000/svg">
<path d="M77.972 25.132L71.168 20.008C69.404 20.596 66.128 21.016 62.432 21.016C58.736 21.016 37.232 21.016 32.78 21.016C30.344 21.016 25.136 20.764 22.868 20.428V32.44C24.716 32.272 29.336 31.852 32.78 31.852C36.392 31.852 57.812 31.852 61.34 31.852C59.408 37.816 54.284 46.132 48.74 52.432C40.844 61.168 27.908 71.416 14.3 76.456L23.036 85.528C36.056 79.396 48.74 68.98 58.148 58.144C65.372 49.744 71.588 38.32 75.032 30.34C75.788 28.576 77.3 26.056 77.972 25.132ZM59.24 51.172L51.344 58.984C60.332 67.132 69.488 77.128 75.704 85.78L85.28 77.464C79.82 70.744 67.892 58.228 59.24 51.172Z" fill="black"/>
</svg>
