<svg width="100" height="100" viewBox="0 0 100 100" fill="none" xmlns="http://www.w3.org/2000/svg">
<path d="M72.512 12.196L65.876 14.884C68.144 18.328 70.664 23.116 72.428 26.56L79.148 23.704C77.804 20.764 74.696 15.388 72.512 12.196ZM83.096 9.256L76.46 11.944C78.644 15.136 81.416 20.008 83.18 23.536L89.9 20.68C88.388 17.74 85.28 12.364 83.096 9.256ZM76.292 27.148L69.488 22.024C67.724 22.612 64.448 23.116 60.752 23.116C57.056 23.116 35.552 23.116 31.1 23.116C28.664 23.116 23.456 22.78 21.188 22.444V34.456C23.036 34.288 27.656 33.868 31.1 33.868C34.712 33.868 56.132 33.868 59.66 33.868C57.728 39.832 52.604 48.148 47.06 54.448C39.164 63.268 26.228 73.432 12.62 78.556L21.356 87.628C34.376 81.412 47.06 70.996 56.468 60.16C63.692 51.76 69.908 40.336 73.352 32.356C74.108 30.592 75.62 28.072 76.292 27.148ZM57.56 53.188L49.664 61C58.652 69.148 67.808 79.144 74.024 87.796L83.6 79.48C78.14 72.76 66.212 60.244 57.56 53.188Z" fill="black"/>
</svg>
