<svg width="100" height="100" viewBox="0 0 100 100" fill="none" xmlns="http://www.w3.org/2000/svg">
<path d="M72.932 13.372L66.296 16.06C68.564 19.336 71.168 24.292 72.848 27.736L79.568 24.88C78.056 21.772 75.032 16.396 72.932 13.372ZM82.844 9.592L76.208 12.28C78.56 15.472 81.248 20.344 83.012 23.872L89.648 21.016C88.136 18.076 85.112 12.7 82.844 9.592ZM30.428 72.424C30.428 82.42 33.2 87.04 52.352 87.04C61.424 87.04 71.42 86.2 78.392 85.192L78.728 73.768C70.412 75.448 61.088 76.54 52.268 76.54C43.028 76.54 41.6 74.776 41.6 69.484C41.6 60.16 41.6 37.144 41.6 26.98C41.6 24.124 41.936 19.84 42.272 17.32H29.756C30.176 19.84 30.428 24.124 30.428 26.98C30.428 37.228 30.428 65.536 30.428 72.424ZM83.348 35.548L75.284 29.248C73.688 30.172 71.672 30.676 69.32 31.264C61.676 33.112 22.112 40.84 10.772 42.184L12.788 53.272C23.372 50.836 62.264 43.192 67.388 42.1C65.036 46.468 59.492 54.196 53.948 59.152L63.188 64.612C69.236 58.648 76.88 47.14 80.576 40.084C81.332 38.656 82.592 36.724 83.348 35.548Z" fill="black"/>
</svg>
