<svg width="100" height="100" viewBox="0 0 100 100" fill="none" xmlns="http://www.w3.org/2000/svg">
<path d="M43.952 42.688L36.476 50.332C46.304 56.548 62.264 68.308 69.572 75.196L77.636 65.62C69.824 59.404 54.284 48.652 43.952 42.688ZM83.516 28.408L74.948 23.116C73.016 23.704 70.244 24.124 67.64 24.124H43.7L39.836 33.616H68.228C66.632 40.168 61.424 49.828 55.796 56.464C48.572 64.864 38.576 73.684 21.02 79.144L30.764 87.544C46.808 81.496 57.56 72.088 65.456 62.26C73.016 52.936 78.14 42.184 80.66 34.456C81.416 32.356 82.508 30.004 83.516 28.408ZM55.712 15.472L43.532 11.692C42.776 14.632 41.012 18.496 39.752 20.512C35.468 27.82 27.74 39.328 13.04 48.4L22.028 55.372C34.124 47.056 44.876 34.204 50.504 24.04C51.512 22.276 53.696 18.412 55.712 15.472Z" fill="black"/>
</svg>
