<svg width="100" height="100" viewBox="0 0 100 100" fill="none" xmlns="http://www.w3.org/2000/svg">
<path d="M20.768 21.688L23.456 31.432C30.764 31.264 43.112 30.928 52.688 29.584C59.156 28.66 65.876 27.568 71.084 26.224C72.428 25.888 74.696 25.3 77.552 24.544L70.58 15.304C66.38 17.32 57.896 19.168 49.412 20.428C40.172 21.772 27.236 21.856 20.768 21.688ZM24.38 79.648L35.132 86.872C51.344 77.128 56.888 62.764 56.888 45.796C56.888 45.796 56.888 34.624 56.888 27.4L45.884 28.66C45.884 40.588 45.884 46.048 45.884 46.048C45.884 61.756 39.248 72.844 24.38 79.648ZM14.468 41.848V52.684C16.652 52.516 19.76 52.348 22.364 52.348C27.32 52.348 73.016 52.348 78.308 52.348C80.66 52.348 83.432 52.516 85.7 52.684V41.848C83.852 42.016 79.904 42.268 78.14 42.268C72.512 42.268 27.572 42.268 22.28 42.268C19.592 42.268 16.82 42.016 14.468 41.848Z" fill="black"/>
</svg>
