<svg width="200" height="100" viewBox="0 0 200 100" fill="none" xmlns="http://www.w3.org/2000/svg">
<path d="M28.768 26.688L31.456 36.432C38.764 36.264 51.112 35.928 60.688 34.584C67.156 33.66 73.876 32.568 79.084 31.224C80.428 30.888 82.696 30.3 85.552 29.544L78.58 20.304C74.38 22.32 65.896 24.168 57.412 25.428C48.172 26.772 35.236 26.856 28.768 26.688ZM32.38 84.648L43.132 91.872C59.344 82.128 64.888 67.764 64.888 50.796C64.888 50.796 64.888 39.624 64.888 32.4L53.884 33.66C53.884 45.588 53.884 51.048 53.884 51.048C53.884 66.756 47.248 77.844 32.38 84.648ZM22.468 46.848V57.684C24.652 57.516 27.76 57.348 30.364 57.348C35.32 57.348 81.016 57.348 86.308 57.348C88.66 57.348 91.432 57.516 93.7 57.684V46.848C91.852 47.016 87.904 47.268 86.14 47.268C80.512 47.268 35.572 47.268 30.28 47.268C27.592 47.268 24.82 47.016 22.468 46.848ZM117.808 39.624V49.704C119.908 49.62 125.116 49.452 128.224 49.452C135.028 49.452 152.752 49.452 156.028 49.452C156.028 52.224 156.028 78.516 156.028 87.084C156.028 88.764 156.028 91.956 155.944 93.3H166.444C166.444 91.872 166.36 88.932 166.36 87.588C166.36 80.952 166.36 48.864 166.36 45.504C166.36 43.74 166.36 40.968 166.444 39.792C165.1 39.876 161.992 39.96 160.06 39.96C153.088 39.96 135.112 39.96 128.224 39.96C125.116 39.96 119.992 39.792 117.808 39.624ZM119.992 59.28V69.276C122.008 69.108 126.04 69.108 129.232 69.108C133.348 69.108 158.548 69.108 160.9 69.108V59.532C158.632 59.532 133.348 59.532 129.232 59.532C126.04 59.532 122.176 59.448 119.992 59.28ZM116.968 79.86V90.192C118.312 90.192 121.756 90.024 124.192 90.024C129.4 90.024 156.364 90.024 160.984 90.024V80.196C157.372 80.196 129.4 80.196 124.192 80.196C121.168 80.196 118.312 80.028 116.968 79.86Z" fill="black"/>
</svg>
