<svg width="200" height="100" viewBox="0 0 200 100" fill="none" xmlns="http://www.w3.org/2000/svg">
<path d="M28.768 26.688L31.456 36.432C38.764 36.264 51.112 35.928 60.688 34.584C67.156 33.66 73.876 32.568 79.084 31.224C80.428 30.888 82.696 30.3 85.552 29.544L78.58 20.304C74.38 22.32 65.896 24.168 57.412 25.428C48.172 26.772 35.236 26.856 28.768 26.688ZM32.38 84.648L43.132 91.872C59.344 82.128 64.888 67.764 64.888 50.796C64.888 50.796 64.888 39.624 64.888 32.4L53.884 33.66C53.884 45.588 53.884 51.048 53.884 51.048C53.884 66.756 47.248 77.844 32.38 84.648ZM22.468 46.848V57.684C24.652 57.516 27.76 57.348 30.364 57.348C35.32 57.348 81.016 57.348 86.308 57.348C88.66 57.348 91.432 57.516 93.7 57.684V46.848C91.852 47.016 87.904 47.268 86.14 47.268C80.512 47.268 35.572 47.268 30.28 47.268C27.592 47.268 24.82 47.016 22.468 46.848ZM163.672 47.016L155.608 43.068C154.516 43.656 151.072 43.992 149.392 43.992C145.36 43.992 132.088 43.992 127.804 43.992C125.62 43.992 121.756 43.74 119.488 43.404V54.492C121.924 54.324 125.284 54.156 127.888 54.156C130.324 54.156 146.62 54.156 150.652 54.156C150.232 59.784 147.712 75.996 146.62 81.54H158.212C159.22 75.492 162.076 56.424 162.916 50.544C163 49.62 163.336 48.108 163.672 47.016ZM111.844 77.424V88.428C114.952 88.26 117.136 88.176 120.076 88.176C124.36 88.176 159.976 88.176 164.344 88.176C166.528 88.176 170.644 88.26 172.408 88.344V77.508C170.224 77.76 166.276 77.928 164.176 77.928C160.06 77.928 125.116 77.928 120.076 77.928C117.22 77.928 114.028 77.676 111.844 77.424Z" fill="black"/>
</svg>
