<svg width="200" height="100" viewBox="0 0 200 100" fill="none" xmlns="http://www.w3.org/2000/svg">
<path d="M29.1782 26.688L31.8662 36.432C39.1742 36.264 51.5222 35.928 61.0982 34.584C67.5662 33.66 74.2862 32.568 79.4942 31.224C80.8382 30.888 83.1062 30.3 85.9622 29.544L78.9902 20.304C74.7902 22.32 66.3062 24.168 57.8222 25.428C48.5822 26.772 35.6462 26.856 29.1782 26.688ZM32.7902 84.648L43.5422 91.872C59.7542 82.128 65.2982 67.764 65.2982 50.796C65.2982 50.796 65.2982 39.624 65.2982 32.4L54.2942 33.66C54.2942 45.588 54.2942 51.048 54.2942 51.048C54.2942 66.756 47.6582 77.844 32.7902 84.648ZM22.8782 46.848V57.684C25.0622 57.516 28.1702 57.348 30.7742 57.348C35.7302 57.348 81.4262 57.348 86.7182 57.348C89.0702 57.348 91.8422 57.516 94.1102 57.684V46.848C92.2622 47.016 88.3142 47.268 86.5502 47.268C80.9222 47.268 35.9822 47.268 30.6902 47.268C28.0022 47.268 25.2302 47.016 22.8782 46.848ZM133.19 33.66L121.85 36.348C122.774 38.112 123.698 40.212 124.286 42.312C126.974 51.048 134.618 81.036 136.718 88.344C137.39 90.696 137.894 93.468 138.23 95.736L149.57 92.88C148.982 91.2 147.806 87.504 147.386 85.992C145.286 79.02 137.39 50.124 134.534 40.044C134.03 37.86 133.442 35.676 133.19 33.66ZM173.51 46.68L166.706 41.892C165.614 42.396 163.934 42.9 162.506 43.236C156.542 44.58 122.942 50.964 118.406 51.636C115.634 52.14 113.282 52.392 110.678 52.644L113.282 62.64C120.17 61.128 154.358 53.988 158.726 53.232C156.458 57.348 150.662 64.404 146.294 68.268L155.618 72.888C161.498 66.672 169.898 53.988 173.51 46.68Z" fill="black"/>
</svg>
