<svg width="100" height="100" viewBox="0 0 100 100" fill="none" xmlns="http://www.w3.org/2000/svg">
<path d="M73.856 28.408L67.64 31.012C70.244 34.792 71.336 36.892 73.436 41.512L79.82 38.656C78.14 35.38 75.872 31.432 73.856 28.408ZM83.096 24.796L77.048 27.568C79.736 31.264 80.912 33.196 83.18 37.732L89.48 34.876C87.716 31.6 85.28 27.736 83.096 24.796ZM18.752 22.78L21.356 32.44C28.748 32.356 41.096 31.936 50.672 30.592C57.14 29.752 63.776 28.576 68.984 27.232C70.412 26.896 72.596 26.308 75.452 25.636L68.564 16.312C64.364 18.328 55.88 20.176 47.396 21.436C38.156 22.78 25.136 22.948 18.752 22.78ZM22.364 80.656L33.032 87.88C49.328 78.136 54.872 63.772 54.872 46.888C54.872 46.888 54.872 35.716 54.872 28.492L43.868 29.668C43.868 41.596 43.868 47.056 43.868 47.056C43.868 62.848 37.232 73.852 22.364 80.656ZM12.452 42.856V53.692C14.636 53.524 17.744 53.356 20.348 53.356C25.304 53.356 71 53.356 76.292 53.356C78.644 53.356 81.416 53.524 83.684 53.692V42.856C81.836 43.024 77.888 43.276 76.124 43.276C70.412 43.276 25.472 43.276 20.18 43.276C17.576 43.276 14.72 43.108 12.452 42.856Z" fill="black"/>
</svg>
