<svg width="100" height="100" viewBox="0 0 100 100" fill="none" xmlns="http://www.w3.org/2000/svg">
<path d="M47.732 16.564L37.232 20.008C39.668 25.216 44.372 37.48 45.968 42.772L56.552 39.076C54.872 33.7 49.748 20.764 47.732 16.564ZM86.036 23.284L73.52 19.756C72.092 32.608 66.884 46.972 60.584 54.952C51.932 65.788 38.828 73.348 27.404 76.624L36.812 86.116C48.74 81.58 61.004 73.096 69.824 61.42C76.712 52.348 81.5 38.992 83.852 29.836C84.356 27.988 85.112 25.384 86.036 23.284ZM24.296 21.772L13.628 25.552C15.98 30.004 21.524 43.864 23.288 49.24L34.04 45.292C32.108 39.664 26.9 27.148 24.296 21.772Z" fill="black"/>
</svg>
