<svg width="100" height="100" viewBox="0 0 100 100" fill="none" xmlns="http://www.w3.org/2000/svg">
<path d="M46.388 19L35.888 22.528C38.324 27.652 43.028 39.916 44.54 45.292L55.124 41.512C53.528 36.136 48.404 23.2 46.388 19ZM83.516 30.172L71.252 27.316C69.824 36.556 66.044 48.736 59.156 57.472C50.588 68.224 37.484 75.868 26.06 79.06L35.384 88.552C47.396 84.016 59.66 75.532 68.48 63.94C75.368 54.784 79.064 44.788 81.416 36.724C82.004 34.876 82.592 32.356 83.516 30.172ZM22.952 24.208L12.284 27.988C14.636 32.524 20.18 46.3 21.944 51.76L32.696 47.812C30.764 42.1 25.556 29.584 22.952 24.208ZM71.84 11.776L64.952 14.632C67.136 17.824 69.824 22.444 71.42 26.056L78.476 23.116C76.88 20.008 73.94 14.884 71.84 11.776ZM83.18 9.088L76.208 11.944C78.56 15.052 81.164 19.84 82.928 23.284L89.984 20.26C88.304 17.236 85.364 12.196 83.18 9.088Z" fill="black"/>
</svg>
