<svg width="100" height="100" viewBox="0 0 100 100" fill="none" xmlns="http://www.w3.org/2000/svg">
<path d="M23.708 18.664V29.5C26.312 29.332 29.84 29.164 32.78 29.164C37.988 29.164 55.292 29.164 60.248 29.164C63.104 29.164 66.38 29.332 69.236 29.5V18.664C66.38 19 63.104 19.252 60.248 19.252C55.292 19.252 37.988 19.252 32.696 19.252C29.924 19.252 26.396 19 23.708 18.664ZM14.048 40.084V51.088C16.316 50.92 19.592 50.836 22.028 50.836C27.32 50.836 72.092 50.836 77.048 50.836C79.4 50.836 82.676 50.92 84.776 51.088V40.084C82.508 40.504 78.812 40.672 77.048 40.672C72.092 40.672 27.32 40.672 22.028 40.672C19.424 40.672 16.484 40.42 14.048 40.084ZM56.972 45.964L45.296 46.048C45.296 55.036 44.204 63.016 40.004 69.316C36.644 74.272 30.68 79.06 24.716 81.412L34.628 88.552C42.104 84.772 48.572 78.22 51.512 72.424C55.04 65.368 56.972 56.968 56.972 45.964ZM74.276 12.868L67.64 15.556C69.908 18.832 72.512 23.788 74.192 27.232L80.912 24.376C79.4 21.268 76.376 15.892 74.276 12.868ZM84.188 9.088L77.552 11.776C79.904 14.968 82.592 19.84 84.356 23.368L90.992 20.512C89.48 17.572 86.372 12.196 84.188 9.088Z" fill="black"/>
</svg>
