<svg width="100" height="100" viewBox="0 0 100 100" fill="none" xmlns="http://www.w3.org/2000/svg">
<path d="M65.204 19.504L58.148 22.528C61.256 26.812 63.104 30.172 65.624 35.464L72.848 32.272C71 28.408 67.556 23.032 65.204 19.504ZM76.208 14.968L69.236 18.244C72.344 22.36 74.36 25.468 77.048 30.844L84.104 27.316C82.256 23.536 78.728 18.328 76.208 14.968ZM31.772 75.196C31.772 78.556 31.436 83.596 30.932 86.872H44.036C43.7 83.512 43.28 77.632 43.28 75.196C43.28 68.98 43.28 36.22 43.28 26.896C43.28 23.452 43.7 19.756 44.036 16.816H30.848C31.436 19.756 31.772 23.872 31.772 26.896C31.772 34.036 31.772 68.812 31.772 75.196ZM40.76 38.488V50.584C49.916 53.608 64.112 58.984 73.604 63.94L78.392 52.348C70.076 48.232 52.016 41.596 40.76 38.488Z" fill="black"/>
</svg>
