<svg width="100" height="100" viewBox="0 0 100 100" fill="none" xmlns="http://www.w3.org/2000/svg">
<path d="M46.472 25.384C46.472 30.088 46.472 36.472 46.472 42.1C46.472 57.724 41.264 70.912 23.54 79.06L34.04 86.788C53.276 75.28 57.98 60.328 57.98 42.1C57.98 36.472 57.98 30.172 57.98 25.468C57.98 22.864 58.232 18.244 58.652 15.556H45.38C46.136 18.244 46.472 22.612 46.472 25.384ZM15.224 34.036V45.712C17.912 45.46 21.272 45.292 24.884 45.292C29.42 45.292 71.756 45.292 76.796 45.292C80.156 45.292 84.356 45.46 86.12 45.628V34.12C84.356 34.372 80.744 34.624 76.88 34.624C71.756 34.624 29.42 34.624 24.632 34.624C21.272 34.624 17.828 34.372 15.224 34.036Z" fill="black"/>
</svg>
