<svg width="100" height="100" viewBox="0 0 100 100" fill="none" xmlns="http://www.w3.org/2000/svg">
<path d="M22.196 24.964V37.144C25.052 37.06 28.916 36.892 32.108 36.892C36.812 36.892 62.432 36.892 66.884 36.892C69.824 36.892 73.772 37.06 76.208 37.144V24.964C73.772 25.3 70.244 25.468 66.884 25.468C62.264 25.468 39.164 25.468 32.108 25.468C29.168 25.468 25.304 25.3 22.196 24.964ZM15.14 66.124V78.976C18.332 78.64 22.364 78.388 25.724 78.388C31.016 78.388 68.648 78.388 73.94 78.388C76.376 78.388 80.156 78.64 83.18 78.976V66.124C80.324 66.376 76.712 66.628 73.94 66.628C68.648 66.628 31.016 66.628 25.724 66.628C22.364 66.628 18.416 66.292 15.14 66.124Z" fill="black"/>
</svg>
