<svg width="200" height="100" viewBox="0 0 200 100" fill="none" xmlns="http://www.w3.org/2000/svg">
<path d="M30.196 29.964V42.144C33.052 42.06 36.916 41.892 40.108 41.892C44.812 41.892 70.432 41.892 74.884 41.892C77.824 41.892 81.772 42.06 84.208 42.144V29.964C81.772 30.3 78.244 30.468 74.884 30.468C70.264 30.468 47.164 30.468 40.108 30.468C37.168 30.468 33.304 30.3 30.196 29.964ZM23.14 71.124V83.976C26.332 83.64 30.364 83.388 33.724 83.388C39.016 83.388 76.648 83.388 81.94 83.388C84.376 83.388 88.156 83.64 91.18 83.976V71.124C88.324 71.376 84.712 71.628 81.94 71.628C76.648 71.628 39.016 71.628 33.724 71.628C30.364 71.628 26.416 71.292 23.14 71.124ZM163.672 47.016L155.608 43.068C154.516 43.656 151.072 43.992 149.392 43.992C145.36 43.992 132.088 43.992 127.804 43.992C125.62 43.992 121.756 43.74 119.488 43.404V54.492C121.924 54.324 125.284 54.156 127.888 54.156C130.324 54.156 146.62 54.156 150.652 54.156C150.232 59.784 147.712 75.996 146.62 81.54H158.212C159.22 75.492 162.076 56.424 162.916 50.544C163 49.62 163.336 48.108 163.672 47.016ZM111.844 77.424V88.428C114.952 88.26 117.136 88.176 120.076 88.176C124.36 88.176 159.976 88.176 164.344 88.176C166.528 88.176 170.644 88.26 172.408 88.344V77.508C170.224 77.76 166.276 77.928 164.176 77.928C160.06 77.928 125.116 77.928 120.076 77.928C117.22 77.928 114.028 77.676 111.844 77.424Z" fill="black"/>
</svg>
