<svg width="200" height="100" viewBox="0 0 200 100" fill="none" xmlns="http://www.w3.org/2000/svg">
<path d="M30.196 29.964V42.144C33.052 42.06 36.916 41.892 40.108 41.892C44.812 41.892 70.432 41.892 74.884 41.892C77.824 41.892 81.772 42.06 84.208 42.144V29.964C81.772 30.3 78.244 30.468 74.884 30.468C70.264 30.468 47.164 30.468 40.108 30.468C37.168 30.468 33.304 30.3 30.196 29.964ZM23.14 71.124V83.976C26.332 83.64 30.364 83.388 33.724 83.388C39.016 83.388 76.648 83.388 81.94 83.388C84.376 83.388 88.156 83.64 91.18 83.976V71.124C88.324 71.376 84.712 71.628 81.94 71.628C76.648 71.628 39.016 71.628 33.724 71.628C30.364 71.628 26.416 71.292 23.14 71.124ZM117.808 39.624V49.704C119.908 49.62 125.116 49.452 128.224 49.452C135.028 49.452 152.752 49.452 156.028 49.452C156.028 52.224 156.028 78.516 156.028 87.084C156.028 88.764 156.028 91.956 155.944 93.3H166.444C166.444 91.872 166.36 88.932 166.36 87.588C166.36 80.952 166.36 48.864 166.36 45.504C166.36 43.74 166.36 40.968 166.444 39.792C165.1 39.876 161.992 39.96 160.06 39.96C153.088 39.96 135.112 39.96 128.224 39.96C125.116 39.96 119.992 39.792 117.808 39.624ZM119.992 59.28V69.276C122.008 69.108 126.04 69.108 129.232 69.108C133.348 69.108 158.548 69.108 160.9 69.108V59.532C158.632 59.532 133.348 59.532 129.232 59.532C126.04 59.532 122.176 59.448 119.992 59.28ZM116.968 79.86V90.192C118.312 90.192 121.756 90.024 124.192 90.024C129.4 90.024 156.364 90.024 160.984 90.024V80.196C157.372 80.196 129.4 80.196 124.192 80.196C121.168 80.196 118.312 80.028 116.968 79.86Z" fill="black"/>
</svg>
