<svg width="100" height="100" viewBox="0 0 100 100" fill="none" xmlns="http://www.w3.org/2000/svg">
<path d="M56.468 13.456H44.456C44.792 15.472 44.876 18.496 44.876 21.184C44.876 24.124 44.876 27.988 44.876 30.508H55.88C55.88 27.988 55.88 23.704 55.88 21.184C55.88 18.58 56.132 15.388 56.468 13.456ZM79.904 31.432L72.932 24.712C71 25.216 68.564 25.468 65.96 25.468C61.004 25.468 34.124 25.468 30.344 25.468C27.488 25.468 22.784 25.384 19.592 24.964V35.968C22.28 35.716 27.572 35.548 30.596 35.548C34.124 35.548 56.468 35.548 61.004 35.548C58.484 38.992 53.276 43.948 46.808 48.064C39.584 52.768 28.832 58.564 12.62 62.176L19.088 72.088C32.108 68.14 44.96 62.596 54.032 56.128C61.676 50.752 68.732 43.78 73.436 38.404C75.2 36.388 77.804 33.616 79.904 31.432ZM55.712 49.744L44.792 54.28C44.792 59.32 44.792 69.652 44.792 76.12C44.792 79.396 44.456 84.436 44.204 86.788H56.216C55.964 84.184 55.712 79.396 55.712 76.12C55.712 69.316 55.712 55.792 55.712 49.744ZM81.164 72.844L88.136 63.604C80.072 58.144 75.704 55.624 67.976 51.508L61.088 59.488C68.312 63.604 73.856 67.132 81.164 72.844Z" fill="black"/>
</svg>
