<svg width="100" height="100" viewBox="0 0 100 100" fill="none" xmlns="http://www.w3.org/2000/svg">
<path d="M25.22 54.364C22.28 61.756 17.324 70.828 12.116 77.632L23.876 82.588C28.244 76.288 33.284 66.796 36.224 58.648C39.164 50.752 42.272 39.244 43.364 33.364C43.784 31.432 44.708 27.316 45.38 24.964L33.2 22.444C32.108 33.112 28.916 44.956 25.22 54.364ZM66.632 52.6C69.992 61.672 73.1 72.256 75.452 82.252L87.8 78.22C85.532 69.904 81.08 56.464 78.056 48.904C74.864 40.756 69.152 27.82 65.624 21.352L54.452 24.964C58.064 31.348 63.44 43.78 66.632 52.6Z" fill="black"/>
</svg>
