<svg width="100" height="100" viewBox="0 0 100 100" fill="none" xmlns="http://www.w3.org/2000/svg">
<path d="M73.436 15.052L66.8 17.74C69.068 21.016 71.672 25.972 73.352 29.416L80.156 26.56C78.56 23.452 75.536 18.076 73.436 15.052ZM83.432 11.272L76.712 13.96C79.064 17.152 81.752 22.024 83.516 25.552L90.152 22.696C88.724 19.756 85.616 14.38 83.432 11.272ZM24.128 55.876C21.188 63.352 16.232 72.34 11.024 79.228L22.784 84.184C27.152 77.884 32.108 68.308 35.132 60.16C38.072 52.348 41.096 40.84 42.272 34.96C42.608 33.028 43.616 28.912 44.288 26.56L32.108 23.956C31.016 34.708 27.824 46.552 24.128 55.876ZM65.54 54.196C68.9 63.268 72.008 73.852 74.276 83.764L86.708 79.732C84.44 71.416 79.988 58.06 76.964 50.416C73.772 42.352 68.06 29.416 64.532 22.948L53.36 26.56C56.972 32.944 62.348 45.376 65.54 54.196Z" fill="black"/>
</svg>
