<svg width="200" height="100" viewBox="0 0 200 100" fill="none" xmlns="http://www.w3.org/2000/svg">
<path d="M77.992 18.96L71.356 21.732C73.624 25.008 76.144 29.964 77.908 33.408L84.628 30.468C83.032 27.36 80.092 22.068 77.992 18.96ZM87.904 15.18L81.268 17.952C83.536 21.144 86.308 26.016 87.988 29.544L94.708 26.604C93.196 23.664 90.088 18.372 87.904 15.18ZM41.704 22.656H29.356C29.692 25.176 29.944 29.46 29.944 31.392C29.944 36.6 29.944 67.428 29.944 77.088C29.944 84.396 34.228 88.344 41.452 89.688C45.064 90.276 50.188 90.612 55.648 90.612C64.888 90.612 77.572 90.108 85.552 88.932V76.668C78.58 78.516 65.056 79.524 56.236 79.524C52.54 79.524 49.096 79.44 46.576 79.02C42.796 78.348 41.116 77.424 41.116 73.728C41.116 67.428 41.116 36.516 41.116 31.392C41.116 28.956 41.368 25.176 41.704 22.656ZM36.16 48.444L36.244 59.448C47.668 56.76 64.132 51.804 74.044 48.024C76.816 46.932 80.596 45.336 83.788 43.992L79.336 33.408C75.976 35.34 73.12 36.684 70.18 37.944C61.36 41.556 46.996 46.092 36.16 48.444ZM117.808 39.624V49.704C119.908 49.62 125.116 49.452 128.224 49.452C135.028 49.452 152.752 49.452 156.028 49.452C156.028 52.224 156.028 78.516 156.028 87.084C156.028 88.764 156.028 91.956 155.944 93.3H166.444C166.444 91.872 166.36 88.932 166.36 87.588C166.36 80.952 166.36 48.864 166.36 45.504C166.36 43.74 166.36 40.968 166.444 39.792C165.1 39.876 161.992 39.96 160.06 39.96C153.088 39.96 135.112 39.96 128.224 39.96C125.116 39.96 119.992 39.792 117.808 39.624ZM119.992 59.28V69.276C122.008 69.108 126.04 69.108 129.232 69.108C133.348 69.108 158.548 69.108 160.9 69.108V59.532C158.632 59.532 133.348 59.532 129.232 59.532C126.04 59.532 122.176 59.448 119.992 59.28ZM116.968 79.86V90.192C118.312 90.192 121.756 90.024 124.192 90.024C129.4 90.024 156.364 90.024 160.984 90.024V80.196C157.372 80.196 129.4 80.196 124.192 80.196C121.168 80.196 118.312 80.028 116.968 79.86Z" fill="black"/>
</svg>
