<svg width="100" height="100" viewBox="0 0 100 100" fill="none" xmlns="http://www.w3.org/2000/svg">
<path d="M72.932 22.444C72.932 19.756 75.116 17.572 77.804 17.572C80.408 17.572 82.676 19.756 82.676 22.444C82.676 25.048 80.408 27.232 77.804 27.232C75.116 27.232 72.932 25.048 72.932 22.444ZM67.724 22.444C67.724 27.904 72.26 32.44 77.804 32.44C83.348 32.44 87.884 27.904 87.884 22.444C87.884 16.9 83.348 12.364 77.804 12.364C72.26 12.364 67.724 16.9 67.724 22.444ZM33.704 17.656H21.356C21.692 20.176 21.944 24.46 21.944 26.392C21.944 31.6 21.944 62.428 21.944 72.088C21.944 79.396 26.228 83.344 33.452 84.688C37.064 85.276 42.188 85.612 47.648 85.612C56.888 85.612 69.572 85.108 77.552 83.932V71.668C70.58 73.516 57.056 74.524 48.236 74.524C44.54 74.524 41.096 74.44 38.576 74.02C34.796 73.348 33.116 72.424 33.116 68.728C33.116 62.428 33.116 31.516 33.116 26.392C33.116 23.956 33.368 20.176 33.704 17.656ZM28.16 43.444L28.244 54.448C39.668 51.76 56.132 46.804 66.044 43.024C68.816 41.932 72.596 40.336 75.788 38.992L71.336 28.408C67.976 30.34 65.12 31.684 62.18 32.944C53.36 36.556 38.996 41.092 28.16 43.444Z" fill="black"/>
</svg>
