<svg width="200" height="100" viewBox="0 0 200 100" fill="none" xmlns="http://www.w3.org/2000/svg">
<path d="M80.932 27.444C80.932 24.756 83.116 22.572 85.804 22.572C88.408 22.572 90.676 24.756 90.676 27.444C90.676 30.048 88.408 32.232 85.804 32.232C83.116 32.232 80.932 30.048 80.932 27.444ZM75.724 27.444C75.724 32.904 80.26 37.44 85.804 37.44C91.348 37.44 95.884 32.904 95.884 27.444C95.884 21.9 91.348 17.364 85.804 17.364C80.26 17.364 75.724 21.9 75.724 27.444ZM41.704 22.656H29.356C29.692 25.176 29.944 29.46 29.944 31.392C29.944 36.6 29.944 67.428 29.944 77.088C29.944 84.396 34.228 88.344 41.452 89.688C45.064 90.276 50.188 90.612 55.648 90.612C64.888 90.612 77.572 90.108 85.552 88.932V76.668C78.58 78.516 65.056 79.524 56.236 79.524C52.54 79.524 49.096 79.44 46.576 79.02C42.796 78.348 41.116 77.424 41.116 73.728C41.116 67.428 41.116 36.516 41.116 31.392C41.116 28.956 41.368 25.176 41.704 22.656ZM36.16 48.444L36.244 59.448C47.668 56.76 64.132 51.804 74.044 48.024C76.816 46.932 80.596 45.336 83.788 43.992L79.336 33.408C75.976 35.34 73.12 36.684 70.18 37.944C61.36 41.556 46.996 46.092 36.16 48.444ZM133.6 33.66L122.26 36.348C123.184 38.112 124.108 40.212 124.696 42.312C127.384 51.048 135.028 81.036 137.128 88.344C137.8 90.696 138.304 93.468 138.64 95.736L149.98 92.88C149.392 91.2 148.216 87.504 147.796 85.992C145.696 79.02 137.8 50.124 134.944 40.044C134.44 37.86 133.852 35.676 133.6 33.66ZM173.92 46.68L167.116 41.892C166.024 42.396 164.344 42.9 162.916 43.236C156.952 44.58 123.352 50.964 118.816 51.636C116.044 52.14 113.692 52.392 111.088 52.644L113.692 62.64C120.58 61.128 154.768 53.988 159.136 53.232C156.868 57.348 151.072 64.404 146.704 68.268L156.028 72.888C161.908 66.672 170.308 53.988 173.92 46.68Z" fill="black"/>
</svg>
