<svg width="100" height="100" viewBox="0 0 100 100" fill="none" xmlns="http://www.w3.org/2000/svg">
<path d="M82.676 26.14L74.36 20.848C72.092 21.352 69.404 21.436 67.808 21.436C63.104 21.436 35.216 21.436 28.916 21.436C26.144 21.436 21.44 21.1 18.92 20.764V32.608C21.104 32.524 25.052 32.272 28.916 32.272C35.216 32.272 62.936 32.272 68.06 32.272C66.884 39.496 63.776 48.988 58.148 56.044C51.344 64.528 41.936 71.836 25.22 75.7L34.376 85.78C49.412 80.992 60.584 72.592 68.144 62.596C75.2 53.188 78.896 40.168 80.828 31.936C81.248 30.172 81.836 27.736 82.676 26.14Z" fill="black"/>
</svg>
