<svg width="100" height="100" viewBox="0 0 100 100" fill="none" xmlns="http://www.w3.org/2000/svg">
<path d="M75.452 20.428C75.452 17.74 77.636 15.556 80.324 15.556C83.012 15.556 85.196 17.74 85.196 20.428C85.196 23.116 83.012 25.3 80.324 25.3C77.636 25.3 75.452 23.116 75.452 20.428ZM70.244 20.428C70.244 25.972 74.78 30.508 80.324 30.508C85.868 30.508 90.404 25.972 90.404 20.428C90.404 14.884 85.868 10.348 80.324 10.348C74.78 10.348 70.244 14.884 70.244 20.428ZM80.492 27.064L72.176 21.772C69.992 22.36 67.304 22.444 65.624 22.444C60.92 22.444 33.032 22.444 26.732 22.444C23.96 22.444 19.256 22.024 16.736 21.688V33.616C18.92 33.448 22.868 33.196 26.732 33.196C33.032 33.196 60.752 33.196 65.876 33.196C64.784 40.42 61.592 49.996 55.964 56.968C49.244 65.452 39.752 72.76 23.036 76.624L32.192 86.704C47.228 81.916 58.4 73.6 65.96 63.52C73.016 54.196 76.712 41.092 78.644 32.86C79.064 31.096 79.652 28.66 80.492 27.064Z" fill="black"/>
</svg>
