<svg width="100" height="100" viewBox="0 0 100 100" fill="none" xmlns="http://www.w3.org/2000/svg">
<path d="M72.26 14.128L65.624 16.816C67.892 20.092 70.16 24.544 71.924 27.988L78.644 25.132C77.048 22.024 74.36 17.152 72.26 14.128ZM83.18 11.692L76.544 14.464C78.812 17.572 81.248 21.94 83.012 25.468L89.732 22.612C88.22 19.672 85.364 14.884 83.18 11.692ZM56.384 15.724H43.952C44.204 17.236 44.624 20.848 44.624 23.032C44.624 28.156 44.624 37.144 44.624 40.084C44.624 44.032 44.624 70.576 44.54 73.768C44.456 75.952 43.7 76.708 41.516 76.708C39.416 76.708 35.72 76.456 32.192 75.784L33.2 86.2C37.4 86.704 42.356 86.872 46.808 86.872C52.772 86.872 55.628 83.848 55.628 78.976C55.628 71.92 55.628 46.888 55.628 40.084C55.628 35.212 55.628 28.072 55.628 23.116C55.628 21.016 56.132 16.9 56.384 15.724ZM15.224 29.164V40.252C17.576 40 20.768 39.916 23.288 39.916C28.832 39.916 69.236 39.916 75.284 39.916C77.552 39.916 80.828 40 83.432 40.252V29.248C81.164 29.5 77.552 29.752 75.2 29.752C69.152 29.752 28.412 29.752 23.288 29.752C20.684 29.752 17.744 29.5 15.224 29.164ZM36.644 51.928L27.068 47.392C23.624 54.532 16.904 63.772 11.276 69.148L20.432 75.28C24.968 70.324 32.78 59.32 36.644 51.928ZM72.68 47.14L63.524 52.096C67.64 57.304 73.604 67.468 77.216 74.692L87.044 69.232C83.684 63.1 76.964 52.516 72.68 47.14Z" fill="black"/>
</svg>
