<svg width="100" height="100" viewBox="0 0 100 100" fill="none" xmlns="http://www.w3.org/2000/svg">
<path d="M87.968 29.08L79.652 22.276C77.804 22.864 75.032 23.2 71.756 23.2C62.768 23.2 30.512 23.2 25.22 23.2C22.28 23.2 17.744 22.78 15.476 22.36V34.204C17.24 33.952 21.776 33.532 25.22 33.532C31.604 33.532 62.18 33.532 69.572 33.532C65.204 41.26 55.796 52.684 44.708 60.412L53.108 68.14C66.128 58.564 78.56 43.444 85.112 32.608C85.784 31.6 86.792 30.424 87.968 29.08ZM43.7 69.4C49.16 74.944 56.216 82.84 59.66 87.544L69.572 79.648C65.54 74.776 58.904 67.804 53.36 62.428C46.976 56.296 38.576 49.492 34.04 46.048L25.22 53.272C30.176 56.8 38.744 64.444 43.7 69.4Z" fill="black"/>
</svg>
