<svg width="200" height="100" viewBox="0 0 200 100" fill="none" xmlns="http://www.w3.org/2000/svg">
<path d="M39.856 21.228L35.992 31.224C47.836 32.736 71.608 38.028 81.436 41.64L85.72 31.224C75.136 27.528 50.944 22.572 39.856 21.228ZM36.076 43.824L32.128 53.988C44.644 56.004 66.232 60.876 75.808 64.572L79.924 54.072C69.424 50.46 48.088 45.84 36.076 43.824ZM31.708 67.932L27.508 78.432C40.948 80.532 67.576 86.328 78.916 90.948L83.536 80.448C71.944 76.164 46.156 70.116 31.708 67.932ZM133.6 33.66L122.26 36.348C123.184 38.112 124.108 40.212 124.696 42.312C127.384 51.048 135.028 81.036 137.128 88.344C137.8 90.696 138.304 93.468 138.64 95.736L149.98 92.88C149.392 91.2 148.216 87.504 147.796 85.992C145.696 79.02 137.8 50.124 134.944 40.044C134.44 37.86 133.852 35.676 133.6 33.66ZM173.92 46.68L167.116 41.892C166.024 42.396 164.344 42.9 162.916 43.236C156.952 44.58 123.352 50.964 118.816 51.636C116.044 52.14 113.692 52.392 111.088 52.644L113.692 62.64C120.58 61.128 154.768 53.988 159.136 53.232C156.868 57.348 151.072 64.404 146.704 68.268L156.028 72.888C161.908 66.672 170.308 53.988 173.92 46.68Z" fill="black"/>
</svg>
