<svg width="100" height="100" viewBox="0 0 100 100" fill="none" xmlns="http://www.w3.org/2000/svg">
<path d="M22.364 20.344V30.76C24.8 30.676 27.488 30.592 30.512 30.592C34.628 30.592 63.524 30.592 71 30.592C74.024 30.592 76.292 30.676 78.476 30.76V20.344C76.544 20.512 73.772 20.68 71 20.68C63.524 20.68 37.736 20.68 30.512 20.68C27.488 20.68 24.8 20.512 22.364 20.344ZM51.26 49.912C51.26 49.072 51.26 30.676 51.26 28.072H39.752C39.752 30.844 39.752 46.3 39.752 49.492C39.752 54.448 39.752 65.704 39.752 71.248C39.752 79.732 43.532 84.94 58.904 84.94C66.716 84.94 76.292 84.688 81.752 84.352L82.508 72.928C75.704 73.684 68.312 74.104 60.836 74.104C54.032 74.104 51.26 72.424 51.26 67.888C51.26 64.948 51.26 53.776 51.26 49.912ZM16.82 44.368V55.372C19.34 55.204 23.624 55.036 25.976 55.036C33.62 55.036 70.832 55.036 76.88 55.036C78.728 55.036 82.508 54.952 84.776 55.288V44.452C82.592 44.62 78.308 44.872 76.544 44.872C71 44.872 33.704 44.872 25.976 44.872C23.456 44.872 19.172 44.536 16.82 44.368Z" fill="black"/>
</svg>
