<svg width="100" height="100" viewBox="0 0 100 100" fill="none" xmlns="http://www.w3.org/2000/svg">
<path d="M37.988 13.456L25.724 16.312C26.648 17.908 27.404 19.924 28.496 23.62C31.436 33.616 41.18 70.828 43.448 78.976C44.288 81.832 44.876 85.192 45.38 87.46L57.812 84.52C57.056 82.42 55.712 78.472 55.208 76.624C52.604 68.056 43.532 34.54 39.668 20.932C38.828 18.244 38.324 15.64 37.988 13.456ZM86.876 28.744L79.232 23.2C77.888 23.788 75.956 24.46 74.192 24.796C67.136 26.392 26.816 33.952 21.44 34.876C18.164 35.38 15.224 35.716 12.032 35.968L14.888 47.308C23.12 45.376 65.288 36.724 70.664 35.884C67.976 40.504 61.256 49.324 54.956 54.532L65.792 59.656C72.764 52.012 83.012 37.312 86.876 28.744Z" fill="black"/>
</svg>
