<?xml version="1.0" encoding="UTF-8" standalone="no"?>
<!-- Created with Inkscape (http://www.inkscape.org/) -->

<svg
   xmlns:dc="http://purl.org/dc/elements/1.1/"
   xmlns:cc="http://creativecommons.org/ns#"
   xmlns:rdf="http://www.w3.org/1999/02/22-rdf-syntax-ns#"
   xmlns:svg="http://www.w3.org/2000/svg"
   xmlns="http://www.w3.org/2000/svg"
   xmlns:sodipodi="http://sodipodi.sourceforge.net/DTD/sodipodi-0.dtd"
   xmlns:inkscape="http://www.inkscape.org/namespaces/inkscape"
   width="500"
   height="500"
   viewBox="0 0 132.29167 132.29167"
   version="1.1"
   id="svg8"
   inkscape:version="0.92.4 (5da689c313, 2019-01-14)"
   sodipodi:docname="Japanese_Katakana_kyokashotai_YA.svg">
  <defs
     id="defs2" />
  <sodipodi:namedview
     id="base"
     pagecolor="#ffffff"
     bordercolor="#666666"
     borderopacity="1.0"
     inkscape:pageopacity="0.0"
     inkscape:pageshadow="2"
     inkscape:zoom="0.35"
     inkscape:cx="47.142857"
     inkscape:cy="560"
     inkscape:document-units="mm"
     inkscape:current-layer="layer1"
     showgrid="false"
     units="px"
     inkscape:window-width="1440"
     inkscape:window-height="837"
     inkscape:window-x="-8"
     inkscape:window-y="-8"
     inkscape:window-maximized="1" />
  <metadata
     id="metadata5">
    <rdf:RDF>
      <cc:Work
         rdf:about="">
        <dc:format>image/svg+xml</dc:format>
        <dc:type
           rdf:resource="http://purl.org/dc/dcmitype/StillImage" />
        <dc:title></dc:title>
      </cc:Work>
    </rdf:RDF>
  </metadata>
  <g
     inkscape:label="Layer 1"
     inkscape:groupmode="layer"
     id="layer1"
     transform="translate(0,-164.70834)">
    <g
       aria-label="ヤ"
       style="font-style:normal;font-variant:normal;font-weight:normal;font-stretch:normal;font-size:141.11109924px;line-height:1.25;font-family:MHGKyokashotaiTHK;-inkscape-font-specification:MHGKyokashotaiTHK;letter-spacing:0px;word-spacing:0px;fill:#000000;fill-opacity:1;stroke:none;stroke-width:0.26458332"
       id="text12"
       transform="translate(-37.4564,84.52866)">
      <path
         d="m 154.66785,119.27057 -10.44222,-5.50333 c -0.70556,0 -1.83445,0.56444 -3.24556,1.69333 -21.02555,6.91445 -35.41889,11.85333 -43.60333,14.81667 l -6.632222,-24.27111 c -0.423333,-1.41111 -0.423333,-2.96333 0,-4.37445 0.423334,-1.12888 -3.245555,-2.257773 -11.006665,-3.24555 -1.834445,0 -2.116667,0.564444 -1.128889,1.552222 1.552222,0.423328 2.822222,1.411108 3.951111,2.822218 1.834444,3.24556 5.079999,12.98222 9.877777,29.21 l -30.903331,11.00667 c -0.987778,0.42333 -2.54,0.56444 -4.374444,0.56444 -1.128889,0 -2.54,-0.14111 -4.374444,-0.56444 -1.552222,0 -1.693333,0.56444 -0.564445,1.69333 4.797778,3.24556 8.607777,4.93889 11.571111,4.93889 1.128888,-0.70556 2.539999,-1.41111 4.374444,-2.25778 7.76111,-3.24555 16.368887,-6.91444 25.964442,-11.00666 5.079999,16.93333 8.889995,30.90333 11.571115,41.90999 0.70555,2.96333 1.12888,5.36222 1.12888,7.19667 0.28223,2.25778 2.11667,4.79778 5.50334,7.76111 2.96333,1.83444 4.37444,1.27 4.37444,-1.69333 -0.70555,-2.25778 -1.55222,-4.37445 -2.25778,-6.63223 L 98.505629,134.65168 c 15.098891,-5.50333 29.351111,-10.16 43.038881,-14.25222 1.12889,0 1.41112,0.56445 1.12889,1.69333 -5.22111,8.46667 -11.43,17.21556 -18.76777,26.38778 -0.70556,1.55222 -0.28223,1.83444 1.55222,1.12889 7.76111,-5.92667 16.79222,-15.09889 27.09333,-27.51667 3.24556,-0.84666 4.09222,-1.83444 2.11667,-2.82222 z"
         style="stroke-width:0.26458332"
         id="path14"
         inkscape:connector-curvature="0" />
    </g>
  </g>
</svg>
