<?xml version="1.0" encoding="UTF-8" standalone="no"?>
<!-- Created with Inkscape (http://www.inkscape.org/) -->

<svg
   xmlns:dc="http://purl.org/dc/elements/1.1/"
   xmlns:cc="http://creativecommons.org/ns#"
   xmlns:rdf="http://www.w3.org/1999/02/22-rdf-syntax-ns#"
   xmlns:svg="http://www.w3.org/2000/svg"
   xmlns="http://www.w3.org/2000/svg"
   xmlns:sodipodi="http://sodipodi.sourceforge.net/DTD/sodipodi-0.dtd"
   xmlns:inkscape="http://www.inkscape.org/namespaces/inkscape"
   width="500"
   height="500"
   viewBox="0 0 132.29166 132.29167"
   version="1.1"
   id="svg8"
   inkscape:version="0.92.4 (5da689c313, 2019-01-14)"
   sodipodi:docname="Japanese_Katakana_kyokashotai_YU.svg">
  <defs
     id="defs2" />
  <sodipodi:namedview
     id="base"
     pagecolor="#ffffff"
     bordercolor="#666666"
     borderopacity="1.0"
     inkscape:pageopacity="0.0"
     inkscape:pageshadow="2"
     inkscape:zoom="0.35"
     inkscape:cx="47.142857"
     inkscape:cy="560"
     inkscape:document-units="mm"
     inkscape:current-layer="layer1"
     showgrid="false"
     units="px"
     inkscape:window-width="1440"
     inkscape:window-height="837"
     inkscape:window-x="-8"
     inkscape:window-y="-8"
     inkscape:window-maximized="1" />
  <metadata
     id="metadata5">
    <rdf:RDF>
      <cc:Work
         rdf:about="">
        <dc:format>image/svg+xml</dc:format>
        <dc:type
           rdf:resource="http://purl.org/dc/dcmitype/StillImage" />
        <dc:title></dc:title>
      </cc:Work>
    </rdf:RDF>
  </metadata>
  <g
     inkscape:label="Layer 1"
     inkscape:groupmode="layer"
     id="layer1"
     transform="translate(0,-164.70832)">
    <g
       aria-label="ユ"
       style="font-style:normal;font-variant:normal;font-weight:normal;font-stretch:normal;font-size:141.11109924px;line-height:1.25;font-family:MHGKyokashotaiTHK;-inkscape-font-specification:MHGKyokashotaiTHK;letter-spacing:0px;word-spacing:0px;fill:#000000;fill-opacity:1;stroke:none;stroke-width:0.26458332"
       id="text12"
       transform="translate(-59.253081,72.968456)">
      <path
         d="m 177.70928,179.15205 c -3.66889,-2.96333 -7.90223,-4.79777 -12.7,-5.50333 l -3.24556,1.12889 c -8.89,0.28222 -18.62666,0.70556 -29.21,0.98778 5.78556,-13.12333 11.71222,-26.95222 17.63889,-41.34555 2.11667,-0.98778 2.68111,-2.11667 1.55222,-3.24556 l -6.63222,-4.93889 c -1.41111,-1.12889 -2.68111,-0.70555 -3.81,1.12889 l -41.909995,7.62 c -1.411111,0.28222 -4.374444,0 -8.748888,-0.98778 -1.552222,0 -1.693333,0.70556 -0.564445,2.11667 1.834445,1.55222 4.233333,3.52778 7.196667,6.06778 1.834444,-0.70556 3.810001,-1.41111 6.067781,-2.11667 11.99444,-3.38667 24.12999,-5.78556 36.26555,-7.19667 1.55222,0 1.97555,0.70556 1.69333,2.11667 -2.25778,10.01889 -6.91444,23.70666 -14.25222,41.34555 -15.52222,1.83445 -31.467775,4.65667 -47.977773,8.32556 h -4.515555 c -2.54,-0.42334 -2.822222,0.14111 -0.987778,1.69333 3.668888,2.11667 6.632222,3.38667 8.748888,3.81 3.386666,-1.12889 12.84111,-3.10444 28.645558,-6.06778 12.13555,-2.25777 23.42444,-3.24555 33.72555,-3.24555 12.41777,0 22.71888,0.70555 30.76222,2.11666 2.96333,0 3.66889,-1.27 2.25778,-3.81 z"
         style="stroke-width:0.26458332"
         id="path14"
         inkscape:connector-curvature="0" />
    </g>
  </g>
</svg>
