<?xml version="1.0" encoding="UTF-8" standalone="no"?>
<!-- Created with Inkscape (http://www.inkscape.org/) -->

<svg
   xmlns:dc="http://purl.org/dc/elements/1.1/"
   xmlns:cc="http://creativecommons.org/ns#"
   xmlns:rdf="http://www.w3.org/1999/02/22-rdf-syntax-ns#"
   xmlns:svg="http://www.w3.org/2000/svg"
   xmlns="http://www.w3.org/2000/svg"
   xmlns:sodipodi="http://sodipodi.sourceforge.net/DTD/sodipodi-0.dtd"
   xmlns:inkscape="http://www.inkscape.org/namespaces/inkscape"
   width="500"
   height="500"
   viewBox="0 0 132.29166 132.29167"
   version="1.1"
   id="svg8"
   inkscape:version="0.92.4 (5da689c313, 2019-01-14)"
   sodipodi:docname="Japanese_Katakana_kyokashotai_YO.svg">
  <defs
     id="defs2" />
  <sodipodi:namedview
     id="base"
     pagecolor="#ffffff"
     bordercolor="#666666"
     borderopacity="1.0"
     inkscape:pageopacity="0.0"
     inkscape:pageshadow="2"
     inkscape:zoom="0.35"
     inkscape:cx="47.142857"
     inkscape:cy="560"
     inkscape:document-units="mm"
     inkscape:current-layer="layer1"
     showgrid="false"
     units="px"
     inkscape:window-width="1440"
     inkscape:window-height="837"
     inkscape:window-x="-8"
     inkscape:window-y="-8"
     inkscape:window-maximized="1" />
  <metadata
     id="metadata5">
    <rdf:RDF>
      <cc:Work
         rdf:about="">
        <dc:format>image/svg+xml</dc:format>
        <dc:type
           rdf:resource="http://purl.org/dc/dcmitype/StillImage" />
        <dc:title></dc:title>
      </cc:Work>
    </rdf:RDF>
  </metadata>
  <g
     inkscape:label="Layer 1"
     inkscape:groupmode="layer"
     id="layer1"
     transform="translate(0,-164.70832)">
    <g
       aria-label="ヨ"
       style="font-style:normal;font-variant:normal;font-weight:normal;font-stretch:normal;font-size:141.11109924px;line-height:1.25;font-family:MHGKyokashotaiTHK;-inkscape-font-specification:MHGKyokashotaiTHK;letter-spacing:0px;word-spacing:0px;fill:#000000;fill-opacity:1;stroke:none;stroke-width:0.26458332"
       id="text12"
       transform="translate(43.180006,86.149605)">
      <path
         d="m 64.276102,110.37047 -7.761111,-5.50334 c -0.705555,-0.70555 -2.116666,-0.28222 -4.374444,1.12889 -12.135554,1.12889 -25.68222,2.82223 -40.781108,4.93889 -11.42999856,1.55222 -21.1666644,2.25778 -29.209997,2.25778 -1.411111,0 -1.411111,0.56444 0,1.69333 0.705555,0.70556 2.116666,1.83445 4.374444,2.68111 2.257778,1.41111 4.0922219,2.25778 5.5033329,2.25778 4.0922219,-1.55222 12.6999989,-3.24555 25.9644421,-5.08 14.252221,-1.83444 25.399998,-3.10444 33.019997,-3.81 2.54,0 3.668889,0.98778 3.386667,2.82222 l -4.515555,25.25889 -4.938889,-0.98778 c -4.374444,1.41111 -14.393332,2.54 -29.774442,4.37445 -12.5588877,1.41111 -21.3077758,2.68111 -26.387775,2.68111 -2.257778,0.84666 -2.257778,1.41111 0,2.25778 4.0922215,1.41111 7.1966657,2.54 9.3133322,3.24555 2.963333,-0.98778 9.8777769,-2.39889 21.0255538,-3.81 11.712221,-1.55222 21.589998,-2.25778 29.774442,-2.25778 l -5.503333,28.78667 c -13.969999,0.70555 -27.657775,2.11666 -40.9222188,4.37444 -6.4911105,1.12889 -12.4177767,1.83445 -17.6388872,2.11667 -1.411111,0.14111 -1.552222,0.56444 -0.423333,1.69333 3.95111,1.83445 6.9144434,2.96333 8.7488877,3.38667 2.5399998,-0.84667 5.644444,-1.69334 9.3133325,-2.25778 13.9699988,-2.39889 24.8355538,-3.24556 32.5966638,-3.24556 5.503333,0 11.006666,0.28223 16.509999,0.98778 2.54,-0.28222 2.963333,-1.41111 1.128889,-3.24555 l -4.374445,-2.82222 14.252222,-59.54889 c 2.257777,-1.83444 2.822221,-3.24555 1.693333,-4.37444 z"
         style="stroke-width:0.26458332"
         id="path14"
         inkscape:connector-curvature="0" />
    </g>
  </g>
</svg>
