<?xml version="1.0" encoding="UTF-8" standalone="no"?>
<!-- Created with Inkscape (http://www.inkscape.org/) -->

<svg
   xmlns:dc="http://purl.org/dc/elements/1.1/"
   xmlns:cc="http://creativecommons.org/ns#"
   xmlns:rdf="http://www.w3.org/1999/02/22-rdf-syntax-ns#"
   xmlns:svg="http://www.w3.org/2000/svg"
   xmlns="http://www.w3.org/2000/svg"
   xmlns:sodipodi="http://sodipodi.sourceforge.net/DTD/sodipodi-0.dtd"
   xmlns:inkscape="http://www.inkscape.org/namespaces/inkscape"
   width="500"
   height="500"
   viewBox="0 0 132.29166 132.29167"
   version="1.1"
   id="svg8"
   inkscape:version="0.92.4 (5da689c313, 2019-01-14)"
   sodipodi:docname="Japanese_Katakana_kyokashotai_RA.svg">
  <defs
     id="defs2" />
  <sodipodi:namedview
     id="base"
     pagecolor="#ffffff"
     bordercolor="#666666"
     borderopacity="1.0"
     inkscape:pageopacity="0.0"
     inkscape:pageshadow="2"
     inkscape:zoom="0.35"
     inkscape:cx="47.142857"
     inkscape:cy="560"
     inkscape:document-units="mm"
     inkscape:current-layer="layer1"
     showgrid="false"
     units="px"
     inkscape:window-width="1440"
     inkscape:window-height="837"
     inkscape:window-x="-8"
     inkscape:window-y="-8"
     inkscape:window-maximized="1" />
  <metadata
     id="metadata5">
    <rdf:RDF>
      <cc:Work
         rdf:about="">
        <dc:format>image/svg+xml</dc:format>
        <dc:type
           rdf:resource="http://purl.org/dc/dcmitype/StillImage" />
        <dc:title></dc:title>
      </cc:Work>
    </rdf:RDF>
  </metadata>
  <g
     inkscape:label="Layer 1"
     inkscape:groupmode="layer"
     id="layer1"
     transform="translate(0,-164.70832)">
    <g
       aria-label="ラ"
       style="font-style:normal;font-variant:normal;font-weight:normal;font-stretch:normal;font-size:141.1111145px;line-height:1.25;font-family:MHGKyokashotaiTHK;-inkscape-font-specification:MHGKyokashotaiTHK;letter-spacing:0px;word-spacing:0px;fill:#000000;fill-opacity:1;stroke:none;stroke-width:0.26458332"
       id="text12"
       transform="translate(-25.276807,79.222972)">
      <path
         d="m 113.17111,109.78586 c 2.96334,-0.98778 2.96334,-2.54 0,-4.37445 -3.24555,-1.41111 -6.35,-2.39889 -9.31333,-2.68111 -2.25778,0.98778 -4.374445,2.11667 -6.632223,2.68111 -12.841112,3.10445 -20.602223,4.51556 -23.142223,4.93889 -2.257778,0.42334 -4.797778,0 -7.761111,-1.12889 -1.834445,-0.70555 -2.398889,-0.28222 -1.552223,1.12889 3.245556,2.96334 6.208889,4.65667 8.74889,4.93889 2.963333,-0.70555 5.926666,-1.41111 8.89,-2.11666 5.503333,-1.41112 11.571111,-2.68112 18.20333,-3.38667 3.66889,-0.28222 7.76111,-0.28222 12.55889,0 z m 19.33223,22.15444 c 1.12888,-1.12889 -2.25778,-3.52777 -9.87778,-7.19666 -1.12889,0.28222 -2.25778,0.84666 -3.38667,1.69333 -16.79222,2.82222 -37.112223,6.77333 -60.536668,11.57111 -3.386666,0.70556 -5.785555,0.84667 -7.196666,0.42333 -1.834445,0.42334 -1.834445,1.12889 0,2.25778 2.54,1.12889 4.938889,2.39889 7.196666,3.81 2.116667,-0.70555 4.656667,-1.55222 7.620001,-2.68111 16.227778,-4.09222 32.032223,-7.47889 47.413337,-10.44222 l 7.19666,-0.56445 c 2.25778,-0.14111 2.54,1.12889 1.12889,3.24556 -12.13555,26.10556 -29.351109,47.55445 -51.787776,64.48778 -1.128889,1.83444 -0.846667,2.39889 0.987778,1.69333 13.97,-8.89 24.976667,-18.06222 33.161108,-27.51666 8.46667,-10.01889 17.07445,-23.00112 25.82334,-39.22889 z"
         style="font-size:141.1111145px;stroke-width:0.26458332"
         id="path14"
         inkscape:connector-curvature="0" />
    </g>
  </g>
</svg>
