<svg width="100" height="100" viewBox="0 0 100 100" fill="none" xmlns="http://www.w3.org/2000/svg">
<path d="M26.732 17.572V28.492C29.168 28.24 32.696 28.156 35.468 28.156C40.424 28.156 62.936 28.156 67.556 28.156C70.664 28.156 74.612 28.324 76.796 28.492V17.572C74.528 17.908 70.412 18.076 67.724 18.076C62.852 18.076 40.76 18.076 35.468 18.076C32.612 18.076 29 17.908 26.732 17.572ZM83.936 42.016L76.46 37.312C75.284 37.9 73.016 38.236 70.244 38.236C64.532 38.236 34.46 38.236 28.748 38.236C26.06 38.236 22.532 37.984 18.92 37.648V48.568C22.448 48.316 26.648 48.232 28.748 48.232C36.224 48.232 65.036 48.232 69.236 48.232C67.808 52.852 65.12 58.144 60.668 62.68C54.2 69.316 44.204 74.776 31.52 77.464L39.92 86.956C50.672 83.848 61.424 78.22 69.908 68.728C76.124 61.84 79.736 53.608 82.34 45.46C82.592 44.62 83.348 43.108 83.936 42.016Z" fill="black"/>
</svg>
