<?xml version="1.0" encoding="UTF-8" standalone="no"?>
<!-- Created with Inkscape (http://www.inkscape.org/) -->

<svg
   xmlns:dc="http://purl.org/dc/elements/1.1/"
   xmlns:cc="http://creativecommons.org/ns#"
   xmlns:rdf="http://www.w3.org/1999/02/22-rdf-syntax-ns#"
   xmlns:svg="http://www.w3.org/2000/svg"
   xmlns="http://www.w3.org/2000/svg"
   xmlns:sodipodi="http://sodipodi.sourceforge.net/DTD/sodipodi-0.dtd"
   xmlns:inkscape="http://www.inkscape.org/namespaces/inkscape"
   width="500"
   height="500"
   viewBox="0 0 132.29167 132.29167"
   version="1.1"
   id="svg8"
   inkscape:version="0.92.4 (5da689c313, 2019-01-14)"
   sodipodi:docname="Japanese_Katakana_kyokashotai_RI.svg">
  <defs
     id="defs2" />
  <sodipodi:namedview
     id="base"
     pagecolor="#ffffff"
     bordercolor="#666666"
     borderopacity="1.0"
     inkscape:pageopacity="0.0"
     inkscape:pageshadow="2"
     inkscape:zoom="0.7"
     inkscape:cx="288.92404"
     inkscape:cy="449.66831"
     inkscape:document-units="mm"
     inkscape:current-layer="text12"
     showgrid="false"
     units="px"
     inkscape:window-width="1440"
     inkscape:window-height="837"
     inkscape:window-x="-8"
     inkscape:window-y="-8"
     inkscape:window-maximized="1" />
  <metadata
     id="metadata5">
    <rdf:RDF>
      <cc:Work
         rdf:about="">
        <dc:format>image/svg+xml</dc:format>
        <dc:type
           rdf:resource="http://purl.org/dc/dcmitype/StillImage" />
        <dc:title></dc:title>
      </cc:Work>
    </rdf:RDF>
  </metadata>
  <g
     inkscape:label="Layer 1"
     inkscape:groupmode="layer"
     id="layer1"
     transform="translate(0,-164.70835)">
    <g
       aria-label="リ"
       style="font-style:normal;font-variant:normal;font-weight:normal;font-stretch:normal;font-size:25.39999962px;line-height:1.25;font-family:MHGKyokashotaiTHK;-inkscape-font-specification:MHGKyokashotaiTHK;letter-spacing:0px;word-spacing:0px;fill:#000000;fill-opacity:1;stroke:none;stroke-width:0.26458332"
       id="text12">
      <path
         d="m 95.280167,211.59054 v -23.14222 c 1.834444,-1.83444 1.834444,-3.52778 0,-4.93889 -2.681111,-2.25778 -5.644445,-4.37444 -9.454445,-6.06778 -1.693333,-0.84666 -2.398889,-0.42333 -1.552222,0.98778 2.54,2.25778 3.81,5.64445 3.81,10.01889 v 24.83556 c 0,13.82889 -1.693333,26.38778 -4.938889,37.39444 -3.668889,12.13556 -10.301111,23.42445 -19.896667,33.58445 -0.705556,1.55222 -0.282222,1.83444 1.128889,1.12889 12.558889,-10.58334 20.884445,-22.43667 25.4,-35.27778 3.668889,-10.58334 5.503334,-23.42445 5.503334,-38.52334 z m -43.03889,-19.33222 c 0.705555,-1.41111 0.423333,-2.82222 -1.128889,-4.37444 -2.257778,-2.25778 -4.374445,-3.95111 -6.632222,-4.93889 -1.693334,-0.84667 -2.398889,-0.42334 -1.552223,1.12889 1.834445,1.41111 2.681111,4.65666 2.681111,9.87777 v 8.74889 c 0,10.72445 -0.141111,17.49778 -0.564444,20.46111 -0.282222,2.25778 -0.705556,4.23334 -1.128889,6.06778 0.423333,2.54 1.693333,5.36223 3.951111,8.18445 2.116667,1.55222 3.245556,0.84666 3.245556,-2.11667 v -35.27778 c 0,-2.96333 0.423333,-5.50333 1.128889,-7.76111 z"
         style="font-size:141.1111145px;stroke-width:0.26458332"
         id="path14" />
    </g>
  </g>
</svg>
