<svg width="200" height="100" viewBox="0 0 200 100" fill="none" xmlns="http://www.w3.org/2000/svg">
<path d="M83.368 21.816H70.684C71.02 24.168 71.272 26.856 71.272 30.3C71.272 33.912 71.272 41.976 71.272 46.176C71.272 59.28 70.096 65.58 64.384 71.88C59.26 77.34 52.54 80.532 44.14 82.464L52.96 91.788C59.092 89.772 67.744 85.74 73.288 79.608C79.588 72.72 83.116 64.992 83.116 46.848C83.116 42.732 83.116 34.584 83.116 30.3C83.116 26.856 83.2 24.168 83.368 21.816ZM44.476 22.572H32.296C32.548 24.504 32.632 27.444 32.632 28.956C32.632 32.652 32.632 52.476 32.632 57.264C32.632 59.868 32.38 63.144 32.212 64.656H44.476C44.308 62.724 44.14 59.448 44.14 57.348C44.14 52.644 44.14 32.652 44.14 28.956C44.14 26.352 44.308 24.504 44.476 22.572ZM117.808 39.624V49.704C119.908 49.62 125.116 49.452 128.224 49.452C135.028 49.452 152.752 49.452 156.028 49.452C156.028 52.224 156.028 78.516 156.028 87.084C156.028 88.764 156.028 91.956 155.944 93.3H166.444C166.444 91.872 166.36 88.932 166.36 87.588C166.36 80.952 166.36 48.864 166.36 45.504C166.36 43.74 166.36 40.968 166.444 39.792C165.1 39.876 161.992 39.96 160.06 39.96C153.088 39.96 135.112 39.96 128.224 39.96C125.116 39.96 119.992 39.792 117.808 39.624ZM119.992 59.28V69.276C122.008 69.108 126.04 69.108 129.232 69.108C133.348 69.108 158.548 69.108 160.9 69.108V59.532C158.632 59.532 133.348 59.532 129.232 59.532C126.04 59.532 122.176 59.448 119.992 59.28ZM116.968 79.86V90.192C118.312 90.192 121.756 90.024 124.192 90.024C129.4 90.024 156.364 90.024 160.984 90.024V80.196C157.372 80.196 129.4 80.196 124.192 80.196C121.168 80.196 118.312 80.028 116.968 79.86Z" fill="black"/>
</svg>
