<svg width="100" height="100" viewBox="0 0 100 100" fill="none" xmlns="http://www.w3.org/2000/svg">
<path d="M50.168 80.152L57.224 85.948C58.064 85.36 59.072 84.436 60.836 83.512C70.328 78.724 82.34 69.652 89.312 60.58L82.928 51.256C77.216 59.404 68.984 66.04 62.096 68.98C62.096 63.856 62.096 31.852 62.096 25.132C62.096 21.352 62.684 17.992 62.684 17.824H50.252C50.252 17.992 50.84 21.268 50.84 25.048C50.84 31.852 50.84 69.568 50.84 74.02C50.84 76.288 50.588 78.556 50.168 80.152ZM11.276 78.976L21.524 85.78C28.748 79.396 33.956 71.08 36.56 61.672C38.744 53.188 38.996 35.464 38.996 25.468C38.996 22.024 39.584 18.244 39.584 17.908H27.236C27.74 20.008 28.076 22.192 28.076 25.636C28.076 35.716 27.992 51.676 25.556 58.816C23.288 66.04 18.752 73.768 11.276 78.976Z" fill="black"/>
</svg>
