<?xml version="1.0" encoding="UTF-8" standalone="no"?>
<!-- Created with Inkscape (http://www.inkscape.org/) -->

<svg
   xmlns:dc="http://purl.org/dc/elements/1.1/"
   xmlns:cc="http://creativecommons.org/ns#"
   xmlns:rdf="http://www.w3.org/1999/02/22-rdf-syntax-ns#"
   xmlns:svg="http://www.w3.org/2000/svg"
   xmlns="http://www.w3.org/2000/svg"
   xmlns:sodipodi="http://sodipodi.sourceforge.net/DTD/sodipodi-0.dtd"
   xmlns:inkscape="http://www.inkscape.org/namespaces/inkscape"
   width="500"
   height="500"
   viewBox="0 0 132.29166 132.29167"
   version="1.1"
   id="svg8"
   inkscape:version="0.92.4 (5da689c313, 2019-01-14)"
   sodipodi:docname="Japanese_Katakana_kyokashotai_RE.svg">
  <defs
     id="defs2" />
  <sodipodi:namedview
     id="base"
     pagecolor="#ffffff"
     bordercolor="#666666"
     borderopacity="1.0"
     inkscape:pageopacity="0.0"
     inkscape:pageshadow="2"
     inkscape:zoom="0.35"
     inkscape:cx="47.142857"
     inkscape:cy="560"
     inkscape:document-units="mm"
     inkscape:current-layer="layer1"
     showgrid="false"
     units="px"
     inkscape:window-width="1440"
     inkscape:window-height="837"
     inkscape:window-x="-8"
     inkscape:window-y="-8"
     inkscape:window-maximized="1" />
  <metadata
     id="metadata5">
    <rdf:RDF>
      <cc:Work
         rdf:about="">
        <dc:format>image/svg+xml</dc:format>
        <dc:type
           rdf:resource="http://purl.org/dc/dcmitype/StillImage" />
        <dc:title></dc:title>
      </cc:Work>
    </rdf:RDF>
  </metadata>
  <g
     inkscape:label="Layer 1"
     inkscape:groupmode="layer"
     id="layer1"
     transform="translate(0,-164.70832)">
    <g
       aria-label="レ"
       style="font-style:normal;font-variant:normal;font-weight:normal;font-stretch:normal;font-size:141.1111145px;line-height:1.25;font-family:MHGKyokashotaiTHK;-inkscape-font-specification:MHGKyokashotaiTHK;letter-spacing:0px;word-spacing:0px;fill:#000000;fill-opacity:1;stroke:none;stroke-width:0.26458332"
       id="text12"
       transform="translate(-58.843777,49.353816)">
      <path
         d="m 160.50381,170.74586 c 0.84667,-2.54 0.28223,-3.10445 -1.55222,-1.55222 -8.46667,9.45444 -18.62667,18.90889 -30.33889,28.08111 -9.87778,7.76111 -19.47333,13.97 -28.645555,18.76778 -1.552223,1.12889 -2.257778,0.70555 -2.257778,-1.12889 0.705555,-32.03222 1.411111,-51.08223 1.693333,-57.29111 0.423334,-6.35 0.84667,-10.30112 1.69333,-12.13556 0.98778,-1.55222 0.70556,-3.10444 -1.128885,-4.51556 -2.54,-1.83444 -5.785556,-3.38666 -9.454445,-4.93888 -1.411111,-0.56445 -1.834444,-0.28223 -0.987778,1.12888 2.54,2.54 3.81,5.36223 3.81,8.32556 l -1.128889,69.42667 c -1.128888,1.83444 -1.27,3.10444 -0.564444,3.81 l 4.938889,7.76111 c 0.705556,1.41111 1.834444,0.84667 3.386667,-1.69333 10.301115,-6.63223 18.485555,-12.41778 24.835555,-17.63889 10.58333,-8.74889 22.57778,-20.88445 35.70111,-36.40667 z"
         style="font-size:141.1111145px;stroke-width:0.26458332"
         id="path14"
         inkscape:connector-curvature="0" />
    </g>
  </g>
</svg>
