<?xml version="1.0" encoding="UTF-8" standalone="no"?>
<!-- Created with Inkscape (http://www.inkscape.org/) -->

<svg
   xmlns:dc="http://purl.org/dc/elements/1.1/"
   xmlns:cc="http://creativecommons.org/ns#"
   xmlns:rdf="http://www.w3.org/1999/02/22-rdf-syntax-ns#"
   xmlns:svg="http://www.w3.org/2000/svg"
   xmlns="http://www.w3.org/2000/svg"
   xmlns:sodipodi="http://sodipodi.sourceforge.net/DTD/sodipodi-0.dtd"
   xmlns:inkscape="http://www.inkscape.org/namespaces/inkscape"
   width="500"
   height="500"
   viewBox="0 0 132.29166 132.29167"
   version="1.1"
   id="svg8"
   inkscape:version="0.92.4 (5da689c313, 2019-01-14)"
   sodipodi:docname="Japanese_Katakana_kyokashotai_RO.svg">
  <defs
     id="defs2" />
  <sodipodi:namedview
     id="base"
     pagecolor="#ffffff"
     bordercolor="#666666"
     borderopacity="1.0"
     inkscape:pageopacity="0.0"
     inkscape:pageshadow="2"
     inkscape:zoom="1.28"
     inkscape:cx="344.71105"
     inkscape:cy="246.0129"
     inkscape:document-units="mm"
     inkscape:current-layer="layer1"
     showgrid="false"
     units="px"
     inkscape:window-width="1440"
     inkscape:window-height="837"
     inkscape:window-x="-8"
     inkscape:window-y="-8"
     inkscape:window-maximized="1" />
  <metadata
     id="metadata5">
    <rdf:RDF>
      <cc:Work
         rdf:about="">
        <dc:format>image/svg+xml</dc:format>
        <dc:type
           rdf:resource="http://purl.org/dc/dcmitype/StillImage" />
        <dc:title></dc:title>
      </cc:Work>
    </rdf:RDF>
  </metadata>
  <g
     inkscape:label="Layer 1"
     inkscape:groupmode="layer"
     id="layer1"
     transform="translate(0,-164.70832)">
    <g
       aria-label="ロ"
       style="font-style:normal;font-variant:normal;font-weight:normal;font-stretch:normal;font-size:141.1111145px;line-height:1.25;font-family:MHGKyokashotaiTHK;-inkscape-font-specification:MHGKyokashotaiTHK;letter-spacing:0px;word-spacing:0px;fill:#000000;fill-opacity:1;stroke:none;stroke-width:0.26458332"
       id="text12"
       transform="translate(-40.882868,43.199312)">
      <path
         d="m 149.31572,163.51896 -8.89,-6.63222 c -1.41112,0.42333 -2.68112,0.98778 -3.81,1.69333 -21.02556,2.96334 -42.333339,5.22111 -63.923339,6.63223 -2.54,-1.83445 -4.656667,-2.82223 -6.067778,-3.24556 -2.963334,-0.70556 -3.527778,-0.28222 -1.693334,1.55222 2.540001,2.68111 3.951112,4.93889 4.374445,7.19667 l 6.067778,32.03222 c 0.282222,1.83445 0.423333,3.66889 0,5.50334 0.423333,3.24555 2.257778,6.63222 5.503333,9.87777 1.128889,0.70556 1.834445,0.14111 2.257778,-1.69333 v -1.55222 c 18.344447,-1.83445 33.584447,-3.38667 45.719997,-3.38667 h 6.06778 c 2.25778,0 3.10445,-0.56444 2.82222,-1.69333 0,-0.28222 -1.12888,-1.27 -3.38666,-2.68111 4.09222,-9.17223 8.74889,-22.43667 13.82889,-39.65223 2.25777,-1.55222 2.54,-2.82222 1.12889,-3.95111 z m -9.45445,2.82222 c -2.39889,13.26445 -5.50333,26.24667 -9.87778,39.08778 -15.09889,1.55223 -30.903331,3.10445 -47.413331,4.93889 -2.257778,-12.41778 -4.938889,-26.38778 -8.184445,-41.91 l 3.245556,0.56445 c 20.884445,-1.83445 41.20445,-3.66889 60.67778,-5.50334 1.41111,0 1.83444,0.98778 1.55222,2.82222 z"
         style="font-size:141.1111145px;stroke-width:0.26458332"
         id="path14"
         inkscape:connector-curvature="0" />
    </g>
  </g>
</svg>
