<svg width="100" height="100" viewBox="0 0 100 100" fill="none" xmlns="http://www.w3.org/2000/svg">
<path d="M20.264 19.756V31.18C23.12 30.928 26.9 30.76 29.84 30.76C35.3 30.76 64.784 30.76 69.908 30.76C68.48 40.924 65.792 50.08 61.508 56.464C54.536 66.628 41.936 74.44 27.572 77.8L36.308 87.04C54.536 80.74 64.952 71.584 72.344 59.824C77.132 52.264 80.408 39.244 82.592 28.66C82.844 27.316 83.432 26.056 83.936 24.88L75.536 19.672C73.268 20.26 70.496 20.428 67.892 20.428C63.188 20.428 35.132 20.428 29.756 20.428C26.144 20.428 22.448 19.924 20.264 19.756ZM70.328 52.6L70.916 42.772C64.532 42.772 37.652 42.772 30.596 42.772C27.992 42.772 24.884 42.604 22.448 42.352V53.02C25.388 52.768 27.992 52.6 31.016 52.6C37.652 52.6 63.356 52.6 70.328 52.6Z" fill="black"/>
</svg>
