<?xml version="1.0" encoding="UTF-8" standalone="no"?>
<!-- Created with Inkscape (http://www.inkscape.org/) -->

<svg
   xmlns:dc="http://purl.org/dc/elements/1.1/"
   xmlns:cc="http://creativecommons.org/ns#"
   xmlns:rdf="http://www.w3.org/1999/02/22-rdf-syntax-ns#"
   xmlns:svg="http://www.w3.org/2000/svg"
   xmlns="http://www.w3.org/2000/svg"
   xmlns:sodipodi="http://sodipodi.sourceforge.net/DTD/sodipodi-0.dtd"
   xmlns:inkscape="http://www.inkscape.org/namespaces/inkscape"
   width="500"
   height="500"
   viewBox="0 0 132.29166 132.29167"
   version="1.1"
   id="svg8"
   inkscape:version="0.92.4 (5da689c313, 2019-01-14)"
   sodipodi:docname="Japanese_Hiragana_kyokashotai_E.svg">
  <defs
     id="defs2" />
  <sodipodi:namedview
     id="base"
     pagecolor="#ffffff"
     bordercolor="#666666"
     borderopacity="1.0"
     inkscape:pageopacity="0.0"
     inkscape:pageshadow="2"
     inkscape:zoom="0.35"
     inkscape:cx="400"
     inkscape:cy="560"
     inkscape:document-units="mm"
     inkscape:current-layer="layer1"
     showgrid="false"
     units="px"
     inkscape:window-width="1440"
     inkscape:window-height="837"
     inkscape:window-x="-8"
     inkscape:window-y="-8"
     inkscape:window-maximized="1" />
  <metadata
     id="metadata5">
    <rdf:RDF>
      <cc:Work
         rdf:about="">
        <dc:format>image/svg+xml</dc:format>
        <dc:type
           rdf:resource="http://purl.org/dc/dcmitype/StillImage" />
        <dc:title></dc:title>
      </cc:Work>
    </rdf:RDF>
  </metadata>
  <g
     inkscape:label="Layer 1"
     inkscape:groupmode="layer"
     id="layer1"
     transform="translate(0,-164.70832)">
    <g
       aria-label="ãˆ"
       style="font-style:normal;font-variant:normal;font-weight:normal;font-stretch:normal;font-size:141.11109924px;line-height:1.25;font-family:MHGKyokashotaiTHK;-inkscape-font-specification:MHGKyokashotaiTHK;letter-spacing:0px;word-spacing:0px;fill:#000000;fill-opacity:1;stroke:none;stroke-width:0.26458332"
       id="text12"
       transform="translate(-40.182498,45.170668)">
      <path
         d="m 120.50888,147.01905 c 0,-2.82223 -2.96333,-5.64445 -8.89,-8.18445 -6.20889,-2.68111 -11.85333,-3.81 -17.074441,-3.81 h -2.681111 c -1.552222,0 -1.693333,0.42334 -0.564444,1.55223 6.208888,1.12888 11.006666,3.38666 14.252216,6.63222 1.55223,1.55222 1.55223,2.82222 0,3.81 -0.28222,0.42333 -1.41111,1.41111 -3.24555,2.82222 -0.70556,1.41111 -0.42333,1.97555 1.12889,1.12889 l 5.50333,-2.82222 c 1.41111,-0.70556 3.52778,-0.70556 6.06778,0 2.25778,0.70555 3.66889,1.12888 4.37444,1.12888 0.70556,0 1.12889,-0.70555 1.12889,-2.25777 z m 26.95222,85.51332 c -3.24555,-2.96333 -6.06778,-4.37444 -8.18444,-3.81 -2.68111,0.56445 -6.06778,0.98778 -10.58333,0.98778 -4.65667,0 -8.74889,-0.28222 -11.99445,-0.98778 -3.38666,-0.84666 -6.20889,-2.68111 -8.32555,-5.50333 -3.38667,-4.51556 -6.06778,-7.47889 -8.32556,-8.89 -2.116664,-1.41111 -5.079998,-2.25778 -8.748886,-2.25778 -2.963333,0 -5.785555,0.70556 -8.325555,2.25778 -1.834444,1.12889 -3.951111,2.54 -6.632222,4.37444 H 75.35333 c 21.307776,-23.14222 36.26555,-38.2411 44.59111,-45.71999 1.55222,-1.41111 2.82222,-2.39889 3.81,-2.68111 1.55222,-0.84667 1.55222,-1.69334 0,-2.82222 -1.41111,-1.41112 -3.24556,-2.96334 -5.50334,-4.37445 -1.12888,0 -2.54,0.56445 -4.37444,1.55222 -12.13555,4.51556 -23.706665,8.60778 -34.713331,12.7 -3.245555,1.12889 -5.503333,1.69334 -6.632221,1.69334 -1.128889,0 -2.681111,-0.42334 -4.938889,-1.12889 -1.552222,-0.70556 -1.834444,-0.28222 -1.128889,1.12889 4.374444,3.24555 7.196666,5.08 8.325555,5.50333 0.705556,0.42333 2.681111,-0.14111 6.067778,-1.69333 10.30111,-4.65667 21.307777,-9.87778 33.019997,-15.38111 0.70556,0 0.98778,0.42333 0.56444,1.12888 -13.26444,16.93334 -27.798882,32.87889 -43.603326,47.97778 l -4.374444,3.24555 c -0.987777,0.70556 -1.693333,2.54 -1.693333,5.50334 0,2.96333 0.423334,4.79777 1.128889,5.50333 0.705556,0.70556 1.693333,0.70556 2.822222,0 3.245555,-4.37444 7.478888,-8.60778 12.699999,-12.7 3.245555,-2.54 6.349999,-3.81 9.313332,-3.81 3.245556,0 5.644444,0.70556 7.196667,2.25778 2.116664,2.11666 4.374444,5.08 6.632224,8.74889 2.11666,3.66889 4.93889,6.49111 8.18444,8.32555 3.38667,1.83445 9.45444,2.68111 18.20333,2.68111 5.92667,0 10.30111,-0.28222 13.26445,-0.56444 3.24555,-0.42334 4.37444,-1.41111 3.24555,-3.24556 z"
         style="stroke-width:0.26458332"
         id="path14"
         inkscape:connector-curvature="0" />
    </g>
  </g>
</svg>
