<svg width="100" height="100" viewBox="0 0 100 100" fill="none" xmlns="http://www.w3.org/2000/svg">
<path d="M44.624 13.792H33.032C33.284 15.304 33.62 19.42 33.62 21.184C33.62 22.612 33.62 25.048 33.536 27.988C31.856 28.072 30.176 28.156 28.664 28.156C25.64 28.156 22.028 28.072 17.072 27.484L17.24 37.648C20.096 37.984 23.372 38.068 29 38.068C30.344 38.068 31.856 37.984 33.452 37.9C33.452 40.252 33.452 42.604 33.452 44.956C33.452 46.888 33.452 48.904 33.536 50.92C23.204 55.372 14.804 63.016 14.804 70.324C14.804 79.228 26.312 86.284 34.46 86.284C40.004 86.284 43.7 83.512 43.7 73.096C43.7 70.24 43.532 63.688 43.364 57.052C48.488 55.54 53.948 54.7 59.156 54.7C66.464 54.7 71.504 58.06 71.504 63.772C71.504 69.904 66.128 73.264 59.324 74.524C56.384 75.028 52.772 75.112 48.992 75.112L52.856 85.948C56.3 85.696 59.996 85.444 63.86 84.604C77.216 81.244 82.424 73.768 82.424 63.856C82.424 52.264 72.26 45.544 59.324 45.544C54.704 45.544 48.908 46.3 43.196 47.728C43.196 46.636 43.196 45.628 43.196 44.62C43.196 42.184 43.196 39.58 43.28 37.06C48.74 36.388 54.536 35.548 59.324 34.456L59.072 24.04C54.704 25.3 49.16 26.392 43.616 27.064C43.7 24.964 43.784 22.948 43.868 21.1C44.036 18.916 44.372 15.304 44.624 13.792ZM68.564 22.864L63.944 31.012C69.152 33.532 80.156 39.832 84.188 43.276L89.228 34.708C84.776 31.516 75.032 25.972 68.564 22.864ZM25.136 69.904C25.136 66.964 28.58 63.52 33.704 60.748C33.872 65.284 33.956 69.148 33.956 71.248C33.956 74.104 32.78 74.776 31.268 74.776C29.084 74.776 25.136 72.508 25.136 69.904Z" fill="black"/>
</svg>
