<?xml version="1.0" encoding="utf-8"?>
<!-- Generator: Adobe Illustrator 16.0.0, SVG Export Plug-In . SVG Version: 6.00 Build 0)  -->
<!DOCTYPE svg PUBLIC "-//W3C//DTD SVG 1.1//EN" "http://www.w3.org/Graphics/SVG/1.1/DTD/svg11.dtd">
<svg version="1.1" id="Layer_1" xmlns="http://www.w3.org/2000/svg" xmlns:xlink="http://www.w3.org/1999/xlink" x="0px" y="0px"
	 width="500px" height="500px" viewBox="0 0 500 500" enable-background="new 0 0 500 500" xml:space="preserve">
<g>
	<path d="M214.053,99.719c1.277,3.891-0.668,9.087-5.835,15.561c-9.087,16.868-20.12,42.154-33.067,75.859
		c18.145-5.167,34.343-7.78,48.627-7.78c14.255,0,25.925,3.89,35.012,11.67c7.781,6.504,11.671,19.451,11.671,38.902
		c0,20.758-9.087,53.824-27.231,99.2c-19.451,46.684-36.318,77.166-50.572,91.421c-3.891,3.89-7.142,2.613-9.726-3.891
		c-5.196-14.254-8.449-22.673-9.725-25.286c-3.891-6.475-11.671-14.893-23.342-25.287c-2.613-5.166-1.307-6.473,3.891-3.89
		l25.286,13.616c6.474,3.89,12.947,0.668,19.451-9.727c12.947-20.727,25.926-47.32,38.902-79.748
		c10.364-25.926,15.561-49.267,15.561-70.024c0-9.057-2.613-15.561-7.78-19.451c-5.197-3.89-11.671-5.835-19.451-5.835
		c-12.978,0-31.79,4.559-56.408,13.616c-20.758,53.187-42.792,107.65-66.134,163.389l-5.834,13.616
		c-5.198,7.779-9.088,6.504-11.671-3.891c-2.614-14.255-2.614-25.287,0-33.066c2.583-2.584,5.835-7.112,9.726-13.616
		c14.254-27.231,31.76-66.772,52.518-118.651c-14.284,5.197-26.593,9.726-36.957,13.616c-5.198,2.613-9.726,5.195-13.616,7.78
		c-7.781,1.306-17.506-6.474-29.177-23.341c-2.614-5.167-1.307-6.474,3.89-3.89c3.89,2.614,9.057,3.89,15.561,3.89h3.89
		c9.057,0,30.453-5.835,64.189-17.506c12.947-33.705,22.672-59.63,29.176-77.804c3.89-11.671,5.835-21.396,5.835-29.176
		c0-5.167-1.945-10.364-5.835-15.561c-2.614-5.167-1.307-6.474,3.89-3.891C200.437,77.047,208.856,86.772,214.053,99.719z
		 M412.454,204.755c20.727,28.538,31.76,51.241,33.066,68.078c0,7.781-1.307,14.922-3.891,21.397
		c-5.196,6.503-11.031,7.141-17.506,1.944c-2.613-5.167-7.142-18.145-13.616-38.901c-7.779-20.729-20.757-42.793-38.901-66.134
		c-15.561-16.837-33.066-33.067-52.518-48.627c-2.614-5.167-1.307-6.474,3.89-3.89C365.771,165.853,395.586,187.917,412.454,204.755
		z"/>
</g>
</svg>
