<svg width="200" height="100" viewBox="0 0 200 100" fill="none" xmlns="http://www.w3.org/2000/svg">
<path d="M29.776 26.772L30.364 36.348C43.132 37.608 54.724 37.524 63.376 36.852C70.684 36.348 77.992 34.92 84.04 33.24L82.696 23.664C75.724 25.848 68.836 27.192 61.192 27.696C52.288 28.368 42.04 28.2 29.776 26.772ZM28.264 44.328L28.852 54.24C43.972 55.248 60.352 54.996 70.936 53.82C77.74 53.064 83.956 51.888 88.996 50.628L87.316 40.716C82.444 42.144 76.144 43.824 67.072 44.58C56.992 45.588 43.384 45.84 28.264 44.328ZM56.32 29.124C57.412 33.156 58.252 36.18 60.352 42.144C62.452 48.276 65.56 55.584 70.012 63.06C67.576 62.808 62.956 62.388 59.428 62.052L58.588 70.116C64.72 70.788 73.876 71.796 78.58 72.804L83.62 65.076C82.108 63.648 81.016 62.388 79.84 60.708C75.976 54.828 71.86 46.176 69.844 40.296C67.66 33.828 65.56 26.436 64.552 18.372L53.296 19.632C54.472 22.908 55.48 26.016 56.32 29.124ZM44.392 63.9L33.976 61.884C31.96 65.832 30.196 69.948 30.28 75.408C30.532 87.336 40.948 92.292 57.664 92.292C64.552 92.292 72.28 91.704 78.16 90.78L78.748 80.112C72.7 81.288 65.56 81.876 57.664 81.876C46.492 81.876 40.612 79.356 40.612 73.14C40.612 69.528 42.376 66.672 44.392 63.9ZM126.88 38.532L116.044 37.776C116.128 38.784 116.044 40.548 115.96 42.06C115.372 46.26 114.196 55.164 114.196 63.564C114.196 70.368 115.288 77.76 116.8 82.548L125.788 81.372C125.452 79.524 125.032 75.324 125.032 74.064C124.948 72.804 125.032 71.964 125.284 70.788C126.796 61.716 135.7 50.712 149.98 50.712C159.472 50.712 163.168 55.584 163.168 61.8C163.168 69.192 159.304 74.148 149.728 74.148C142.42 74.148 137.884 69.864 134.608 63.648L129.232 71.376C133.516 80.028 142.084 84.144 150.148 84.144C165.436 84.144 173.08 73.812 173.08 61.716C173.08 50.544 164.848 41.892 150.484 41.892C140.404 41.892 129.484 46.764 123.52 56.676C123.604 52.056 124.696 46.512 125.536 42.984C125.872 41.892 126.292 40.044 126.88 38.532ZM151.072 33.996L140.824 34.164C141.328 35.676 141.748 37.104 142.084 38.7C143.008 43.404 143.848 50.796 143.848 59.112C143.848 69.864 141.916 82.296 129.988 89.604L139.144 94.896C150.652 86.412 153.34 73.056 153.34 59.952C153.34 49.536 151.912 39.036 151.072 33.996Z" fill="black"/>
</svg>
