<svg width="200" height="100" viewBox="0 0 200 100" fill="none" xmlns="http://www.w3.org/2000/svg">
<g clip-path="url(#clip0_212_577)">
<path d="M89.6683 13.456L83.5363 15.976C86.1403 19.756 87.9043 23.032 90.0043 27.652L96.3883 24.796C94.7923 21.52 91.7683 16.396 89.6683 13.456ZM98.9923 9.592L92.8603 12.448C95.5483 16.06 97.4803 19.252 99.7483 23.788L106.048 20.764C104.284 17.488 101.092 12.532 98.9923 9.592ZM35.4883 22.108L35.9923 31.768C48.7603 32.944 60.3523 32.944 69.0883 32.272C76.3963 31.684 81.7723 30.592 86.1403 29.5L84.7963 19.924C80.4283 21.268 74.5483 22.528 66.9043 23.116C58.0003 23.788 47.7523 23.536 35.4883 22.108ZM33.9763 39.748L34.4803 49.576C49.6843 50.584 65.9803 50.416 76.6483 49.24C83.4523 48.4 89.5843 47.308 94.6243 46.048L93.0283 36.052C88.1563 37.48 81.7723 39.16 72.7843 40C62.7043 41.008 49.0963 41.176 33.9763 39.748ZM61.9483 24.46C63.0403 28.576 63.9643 31.6 65.9803 37.48C68.1643 43.612 71.1883 50.92 75.7243 58.396C73.2043 58.228 68.6683 57.808 65.1403 57.472L64.3003 65.452C70.4323 66.124 79.5043 67.132 84.2083 68.14L89.3323 60.412C87.8203 58.984 86.6443 57.724 85.5523 56.044C81.6883 50.164 77.4883 41.512 75.5563 35.716C73.2883 29.164 71.2723 21.772 70.2643 13.792L59.0083 14.968C60.1843 18.244 61.1083 21.352 61.9483 24.46ZM50.0203 59.236L39.6043 57.22C37.6723 61.168 35.8243 65.284 35.9923 70.744C36.1603 82.672 46.5763 87.712 63.3763 87.712C70.2643 87.712 77.9923 87.04 83.8723 86.116L84.4603 75.448C78.4123 76.624 71.2723 77.296 63.3763 77.296C52.2043 77.296 46.3243 74.692 46.3243 68.56C46.3243 64.948 48.0043 62.008 50.0203 59.236ZM149.18 39.916L156.74 34.456C154.724 32.188 149.936 28.072 147.5 26.476L140.024 31.936C143.132 34.12 146.744 37.312 149.18 39.916ZM132.044 33.028L121.544 37.06C123.14 38.908 124.652 41.344 125.576 42.94C128.18 47.308 131.876 55.372 134.48 61.756C137.588 69.484 141.62 81.076 143.636 89.56L154.22 86.956C151.868 79.48 146.996 65.032 143.804 57.64C141.368 51.76 137 42.604 134.564 37.984C133.976 36.808 132.884 34.624 132.044 33.028ZM114.992 53.104L119.78 63.268C126.164 60.412 150.44 46.888 161.192 46.888C166.484 46.888 169.004 49.66 169.004 52.516C169.004 56.884 166.148 59.74 160.268 59.74C157.58 59.74 153.8 58.9 150.776 57.472L150.524 67.216C152.96 68.14 157.412 69.316 161.024 69.316C173.624 69.316 179.336 62.848 179.336 52.432C179.336 45.124 173.876 37.48 161.612 37.48C151.448 37.48 134.9 45.964 122.468 50.836C121.376 51.256 118.184 52.264 114.992 53.104Z" fill="black"/>
</g>
<defs>
<clipPath id="clip0_212_577">
<rect width="200" height="100" fill="white"/>
</clipPath>
</defs>
</svg>
