<svg width="100" height="100" viewBox="0 0 100 100" fill="none" xmlns="http://www.w3.org/2000/svg">
<path d="M69.656 21.436L59.828 12.784C58.484 14.8 55.796 17.488 53.36 19.924C47.732 25.384 36.224 34.708 29.588 40.084C21.188 47.14 20.516 51.592 28.916 58.732C36.56 65.284 48.908 75.784 54.032 81.076C56.552 83.596 58.988 86.284 61.34 88.888L71.168 79.9C62.6 71.584 46.64 58.984 40.34 53.692C35.804 49.744 35.72 48.82 40.172 44.956C45.8 40.168 56.888 31.6 62.348 27.232C64.28 25.636 67.052 23.452 69.656 21.436Z" fill="black"/>
</svg>
