<svg width="100" height="100" viewBox="0 0 100 100" fill="none" xmlns="http://www.w3.org/2000/svg">
<path d="M63.02 33.364L56.3 36.136C58.568 39.496 61.424 45.376 63.188 48.82L70.076 45.88C68.48 42.856 65.204 36.556 63.02 33.364ZM73.184 29.416L66.296 32.272C68.648 35.548 71.588 41.176 73.52 44.704L80.324 41.848C78.644 38.74 75.368 32.524 73.184 29.416ZM68.312 21.436L58.484 12.784C57.224 14.8 54.452 17.488 52.1 19.924C46.388 25.384 34.88 34.708 28.328 40.084C19.844 47.14 19.256 51.592 27.572 58.732C35.3 65.284 47.564 75.784 52.688 81.076C55.124 83.596 57.728 86.284 60.08 88.888L69.74 79.9C61.172 71.584 45.296 58.984 38.996 53.692C34.376 49.744 34.292 48.82 38.828 44.956C44.372 40.168 55.544 31.6 60.92 27.232C62.936 25.636 65.708 23.452 68.312 21.436Z" fill="black"/>
</svg>
