<svg width="100" height="100" viewBox="0 0 100 100" fill="none" xmlns="http://www.w3.org/2000/svg">
<path d="M73.352 15.22H61.172C61.508 16.564 61.928 18.916 62.096 21.016C62.264 23.284 62.348 27.652 62.432 32.356C59.24 32.44 55.964 32.524 52.94 32.524C48.488 32.524 44.372 32.188 40.256 31.6V42.268C44.372 42.436 49.58 42.688 53.192 42.688C56.3 42.688 59.408 42.604 62.6 42.52C62.6 43.696 62.6 44.704 62.6 45.544C62.6 59.74 61.256 67.216 54.788 73.936C52.436 76.54 48.236 79.228 45.044 80.656L54.704 88.3C71.504 77.632 73.016 65.452 73.016 45.628C73.016 44.788 73.016 43.528 73.016 42.1C77.72 41.848 82.088 41.512 85.448 41.092L85.532 30.172C82.088 30.844 77.636 31.348 72.932 31.684C72.932 27.064 72.932 22.696 72.932 20.932C73.016 19.084 73.1 17.068 73.352 15.22ZM31.604 16.648L19.172 15.388C19.088 17.488 19.004 20.344 18.584 22.696C17.576 29.5 15.896 42.436 15.896 56.212C15.896 66.628 18.836 78.388 20.684 83.428L30.008 82.504C29.924 81.328 29.84 79.9 29.84 79.06C29.84 78.052 30.008 76.204 30.344 74.944C31.352 70.156 33.62 61.672 36.056 54.448L30.848 51.088C29.42 54.196 27.908 58.228 26.816 60.832C24.548 50.416 27.488 32.776 29.588 23.452C30.008 21.688 30.848 18.664 31.604 16.648Z" fill="black"/>
</svg>
