<svg width="100" height="100" viewBox="0 0 100 100" fill="none" xmlns="http://www.w3.org/2000/svg">
<path d="M26.312 20.932V32.02C33.116 32.608 40.424 32.944 49.244 32.944C57.224 32.944 67.64 32.44 73.52 31.936V20.764C67.052 21.436 57.476 21.94 49.16 21.94C40.34 21.94 32.528 21.604 26.312 20.932ZM33.368 56.548L22.364 55.54C21.692 58.648 20.684 62.764 20.684 67.636C20.684 79.144 30.344 85.612 49.58 85.612C61.34 85.612 71.42 84.52 78.728 82.756L78.644 70.912C71.252 73.012 60.5 74.272 49.16 74.272C37.064 74.272 31.94 70.408 31.94 65.032C31.94 62.176 32.528 59.572 33.368 56.548Z" fill="black"/>
</svg>
