<?xml version="1.0" encoding="utf-8"?>
<!-- Generator: Adobe Illustrator 16.0.0, SVG Export Plug-In . SVG Version: 6.00 Build 0)  -->
<!DOCTYPE svg PUBLIC "-//W3C//DTD SVG 1.1//EN" "http://www.w3.org/Graphics/SVG/1.1/DTD/svg11.dtd">
<svg version="1.1" id="Layer_1" xmlns="http://www.w3.org/2000/svg" xmlns:xlink="http://www.w3.org/1999/xlink" x="0px" y="0px"
	 width="500px" height="500px" viewBox="0 0 500 500" enable-background="new 0 0 500 500" xml:space="preserve">
<g>
	<path d="M145.438,355.344c14.313,10.438,35.156,18.25,62.5,23.438c20.813,3.906,50.109,5.859,87.891,5.859
		c19.531,0,34.484-1.281,44.922-3.906c20.813,5.219,31.25,11.719,31.25,19.531c0,6.531-11.719,9.766-35.156,9.766
		c-72.938,0-126.313-6.5-160.156-19.531c-19.531-7.813-34.516-18.219-44.922-31.25c-7.813-10.406-11.719-24.078-11.719-41.016
		c2.594-5.188,4.547-5.188,5.859,0C125.906,333.859,132.406,346.25,145.438,355.344z M145.438,111.203
		c35.156-3.906,58.594-5.859,70.313-5.859c32.531,0,54.688,1.313,66.406,3.906c29.938,6.531,49.469,15.625,58.594,27.344
		c6.5,7.813,4.547,12.39-5.859,13.672c-14.344-1.282-24.109-1.953-29.297-1.953c-7.813,0-24.109,4.578-48.828,13.672
		c-6.531,1.313-7.172,0-1.953-3.906l29.297-17.578c6.5-2.594,5.859-5.859-1.953-9.766c-18.25-7.813-42.328-11.719-72.266-11.719
		c-15.625,0-34.516,1.313-56.641,3.906C140.219,116.422,137.625,112.516,145.438,111.203z"/>
</g>
</svg>
