<svg width="100" height="100" viewBox="0 0 100 100" fill="none" xmlns="http://www.w3.org/2000/svg">
<path d="M50.588 22.36C51.092 23.788 51.596 25.552 52.268 27.484C43.364 28.072 32.612 27.82 20.012 26.308L20.18 37.06C34.544 38.236 46.052 38.152 56.048 37.396C58.4 43.024 61.424 48.568 63.944 52.6C61.34 52.432 55.796 51.928 51.68 51.592L50.84 60.496C57.896 61.084 68.48 62.176 73.184 63.1L78.392 55.54C76.88 53.86 75.284 52.012 73.856 49.912C71.756 46.888 68.816 41.68 66.38 36.22C71.672 35.464 77.048 34.456 81.332 33.196L79.988 22.612C74.696 24.208 68.816 25.552 62.768 26.476C61.34 22.276 60.08 17.74 59.24 13.288L47.9 14.632C48.992 17.404 49.916 20.428 50.588 22.36ZM36.812 54.952L26.312 52.516C23.456 58.228 21.86 63.016 21.86 68.14C21.86 80.236 32.696 86.872 49.832 86.956C60.08 86.956 67.64 85.864 72.428 84.94L73.016 74.356C67.052 75.532 59.66 76.372 50.504 76.372C38.996 76.372 32.696 73.348 32.696 66.292C32.696 62.596 34.124 58.9 36.812 54.952Z" fill="black"/>
</svg>
