<?xml version="1.0" encoding="utf-8"?>
<!-- Generator: Adobe Illustrator 16.0.0, SVG Export Plug-In . SVG Version: 6.00 Build 0)  -->
<!DOCTYPE svg PUBLIC "-//W3C//DTD SVG 1.1//EN" "http://www.w3.org/Graphics/SVG/1.1/DTD/svg11.dtd">
<svg version="1.1" id="Layer_1" xmlns="http://www.w3.org/2000/svg" xmlns:xlink="http://www.w3.org/1999/xlink" x="0px" y="0px"
	 width="500px" height="500px" viewBox="0 0 500 500" enable-background="new 0 0 500 500" xml:space="preserve">
<g>
	<path d="M288.016,275.266c-5.219-3.906-5.219-5.859,0-5.859c11.719,1.313,22.125,1.953,31.25,1.953
		c3.906,0,5.188-1.281,3.906-3.906c-24.75-32.531-48.188-62.5-70.313-89.844c-31.25,10.437-60.547,21.484-87.891,33.203
		c-5.219,1.313-11.719,0.671-19.531-1.953c-10.438-3.906-18.891-10.406-25.391-19.531c-2.625-7.813-1.313-9.094,3.906-3.906
		c6.5,5.219,13,7.813,19.531,7.813c3.906,0,15.625-2.594,35.156-7.813c24.719-7.813,47.516-15.625,68.359-23.438
		c-6.531-10.406-16.938-30.579-31.25-60.547c-7.813-16.907-13.031-26.672-15.625-29.297c-5.219-5.188-13.031-7.813-23.438-7.813
		c-5.219-2.594-5.219-4.547,0-5.859c7.813-1.282,16.266-1.953,25.391-1.953c13,1.313,21.484,3.906,25.391,7.813
		c3.906,15.625,7.813,29.297,11.719,41.016c2.594,7.813,10.406,24.75,23.438,50.781c11.719-3.906,22.766-8.453,33.203-13.672
		c6.5-3.906,12.359-7.141,17.578-9.766c10.406-2.594,20.813-1.282,31.25,3.906c7.813,3.906,8.453,8.484,1.953,13.672
		c-24.75,5.219-49.5,12.39-74.219,21.484c36.438,48.188,61.828,79.438,76.172,93.75c3.906,7.813,6.5,15.625,7.813,23.438
		c1.281,6.531,1.953,11.719,1.953,15.625c-1.313,6.531-3.906,7.813-7.813,3.906C334.891,291.563,314.047,280.484,288.016,275.266z
		 M323.172,421.75c2.594,3.906,2.594,7.172,0,9.766c-3.906,1.281-13.672,1.953-29.297,1.953c-52.094,0-90.516-6.5-115.234-19.531
		c-29.969-15.625-44.922-32.531-44.922-50.781c0-9.094,4.547-16.906,13.672-23.438c5.188-2.594,6.5-1.281,3.906,3.906
		c-5.219,5.219-7.813,11.078-7.813,17.578c0,13.031,10.406,23.438,31.25,31.25c27.344,10.438,60.547,15.625,99.609,15.625
		c5.188,0,14.953-0.641,29.297-1.953C308.828,406.125,315.359,411.344,323.172,421.75z"/>
</g>
</svg>
