<svg width="100" height="100" viewBox="0 0 100 100" fill="none" xmlns="http://www.w3.org/2000/svg">
<path d="M73.604 12.364L66.968 15.052C68.816 17.74 70.916 21.604 72.512 24.712C68.816 25.636 65.036 26.392 61.088 26.98C59.744 22.78 58.484 18.244 57.644 13.792L46.304 15.136C47.396 17.908 48.32 20.932 48.992 22.864C49.496 24.292 50 26.056 50.756 27.988C41.768 28.576 31.016 28.324 18.332 26.812L18.5 37.564C32.864 38.74 44.456 38.656 54.452 37.9C56.804 43.528 59.828 49.072 62.348 53.104C59.744 52.852 54.116 52.432 50 52.096L49.244 61C56.3 61.588 66.884 62.596 71.588 63.604L76.796 56.044C75.2 54.364 73.688 52.516 72.26 50.416C70.16 47.392 67.136 42.184 64.7 36.724C70.076 35.968 75.368 34.96 79.736 33.7L78.56 24.544L80.24 23.872C78.728 20.764 75.704 15.472 73.604 12.364ZM83.6 8.752L76.964 11.44C79.316 14.632 82.004 19.588 83.768 23.116L90.404 20.176C88.892 17.236 85.868 11.944 83.6 8.752ZM35.216 55.456L24.716 53.02C21.86 58.732 20.264 63.52 20.264 68.644C20.264 80.74 31.1 87.376 48.236 87.376C58.484 87.46 66.044 86.368 70.832 85.444L71.42 74.86C65.456 76.036 58.064 76.876 48.908 76.876C37.4 76.792 31.1 73.852 31.1 66.796C31.1 63.1 32.528 59.404 35.216 55.456Z" fill="black"/>
</svg>
