<?xml version="1.0" encoding="utf-8"?>
<!-- Generator: Adobe Illustrator 16.0.0, SVG Export Plug-In . SVG Version: 6.00 Build 0)  -->
<!DOCTYPE svg PUBLIC "-//W3C//DTD SVG 1.1//EN" "http://www.w3.org/Graphics/SVG/1.1/DTD/svg11.dtd">
<svg version="1.1" id="Layer_1" xmlns="http://www.w3.org/2000/svg" xmlns:xlink="http://www.w3.org/1999/xlink" x="0px" y="0px"
	 width="500px" height="500px" viewBox="0 0 500 500" enable-background="new 0 0 500 500" xml:space="preserve">
<g>
	<path d="M325.603,428.921c-19.518,7.808-40.986,11.711-64.407,11.711c-29.946,0-52.697-7.808-68.311-23.421
		c-15.614-15.614-23.42-48.123-23.42-97.587c0-12.991,3.232-88.468,9.758-226.4c-1.311-11.71-4.574-20.158-9.758-25.373
		c-3.904-6.496-2.623-8.447,3.903-5.855c7.807,5.215,15.614,11.07,23.421,17.565c3.903,2.623,7.136,6.526,9.758,11.71
		c2.593,5.215,3.232,9.118,1.952,11.71c-5.214,20.829-10.429,54.648-15.614,101.49c-3.903,41.657-5.855,87.828-5.855,138.573
		c0,29.947,5.855,50.745,17.565,62.455c10.399,10.43,29.276,15.614,56.6,15.614c19.518,0,39.035-2.593,58.552-7.807
		c23.421-6.496,45.531-16.255,66.359-29.276c5.184-2.593,6.496-1.281,3.903,3.903C366.589,407.452,345.12,421.114,325.603,428.921z"
		/>
</g>
</svg>
