<svg width="200" height="100" viewBox="0 0 200 100" fill="none" xmlns="http://www.w3.org/2000/svg">
<path d="M47.164 20.388L33.64 20.304C34.312 23.58 34.648 27.612 34.648 31.644C34.648 38.868 33.892 60.876 33.892 72.132C33.892 86.496 42.712 92.544 56.488 92.544C75.64 92.544 87.568 81.372 93.028 73.308L85.384 63.984C79.252 73.14 70.516 81.12 56.656 81.12C50.104 81.12 45.064 78.348 45.064 69.864C45.064 59.448 45.652 40.716 46.072 31.644C46.24 28.284 46.66 23.916 47.164 20.388ZM126.88 38.532L116.044 37.776C116.128 38.784 116.044 40.548 115.96 42.06C115.372 46.26 114.196 55.164 114.196 63.564C114.196 70.368 115.288 77.76 116.8 82.548L125.788 81.372C125.452 79.524 125.032 75.324 125.032 74.064C124.948 72.804 125.032 71.964 125.284 70.788C126.796 61.716 135.7 50.712 149.98 50.712C159.472 50.712 163.168 55.584 163.168 61.8C163.168 69.192 159.304 74.148 149.728 74.148C142.42 74.148 137.884 69.864 134.608 63.648L129.232 71.376C133.516 80.028 142.084 84.144 150.148 84.144C165.436 84.144 173.08 73.812 173.08 61.716C173.08 50.544 164.848 41.892 150.484 41.892C140.404 41.892 129.484 46.764 123.52 56.676C123.604 52.056 124.696 46.512 125.536 42.984C125.872 41.892 126.292 40.044 126.88 38.532ZM151.072 33.996L140.824 34.164C141.328 35.676 141.748 37.104 142.084 38.7C143.008 43.404 143.848 50.796 143.848 59.112C143.848 69.864 141.916 82.296 129.988 89.604L139.144 94.896C150.652 86.412 153.34 73.056 153.34 59.952C153.34 49.536 151.912 39.036 151.072 33.996Z" fill="black"/>
</svg>
