<svg width="200" height="100" viewBox="0 0 200 100" fill="none" xmlns="http://www.w3.org/2000/svg">
<g clip-path="url(#clip0_212_481)">
<path d="M55.164 15.388L41.64 15.304C42.312 18.58 42.648 22.612 42.648 26.644C42.648 33.868 41.892 55.876 41.892 67.132C41.892 81.496 50.712 87.544 64.488 87.544C83.64 87.544 95.568 76.372 101.028 68.308L93.384 58.984C87.252 68.14 78.516 76.12 64.656 76.12C58.104 76.12 53.064 73.348 53.064 64.864C53.064 54.448 53.652 35.716 54.072 26.644C54.24 23.284 54.66 18.916 55.164 15.388ZM150 39.916L157.56 34.456C155.544 32.188 150.756 28.072 148.32 26.476L140.844 31.936C143.952 34.12 147.564 37.312 150 39.916ZM132.864 33.028L122.364 37.06C123.96 38.908 125.472 41.344 126.396 42.94C129 47.308 132.696 55.372 135.3 61.756C138.408 69.484 142.44 81.076 144.456 89.56L155.04 86.956C152.688 79.48 147.816 65.032 144.624 57.64C142.188 51.76 137.82 42.604 135.384 37.984C134.796 36.808 133.704 34.624 132.864 33.028ZM115.812 53.104L120.6 63.268C126.984 60.412 151.26 46.888 162.012 46.888C167.304 46.888 169.824 49.66 169.824 52.516C169.824 56.884 166.968 59.74 161.088 59.74C158.4 59.74 154.62 58.9 151.596 57.472L151.344 67.216C153.78 68.14 158.232 69.316 161.844 69.316C174.444 69.316 180.156 62.848 180.156 52.432C180.156 45.124 174.696 37.48 162.432 37.48C152.268 37.48 135.72 45.964 123.288 50.836C122.196 51.256 119.004 52.264 115.812 53.104Z" fill="black"/>
</g>
<defs>
<clipPath id="clip0_212_481">
<rect width="200" height="100" fill="white"/>
</clipPath>
</defs>
</svg>
