<svg width="200" height="100" viewBox="0 0 200 100" fill="none" xmlns="http://www.w3.org/2000/svg">
<path d="M47.164 20.388L33.64 20.304C34.312 23.58 34.648 27.612 34.648 31.644C34.648 38.868 33.892 60.876 33.892 72.132C33.892 86.496 42.712 92.544 56.488 92.544C75.64 92.544 87.568 81.372 93.028 73.308L85.384 63.984C79.252 73.14 70.516 81.12 56.656 81.12C50.104 81.12 45.064 78.348 45.064 69.864C45.064 59.448 45.652 40.716 46.072 31.644C46.24 28.284 46.66 23.916 47.164 20.388ZM147.712 33.744H136.288C136.708 35.34 137.044 38.868 137.044 42.144C137.044 45 137.044 50.712 137.044 53.988C137.044 61.128 137.884 72.3 137.884 78.516C137.884 82.38 136.036 84.396 132.256 84.396C127.636 84.396 124.612 82.464 124.612 80.028C124.612 77.34 127.552 75.576 132.844 75.576C145.276 75.576 155.692 83.976 162.328 90.78L168.04 81.624C161.404 75.408 148.888 67.26 134.104 67.26C121.924 67.26 115.036 72.468 115.036 80.532C115.036 89.436 123.352 93.72 133.516 93.72C144.772 93.72 148.216 88.008 148.216 81.876C148.216 76.416 147.04 61.716 147.04 54.828C147.04 50.964 147.04 44.664 147.04 41.976C147.04 39.036 147.376 35.424 147.712 33.744ZM142.42 46.008L142.504 55.08C146.536 55.08 159.22 54.66 166.612 54.072L166.36 44.748C158.884 45.588 146.368 46.008 142.42 46.008Z" fill="black"/>
</svg>
