<svg width="100" height="100" viewBox="0 0 100 100" fill="none" xmlns="http://www.w3.org/2000/svg">
<path d="M59.576 22.612L52.268 25.72C55.292 30.004 57.476 34.036 59.996 39.412L67.472 36.136C65.624 32.272 61.928 26.14 59.576 22.612ZM70.832 17.992L63.608 21.352C66.716 25.552 68.984 29.416 71.672 34.708L78.98 31.18C77.132 27.4 73.268 21.436 70.832 17.992ZM37.904 15.892L24.38 15.724C25.052 19 25.388 23.032 25.388 27.064C25.388 34.288 24.632 56.38 24.632 67.636C24.632 81.916 33.452 87.964 47.228 87.964C66.38 87.964 78.308 76.792 83.768 68.728L76.124 59.404C69.992 68.56 61.256 76.624 47.396 76.624C40.844 76.624 35.72 73.852 35.72 65.368C35.72 54.868 36.392 36.136 36.812 27.064C36.98 23.704 37.4 19.42 37.904 15.892Z" fill="black"/>
</svg>
