<?xml version="1.0" encoding="utf-8"?>
<!-- Generator: Adobe Illustrator 16.0.0, SVG Export Plug-In . SVG Version: 6.00 Build 0)  -->
<!DOCTYPE svg PUBLIC "-//W3C//DTD SVG 1.1//EN" "http://www.w3.org/Graphics/SVG/1.1/DTD/svg11.dtd">
<svg version="1.1" id="Layer_1" xmlns="http://www.w3.org/2000/svg" xmlns:xlink="http://www.w3.org/1999/xlink" x="0px" y="0px"
	 width="500px" height="500px" viewBox="0 0 500 500" enable-background="new 0 0 500 500" xml:space="preserve">
<g>
	<path d="M282.414,58.469c5.188,3.906,6.5,8.484,3.906,13.672c-2.625,5.219-3.906,13.031-3.906,23.438l-1.953,41.016
		c24.719-2.594,50.109-5.859,76.172-9.766c10.406-3.906,18.219-6.5,23.438-7.813c5.188,1.313,12.359,3.266,21.484,5.859
		c11.719,3.906,20.813,9.125,27.344,15.625c3.906,6.531,1.953,10.437-5.859,11.719c-11.719-2.594-25.391-3.906-41.016-3.906
		c-26.063,0-59.906,1.953-101.563,5.859v91.797c0,26.063,1.281,50.141,3.906,72.266c1.281,5.219-0.672,9.766-5.859,13.672
		c-3.906,1.313-9.125,1.953-15.625,1.953c-6.531,29.969-17.578,53.406-33.203,70.313c-14.344,15.625-37.109,31.25-68.359,46.875
		c-5.219,2.594-6.531,1.281-3.906-3.906c26.031-18.219,46.203-37.109,60.547-56.641c13-18.219,21.484-37.75,25.391-58.594
		c-14.344-2.594-27.344-5.859-39.063-9.766c-9.125-2.594-18.25-8.453-27.344-17.578c-5.219-5.188-7.813-18.859-7.813-41.016
		c0-19.531,4.547-33.844,13.672-42.969c6.5-6.5,14.313-9.766,23.438-9.766c11.719,0,22.766,6.531,33.203,19.531
		c10.406,13.031,16.906,35.156,19.531,66.406h3.906c-1.313-52.063-1.953-98.938-1.953-140.625
		c-54.688,5.219-104.188,14.343-148.438,27.344c-7.813,3.906-13.672,5.219-17.578,3.906c-11.719-3.906-22.156-9.766-31.25-17.578
		c-3.906-5.188-3.266-7.141,1.953-5.859c5.188,2.625,13.672,3.266,25.391,1.953c28.625-3.906,85.266-13,169.922-27.344V91.672
		c0-10.406-0.672-18.219-1.953-23.438c-2.625-9.094-7.813-14.954-15.625-17.578c-3.906-2.594-3.906-4.547,0-5.859
		C253.758,42.203,266.789,46.75,282.414,58.469z M184.758,263.547c0,13.031,1.281,21.484,3.906,25.391
		c3.906,6.531,8.453,11.078,13.672,13.672c10.406,6.531,24.719,10.438,42.969,11.719v-9.766c0-26.031-4.578-46.875-13.672-62.5
		c-6.531-11.719-15.625-17.578-27.344-17.578c-5.219,0-9.125,1.313-11.719,3.906C187.352,233.609,184.758,245.328,184.758,263.547z"
		/>
</g>
</svg>
