<svg width="100" height="100" viewBox="0 0 100 100" fill="none" xmlns="http://www.w3.org/2000/svg">
<path d="M62.852 14.296H50.672C50.924 15.304 51.26 18.16 51.512 21.604C51.596 22.276 51.596 23.116 51.68 24.208C40.256 24.376 24.968 24.712 15.392 24.712L15.644 34.876C25.976 34.288 39.08 33.784 51.764 33.616C51.848 35.464 51.848 37.396 51.848 39.244C50.756 39.076 49.664 38.992 48.488 38.992C39.332 38.992 31.688 45.208 31.688 54.7C31.688 64.948 39.668 70.156 46.136 70.156C47.48 70.156 48.74 69.988 49.916 69.736C45.296 74.776 37.904 77.548 29.42 79.312L38.408 88.216C58.904 82.504 65.288 68.56 65.288 57.64C65.288 53.272 64.28 49.324 62.264 46.132C62.264 42.436 62.18 37.816 62.18 33.532C73.604 33.532 81.416 33.7 86.456 33.952L86.54 24.04C82.172 23.956 70.664 24.124 62.18 24.124C62.264 23.116 62.264 22.192 62.264 21.52C62.348 20.176 62.684 15.64 62.852 14.296ZM41.768 54.532C41.768 50.08 44.96 47.812 48.236 47.812C50.504 47.812 52.52 48.82 53.696 50.752C54.872 58.144 51.764 60.832 48.236 60.832C44.876 60.832 41.768 58.396 41.768 54.532Z" fill="black"/>
</svg>
