<svg width="100" height="100" viewBox="0 0 100 100" fill="none" xmlns="http://www.w3.org/2000/svg">
<path d="M39.332 55.708C39.332 51.256 42.608 49.072 45.716 49.072C48.068 49.072 50.084 49.996 51.26 52.012C52.352 59.404 49.328 62.092 45.8 62.092C42.44 62.092 39.332 59.572 39.332 55.708ZM71.252 12.952L64.364 15.808C66.38 18.832 68.144 22.108 69.824 25.3C66.38 25.3 62.852 25.3 59.744 25.3C59.744 24.292 59.828 23.368 59.828 22.696C59.912 21.352 60.164 16.816 60.416 15.472H48.32C48.488 16.564 48.824 19.42 49.076 22.78C49.16 23.452 49.16 24.292 49.16 25.384C37.82 25.552 22.532 25.888 12.956 25.972L13.208 36.136C23.54 35.548 36.644 34.96 49.328 34.792C49.412 36.64 49.412 38.572 49.412 40.42C48.32 40.252 47.228 40.168 46.052 40.168C36.896 40.168 29.168 46.468 29.168 55.96C29.168 66.124 37.232 71.332 43.7 71.332C45.128 71.332 46.388 71.164 47.564 70.912C42.944 75.952 35.468 78.724 26.984 80.488L35.888 89.476C56.468 83.68 62.936 69.82 62.936 58.816C62.936 54.364 61.844 50.332 59.744 47.14C59.744 43.444 59.744 38.992 59.66 34.708C71 34.708 78.98 34.96 84.02 35.212L84.104 25.216C81.584 25.216 76.712 25.216 71.336 25.3L77.132 22.864C75.62 19.924 73.352 15.976 71.252 12.952ZM82.508 10.6L75.536 13.456C77.72 16.48 79.736 20.008 81.416 23.368L88.472 20.428C86.876 17.32 84.608 13.624 82.508 10.6Z" fill="black"/>
</svg>
