<?xml version="1.0" encoding="utf-8"?>
<!-- Generator: Adobe Illustrator 16.0.0, SVG Export Plug-In . SVG Version: 6.00 Build 0)  -->
<!DOCTYPE svg PUBLIC "-//W3C//DTD SVG 1.1//EN" "http://www.w3.org/Graphics/SVG/1.1/DTD/svg11.dtd">
<svg version="1.1" id="Layer_1" xmlns="http://www.w3.org/2000/svg" xmlns:xlink="http://www.w3.org/1999/xlink" x="0px" y="0px"
	 width="500px" height="500px" viewBox="0 0 500 500" enable-background="new 0 0 500 500" xml:space="preserve">
<g>
	<path d="M336.844,85.813c5.188,3.906,5.859,7.813,1.953,11.719c-1.313,1.313-2.625,4.578-3.906,9.766
		c-3.906,23.438-7.172,52.094-9.766,85.938l44.922-7.813c7.813-3.906,13-5.859,15.625-5.859c10.406,0,25.391,3.906,44.922,11.719
		c7.813,3.906,11.047,8.484,9.766,13.672c-1.313,5.219-4.578,7.172-9.766,5.859c-13.031-2.594-24.75-3.906-35.156-3.906
		c-19.531,0-43.641,1.313-72.266,3.906c-3.906,42.969-9.125,72.938-15.625,89.844c-6.531,15.625-13.031,26.063-19.531,31.25
		c-6.531,5.219-9.766,4.578-9.766-1.953c-1.313-10.406-7.813-17.578-19.531-21.484c-5.219-3.906-5.219-5.859,0-5.859
		c6.5,1.313,11.719,1.953,15.625,1.953c6.5,0,10.406-1.953,11.719-5.859c7.813-15.625,13.672-44.25,17.578-85.938
		c-40.375,6.531-80.078,15.625-119.141,27.344v62.5c0,32.563,4.547,53.406,13.672,62.5c13,13.031,39.063,19.531,78.125,19.531
		c18.219,0,32.531-1.281,42.969-3.906c7.813-5.188,14.313-7.141,19.531-5.859c11.719,2.625,21.484,5.859,29.297,9.766
		c10.406,7.813,9.766,13.672-1.953,17.578c-19.531,2.625-41.016,3.906-64.453,3.906c-57.313,0-95.063-9.094-113.281-27.344
		c-16.938-16.906-25.391-46.203-25.391-87.891v-44.922c-28.656,7.813-55.359,18.25-80.078,31.25
		c-2.625,1.313-6.531,0.672-11.719-1.953c-7.813-3.906-15.625-8.453-23.438-13.672c-3.906-5.188-3.266-7.141,1.953-5.859
		c7.813,2.625,17.578,2.625,29.297,0c22.125-6.5,50.109-14.954,83.984-25.391v-31.25c0-35.156-0.672-57.281-1.953-66.406
		c-1.313-9.094-5.219-17.578-11.719-25.391c0-3.906,1.953-5.188,5.859-3.906c19.531,11.719,29.938,20.203,31.25,25.391
		c-1.313,7.813-1.953,15.625-1.953,23.438v72.266c32.531-9.094,72.906-18.219,121.094-27.344
		c3.906-41.656,5.859-73.547,5.859-95.703c0-14.313-3.906-24.078-11.719-29.297c-2.625-5.188-0.672-6.5,5.859-3.906
		C321.219,76.047,331.625,81.906,336.844,85.813z"/>
</g>
</svg>
