<svg width="100" height="100" viewBox="0 0 100 100" fill="none" xmlns="http://www.w3.org/2000/svg">
<path d="M70.664 17.488H59.408C59.66 19.084 59.996 23.032 59.996 25.216V34.708C52.352 35.296 44.12 36.136 37.064 36.808C37.064 33.532 37.148 30.676 37.148 28.744C37.148 25.132 37.232 22.78 37.652 20.008H25.808C26.228 22.948 26.48 25.804 26.48 29.332C26.48 30.76 26.48 33.868 26.48 37.816C23.792 38.068 21.608 38.236 20.096 38.404C15.812 38.74 11.864 38.908 9.512 38.908L10.604 49.66C12.872 49.24 18.08 48.568 20.768 48.232C22.196 48.064 24.128 47.896 26.396 47.644C26.396 55.456 26.396 63.52 26.48 67.132C26.9 81.664 29.42 86.284 51.26 86.284C59.24 86.284 69.488 85.528 75.2 84.856L75.62 73.432C69.32 74.608 58.736 75.616 50.504 75.616C37.904 75.616 37.148 73.768 36.98 65.452C36.812 61.84 36.896 54.112 36.98 46.468C44.12 45.712 52.352 44.956 59.828 44.284C59.744 48.4 59.492 52.18 59.156 54.532C58.988 56.128 58.232 56.38 56.552 56.38C54.872 56.38 51.428 55.876 48.824 55.456L48.572 64.612C51.512 65.116 58.232 65.872 61.172 65.872C65.54 65.872 67.64 64.78 68.48 60.328C69.152 56.8 69.488 49.996 69.74 43.528C72.176 43.36 74.444 43.276 76.292 43.192C78.476 43.108 82.928 43.024 84.356 43.108V32.776C81.92 33.028 78.56 33.28 76.292 33.364C74.36 33.532 72.26 33.616 69.908 33.868C69.992 31.012 70.076 28.072 70.16 24.712C70.244 22.528 70.496 18.748 70.664 17.488ZM77.216 17.74L71.504 19.588C73.184 22.948 74.612 27.568 75.788 31.18L81.584 29.248C80.66 25.972 78.728 21.1 77.216 17.74ZM85.868 14.884L80.156 16.648C81.836 20.008 83.432 24.544 84.692 28.156L90.404 26.308C89.396 23.116 87.464 18.16 85.868 14.884Z" fill="black"/>
</svg>
