<?xml version="1.0" encoding="utf-8"?>
<!-- Generator: Adobe Illustrator 16.0.0, SVG Export Plug-In . SVG Version: 6.00 Build 0)  -->
<!DOCTYPE svg PUBLIC "-//W3C//DTD SVG 1.1//EN" "http://www.w3.org/Graphics/SVG/1.1/DTD/svg11.dtd">
<svg version="1.1" id="Layer_1" xmlns="http://www.w3.org/2000/svg" xmlns:xlink="http://www.w3.org/1999/xlink" x="0px" y="0px"
	 width="500px" height="500px" viewBox="0 0 500 500" enable-background="new 0 0 500 500" xml:space="preserve">
<g>
	<path d="M311.453,76.565c3.906,3.906,5.859,6.531,5.859,7.813c0,2.625-3.906,5.219-11.719,7.813
		C232.656,172.94,171.469,232.175,122,269.925c0,5.219,3.234,7.172,9.766,5.859c41.656-11.719,85.938-26.672,132.813-44.922
		c41.656-15.625,65.094-26.031,70.313-31.25c5.188-3.906,8.453-5.859,9.766-5.859c2.594,0,11.047,3.906,25.391,11.719
		c6.5,5.219,5.859,9.125-1.953,11.719c-28.656,7.813-56.641,25.391-83.984,52.734c-26.063,26.063-39.063,48.828-39.063,68.359
		c0,13.031,9.766,26.703,29.297,41.016c22.125,16.938,40.344,26.703,54.688,29.297c6.5,1.313,11.719,5.219,15.625,11.719
		c5.188,9.125,7.141,16.266,5.859,21.484c-1.313,2.594-3.906,3.906-7.813,3.906c-11.719,0-35.828-14.344-72.266-42.969
		c-24.75-19.531-37.109-39.703-37.109-60.547c0-13,5.859-28.625,17.578-46.875c14.313-22.125,32.531-43.609,54.688-64.453
		l-1.953-3.906c-48.188,23.438-102.234,46.875-162.109,70.313c-6.531,3.906-20.203-3.906-41.016-23.438
		c-1.313-3.906,1.281-6.5,7.813-7.813c14.313-9.094,35.156-27.344,62.5-54.688s62.5-68.359,105.469-123.047
		c5.188-6.5,3.906-9.766-3.906-9.766c-46.875,18.25-76.844,31.921-89.844,41.016l-11.719,7.813
		c-5.219,1.313-10.438-1.282-15.625-7.813c-5.219-5.188-11.078-13.672-17.578-25.391c-2.625-5.188-1.313-6.5,3.906-3.906
		c6.5,7.813,14.313,11.719,23.438,11.719c3.906,0,37.75-11.047,101.563-33.203c6.5-2.594,11.047-5.188,13.672-7.813
		C282.797,58.347,293.203,63.565,311.453,76.565z"/>
</g>
</svg>
