<svg width="100" height="100" viewBox="0 0 100 100" fill="none" xmlns="http://www.w3.org/2000/svg">
<path d="M26.06 17.656L26.564 28.408C29.252 28.156 32.024 27.82 34.124 27.652C37.568 27.4 47.816 26.896 51.344 26.644C46.136 31.264 35.216 40.756 27.656 45.712C23.288 46.216 17.408 46.972 12.956 47.392L13.964 57.556C22.364 56.128 31.772 54.784 39.416 54.196C36.308 57.052 33.368 62.26 33.368 67.468C33.368 81.496 45.8 87.964 67.388 87.04L69.572 75.952C66.464 76.204 61.424 76.288 56.804 75.784C49.328 74.944 44.036 72.34 44.036 65.704C44.036 58.816 50.504 53.356 58.232 52.264C63.356 51.592 71.756 51.676 79.82 52.096V42.184C69.488 42.184 55.628 43.108 44.372 44.2C50.084 39.748 58.4 32.776 64.364 27.988C66.128 26.56 69.152 24.46 71 23.368L64.364 15.64C63.188 15.976 61.256 16.396 58.568 16.648C53.36 17.236 37.652 17.992 34.04 17.992C31.184 17.992 28.664 17.908 26.06 17.656ZM70.412 28.156L64.196 30.844C66.548 34.288 68.06 37.228 69.74 40.924L76.124 38.152C74.528 34.792 72.428 31.18 70.412 28.156ZM79.652 24.376L73.52 27.232C75.788 30.172 77.72 33.448 79.484 37.06L85.784 34.204C84.188 31.096 81.668 27.148 79.652 24.376Z" fill="black"/>
</svg>
