<?xml version="1.0" standalone="no"?>
<!DOCTYPE svg PUBLIC "-//W3C//DTD SVG 20010904//EN"
 "http://www.w3.org/TR/2001/REC-SVG-20010904/DTD/svg10.dtd">
<svg version="1.0" xmlns="http://www.w3.org/2000/svg"
 width="500.000000pt" height="500.000000pt" viewBox="0 0 500.000000 500.000000"
 preserveAspectRatio="xMidYMid meet">
<metadata>
Created by potrace 1.13, written by Peter Selinger 2001-2015
</metadata>
<g transform="translate(0.000000,500.000000) scale(0.100000,-0.100000)"
fill="#000000" stroke="none">
<g>
<path d="M2085 4500 c-4 -6 7 -36 23 -68 57 -109 59 -94 -88 -539 -73 -219
-136 -402 -140 -406 -9 -10 -123 -33 -380 -78 -224 -38 -310 -37 -410 6 -36
15 -77 29 -92 32 -88 16 43 -150 194 -248 69 -44 78 -45 139 -23 46 16 451
114 474 114 10 0 7 -16 -10 -62 -13 -35 -87 -234 -165 -443 -148 -398 -256
-658 -385 -935 -89 -191 -127 -261 -243 -458 l-84 -142 -9 -188 c-12 -265 -12
-257 15 -288 21 -25 26 -27 52 -16 25 11 39 37 113 210 338 792 676 1627 911
2253 l44 116 355 68 c196 37 467 86 603 109 136 24 254 48 262 55 23 19 20 54
-7 84 -28 34 -167 94 -260 113 -65 14 -75 14 -115 -2 -24 -9 -58 -29 -76 -44
-23 -20 -68 -37 -168 -64 -238 -64 -523 -133 -525 -127 -2 3 40 125 92 270 60
169 103 274 119 290 28 31 56 83 56 107 0 59 -131 230 -219 286 -48 30 -66 34
-76 18z"/>
</g>
<g>
<path d="M3305 2695 c-215 -63 -679 -224 -782 -272 -48 -22 -44 -49 10 -63 23
-6 48 -13 54 -15 7 -2 64 9 126 25 147 39 272 65 443 92 117 19 184 22 424 24
157 1 291 2 298 3 15 1 16 32 0 66 -8 19 -38 40 -98 70 -89 44 -280 115 -309
114 -9 0 -83 -20 -166 -44z"/>
</g>
<g>
<path d="M2453 1384 c8 -77 56 -175 115 -232 124 -120 380 -189 797 -212 174
-10 620 0 688 16 39 9 60 44 48 78 -15 37 -89 115 -132 137 -59 30 -107 33
-215 13 -84 -16 -156 -18 -469 -19 -415 0 -467 5 -583 61 -88 42 -145 91 -184
161 -21 37 -36 53 -50 53 -19 0 -20 -4 -15 -56z"/>
</g>
</g>
</svg>
