<?xml version="1.0" standalone="no"?>
<!DOCTYPE svg PUBLIC "-//W3C//DTD SVG 20010904//EN"
 "http://www.w3.org/TR/2001/REC-SVG-20010904/DTD/svg10.dtd">
<svg version="1.0" xmlns="http://www.w3.org/2000/svg"
 width="500.000000pt" height="500.000000pt" viewBox="0 0 500.000000 500.000000"
 preserveAspectRatio="xMidYMid meet">
<metadata>
Created by potrace 1.13, written by Peter Selinger 2001-2015
</metadata>
<g transform="translate(0.000000,500.000000) scale(0.100000,-0.100000)"
fill="#000000" stroke="none">
<g>
<path d="M2075 4670 c-4 -6 0 -19 9 -29 18 -20 56 -159 56 -206 0 -28 -47
-240 -176 -789 -12 -55 -28 -102 -35 -106 -15 -10 -360 -65 -534 -86 -166 -19
-306 -15 -388 11 -64 21 -84 14 -73 -27 12 -47 226 -178 290 -178 17 0 176 22
354 48 272 40 321 46 317 32 -2 -8 -29 -112 -60 -230 -147 -561 -321 -1163
-358 -1235 -11 -22 -35 -57 -53 -78 l-32 -39 15 -51 c25 -88 93 -255 108 -267
22 -18 49 -4 82 43 47 63 226 240 328 321 176 141 338 229 595 324 259 97 444
141 621 149 189 9 321 -25 431 -112 133 -104 182 -249 158 -467 -21 -189 -83
-329 -204 -456 -262 -277 -608 -467 -1135 -624 -24 -7 -50 -23 -58 -35 -13
-19 -12 -23 6 -33 17 -9 51 -3 168 25 483 119 902 306 1151 514 75 63 172 182
211 260 96 191 115 418 51 622 -44 143 -163 288 -286 348 -269 131 -724 109
-1159 -56 -181 -68 -448 -203 -610 -308 -130 -83 -155 -92 -155 -53 0 12 79
349 177 748 l176 727 111 17 c390 61 1006 191 1042 219 52 41 19 80 -104 122
-42 14 -111 29 -153 32 -70 5 -81 3 -165 -31 -139 -58 -194 -74 -414 -122
-113 -24 -215 -46 -227 -49 -16 -4 -23 -1 -23 9 0 26 110 378 162 516 27 74
63 156 79 181 16 25 29 58 29 74 0 47 -149 255 -219 304 -34 25 -96 37 -106
21z"/>
</g>
</g>
</svg>
