<svg width="200" height="100" viewBox="0 0 200 100" fill="none" xmlns="http://www.w3.org/2000/svg">
<g clip-path="url(#clip0_212_493)">
<path d="M61.968 15.052L50.04 14.548C50.208 17.32 50.124 19.504 49.704 23.032C48.612 31.684 43.908 52.096 37.692 64.36L47.604 67.804C48.36 66.376 49.032 65.368 49.956 64.192C54.912 57.808 63.48 54.28 73.14 54.28C81.372 54.28 85.74 58.564 85.74 63.52C85.74 75.952 67.176 78.136 48.696 75.196L51.636 86.032C78.852 88.972 97.08 82.084 97.08 63.268C97.08 52.432 88.008 45.292 74.484 45.292C66.924 45.292 60.372 46.804 53.568 50.5C56.088 42.688 58.608 30.34 59.952 23.62C60.624 20.932 61.128 18.076 61.968 15.052ZM32.652 24.88L32.736 35.296C37.692 35.8 43.74 36.136 50.124 36.136C62.304 36.136 80.112 34.12 90.78 32.356L90.528 22.276C76.752 25.216 60.792 26.476 50.04 26.476C44.832 26.476 38.112 25.804 32.652 24.88ZM150 39.916L157.56 34.456C155.544 32.188 150.756 28.072 148.32 26.476L140.844 31.936C143.952 34.12 147.564 37.312 150 39.916ZM132.864 33.028L122.364 37.06C123.96 38.908 125.472 41.344 126.396 42.94C129 47.308 132.696 55.372 135.3 61.756C138.408 69.484 142.44 81.076 144.456 89.56L155.04 86.956C152.688 79.48 147.816 65.032 144.624 57.64C142.188 51.76 137.82 42.604 135.384 37.984C134.796 36.808 133.704 34.624 132.864 33.028ZM115.812 53.104L120.6 63.268C126.984 60.412 151.26 46.888 162.012 46.888C167.304 46.888 169.824 49.66 169.824 52.516C169.824 56.884 166.968 59.74 161.088 59.74C158.4 59.74 154.62 58.9 151.596 57.472L151.344 67.216C153.78 68.14 158.232 69.316 161.844 69.316C174.444 69.316 180.156 62.848 180.156 52.432C180.156 45.124 174.696 37.48 162.432 37.48C152.268 37.48 135.72 45.964 123.288 50.836C122.196 51.256 119.004 52.264 115.812 53.104Z" fill="black"/>
</g>
<defs>
<clipPath id="clip0_212_493">
<rect width="200" height="100" fill="white"/>
</clipPath>
</defs>
</svg>
