<svg width="100" height="100" viewBox="0 0 100 100" fill="none" xmlns="http://www.w3.org/2000/svg">
<path d="M42.86 15.976L30.932 15.472C31.1 18.244 31.016 20.428 30.512 23.956C30.428 24.964 30.26 26.14 30.008 27.4C24.884 27.316 18.584 26.644 13.544 25.804V36.22C17.828 36.64 22.784 36.892 28.076 36.976C25.892 46.3 22.532 57.472 18.5 65.284L28.496 68.728C29.252 67.3 29.84 66.208 30.764 65.116C35.804 58.732 44.372 55.204 54.032 55.204C62.264 55.204 66.548 59.404 66.548 64.444C66.548 76.792 47.984 79.06 29.588 76.12L32.528 86.956C59.66 89.812 77.888 83.008 77.888 64.192C77.888 53.356 68.9 46.216 55.292 46.216C47.816 46.216 41.264 47.644 34.46 51.424C35.72 47.308 37.064 41.932 38.24 36.808C49.16 36.304 61.676 34.876 70.328 33.448L70.16 23.368C60.08 25.552 49.496 26.644 40.34 27.148C40.508 26.224 40.676 25.3 40.844 24.544C41.432 21.856 41.936 18.916 42.86 15.976ZM73.436 13.12L66.716 15.808C69.068 19.084 71.588 24.124 73.352 27.484L80.072 24.628C78.476 21.52 75.536 16.144 73.436 13.12ZM83.348 9.33999L76.712 12.028C79.064 15.22 81.752 20.092 83.516 23.62L90.152 20.764C88.64 17.824 85.616 12.448 83.348 9.33999Z" fill="black"/>
</svg>
