<?xml version="1.0" standalone="no"?>
<!DOCTYPE svg PUBLIC "-//W3C//DTD SVG 20010904//EN"
 "http://www.w3.org/TR/2001/REC-SVG-20010904/DTD/svg10.dtd">
<svg version="1.0" xmlns="http://www.w3.org/2000/svg"
 width="500.000000pt" height="500.000000pt" viewBox="0 0 500.000000 500.000000"
 preserveAspectRatio="xMidYMid meet">
<metadata>
Created by potrace 1.13, written by Peter Selinger 2001-2015
</metadata>
<g transform="translate(0.000000,500.000000) scale(0.100000,-0.100000)"
fill="#000000" stroke="none">
<g>
<path d="M2962 3349 c-242 -23 -495 -72 -730 -140 -168 -49 -664 -214 -907
-302 -99 -36 -249 -91 -333 -121 -190 -69 -239 -73 -344 -24 -37 17 -71 28
-74 25 -25 -25 60 -120 196 -222 142 -107 173 -111 272 -33 87 68 857 371
1327 522 556 180 1192 217 1463 87 79 -38 125 -76 183 -151 124 -161 157 -338
109 -574 -73 -353 -392 -666 -974 -955 -193 -95 -436 -199 -620 -263 -55 -20
-65 -27 -65 -47 0 -47 24 -48 167 -6 199 57 493 160 665 231 474 197 722 383
907 678 102 162 153 358 142 541 -25 432 -288 686 -773 750 -123 16 -463 19
-611 4z"/>
</g>
</g>
</svg>
