<svg width="100" height="100" viewBox="0 0 100 100" fill="none" xmlns="http://www.w3.org/2000/svg">
<path d="M11.024 37.228L15.812 48.988C24.548 45.124 44.372 36.808 56.804 36.808C66.968 36.808 72.344 42.772 72.344 50.668C72.344 65.368 54.452 72.004 31.772 72.424L36.644 83.596C66.212 82.084 84.356 69.904 84.356 50.92C84.356 35.38 72.428 26.644 57.308 26.644C44.876 26.644 27.824 32.608 21.44 34.624C18.332 35.548 14.132 36.64 11.024 37.228ZM72.68 14.464L65.96 17.152C68.228 20.428 70.832 25.468 72.596 28.912L79.316 25.972C77.72 22.864 74.78 17.572 72.68 14.464ZM82.592 10.684L75.956 13.372C78.224 16.564 80.996 21.436 82.676 24.964L89.396 22.108C87.884 19.168 84.776 13.792 82.592 10.684Z" fill="black"/>
</svg>
