<?xml version="1.0" standalone="no"?>
<!DOCTYPE svg PUBLIC "-//W3C//DTD SVG 20010904//EN"
 "http://www.w3.org/TR/2001/REC-SVG-20010904/DTD/svg10.dtd">
<svg version="1.0" xmlns="http://www.w3.org/2000/svg"
 width="500.000000pt" height="500.000000pt" viewBox="0 0 500.000000 500.000000"
 preserveAspectRatio="xMidYMid meet">
<metadata>
Created by potrace 1.13, written by Peter Selinger 2001-2015
</metadata>
<g transform="translate(0.000000,500.000000) scale(0.100000,-0.100000)"
fill="#000000" stroke="none">
<g>
<path d="M3475 4179 c-11 -6 -40 -31 -65 -55 -48 -46 -78 -59 -395 -172 -439
-156 -678 -238 -1360 -465 -582 -193 -637 -210 -717 -214 -73 -5 -99 -2 -158
18 -38 12 -73 19 -77 15 -26 -26 136 -194 237 -244 100 -50 129 -46 306 42
232 116 445 210 939 414 423 174 918 362 956 362 9 0 20 -7 23 -16 5 -12 -35
-59 -142 -168 -401 -410 -619 -729 -731 -1072 -52 -158 -71 -278 -71 -439 0
-413 163 -733 524 -1029 318 -261 540 -387 688 -390 83 -1 113 20 113 83 0 41
-62 177 -95 206 -9 8 -66 33 -127 54 -248 86 -478 236 -690 448 -195 194 -276
393 -277 673 0 197 40 354 145 567 164 334 490 717 777 912 122 83 267 143
406 169 63 12 96 34 96 63 0 24 -75 113 -153 182 -70 61 -114 78 -152 56z"/>
</g>
</g>
</svg>
