<svg width="100" height="100" viewBox="0 0 100 100" fill="none" xmlns="http://www.w3.org/2000/svg">
<path d="M13.796 24.376L14.888 35.884C24.632 33.784 41.768 31.936 49.664 31.096C43.952 35.38 37.148 44.956 37.148 57.052C37.148 75.28 53.78 84.688 71.42 85.864L75.368 74.356C61.088 73.6 48.152 68.644 48.152 54.784C48.152 44.788 55.796 33.952 65.96 31.264C70.412 30.172 77.636 30.172 82.172 30.088L82.088 19.336C76.124 19.588 66.968 20.092 58.316 20.848C42.944 22.108 29.084 23.368 22.028 23.956C20.432 24.124 17.156 24.292 13.796 24.376ZM70.16 38.32L63.944 40.924C66.632 44.704 68.396 47.98 70.496 52.6L76.88 49.744C75.284 46.468 72.26 41.344 70.16 38.32ZM79.568 34.456L73.436 37.312C76.124 41.008 78.056 44.116 80.324 48.652L86.624 45.628C84.86 42.352 81.668 37.396 79.568 34.456Z" fill="black"/>
</svg>
