<?xml version="1.0" standalone="no"?>
<!DOCTYPE svg PUBLIC "-//W3C//DTD SVG 20010904//EN"
 "http://www.w3.org/TR/2001/REC-SVG-20010904/DTD/svg10.dtd">
<svg version="1.0" xmlns="http://www.w3.org/2000/svg"
 width="500.000000pt" height="500.000000pt" viewBox="0 0 500.000000 500.000000"
 preserveAspectRatio="xMidYMid meet">
<metadata>
Created by potrace 1.13, written by Peter Selinger 2001-2015
</metadata>
<g transform="translate(0.000000,500.000000) scale(0.100000,-0.100000)"
fill="#000000" stroke="none">
<g>
<path d="M1241 4192 c-17 -12 -8 -40 16 -48 83 -27 133 -54 174 -94 52 -50 37
-16 272 -645 74 -198 176 -469 226 -602 l92 -242 -43 -38 c-368 -325 -554
-553 -628 -773 -31 -91 -38 -262 -16 -350 91 -355 385 -504 1086 -550 305 -20
886 -7 1144 26 126 16 197 39 215 71 15 29 -17 74 -86 120 -125 84 -195 99
-304 65 -162 -50 -430 -73 -849 -73 -619 0 -886 52 -1020 197 -62 68 -83 130
-82 239 2 233 137 469 408 716 244 222 633 511 1228 913 251 170 392 249 511
286 126 39 156 52 172 76 46 71 -94 178 -273 209 -111 19 -277 20 -293 2 -17
-21 15 -43 73 -52 52 -7 96 -24 96 -35 0 -4 -79 -68 -176 -141 -97 -74 -211
-161 -254 -194 -43 -33 -134 -103 -202 -155 -67 -52 -228 -177 -356 -278 -128
-101 -235 -182 -237 -180 -2 2 -49 138 -104 303 -110 330 -206 658 -278 949
l-47 189 -50 22 c-114 50 -377 92 -415 67z"/>
</g>
</g>
</svg>
