<svg width="100" height="100" viewBox="0 0 100 100" fill="none" xmlns="http://www.w3.org/2000/svg">
<path d="M35.72 15.052L25.22 19.336C29 28.24 33.032 37.228 36.896 44.368C28.832 50.332 22.952 57.304 22.952 66.544C22.952 80.992 35.636 85.612 52.352 85.612C63.272 85.612 72.176 84.772 79.316 83.512L79.484 71.416C72.008 73.264 60.668 74.524 52.016 74.524C40.34 74.524 34.544 71.332 34.544 65.284C34.544 59.404 39.248 54.616 46.22 49.996C53.864 45.04 64.448 40.168 69.656 37.564C72.764 35.968 75.452 34.54 77.972 33.028L72.176 23.284C69.992 25.132 67.556 26.56 64.364 28.408C60.416 30.676 53.108 34.288 46.22 38.32C42.86 31.852 38.912 23.788 35.72 15.052Z" fill="black"/>
</svg>
