<svg width="100" height="100" viewBox="0 0 100 100" fill="none" xmlns="http://www.w3.org/2000/svg">
<path d="M33.368 16.312L22.784 20.596C26.564 29.416 30.596 38.488 34.46 45.628C26.396 51.592 20.516 58.48 20.516 67.72C20.516 82.252 33.2 86.956 49.916 86.956C60.836 86.956 69.74 86.032 76.88 84.772L77.048 72.76C69.572 74.44 58.232 75.784 49.664 75.784C37.988 75.784 32.108 72.592 32.108 66.544C32.108 60.664 36.812 55.876 43.784 51.256C51.512 46.3 59.324 42.604 64.616 40C67.64 38.488 70.328 37.06 73.016 35.548L67.724 25.636C65.456 27.4 63.02 28.912 59.912 30.676C55.964 32.944 50 35.968 43.868 39.58C40.424 33.112 36.56 25.048 33.368 16.312ZM73.94 15.052L67.304 17.74C69.572 21.016 72.176 25.972 73.856 29.416L80.66 26.56C79.064 23.452 76.04 18.076 73.94 15.052ZM83.936 11.188L77.3 13.96C79.568 17.152 82.256 22.024 84.02 25.552L90.74 22.696C89.228 19.756 86.12 14.38 83.936 11.188Z" fill="black"/>
</svg>
