<?xml version="1.0" standalone="no"?>
<!DOCTYPE svg PUBLIC "-//W3C//DTD SVG 20010904//EN"
 "http://www.w3.org/TR/2001/REC-SVG-20010904/DTD/svg10.dtd">
<svg version="1.0" xmlns="http://www.w3.org/2000/svg"
 width="500.000000pt" height="500.000000pt" viewBox="0 0 500.000000 500.000000"
 preserveAspectRatio="xMidYMid meet">
<metadata>
Created by potrace 1.13, written by Peter Selinger 2001-2015
</metadata>
<g transform="translate(0.000000,500.000000) scale(0.100000,-0.100000)"
fill="#000000" stroke="none">
<g>
<path d="M1915 4480 c-3 -5 6 -37 21 -72 45 -105 40 -143 -55 -433 -46 -137
-90 -271 -99 -296 l-16 -47 -150 -31 c-212 -44 -437 -81 -533 -88 -95 -7 -130
3 -183 53 -46 44 -84 49 -88 13 -7 -58 213 -279 277 -279 6 0 34 11 63 24 78
36 518 142 532 129 11 -12 -115 -345 -214 -563 -75 -166 -134 -276 -206 -384
-50 -75 -55 -89 -61 -152 -8 -101 10 -182 47 -216 17 -16 37 -28 45 -28 29 0
60 53 120 203 58 143 161 394 255 622 58 138 129 310 180 435 24 58 48 110 53
117 4 7 34 17 65 23 458 90 861 188 876 212 22 36 -10 64 -130 112 -161 65
-178 66 -258 23 -104 -58 -252 -117 -355 -143 -53 -14 -101 -23 -108 -22 -17
4 105 329 156 415 33 56 40 77 35 98 -8 33 -109 170 -164 224 -42 41 -95 67
-105 51z"/>
</g>
<g>
<path d="M3657 3524 c-15 -16 -3 -33 92 -132 106 -110 177 -208 187 -260 15
-74 -37 -122 -133 -122 -96 0 -96 -32 0 -49 142 -25 250 -75 339 -158 113
-104 163 -67 138 104 -23 163 -88 259 -280 412 -113 90 -275 197 -310 206 -14
3 -29 3 -33 -1z"/>
</g>
<g>
<path d="M3049 2834 c-57 -29 -133 -162 -178 -309 -45 -143 -51 -231 -51 -719
0 -362 -3 -457 -12 -453 -216 89 -417 161 -558 199 -64 17 -112 23 -195 23
-100 0 -116 -3 -170 -28 -73 -34 -128 -86 -163 -152 -53 -104 -37 -271 37
-379 42 -60 131 -140 188 -169 197 -100 552 -83 766 36 74 42 149 106 192 166
25 35 34 41 57 37 42 -8 275 -127 515 -262 84 -48 123 -64 151 -64 56 0 77 19
68 61 -16 83 -52 154 -106 211 l-55 58 -230 86 c-126 46 -246 90 -265 97 l-35
13 -1 249 c0 138 -7 352 -14 478 -7 125 -10 305 -7 400 6 181 19 256 60 330
12 22 28 51 36 64 17 32 3 45 -30 27z m-869 -1401 c137 -39 599 -229 600 -246
0 -18 -82 -127 -121 -160 -83 -72 -171 -96 -369 -104 -227 -9 -332 17 -414
102 -57 58 -86 133 -86 222 0 122 61 197 172 212 68 9 114 4 218 -26z"/>
</g>
</g>
</svg>
