<svg width="100" height="100" viewBox="0 0 100 100" fill="none" xmlns="http://www.w3.org/2000/svg">
<path d="M47.648 14.38L36.056 13.204C35.888 17.572 34.964 22.612 33.788 27.232C31.184 27.484 28.664 27.568 26.144 27.568C23.036 27.568 18.584 27.4 14.972 26.98L15.728 36.724C19.34 36.976 22.784 37.06 26.228 37.06C27.656 37.06 29.084 37.06 30.596 36.976C26.9 46.048 20.096 58.396 13.46 66.628L23.624 71.836C30.428 62.344 37.568 47.644 41.6 35.884C47.228 35.044 52.436 33.952 56.3 32.944L55.964 23.2C52.688 24.208 48.74 25.132 44.624 25.888C45.884 21.352 46.976 17.068 47.648 14.38ZM43.28 72.508C43.28 69.568 46.388 67.384 51.26 67.384C53.612 67.384 55.88 67.72 58.064 68.224C58.064 68.896 58.064 69.4 58.064 69.904C58.064 74.524 56.3 77.716 50.504 77.716C45.884 77.716 43.28 75.616 43.28 72.508ZM67.304 40.504H56.804C56.972 45.628 57.392 53.104 57.728 59.32C55.796 59.152 53.948 58.984 51.932 58.984C40.256 58.984 33.368 65.284 33.368 73.516C33.368 82.756 41.6 87.376 52.016 87.376C63.944 87.376 68.228 81.328 68.228 73.516C68.228 73.264 68.228 72.928 68.228 72.676C72.848 75.448 76.628 78.976 79.568 81.664L85.196 72.676C80.912 68.812 75.032 64.612 67.808 61.924C67.64 57.724 67.388 53.692 67.304 51.256C67.22 47.56 67.052 44.032 67.304 40.504ZM81.752 44.956L87.716 36.136C83.432 33.028 73.016 27.316 66.968 24.712L61.592 33.028C67.304 35.632 76.88 41.092 81.752 44.956Z" fill="black"/>
</svg>
