<?xml version="1.0" standalone="no"?>
<!DOCTYPE svg PUBLIC "-//W3C//DTD SVG 20010904//EN"
 "http://www.w3.org/TR/2001/REC-SVG-20010904/DTD/svg10.dtd">
<svg version="1.0" xmlns="http://www.w3.org/2000/svg"
 width="500.000000pt" height="500.000000pt" viewBox="0 0 500.000000 500.000000"
 preserveAspectRatio="xMidYMid meet">
<metadata>
Created by potrace 1.13, written by Peter Selinger 2001-2015
</metadata>
<g transform="translate(0.000000,500.000000) scale(0.100000,-0.100000)"
fill="#000000" stroke="none">
<g>
<path d="M1110 4121 c0 -5 14 -40 32 -77 27 -58 33 -83 36 -159 3 -77 -3 -126
-46 -345 -110 -556 -192 -1056 -238 -1450 -21 -188 -29 -535 -15 -706 18 -222
77 -477 134 -574 67 -115 142 -137 182 -53 15 30 20 76 27 218 8 202 16 239
104 513 30 95 54 180 52 189 -6 30 -53 -34 -168 -226 -62 -105 -118 -192 -125
-195 -47 -18 -75 132 -75 401 0 408 65 825 236 1508 83 332 113 441 140 513
13 35 24 74 24 86 0 71 -224 366 -278 366 -12 0 -22 -4 -22 -9z"/>
</g>
<g>
<path d="M3550 3820 c-14 -4 -61 -18 -105 -30 -230 -63 -904 -285 -923 -304
-16 -16 7 -38 57 -55 49 -16 97 -14 181 10 107 29 333 77 485 101 110 18 179
22 453 23 363 2 361 1 348 68 -6 32 -14 39 -74 68 -115 54 -234 99 -305 114
-76 17 -81 17 -117 5z"/>
</g>
<g>
<path d="M2360 1796 c-12 -31 3 -128 31 -197 94 -239 353 -364 829 -400 161
-13 677 -5 825 11 104 12 139 23 178 58 33 31 35 61 5 90 -29 26 -52 35 -195
72 -132 34 -174 36 -265 16 -128 -29 -292 -38 -610 -33 -398 6 -486 21 -595
104 -48 37 -104 127 -134 218 -29 86 -52 106 -69 61z"/>
</g>
</g>
</svg>
