<svg width="100" height="100" viewBox="0 0 100 100" fill="none" xmlns="http://www.w3.org/2000/svg">
<path d="M45.632 23.284V34.036C56.216 35.044 71.42 34.96 81.752 34.036V23.2C72.68 24.292 55.964 24.712 45.632 23.284ZM52.352 59.152L42.692 58.228C41.768 62.512 41.264 65.872 41.264 69.148C41.264 77.8 48.236 82.924 62.684 82.924C72.176 82.924 78.896 82.336 84.356 81.328L84.188 69.988C76.796 71.5 70.58 72.172 63.104 72.172C54.536 72.172 51.344 69.904 51.344 66.208C51.344 63.94 51.68 61.924 52.352 59.152ZM32.696 17.656L20.936 16.648C20.852 19.336 20.348 22.528 20.096 24.88C19.172 31.348 16.568 45.544 16.568 58.144C16.568 69.568 18.164 79.816 19.844 85.612L29.588 84.94C29.504 83.764 29.42 82.42 29.42 81.496C29.42 80.656 29.588 78.808 29.84 77.548C30.764 73.096 33.536 63.94 35.888 56.968L30.68 52.852C29.504 55.624 28.16 58.564 26.9 61.42C26.648 59.74 26.564 57.556 26.564 55.96C26.564 47.56 29.504 30.76 30.596 25.132C30.932 23.62 32.024 19.42 32.696 17.656Z" fill="black"/>
</svg>
