<svg width="200" height="100" viewBox="0 0 200 100" fill="none" xmlns="http://www.w3.org/2000/svg">
<path d="M53.548 28.284L53.632 39.036C64.132 40.044 79.42 40.044 89.668 39.036V28.2C80.68 29.292 63.88 29.712 53.548 28.284ZM60.268 64.152L50.692 63.312C49.684 67.596 49.18 70.872 49.18 74.232C49.18 82.8 56.152 88.008 70.6 88.008C80.092 88.008 86.896 87.42 92.356 86.328L92.104 74.988C84.796 76.584 78.58 77.256 71.104 77.256C62.536 77.256 59.26 74.988 59.26 71.208C59.26 69.024 59.596 67.008 60.268 64.152ZM40.612 22.656L28.852 21.732C28.768 24.42 28.348 27.612 28.012 29.88C27.088 36.432 24.568 50.544 24.568 63.228C24.568 74.652 26.164 84.9 27.844 90.612L37.504 90.024C37.42 88.848 37.42 87.42 37.336 86.496C37.336 85.656 37.588 83.808 37.84 82.548C38.68 78.096 41.452 69.024 43.888 61.968L38.68 57.852C37.42 60.708 36.076 63.564 34.816 66.42C34.564 64.74 34.48 62.64 34.48 60.96C34.48 52.56 37.42 35.76 38.596 30.216C38.932 28.704 40.024 24.42 40.612 22.656ZM126.88 38.532L116.044 37.776C116.128 38.784 116.044 40.548 115.96 42.06C115.372 46.26 114.196 55.164 114.196 63.564C114.196 70.368 115.288 77.76 116.8 82.548L125.788 81.372C125.452 79.524 125.032 75.324 125.032 74.064C124.948 72.804 125.032 71.964 125.284 70.788C126.796 61.716 135.7 50.712 149.98 50.712C159.472 50.712 163.168 55.584 163.168 61.8C163.168 69.192 159.304 74.148 149.728 74.148C142.42 74.148 137.884 69.864 134.608 63.648L129.232 71.376C133.516 80.028 142.084 84.144 150.148 84.144C165.436 84.144 173.08 73.812 173.08 61.716C173.08 50.544 164.848 41.892 150.484 41.892C140.404 41.892 129.484 46.764 123.52 56.676C123.604 52.056 124.696 46.512 125.536 42.984C125.872 41.892 126.292 40.044 126.88 38.532ZM151.072 33.996L140.824 34.164C141.328 35.676 141.748 37.104 142.084 38.7C143.008 43.404 143.848 50.796 143.848 59.112C143.848 69.864 141.916 82.296 129.988 89.604L139.144 94.896C150.652 86.412 153.34 73.056 153.34 59.952C153.34 49.536 151.912 39.036 151.072 33.996Z" fill="black"/>
</svg>
