<svg width="200" height="100" viewBox="0 0 200 100" fill="none" xmlns="http://www.w3.org/2000/svg">
<path d="M53.548 28.284L53.632 39.036C64.132 40.044 79.42 40.044 89.668 39.036V28.2C80.68 29.292 63.88 29.712 53.548 28.284ZM60.268 64.152L50.692 63.312C49.684 67.596 49.18 70.872 49.18 74.232C49.18 82.8 56.152 88.008 70.6 88.008C80.092 88.008 86.896 87.42 92.356 86.328L92.104 74.988C84.796 76.584 78.58 77.256 71.104 77.256C62.536 77.256 59.26 74.988 59.26 71.208C59.26 69.024 59.596 67.008 60.268 64.152ZM40.612 22.656L28.852 21.732C28.768 24.42 28.348 27.612 28.012 29.88C27.088 36.432 24.568 50.544 24.568 63.228C24.568 74.652 26.164 84.9 27.844 90.612L37.504 90.024C37.42 88.848 37.42 87.42 37.336 86.496C37.336 85.656 37.588 83.808 37.84 82.548C38.68 78.096 41.452 69.024 43.888 61.968L38.68 57.852C37.42 60.708 36.076 63.564 34.816 66.42C34.564 64.74 34.48 62.64 34.48 60.96C34.48 52.56 37.42 35.76 38.596 30.216C38.932 28.704 40.024 24.42 40.612 22.656ZM147.712 33.744H136.288C136.708 35.34 137.044 38.868 137.044 42.144C137.044 45 137.044 50.712 137.044 53.988C137.044 61.128 137.884 72.3 137.884 78.516C137.884 82.38 136.036 84.396 132.256 84.396C127.636 84.396 124.612 82.464 124.612 80.028C124.612 77.34 127.552 75.576 132.844 75.576C145.276 75.576 155.692 83.976 162.328 90.78L168.04 81.624C161.404 75.408 148.888 67.26 134.104 67.26C121.924 67.26 115.036 72.468 115.036 80.532C115.036 89.436 123.352 93.72 133.516 93.72C144.772 93.72 148.216 88.008 148.216 81.876C148.216 76.416 147.04 61.716 147.04 54.828C147.04 50.964 147.04 44.664 147.04 41.976C147.04 39.036 147.376 35.424 147.712 33.744ZM142.42 46.008L142.504 55.08C146.536 55.08 159.22 54.66 166.612 54.072L166.36 44.748C158.884 45.588 146.368 46.008 142.42 46.008Z" fill="black"/>
</svg>
