<?xml version="1.0" standalone="no"?>
<!DOCTYPE svg PUBLIC "-//W3C//DTD SVG 20010904//EN"
 "http://www.w3.org/TR/2001/REC-SVG-20010904/DTD/svg10.dtd">
<svg version="1.0" xmlns="http://www.w3.org/2000/svg"
 width="500.000000pt" height="500.000000pt" viewBox="0 0 500.000000 500.000000"
 preserveAspectRatio="xMidYMid meet">
<metadata>
Created by potrace 1.13, written by Peter Selinger 2001-2015
</metadata>
<g transform="translate(0.000000,500.000000) scale(0.100000,-0.100000)"
fill="#000000" stroke="none">
<g>
<path d="M2230 4226 c0 -3 14 -47 31 -98 31 -93 31 -93 26 -263 -4 -149 -11
-203 -55 -439 -28 -148 -57 -275 -64 -282 -7 -7 -74 -47 -148 -89 -165 -95
-320 -190 -423 -263 -43 -30 -81 -52 -84 -49 -19 20 -110 574 -129 789 l-7 77
-96 103 c-53 57 -107 118 -120 136 -36 52 -45 27 -22 -64 11 -43 29 -146 41
-229 43 -304 111 -672 160 -862 l18 -73 -137 -114 c-364 -303 -502 -459 -565
-635 -63 -176 -47 -461 35 -629 35 -72 133 -178 170 -184 92 -15 426 201 725
470 l102 91 117 -211 c171 -309 203 -354 242 -346 26 5 53 65 53 118 -1 80
-19 128 -103 273 -46 78 -108 187 -137 242 l-53 100 57 98 c151 257 333 689
452 1073 l37 122 101 50 c161 79 321 137 461 166 195 40 492 45 620 11 252
-68 428 -256 507 -542 19 -69 22 -104 22 -293 1 -246 -12 -327 -68 -447 -54
-113 -164 -245 -263 -312 l-31 -21 -154 93 c-213 130 -261 155 -359 188 -108
36 -205 39 -302 9 -123 -38 -199 -149 -199 -293 0 -127 73 -224 209 -279 53
-21 73 -23 228 -22 185 0 265 14 457 75 l97 31 43 -26 c57 -33 237 -176 373
-296 125 -110 140 -120 188 -120 51 0 60 18 55 103 -8 126 -51 182 -214 285
-51 31 -126 78 -168 104 l-75 48 93 93 c101 103 174 205 211 294 33 82 82 291
95 403 18 155 -7 363 -62 518 -60 172 -151 298 -297 414 -188 150 -406 211
-676 188 -241 -19 -405 -67 -724 -210 -63 -28 -117 -49 -121 -48 -8 4 104 526
130 601 l19 59 -24 48 c-52 104 -219 270 -271 270 -13 0 -24 -2 -24 -4z m-100
-1260 c0 -26 -118 -371 -175 -512 -58 -143 -212 -454 -225 -454 -4 0 -10 8
-13 18 -3 9 -27 80 -54 157 -46 130 -93 300 -108 387 l-6 37 96 72 c110 81
459 307 478 308 4 1 7 -5 7 -13z m-630 -866 c23 -68 57 -165 76 -214 l35 -89
-113 -114 c-238 -240 -413 -353 -549 -353 -73 0 -111 37 -138 138 -47 174 -12
383 91 539 63 94 247 281 388 392 l104 82 33 -128 c17 -70 51 -184 73 -253z
m1611 -204 c39 -14 300 -189 409 -275 l25 -20 -28 -10 c-51 -20 -201 -60 -267
-72 -85 -15 -293 -16 -347 0 -90 25 -136 90 -137 193 -1 58 3 72 29 110 45 64
100 88 200 88 44 -1 96 -7 116 -14z"/>
</g>
</g>
</svg>
