<svg width="100" height="100" viewBox="0 0 100 100" fill="none" xmlns="http://www.w3.org/2000/svg">
<path d="M57.056 71.248C57.056 69.148 59.072 67.3 62.432 67.3C65.12 67.3 67.64 68.056 69.992 69.232C68.144 72.844 65.456 75.28 61.928 75.28C58.82 75.28 57.056 73.684 57.056 71.248ZM59.576 15.304L47.984 14.968C48.236 17.572 48.32 18.916 48.152 22.528C48.068 23.872 47.984 25.384 47.816 26.98C41.012 28.408 35.216 31.264 30.344 34.792C29 30.592 27.74 26.224 26.9 22.108L17.072 26.224C19.088 31.18 19.508 33.112 20.516 36.136C21.188 37.984 21.86 39.916 22.616 42.016C21.692 43.024 20.852 44.116 20.012 45.208C15.728 50.92 12.452 58.816 12.452 68.224C12.452 77.884 18.164 82.924 25.052 82.924C36.644 82.924 47.984 66.964 52.94 51.76C54.62 46.72 55.88 40.84 56.888 35.044C66.716 35.38 73.268 41.596 73.268 52.768C73.268 55.54 73.016 58.396 72.512 61.084C69.32 59.908 65.876 59.236 62.096 59.236C53.444 59.236 47.9 65.956 47.9 72.34C47.9 80.236 53.612 84.604 62.348 84.604C69.74 84.604 74.948 81.16 78.392 75.7C80.744 77.968 82.676 80.404 84.272 82.252L90.572 74.272C88.388 71.668 85.532 68.812 82.172 66.376C83.264 62.092 83.768 57.388 83.768 52.432C83.768 36.808 72.764 26.728 58.148 26.14C58.316 25.048 58.484 23.956 58.568 22.864C58.736 21.352 59.072 18.16 59.576 15.304ZM22.112 66.376C22.112 62.008 24.044 56.884 26.648 52.516C27.572 54.532 28.412 56.38 29.252 58.06C30.932 61.336 32.444 63.94 33.956 66.208C31.016 69.736 27.992 72.004 25.724 72.004C23.54 72.004 22.112 69.4 22.112 66.376ZM36.14 49.156C35.384 47.644 34.544 45.796 33.704 43.864C37.232 40.672 41.348 37.984 46.472 36.472C45.632 40.84 44.624 45.292 43.28 49.156C42.356 51.76 41.264 54.28 40.088 56.632C38.744 54.448 37.484 52.012 36.14 49.156Z" fill="black"/>
</svg>
