<svg width="100" height="100" viewBox="0 0 100 100" fill="none" xmlns="http://www.w3.org/2000/svg">
<path d="M55.292 70.24C55.292 67.468 58.4 65.872 61.844 65.872C64.7 65.872 67.64 66.628 70.412 67.972C68.732 72.256 66.044 74.86 62.012 74.86C58.4 74.86 55.292 73.6 55.292 70.24ZM30.848 21.436C30.848 22.36 30.68 24.712 30.512 27.904C26.9 28.408 23.204 28.828 20.768 28.996C17.828 29.164 15.896 29.164 13.46 29.08L14.552 39.832C19.256 39.16 25.724 38.404 29.84 37.9C29.756 39.832 29.588 41.848 29.42 43.78C24.632 50.836 16.232 61.924 11.444 67.804L17.996 76.96C20.936 73.012 25.136 66.88 28.664 61.588C28.58 68.644 28.496 73.516 28.328 80.068C28.328 81.412 28.244 84.436 28.076 86.284H39.668C39.416 84.352 39.164 81.328 39.08 79.816C38.576 71.92 38.576 64.864 38.576 57.976C38.576 55.456 38.66 52.684 38.828 49.912C45.548 42.352 54.704 34.876 62.264 34.876C68.732 34.876 72.848 40.924 72.848 49.912C72.848 53.188 72.68 56.212 72.428 59.068C69.32 58.06 66.128 57.556 62.768 57.556C52.604 57.556 46.136 63.1 46.136 70.66C46.136 80.152 53.276 84.268 62.684 84.268C71.084 84.268 76.292 80.488 79.316 74.104C81.416 76.036 83.516 78.22 85.448 80.572L90.908 71.836C88.052 68.728 85.196 66.208 82.256 64.108C82.928 59.992 83.18 55.456 83.18 50.584C83.18 35.296 76.04 25.384 64.112 25.384C55.544 25.384 46.472 31.516 39.668 37.396C39.752 37.144 39.752 36.892 39.752 36.64C41.18 34.456 42.944 31.684 44.036 30.172L40.928 26.224C41.6 20.932 42.272 16.648 42.776 14.296L30.512 13.876C30.932 16.48 30.848 19 30.848 21.436Z" fill="black"/>
</svg>
