<?xml version="1.0" standalone="no"?>
<!DOCTYPE svg PUBLIC "-//W3C//DTD SVG 20010904//EN"
 "http://www.w3.org/TR/2001/REC-SVG-20010904/DTD/svg10.dtd">
<svg version="1.0" xmlns="http://www.w3.org/2000/svg"
 width="500.000000pt" height="500.000000pt" viewBox="0 0 500.000000 500.000000"
 preserveAspectRatio="xMidYMid meet">
<metadata>
Created by potrace 1.13, written by Peter Selinger 2001-2015
</metadata>
<g transform="translate(0.000000,500.000000) scale(0.100000,-0.100000)"
fill="#000000" stroke="none">
<g>
<path d="M1460 4372 c0 -10 21 -38 46 -62 25 -25 58 -67 72 -95 l27 -50 -1
-310 c0 -170 -4 -339 -8 -375 l-8 -65 -161 -95 c-271 -159 -601 -360 -620
-379 -17 -17 -17 -19 -3 -34 9 -9 37 -19 63 -23 51 -7 65 -2 323 137 52 28
159 85 238 126 l142 75 0 -188 0 -188 -124 -235 c-378 -721 -638 -1167 -719
-1236 -37 -32 -41 -40 -40 -76 2 -49 33 -145 79 -246 27 -60 38 -73 56 -73 36
0 44 10 79 98 51 131 148 272 316 461 18 20 90 102 160 182 l128 146 3 -161
c4 -179 -8 -310 -45 -526 -28 -164 -30 -250 -7 -336 35 -135 102 -236 142
-215 43 23 51 44 61 171 13 147 37 700 47 1052 l7 247 181 174 c244 234 341
324 493 457 70 62 142 124 158 139 38 33 251 203 330 263 271 204 484 303 655
303 168 -1 216 -56 255 -299 57 -352 35 -1346 -36 -1563 l-10 -31 -107 52
c-143 71 -321 141 -418 167 -129 33 -229 11 -317 -70 -136 -126 -124 -372 25
-518 190 -185 613 -139 869 94 l26 24 113 -81 c121 -87 294 -225 375 -301 131
-122 161 -137 205 -101 23 18 25 28 25 94 0 61 -5 81 -29 124 -52 96 -166 182
-438 334 -82 46 -148 86 -148 91 0 4 7 38 16 76 57 245 79 597 71 1133 -8 586
-48 782 -179 895 -160 136 -413 89 -768 -143 -286 -187 -761 -588 -1179 -997
l-173 -170 6 195 c3 107 9 239 12 292 l6 98 105 187 c113 204 148 246 257 309
119 70 125 64 -191 210 -64 30 -65 30 -102 -2 l-31 -26 0 29 c0 70 32 367 50
464 11 58 20 121 20 140 0 70 -52 116 -226 200 -109 52 -154 62 -154 31z m81
-2088 l-10 -198 -268 -268 c-147 -147 -269 -264 -271 -258 -2 5 60 119 139
252 78 134 147 252 153 263 76 137 262 434 264 422 2 -9 -1 -105 -7 -213z
m1680 -644 c77 -24 220 -96 349 -175 l94 -59 -50 -43 c-66 -59 -169 -120 -246
-146 -95 -31 -265 -30 -331 2 -26 13 -63 41 -82 63 -75 89 -73 282 4 337 61
44 164 52 262 21z"/>
</g>
</g>
</svg>
