<?xml version="1.0" standalone="no"?>
<!DOCTYPE svg PUBLIC "-//W3C//DTD SVG 20010904//EN"
 "http://www.w3.org/TR/2001/REC-SVG-20010904/DTD/svg10.dtd">
<svg version="1.0" xmlns="http://www.w3.org/2000/svg"
 width="500.000000pt" height="500.000000pt" viewBox="0 0 500.000000 500.000000"
 preserveAspectRatio="xMidYMid meet">
<metadata>
Created by potrace 1.13, written by Peter Selinger 2001-2015
</metadata>
<g transform="translate(0.000000,500.000000) scale(0.100000,-0.100000)"
fill="#000000" stroke="none">
<g>
<path d="M2588 3840 c-380 -34 -740 -157 -1064 -363 -324 -206 -635 -517 -770
-772 -90 -169 -111 -274 -95 -478 17 -209 41 -317 111 -495 79 -203 206 -420
291 -496 107 -97 150 -85 325 88 272 272 547 688 813 1231 204 417 341 746
376 908 19 86 13 132 -26 210 l-21 40 229 -6 c260 -6 386 -25 560 -83 194 -65
328 -148 455 -283 190 -201 266 -452 255 -836 -7 -257 -43 -421 -129 -590
-104 -208 -352 -446 -648 -625 -114 -69 -308 -169 -435 -224 -80 -35 -110 -66
-63 -66 61 0 403 132 623 240 571 281 836 606 885 1085 21 202 -14 491 -84
684 -158 437 -524 727 -1026 811 -144 24 -413 33 -562 20z m-142 -197 c-20
-193 -110 -442 -292 -805 -209 -419 -416 -754 -608 -988 -93 -113 -174 -198
-269 -281 -65 -59 -83 -69 -114 -69 -52 0 -105 60 -170 190 -134 273 -196 488
-197 685 -2 200 40 281 259 501 421 423 859 702 1270 809 135 35 129 37 121
-42z"/>
</g>
</g>
</svg>
