<svg width="100" height="100" viewBox="0 0 100 100" fill="none" xmlns="http://www.w3.org/2000/svg">
<path d="M85.868 52.432C85.868 34.12 72.764 19.672 51.932 19.672C30.176 19.672 13.376 36.22 13.376 55.624C13.376 69.82 21.104 80.068 30.428 80.068C39.584 80.068 46.808 69.652 51.848 52.684C54.284 44.788 55.712 37.06 56.888 29.92C68.228 31.852 74.528 40.504 74.528 52.096C74.528 64.36 66.128 72.088 55.376 74.608C53.108 75.112 50.756 75.616 47.564 75.952L53.864 85.948C75.032 82.672 85.868 70.156 85.868 52.432ZM24.128 54.532C24.128 45.292 31.604 33.028 45.464 30.172C44.54 37.144 42.944 44.284 41.012 50.5C37.568 61.84 34.292 67.132 30.764 67.132C27.488 67.132 24.128 63.016 24.128 54.532Z" fill="black"/>
</svg>
