<?xml version="1.0" encoding="UTF-8" standalone="no"?>
<!-- Created with Inkscape (http://www.inkscape.org/) -->

<svg
   xmlns:dc="http://purl.org/dc/elements/1.1/"
   xmlns:cc="http://creativecommons.org/ns#"
   xmlns:rdf="http://www.w3.org/1999/02/22-rdf-syntax-ns#"
   xmlns:svg="http://www.w3.org/2000/svg"
   xmlns="http://www.w3.org/2000/svg"
   xmlns:sodipodi="http://sodipodi.sourceforge.net/DTD/sodipodi-0.dtd"
   xmlns:inkscape="http://www.inkscape.org/namespaces/inkscape"
   width="500"
   height="500"
   viewBox="0 0 132.29167 132.29167"
   version="1.1"
   id="svg8"
   inkscape:version="0.92.4 (5da689c313, 2019-01-14)"
   sodipodi:docname="Japanese_Hiragana_kyokashotai_HA.svg">
  <defs
     id="defs2" />
  <sodipodi:namedview
     id="base"
     pagecolor="#ffffff"
     bordercolor="#666666"
     borderopacity="1.0"
     inkscape:pageopacity="0.0"
     inkscape:pageshadow="2"
     inkscape:zoom="0.35"
     inkscape:cx="400"
     inkscape:cy="560"
     inkscape:document-units="mm"
     inkscape:current-layer="layer1"
     showgrid="false"
     units="px"
     inkscape:window-width="1440"
     inkscape:window-height="837"
     inkscape:window-x="-8"
     inkscape:window-y="-8"
     inkscape:window-maximized="1" />
  <metadata
     id="metadata5">
    <rdf:RDF>
      <cc:Work
         rdf:about="">
        <dc:format>image/svg+xml</dc:format>
        <dc:type
           rdf:resource="http://purl.org/dc/dcmitype/StillImage" />
        <dc:title></dc:title>
      </cc:Work>
    </rdf:RDF>
  </metadata>
  <g
     inkscape:label="Layer 1"
     inkscape:groupmode="layer"
     id="layer1"
     transform="translate(0,-164.70831)">
    <g
       aria-label="ã¯"
       style="font-style:normal;font-variant:normal;font-weight:normal;font-stretch:normal;font-size:141.11109924px;line-height:1.25;font-family:MHGKyokashotaiTHK;-inkscape-font-specification:MHGKyokashotaiTHK;letter-spacing:0px;word-spacing:0px;fill:#000000;fill-opacity:1;stroke:none;stroke-width:0.26458332"
       id="text12"
       transform="translate(-59.301938,26.261783)">
      <path
         d="m 172.57888,246.71402 c 0,-1.12888 -0.28223,-2.11666 -0.56445,-3.24555 -1.83444,-2.54 -3.81,-4.51556 -6.06778,-5.50333 -4.09222,-1.97556 -8.18444,-3.52778 -12.13555,-4.93889 -0.70556,-15.80445 -1.12889,-32.17333 -1.12889,-49.10666 l 10.44222,-2.25778 c 4.37445,-0.98778 5.78556,-1.97556 3.95111,-3.81 -2.68111,-1.41111 -4.51555,-2.25778 -5.50333,-2.25778 -1.12889,0 -2.68111,0.56444 -4.51555,1.69333 l -3.81,1.12889 v -13.26444 c 0,-1.41111 0.42333,-2.96333 1.12888,-4.37445 0.70556,-0.70555 0.84667,-1.27 0.56445,-1.69333 -4.09222,-3.24555 -7.76111,-4.93889 -11.00667,-4.93889 -1.12889,0 -1.41111,0.42334 -0.56444,1.12889 2.82222,1.83445 4.37444,4.51556 4.37444,8.18445 v 16.65111 c -9.87777,2.54 -18.62666,4.37444 -25.96444,5.50333 -2.54,0 -3.95111,0.28222 -4.37444,0.98778 -0.42334,0.42333 -0.42334,0.84666 0,1.12888 1.83444,1.12889 3.81,1.83445 6.06777,2.25778 2.54,-0.42333 4.65667,-0.70555 6.06778,-1.12889 1.12889,-0.28222 7.19667,-1.69333 18.20333,-3.81 v 46.28444 c -11.00666,-3.38666 -19.89666,-4.93888 -26.52888,-4.93888 -0.98778,0 -3.10445,0.98777 -6.06778,3.24555 -3.24556,2.54 -4.93889,5.36222 -4.93889,8.32556 0,2.54 1.55222,4.79777 4.51556,6.63222 2.82222,1.83444 6.91444,2.68111 11.99444,2.68111 3.38667,0 6.91444,-0.42333 10.58333,-1.12889 7.33778,-1.55222 12.27667,-3.81 14.81667,-7.05556 4.09222,2.11667 9.31333,5.08 15.94555,8.74889 0.84667,0.42334 1.55222,0.56445 2.25778,0.56445 1.41111,0 2.25778,-0.56445 2.25778,-1.69334 z M 94.826661,228.51069 c 0.705555,-1.41111 0.282222,-1.55222 -1.128889,-0.56444 -2.963333,4.09222 -5.08,7.05555 -6.632222,8.89 -1.128889,1.12889 -1.975555,1.12889 -2.681111,0 -1.128889,-2.96334 -1.693333,-7.05556 -1.693333,-12.13556 0,-8.04333 0.423333,-15.24 1.128889,-21.44888 1.128889,-8.89 2.681111,-17.49778 4.938888,-25.96445 1.128889,-4.09222 1.975556,-7.76111 2.681111,-11.00666 0,-2.25778 -2.54,-5.64445 -7.619999,-10.44222 -1.552222,-0.84667 -1.834444,-0.42334 -1.128889,1.12889 1.411111,1.83444 2.257778,4.93888 2.257778,9.31333 0,2.54 -0.987778,8.60777 -2.822222,18.20333 -2.54,13.54667 -3.81,25.82333 -3.81,36.97111 0,11.28889 0.564444,19.19111 2.116666,23.70666 2.116667,6.49111 4.233333,9.87778 6.067778,9.87778 1.128889,-0.42333 1.693333,-2.25778 1.693333,-5.50333 0,-4.09223 0.141111,-6.63223 0.564444,-7.76111 0.705556,-2.25778 2.681111,-6.63223 6.067778,-13.26445 z m 51.223329,8.32556 c -1.83444,2.25777 -5.36222,4.09222 -10.44222,5.50333 -4.09222,1.12889 -7.90222,1.69333 -11.57111,1.69333 -2.25778,0 -4.23333,-0.42333 -6.06778,-1.12889 -2.25778,-0.84666 -3.81,-2.25777 -4.93889,-4.37444 -0.70555,-1.12889 -0.28222,-2.82222 1.69334,-5.08 2.11666,-1.83444 4.09222,-2.82222 5.92666,-3.24555 3.38667,0 6.49111,0.42333 9.45445,1.12888 3.24555,0.70556 8.60777,2.54 15.94555,5.50334 z"
         style="stroke-width:0.26458332"
         id="path14"
         inkscape:connector-curvature="0" />
    </g>
  </g>
</svg>
