<svg width="100" height="100" viewBox="0 0 100 100" fill="none" xmlns="http://www.w3.org/2000/svg">
<path d="M45.464 72.004C45.464 68.812 48.74 66.88 53.444 66.88C55.796 66.88 57.98 67.216 60.248 67.888C60.248 68.392 60.248 68.896 60.248 69.316C60.248 74.272 58.484 76.96 53.276 76.96C48.824 76.96 45.464 75.448 45.464 72.004ZM70.412 17.236H58.4C58.736 18.832 58.988 21.436 58.988 22.78C59.072 24.544 59.072 27.904 59.072 32.02C57.14 32.104 55.124 32.104 53.192 32.104C48.152 32.104 43.28 31.852 38.492 31.432L38.576 41.428C43.448 41.764 48.32 41.932 53.192 41.932C55.124 41.932 57.14 41.848 59.156 41.848C59.24 47.812 59.576 53.944 59.828 59.068C58.064 58.816 56.216 58.732 54.284 58.732C42.86 58.732 35.636 64.612 35.636 73.18C35.636 82 42.86 86.872 54.452 86.872C65.876 86.872 70.412 81.16 70.832 73.096C74.192 75.364 77.636 78.22 81.164 81.496L86.792 72.676C82.844 69.064 77.552 64.696 70.496 61.84C70.16 56.128 69.74 49.408 69.572 41.26C74.192 40.924 78.644 40.42 82.76 39.832V29.5C78.644 30.34 74.192 30.928 69.656 31.348C69.656 27.652 69.824 24.46 69.908 22.612C69.992 20.848 70.16 18.832 70.412 17.236ZM29.42 18.076L17.828 17.152C17.744 19.84 17.324 23.032 17.072 25.384C16.064 31.852 13.544 47.728 13.544 60.412C13.544 71.752 15.14 81.412 16.904 87.208L26.312 86.536C26.228 85.36 26.228 83.932 26.228 83.008C26.144 82.168 26.396 80.32 26.648 79.144C27.572 74.524 30.344 66.04 32.696 59.068L27.488 55.036C26.312 57.808 24.884 60.664 23.792 63.604C23.54 61.924 23.456 59.74 23.456 58.144C23.456 49.744 26.144 31.264 27.404 25.636C27.74 24.124 28.748 19.84 29.42 18.076ZM77.3 13.876L71.588 15.64C73.268 19 74.696 23.62 75.872 27.232L81.752 25.3C80.744 22.024 78.896 17.152 77.3 13.876ZM85.952 11.188L80.24 12.952C81.92 16.312 83.516 20.848 84.776 24.46L90.572 22.612C89.48 19.42 87.548 14.464 85.952 11.188Z" fill="black"/>
</svg>
