<svg width="200" height="100" viewBox="0 0 200 100" fill="none" xmlns="http://www.w3.org/2000/svg">
<path d="M78.748 22.824L68.164 25.764C73.96 43.992 80.68 58.02 89.92 68.184L96.724 58.44C83.872 46.68 80.428 33.324 78.748 22.824ZM23.392 27.024L24.148 37.944C26.08 37.524 27.424 37.356 29.188 37.104C31.624 36.852 37 36.264 40.276 35.928C32.38 45.84 26.668 56.088 26.668 69.78C26.668 84.984 38.26 92.376 51.7 92.376C79.756 92.376 83.704 66.756 79.084 44.16L69.172 28.032C76.648 60.12 71.02 81.12 51.952 81.12C43.888 81.12 37.504 77.172 37.504 67.344C37.504 51.3 48.76 38.28 54.556 33.996C55.816 33.24 57.58 32.568 58.756 32.148L55.648 22.824C50.104 24.756 36.076 26.604 28.096 27.024C26.584 27.108 24.82 27.108 23.392 27.024ZM126.88 38.532L116.044 37.776C116.128 38.784 116.044 40.548 115.96 42.06C115.372 46.26 114.196 55.164 114.196 63.564C114.196 70.368 115.288 77.76 116.8 82.548L125.788 81.372C125.452 79.524 125.032 75.324 125.032 74.064C124.948 72.804 125.032 71.964 125.284 70.788C126.796 61.716 135.7 50.712 149.98 50.712C159.472 50.712 163.168 55.584 163.168 61.8C163.168 69.192 159.304 74.148 149.728 74.148C142.42 74.148 137.884 69.864 134.608 63.648L129.232 71.376C133.516 80.028 142.084 84.144 150.148 84.144C165.436 84.144 173.08 73.812 173.08 61.716C173.08 50.544 164.848 41.892 150.484 41.892C140.404 41.892 129.484 46.764 123.52 56.676C123.604 52.056 124.696 46.512 125.536 42.984C125.872 41.892 126.292 40.044 126.88 38.532ZM151.072 33.996L140.824 34.164C141.328 35.676 141.748 37.104 142.084 38.7C143.008 43.404 143.848 50.796 143.848 59.112C143.848 69.864 141.916 82.296 129.988 89.604L139.144 94.896C150.652 86.412 153.34 73.056 153.34 59.952C153.34 49.536 151.912 39.036 151.072 33.996Z" fill="black"/>
</svg>
