<svg width="200" height="100" viewBox="0 0 200 100" fill="none" xmlns="http://www.w3.org/2000/svg">
<path d="M78.748 22.824L68.164 25.764C73.96 43.992 80.68 58.02 89.92 68.184L96.724 58.44C83.872 46.68 80.428 33.324 78.748 22.824ZM23.392 27.024L24.148 37.944C26.08 37.524 27.424 37.356 29.188 37.104C31.624 36.852 37 36.264 40.276 35.928C32.38 45.84 26.668 56.088 26.668 69.78C26.668 84.984 38.26 92.376 51.7 92.376C79.756 92.376 83.704 66.756 79.084 44.16L69.172 28.032C76.648 60.12 71.02 81.12 51.952 81.12C43.888 81.12 37.504 77.172 37.504 67.344C37.504 51.3 48.76 38.28 54.556 33.996C55.816 33.24 57.58 32.568 58.756 32.148L55.648 22.824C50.104 24.756 36.076 26.604 28.096 27.024C26.584 27.108 24.82 27.108 23.392 27.024ZM147.712 33.744H136.288C136.708 35.34 137.044 38.868 137.044 42.144C137.044 45 137.044 50.712 137.044 53.988C137.044 61.128 137.884 72.3 137.884 78.516C137.884 82.38 136.036 84.396 132.256 84.396C127.636 84.396 124.612 82.464 124.612 80.028C124.612 77.34 127.552 75.576 132.844 75.576C145.276 75.576 155.692 83.976 162.328 90.78L168.04 81.624C161.404 75.408 148.888 67.26 134.104 67.26C121.924 67.26 115.036 72.468 115.036 80.532C115.036 89.436 123.352 93.72 133.516 93.72C144.772 93.72 148.216 88.008 148.216 81.876C148.216 76.416 147.04 61.716 147.04 54.828C147.04 50.964 147.04 44.664 147.04 41.976C147.04 39.036 147.376 35.424 147.712 33.744ZM142.42 46.008L142.504 55.08C146.536 55.08 159.22 54.66 166.612 54.072L166.36 44.748C158.884 45.588 146.368 46.008 142.42 46.008Z" fill="black"/>
</svg>
