<svg width="200" height="100" viewBox="0 0 200 100" fill="none" xmlns="http://www.w3.org/2000/svg">
<g clip-path="url(#clip0_212_541)">
<path d="M86.748 17.824L76.164 20.764C81.96 38.992 88.68 53.02 97.92 63.184L104.724 53.44C91.872 41.68 88.428 28.324 86.748 17.824ZM31.392 22.024L32.148 32.944C34.08 32.524 35.424 32.356 37.188 32.104C39.624 31.852 45 31.264 48.276 30.928C40.38 40.84 34.668 51.088 34.668 64.78C34.668 79.984 46.26 87.376 59.7 87.376C87.756 87.376 91.704 61.756 87.084 39.16L77.172 23.032C84.648 55.12 79.02 76.12 59.952 76.12C51.888 76.12 45.504 72.172 45.504 62.344C45.504 46.3 56.76 33.28 62.556 28.996C63.816 28.24 65.58 27.568 66.756 27.148L63.648 17.824C58.104 19.756 44.076 21.604 36.096 22.024C34.584 22.108 32.82 22.108 31.392 22.024ZM150 39.916L157.56 34.456C155.544 32.188 150.756 28.072 148.32 26.476L140.844 31.936C143.952 34.12 147.564 37.312 150 39.916ZM132.864 33.028L122.364 37.06C123.96 38.908 125.472 41.344 126.396 42.94C129 47.308 132.696 55.372 135.3 61.756C138.408 69.484 142.44 81.076 144.456 89.56L155.04 86.956C152.688 79.48 147.816 65.032 144.624 57.64C142.188 51.76 137.82 42.604 135.384 37.984C134.796 36.808 133.704 34.624 132.864 33.028ZM115.812 53.104L120.6 63.268C126.984 60.412 151.26 46.888 162.012 46.888C167.304 46.888 169.824 49.66 169.824 52.516C169.824 56.884 166.968 59.74 161.088 59.74C158.4 59.74 154.62 58.9 151.596 57.472L151.344 67.216C153.78 68.14 158.232 69.316 161.844 69.316C174.444 69.316 180.156 62.848 180.156 52.432C180.156 45.124 174.696 37.48 162.432 37.48C152.268 37.48 135.72 45.964 123.288 50.836C122.196 51.256 119.004 52.264 115.812 53.104Z" fill="black"/>
</g>
<defs>
<clipPath id="clip0_212_541">
<rect width="200" height="100" fill="white"/>
</clipPath>
</defs>
</svg>
