<svg width="200" height="100" viewBox="0 0 200 100" fill="none" xmlns="http://www.w3.org/2000/svg">
<path d="M76.732 24.168L66.232 27.108C72.028 45.336 78.748 59.364 87.904 69.528L94.708 59.868C81.94 48.024 78.412 34.668 76.732 24.168ZM21.46 28.368L22.216 39.288C24.148 38.868 25.492 38.7 27.256 38.448C29.692 38.196 35.068 37.524 38.26 37.272C30.448 47.268 24.82 57.432 24.82 71.124C24.82 86.328 36.244 93.72 49.768 93.72C77.74 93.72 81.772 68.1 77.068 45.42L67.24 29.376C74.716 61.464 69.088 82.38 50.02 82.38C41.956 82.38 35.572 78.516 35.572 68.688C35.572 52.56 46.912 39.624 52.624 35.256C53.884 34.584 55.648 33.912 56.824 33.492L53.632 24.168C48.172 26.184 34.144 27.948 26.248 28.368C24.652 28.452 22.972 28.452 21.46 28.368ZM84.628 26.352C84.628 23.832 86.728 21.732 89.248 21.732C91.768 21.732 93.784 23.832 93.784 26.352C93.784 28.872 91.768 30.888 89.248 30.888C86.644 30.888 84.628 28.872 84.628 26.352ZM79.504 26.352C79.504 31.728 83.788 36.096 89.248 36.096C94.624 36.096 98.992 31.728 98.992 26.352C98.992 20.976 94.624 16.608 89.248 16.608C83.788 16.608 79.504 20.976 79.504 26.352ZM126.88 38.532L116.044 37.776C116.128 38.784 116.044 40.548 115.96 42.06C115.372 46.26 114.196 55.164 114.196 63.564C114.196 70.368 115.288 77.76 116.8 82.548L125.788 81.372C125.452 79.524 125.032 75.324 125.032 74.064C124.948 72.804 125.032 71.964 125.284 70.788C126.796 61.716 135.7 50.712 149.98 50.712C159.472 50.712 163.168 55.584 163.168 61.8C163.168 69.192 159.304 74.148 149.728 74.148C142.42 74.148 137.884 69.864 134.608 63.648L129.232 71.376C133.516 80.028 142.084 84.144 150.148 84.144C165.436 84.144 173.08 73.812 173.08 61.716C173.08 50.544 164.848 41.892 150.484 41.892C140.404 41.892 129.484 46.764 123.52 56.676C123.604 52.056 124.696 46.512 125.536 42.984C125.872 41.892 126.292 40.044 126.88 38.532ZM151.072 33.996L140.824 34.164C141.328 35.676 141.748 37.104 142.084 38.7C143.008 43.404 143.848 50.796 143.848 59.112C143.848 69.864 141.916 82.296 129.988 89.604L139.144 94.896C150.652 86.412 153.34 73.056 153.34 59.952C153.34 49.536 151.912 39.036 151.072 33.996Z" fill="black"/>
</svg>
