<svg width="100" height="100" viewBox="0 0 100 100" fill="none" xmlns="http://www.w3.org/2000/svg">
<path d="M47.312 34.876L54.116 41.008C57.476 38.656 63.944 33.448 66.212 31.6L63.692 25.048C57.98 21.52 48.992 17.656 42.02 15.052L35.804 22.78C42.188 25.048 48.992 28.576 52.604 31.012C51.428 31.936 49.328 33.448 47.312 34.876ZM33.032 73.6L34.628 84.688C38.744 85.36 43.532 85.948 48.236 85.948C56.888 85.948 64.952 82.588 64.952 71.332C64.952 63.52 59.996 56.044 50.924 46.972C48.824 44.704 46.64 42.688 44.12 40.168L35.888 47.056C38.744 49.156 41.516 51.592 43.7 53.692C47.48 57.472 53.276 65.032 53.276 70.072C53.276 74.02 50.252 75.616 45.968 75.616C41.936 75.616 37.652 74.944 33.032 73.6ZM79.568 80.068L89.732 74.608C87.212 66.796 80.66 53.944 75.452 47.56L66.38 52.348C72.008 59.404 77.552 71.668 79.568 80.068ZM38.156 64.108L31.772 55.876C26.816 61.336 17.66 68.476 10.352 72.34L16.736 81.412C25.724 75.868 33.452 69.148 38.156 64.108Z" fill="black"/>
</svg>
