<?xml version="1.0" standalone="no"?>
<!DOCTYPE svg PUBLIC "-//W3C//DTD SVG 20010904//EN"
 "http://www.w3.org/TR/2001/REC-SVG-20010904/DTD/svg10.dtd">
<svg version="1.0" xmlns="http://www.w3.org/2000/svg"
 width="500.000000pt" height="500.000000pt" viewBox="0 0 500.000000 500.000000"
 preserveAspectRatio="xMidYMid meet">
<metadata>
Created by potrace 1.13, written by Peter Selinger 2001-2015
</metadata>
<g transform="translate(0.000000,500.000000) scale(0.100000,-0.100000)"
fill="#000000" stroke="none">
<g>
<path d="M2113 4204 c-4 -10 -2 -19 4 -21 6 -2 50 -27 99 -56 167 -100 334
-285 334 -372 0 -50 -4 -55 -130 -128 -114 -67 -140 -85 -140 -97 0 -16 40
-12 161 16 115 26 199 28 335 8 46 -7 69 9 81 54 14 58 -54 219 -137 323 -121
150 -324 256 -547 285 -45 6 -54 4 -60 -12z"/>
</g>
<g>
<path d="M1950 2713 c0 -25 6 -31 90 -97 105 -84 265 -248 332 -342 110 -155
176 -320 205 -514 13 -88 14 -128 5 -245 -14 -177 -38 -260 -94 -321 -76 -82
-175 -111 -328 -95 -143 15 -220 49 -380 167 -77 57 -100 65 -100 37 0 -24 4
-29 85 -99 171 -149 273 -212 403 -245 304 -78 556 69 618 361 19 91 14 307
-10 415 -37 171 -129 381 -222 505 -100 134 -271 290 -465 424 -98 67 -139 81
-139 49z"/>
</g>
<g>
<path d="M3530 2295 c0 -8 31 -39 69 -70 79 -64 161 -156 232 -261 61 -91 107
-205 179 -444 53 -174 101 -235 197 -247 42 -5 53 -2 77 19 70 60 48 204 -64
428 -121 241 -290 399 -590 550 -87 44 -100 47 -100 25z"/>
</g>
<g>
<path d="M600 1691 c0 -145 49 -339 123 -486 92 -184 225 -345 284 -345 63 1
93 60 93 183 0 115 14 179 55 262 19 39 35 76 35 83 0 23 -30 12 -73 -27 -80
-72 -127 -101 -168 -101 -37 0 -43 5 -104 83 -67 83 -167 271 -200 375 -26 81
-45 70 -45 -27z"/>
</g>
</g>
</svg>
