<svg width="100" height="100" viewBox="0 0 100 100" fill="none" xmlns="http://www.w3.org/2000/svg">
<path d="M75.284 30.172C75.284 27.484 77.468 25.216 80.24 25.216C82.928 25.216 85.112 27.484 85.112 30.172C85.112 32.86 82.928 35.128 80.24 35.128C77.468 35.128 75.284 32.86 75.284 30.172ZM69.992 30.172C69.992 35.8 74.612 40.336 80.24 40.336C85.784 40.336 90.404 35.8 90.404 30.172C90.404 24.628 85.784 20.008 80.24 20.008C74.612 20.008 69.992 24.628 69.992 30.172ZM46.136 35.464L52.856 41.596C56.3 39.244 62.768 34.036 65.036 32.188L62.516 25.636C56.804 22.108 47.816 18.244 40.844 15.64L34.628 23.368C40.928 25.72 47.732 29.164 51.428 31.6C50.252 32.524 48.152 34.12 46.136 35.464ZM31.856 74.188L33.368 85.276C37.484 86.032 42.356 86.536 46.976 86.536C55.712 86.536 63.692 83.176 63.692 71.92C63.692 64.192 58.736 56.632 49.748 47.644C47.564 45.376 45.38 43.276 42.944 40.84L34.712 47.644C37.484 49.744 40.34 52.264 42.44 54.28C46.22 58.06 52.016 65.62 52.016 70.744C52.016 74.692 49.076 76.204 44.792 76.204C40.76 76.204 36.392 75.532 31.856 74.188ZM78.392 80.656L88.556 75.196C86.036 67.384 79.484 54.616 74.192 48.148L65.12 53.02C70.748 59.992 76.292 72.256 78.392 80.656ZM36.896 64.696L30.596 56.548C25.556 61.924 16.4 69.064 9.176 73.012L15.56 82C24.548 76.54 32.192 69.736 36.896 64.696Z" fill="black"/>
</svg>
