<svg width="100" height="100" viewBox="0 0 100 100" fill="none" xmlns="http://www.w3.org/2000/svg">
<path d="M11.108 56.968L21.356 67.468C22.784 65.284 24.716 62.26 26.648 59.488C30.26 54.7 36.224 46.384 39.584 42.184C42.02 39.076 43.616 38.656 46.556 41.932C50.504 46.384 56.804 54.364 62.012 60.58C67.304 66.796 74.444 74.944 80.492 80.656L89.144 70.576C81.164 63.436 74.024 55.876 68.648 49.996C63.692 44.62 56.972 35.968 51.26 30.424C45.128 24.46 39.668 25.048 33.788 31.684C28.58 37.732 22.112 46.384 18.248 50.416C15.728 53.104 13.628 55.036 11.108 56.968Z" fill="black"/>
</svg>
