<?xml version="1.0" standalone="no"?>
<!DOCTYPE svg PUBLIC "-//W3C//DTD SVG 20010904//EN"
 "http://www.w3.org/TR/2001/REC-SVG-20010904/DTD/svg10.dtd">
<svg version="1.0" xmlns="http://www.w3.org/2000/svg"
 width="500.000000pt" height="500.000000pt" viewBox="0 0 500.000000 500.000000"
 preserveAspectRatio="xMidYMid meet">
<metadata>
Created by potrace 1.13, written by Peter Selinger 2001-2015
</metadata>
<g transform="translate(0.000000,500.000000) scale(0.100000,-0.100000)"
fill="#000000" stroke="none">
<g>
<path d="M1748 3345 c-32 -8 -84 -28 -117 -45 -140 -70 -613 -371 -815 -518
-97 -71 -99 -72 -161 -72 -55 0 -113 12 -167 35 -14 6 -18 2 -18 -18 0 -31 31
-58 144 -126 158 -96 247 -124 261 -82 16 53 108 133 585 515 260 209 366 255
482 209 60 -23 183 -105 318 -212 240 -190 1780 -1354 2018 -1525 68 -49 134
-60 152 -26 18 34 8 127 -22 192 -32 68 -98 142 -152 170 -21 11 -112 67 -200
125 -89 58 -231 151 -316 207 -211 138 -1133 752 -1300 866 -74 51 -191 131
-260 178 -69 47 -150 97 -179 110 -67 31 -171 38 -253 17z"/>
</g>
</g>
</svg>
