<svg width="100" height="100" viewBox="0 0 100 100" fill="none" xmlns="http://www.w3.org/2000/svg">
<path d="M10.52 58.48L20.6 68.896C22.028 66.628 23.96 63.352 25.892 60.58C29.504 55.792 35.552 47.56 38.912 43.36C41.348 40.252 43.028 39.832 45.884 43.108C49.916 47.56 56.216 55.456 61.424 61.588C66.716 67.888 73.688 76.288 79.736 82L88.556 72.088C80.576 64.864 73.352 57.388 67.976 51.508C63.02 46.132 56.384 37.48 50.588 31.936C44.456 25.888 38.996 26.476 33.2 33.196C27.908 39.244 21.524 47.896 17.576 51.928C15.056 54.616 13.04 56.464 10.52 58.48ZM68.312 31.348C68.312 28.408 70.748 26.056 73.688 26.056C76.628 26.056 78.98 28.408 78.98 31.348C78.98 34.288 76.628 36.724 73.688 36.724C70.748 36.724 68.312 34.288 68.312 31.348ZM62.768 31.348C62.768 37.48 67.556 42.268 73.688 42.268C79.736 42.268 84.608 37.48 84.608 31.348C84.608 25.3 79.736 20.428 73.688 20.428C67.556 20.428 62.768 25.3 62.768 31.348Z" fill="black"/>
</svg>
