<svg width="100" height="100" viewBox="0 0 100 100" fill="none" xmlns="http://www.w3.org/2000/svg">
<path d="M48.068 71.416C48.068 68.644 50.756 66.796 55.544 66.796C57.56 66.796 59.576 67.048 61.676 67.636C61.676 68.308 61.676 68.98 61.676 69.568C61.676 73.6 59.828 76.12 54.872 76.12C50.756 76.12 48.068 74.524 48.068 71.416ZM43.112 19.756V29.08C49.328 29.332 55.292 29.416 60.92 29.332V39.916C54.788 40 48.404 39.916 41.852 39.412V49.072C48.32 49.408 54.788 49.492 61.004 49.324C61.088 52.6 61.172 56.044 61.34 59.236C59.576 58.984 57.812 58.9 55.88 58.9C44.456 58.9 38.576 64.864 38.576 72.172C38.576 81.244 46.472 85.444 56.216 85.444C67.052 85.444 71.756 80.488 71.756 73.012C71.756 72.76 71.756 72.424 71.756 72.172C75.788 74.608 79.568 77.8 83.096 81.328L88.556 72.172C85.364 69.232 79.568 64.528 71.252 61.588C71.084 57.724 70.832 53.524 70.748 48.988C75.956 48.736 80.744 48.4 84.86 47.896V38.152C80.492 38.74 75.704 39.16 70.664 39.496V28.912C75.2 28.66 79.4 28.324 83.096 27.904V18.58C72.764 20.092 58.484 20.932 43.112 19.756ZM31.604 17.068L19.928 16.06C19.844 18.748 19.424 22.024 19.088 24.292C18.164 30.76 15.812 46.72 15.812 59.404C15.812 70.828 17.408 80.404 19.088 86.284L28.748 85.528C28.664 84.352 28.664 82.924 28.58 82.084C28.58 81.16 28.832 79.396 29.084 78.22C30.008 73.6 32.696 65.032 35.048 58.144L29.924 53.944C28.748 56.8 27.236 59.992 26.06 62.848C25.808 61.168 25.724 58.816 25.724 57.136C25.724 48.736 28.412 30.172 29.672 24.544C29.924 23.032 30.932 18.748 31.604 17.068Z" fill="black"/>
</svg>
