<?xml version="1.0" standalone="no"?>
<!DOCTYPE svg PUBLIC "-//W3C//DTD SVG 20010904//EN"
 "http://www.w3.org/TR/2001/REC-SVG-20010904/DTD/svg10.dtd">
<svg version="1.0" xmlns="http://www.w3.org/2000/svg"
 width="500.000000pt" height="500.000000pt" viewBox="0 0 500.000000 500.000000"
 preserveAspectRatio="xMidYMid meet">
<metadata>
Created by potrace 1.13, written by Peter Selinger 2001-2015
</metadata>
<g transform="translate(0.000000,500.000000) scale(0.100000,-0.100000)"
fill="#000000" stroke="none">
<g>
<path d="M3550 4208 c-75 -15 -244 -58 -455 -113 -110 -30 -279 -74 -375 -100
-184 -49 -323 -90 -347 -104 -10 -5 6 -17 55 -39 109 -48 117 -48 317 2 407
102 571 126 910 132 256 5 270 6 284 33 12 21 -3 86 -22 98 -46 29 -265 104
-300 102 -12 -1 -42 -5 -67 -11z"/>
</g>
<g>
<path d="M1015 4173 c29 -78 39 -158 40 -328 0 -199 -3 -222 -95 -625 -60
-260 -85 -401 -110 -620 -31 -270 -43 -568 -37 -880 10 -477 38 -647 144 -880
43 -96 79 -148 115 -166 25 -13 29 -13 47 5 30 30 41 85 41 206 1 219 18 275
182 609 38 76 67 141 64 143 -11 11 -47 -11 -67 -40 -70 -101 -225 -300 -242
-308 -51 -28 -87 20 -124 168 -16 58 -18 116 -18 403 1 343 10 486 46 730 58
389 177 872 276 1119 52 131 52 143 -4 235 -51 83 -210 246 -242 246 -18 0
-22 -4 -16 -17z"/>
</g>
<g>
<path d="M3140 3761 c0 -6 29 -39 65 -72 35 -34 77 -82 92 -108 l28 -46 3
-292 3 -292 -38 -10 c-209 -56 -543 -126 -674 -142 -104 -12 -202 -3 -282 27
-120 44 -128 44 -103 -4 19 -36 92 -99 154 -132 99 -53 344 -36 805 56 71 14
130 24 131 22 4 -5 25 -1332 21 -1336 -2 -2 -77 21 -167 51 -277 94 -523 157
-613 157 -19 0 -72 -19 -126 -47 -164 -82 -226 -170 -217 -311 6 -86 35 -146
104 -217 102 -103 243 -153 460 -162 151 -7 259 6 372 44 111 36 224 99 281
156 l49 49 229 -133 c125 -72 274 -158 331 -191 155 -90 192 -93 212 -19 9 33
7 48 -11 92 -43 109 -126 195 -221 228 -75 26 -275 115 -389 172 l-96 48 -7
133 c-17 337 -26 661 -26 983 l0 350 123 24 c67 13 182 38 255 57 216 55 286
95 266 152 -13 38 -144 104 -219 110 -50 4 -61 1 -157 -51 -84 -45 -223 -97
-260 -97 -5 0 -8 78 -8 173 0 126 4 191 16 244 15 60 15 76 4 102 -21 51 -132
145 -225 191 -86 43 -165 62 -165 41z m-406 -2296 c124 -34 184 -56 389 -137
97 -39 177 -74 177 -78 0 -15 -101 -99 -155 -130 -233 -133 -725 -92 -818 69
-59 99 -30 216 67 269 90 49 183 51 340 7z"/>
</g>
</g>
</svg>
