<?xml version="1.0" encoding="utf-8"?>
<!-- Generator: Adobe Illustrator 16.0.0, SVG Export Plug-In . SVG Version: 6.00 Build 0)  -->
<!DOCTYPE svg PUBLIC "-//W3C//DTD SVG 1.1//EN" "http://www.w3.org/Graphics/SVG/1.1/DTD/svg11.dtd">
<svg version="1.1" id="Layer_1" xmlns="http://www.w3.org/2000/svg" xmlns:xlink="http://www.w3.org/1999/xlink" x="0px" y="0px"
	 width="500px" height="500px" viewBox="0 0 500 500" enable-background="new 0 0 500 500" xml:space="preserve">
<g>
	<path d="M258.708,73.391c0,2.625-0.671,6.532-1.953,11.72v44.929l54.695-9.768c5.188-1.281,11.048-3.235,17.58-5.86
		c15.628,1.313,30.583,5.219,44.929,11.721c7.813,5.219,10.408,9.766,7.813,13.674c-1.313,2.625-8.483,3.266-21.486,1.953
		c-29.972-2.594-64.463-1.281-103.53,3.907l1.953,91.81c11.721-2.595,24.082-5.86,37.114-9.767
		c7.813-3.907,13.674-7.142,17.58-9.768c5.188,0,12.363,1.313,21.487,3.907c6.502,1.313,9.769,3.908,9.769,7.814
		c0,2.625-4.579,5.218-13.675,7.813c-13.031,3.907-37.114,9.767-72.275,17.579v113.299c28.63,9.126,55.977,18.251,82.043,27.348
		c5.188,1.312,9.768,2.626,13.674,3.906c11.719,10.438,16.269,19.534,13.674,27.348c-2.625,5.188-7.813,5.861-15.628,1.953
		c-16.938-9.095-48.835-23.441-95.716-42.974c-7.813,15.627-19.534,27.348-35.162,35.161c-13.032,6.531-27.347,9.768-42.974,9.768
		s-28.02-3.236-37.115-9.768c-10.438-7.813-15.627-18.223-15.627-31.255c0-10.407,4.548-19.534,13.674-27.348
		c9.096-7.813,21.487-11.721,37.115-11.721c5.188,0,12.361,0.671,21.487,1.953c14.314,2.626,27.988,5.861,41.021,9.768V257.012
		c-11.72,1.312-22.159,2.624-31.254,3.906c-10.438,1.313-17.58,1.953-21.487,1.953c-18.252,0-30.614-1.282-37.115-3.907
		c-9.126-3.908-16.299-7.813-21.487-11.721c-1.313-2.594-0.672-3.906,1.954-3.906c13.002,5.218,23.441,7.813,31.254,7.813
		c24.723-1.281,50.79-4.548,78.136-9.767l-1.953-93.763c-50.788,7.813-88.574,14.986-113.297,21.488
		c-3.907,1.312-7.172,2.624-9.767,3.906c-3.906,1.313-13.033-0.641-27.347-5.86c-3.908-2.594-3.266-3.906,1.953-3.906
		c37.756-10.408,87.232-20.816,148.458-31.254l-1.953-46.882c0-11.72-3.266-21.487-9.767-29.3c-2.626-5.188-1.313-6.501,3.907-3.907
		C243.723,58.436,253.489,65.577,258.708,73.391z M143.458,372.261c-5.219,5.22-7.813,11.079-7.813,17.581
		c0,10.438,3.906,17.58,11.72,21.488c7.813,3.906,17.58,5.858,29.301,5.858c18.222,0,32.536-3.905,42.975-11.721
		c10.408-7.813,16.268-16.907,17.58-27.347c-18.251-6.502-32.565-11.049-42.975-13.674c-9.125-1.282-16.94-1.953-23.441-1.953
		C159.084,362.494,149.959,365.76,143.458,372.261z"/>
</g>
</svg>
