<?xml version="1.0" standalone="no"?>
<!DOCTYPE svg PUBLIC "-//W3C//DTD SVG 20010904//EN"
 "http://www.w3.org/TR/2001/REC-SVG-20010904/DTD/svg10.dtd">
<svg version="1.0" xmlns="http://www.w3.org/2000/svg"
 width="500.000000pt" height="500.000000pt" viewBox="0 0 500.000000 500.000000"
 preserveAspectRatio="xMidYMid meet">
<metadata>
Created by potrace 1.13, written by Peter Selinger 2001-2015
</metadata>
<g transform="translate(0.000000,500.000000) scale(0.100000,-0.100000)"
fill="#000000" stroke="none">
<g>
<path d="M2640 4115 c-39 -24 -136 -58 -330 -115 -151 -45 -327 -98 -390 -117
-153 -47 -279 -55 -360 -24 -66 25 -80 26 -80 5 0 -24 58 -75 170 -149 140
-94 149 -95 233 -39 48 31 105 56 190 84 466 148 601 188 613 183 8 -3 14 -11
14 -18 0 -21 -300 -589 -491 -931 -106 -190 -314 -547 -421 -724 l-94 -155
-125 -7 c-253 -16 -460 -64 -596 -139 -78 -44 -191 -160 -238 -244 -55 -97
-77 -181 -78 -295 -2 -161 46 -261 150 -311 81 -39 222 -27 343 30 77 36 226
187 331 336 47 66 143 202 214 303 71 100 134 182 140 182 48 0 546 -97 825
-161 191 -44 733 -179 739 -185 13 -12 -127 -230 -234 -364 -87 -109 -297
-317 -402 -399 -80 -63 -105 -97 -77 -108 26 -10 275 151 443 285 174 140 306
284 464 506 14 18 22 17 223 -51 115 -39 291 -100 390 -137 185 -67 221 -75
242 -54 35 35 -21 151 -118 249 l-65 65 -265 69 c-146 37 -268 71 -272 74 -4
4 17 72 48 151 30 80 65 170 76 200 12 30 34 70 49 88 43 49 46 74 14 129 -66
113 -207 293 -230 293 -25 0 -26 -18 -9 -107 25 -134 14 -203 -67 -444 -38
-113 -95 -243 -108 -247 -6 -2 -70 10 -143 27 -353 80 -869 176 -1242 230
-109 16 -200 31 -202 34 -3 3 20 45 52 94 178 276 654 1063 875 1447 66 116
131 217 155 240 56 56 68 80 49 99 -32 33 -316 161 -345 156 -3 0 -30 -16 -60
-34z m-1037 -2157 c-10 -12 -88 -131 -308 -468 -113 -172 -169 -229 -259 -258
-73 -24 -113 -27 -166 -12 -128 35 -159 235 -65 420 39 77 173 208 249 244
108 50 283 82 460 85 77 1 96 -2 89 -11z"/>
</g>
</g>
</svg>
