<svg width="100" height="100" viewBox="0 0 100 100" fill="none" xmlns="http://www.w3.org/2000/svg">
<path d="M25.976 18.412L26.396 29.248C28.58 28.912 31.52 28.66 33.2 28.576C37.064 28.324 44.288 28.072 47.648 27.904C45.716 31.852 43.28 37.564 40.928 43.108C24.044 43.864 12.2 53.776 12.2 66.796C12.2 75.28 17.744 80.404 25.136 80.404C30.848 80.404 34.88 78.052 38.24 73.012C41.18 68.392 44.708 59.992 47.732 52.852C54.956 53.86 61.676 56.38 67.64 59.656C64.868 67.3 58.988 75.28 46.304 80.74L55.208 88.048C66.464 82.168 72.848 74.776 76.544 65.284C79.148 67.216 81.584 69.148 83.768 71.164L88.64 59.488C86.204 57.808 83.18 55.876 79.652 53.86C80.492 49.156 80.912 43.948 81.248 38.32L70.244 37.06C70.496 39.58 70.496 42.94 70.244 46.216C70.16 47.14 70.076 48.064 69.992 49.072C64.532 46.72 58.316 44.704 51.764 43.696C54.788 36.556 57.98 29.248 60.164 25.636C60.836 24.46 61.844 23.368 63.02 22.108L56.3 16.9C54.872 17.488 52.688 17.992 50.588 18.076C46.64 18.412 37.736 18.832 32.948 18.832C31.1 18.832 28.244 18.664 25.976 18.412ZM22.028 65.2C22.028 59.908 27.32 54.196 36.728 52.768C34.376 58.06 32.108 63.352 29.924 66.46C28.412 68.56 27.236 69.4 25.556 69.4C23.624 69.4 22.028 67.972 22.028 65.2Z" fill="black"/>
</svg>
