<svg width="200" height="100" viewBox="0 0 200 100" fill="none" xmlns="http://www.w3.org/2000/svg">
<path d="M33.892 23.496L34.312 34.248C36.496 33.996 39.436 33.66 41.2 33.576C44.98 33.324 52.288 33.072 55.648 32.988C53.128 38.196 49.684 46.428 46.744 53.064C43.72 59.7 40.696 67.428 37.924 71.544C36.328 73.644 35.236 74.4 33.556 74.4C31.54 74.4 29.944 72.972 29.944 70.2C29.944 64.068 37 57.432 49.264 57.432C66.568 57.432 81.352 67.008 91.684 76.164L96.556 64.488C87.736 58.44 70.6 48.024 51.028 48.024C33.052 48.024 20.2 58.356 20.2 71.796C20.2 80.364 25.744 85.404 33.052 85.404C38.848 85.404 42.796 83.136 46.156 78.012C49.6 72.72 53.632 62.724 56.992 54.996C60.772 46.26 65.308 35.424 68.164 30.636C68.836 29.544 69.844 28.452 70.936 27.192L64.3 21.9C62.788 22.488 60.604 22.992 58.504 23.16C54.64 23.496 45.736 23.832 40.864 23.832C39.1 23.832 36.16 23.664 33.892 23.496ZM89.164 43.32L78.16 42.06C78.496 44.664 78.412 48.024 78.244 51.3C77.488 61.128 74.968 76.836 54.22 85.74L63.208 93.048C83.284 82.632 87.988 67.176 89.164 43.32ZM147.712 33.744H136.288C136.708 35.34 137.044 38.868 137.044 42.144C137.044 45 137.044 50.712 137.044 53.988C137.044 61.128 137.884 72.3 137.884 78.516C137.884 82.38 136.036 84.396 132.256 84.396C127.636 84.396 124.612 82.464 124.612 80.028C124.612 77.34 127.552 75.576 132.844 75.576C145.276 75.576 155.692 83.976 162.328 90.78L168.04 81.624C161.404 75.408 148.888 67.26 134.104 67.26C121.924 67.26 115.036 72.468 115.036 80.532C115.036 89.436 123.352 93.72 133.516 93.72C144.772 93.72 148.216 88.008 148.216 81.876C148.216 76.416 147.04 61.716 147.04 54.828C147.04 50.964 147.04 44.664 147.04 41.976C147.04 39.036 147.376 35.424 147.712 33.744ZM142.42 46.008L142.504 55.08C146.536 55.08 159.22 54.66 166.612 54.072L166.36 44.748C158.884 45.588 146.368 46.008 142.42 46.008Z" fill="black"/>
</svg>
