<?xml version="1.0" standalone="no"?>
<!DOCTYPE svg PUBLIC "-//W3C//DTD SVG 20010904//EN"
 "http://www.w3.org/TR/2001/REC-SVG-20010904/DTD/svg10.dtd">
<svg version="1.0" xmlns="http://www.w3.org/2000/svg"
 width="500.000000pt" height="500.000000pt" viewBox="0 0 500.000000 500.000000"
 preserveAspectRatio="xMidYMid meet">
<metadata>
Created by potrace 1.13, written by Peter Selinger 2001-2015
</metadata>
<g transform="translate(0.000000,500.000000) scale(0.100000,-0.100000)"
fill="#000000" stroke="none">
<g>
<path d="M1674 4438 c-4 -7 2 -18 15 -27 59 -41 109 -94 121 -128 10 -29 15
-133 17 -440 l4 -402 -43 -12 c-148 -40 -453 -89 -552 -89 -70 0 -132 28 -195
86 -60 55 -71 58 -71 17 0 -55 103 -193 211 -283 55 -46 66 -51 97 -46 19 3
55 16 81 29 42 22 438 123 447 114 6 -6 -14 -856 -26 -1078 -14 -267 -40 -653
-49 -719 l-7 -55 -43 65 c-54 82 -137 254 -186 385 -44 119 -60 152 -89 183
-74 83 -196 64 -276 -42 -98 -130 -125 -240 -117 -485 5 -193 27 -306 82 -426
73 -158 257 -376 364 -428 62 -31 140 -36 194 -13 88 36 185 228 203 401 l7
65 41 -35 c126 -107 371 -239 512 -275 170 -44 438 -50 625 -14 174 33 333
100 447 188 228 175 304 388 288 806 -13 342 -65 811 -93 843 -16 17 -18 17
-30 1 -10 -13 -13 -79 -13 -263 0 -500 -47 -844 -140 -1037 -50 -104 -124
-174 -253 -239 -173 -86 -325 -110 -647 -102 -235 6 -326 19 -415 57 -104 45
-307 182 -300 203 8 22 54 569 69 817 19 293 33 633 42 982 6 224 9 258 23
262 15 5 425 91 781 165 114 23 148 34 162 51 48 60 -1 96 -206 149 -129 34
-174 29 -291 -29 -68 -33 -153 -64 -266 -95 -91 -25 -169 -45 -173 -45 -10 0
-6 521 4 570 6 25 20 67 31 94 12 27 18 58 15 71 -7 29 -94 108 -161 146 -92
54 -224 85 -241 57z m-418 -2589 c59 -15 142 -105 208 -224 57 -103 139 -227
203 -305 l45 -55 -7 -70 c-20 -207 -76 -315 -164 -315 -122 0 -319 208 -394
416 -55 152 -79 389 -49 475 15 43 48 76 82 82 14 2 26 5 28 6 2 0 23 -4 48
-10z"/>
</g>
<g>
<path d="M3630 4118 c0 -21 12 -33 95 -99 147 -115 260 -234 361 -379 43 -62
134 -234 134 -254 0 -25 48 -58 94 -63 40 -5 48 -2 76 25 27 27 30 37 30 89 0
184 -160 407 -387 541 -104 61 -331 152 -380 152 -13 0 -23 -6 -23 -12z"/>
</g>
</g>
</svg>
