<svg width="100" height="100" viewBox="0 0 100 100" fill="none" xmlns="http://www.w3.org/2000/svg">
<path d="M41.6 14.044H29.84C30.512 16.48 30.68 19.336 30.68 24.628C30.68 24.796 30.68 25.048 30.68 25.3C29.84 25.3 29 25.3 28.16 25.3C24.212 25.3 19.256 24.88 14.636 24.208L15.224 34.036C20.768 34.54 25.304 34.708 28.916 34.708C29.504 34.708 30.092 34.708 30.68 34.708C30.68 36.64 30.68 38.572 30.68 40.42H30.344C21.188 40.42 14.804 47.896 14.804 57.808C14.804 68.56 21.02 72.928 27.152 72.928C27.656 72.928 28.076 72.928 28.496 72.844C28.496 73.432 28.496 74.02 28.496 74.608C28.496 80.488 29.336 86.704 48.908 86.704C54.62 86.704 63.356 86.116 67.136 84.856C76.88 81.916 79.148 77.212 79.568 69.568C79.82 66.124 79.736 64.108 79.736 59.74L68.06 56.212C68.648 60.16 68.732 63.268 68.732 66.628C68.732 70.912 66.884 73.768 62.516 75.028C59.324 76.036 53.864 76.54 49.664 76.54C39.752 76.54 38.828 74.692 38.828 71.08C38.828 70.072 38.828 68.896 38.828 67.72C41.852 64.024 43.196 58.816 43.196 53.524C43.196 50.164 42.356 47.224 40.76 45.04V34.036C45.548 33.616 50.84 32.86 55.796 31.684V21.604C50.756 23.032 45.632 23.956 40.76 24.544C40.76 19.588 41.096 16.48 41.6 14.044ZM69.824 21.772L62.768 28.744C67.556 32.272 75.536 40 80.072 45.544L87.632 37.816C83.852 33.28 75.032 25.048 69.824 21.772ZM28.244 62.848C25.808 62.848 23.624 60.748 23.624 57.052C23.624 52.096 26.312 48.82 29.672 48.82C32.024 48.82 33.62 50.752 33.62 54.028C33.62 58.732 32.108 62.848 28.244 62.848Z" fill="black"/>
</svg>
