<?xml version="1.0" standalone="no"?>
<!DOCTYPE svg PUBLIC "-//W3C//DTD SVG 20010904//EN"
 "http://www.w3.org/TR/2001/REC-SVG-20010904/DTD/svg10.dtd">
<svg version="1.0" xmlns="http://www.w3.org/2000/svg"
 width="500.000000pt" height="500.000000pt" viewBox="0 0 500.000000 500.000000"
 preserveAspectRatio="xMidYMid meet">
<metadata>
Created by potrace 1.13, written by Peter Selinger 2001-2015
</metadata>
<g transform="translate(0.000000,500.000000) scale(0.100000,-0.100000)"
fill="#000000" stroke="none">
<g>
<path d="M2655 4213 c22 -58 45 -178 45 -243 0 -120 -53 -351 -146 -632 l-45
-136 -52 -12 c-259 -61 -585 -196 -823 -340 l-62 -37 -20 71 c-51 176 -112
512 -112 614 0 70 -22 108 -81 139 -55 30 -88 59 -157 142 -42 50 -72 65 -72
37 0 -7 11 -42 24 -77 13 -35 43 -152 66 -259 51 -238 99 -439 151 -628 21
-79 39 -147 39 -151 0 -4 -50 -50 -111 -102 -271 -229 -436 -459 -501 -700
-19 -70 -23 -108 -22 -229 0 -80 6 -172 13 -205 19 -91 74 -198 122 -239 70
-59 104 -71 199 -70 195 4 382 105 667 361 l91 83 32 -58 c72 -127 120 -192
154 -208 48 -23 82 -13 96 31 11 32 8 40 -48 142 -33 59 -74 136 -90 170 l-31
61 42 64 c302 453 423 672 648 1168 23 52 47 101 54 107 7 8 65 17 160 23 504
34 829 -100 1040 -430 95 -147 129 -283 122 -480 -13 -342 -148 -595 -458
-855 -127 -106 -436 -304 -514 -328 -23 -8 -48 -44 -40 -57 11 -18 44 -10 162
41 476 203 824 476 976 761 151 285 150 649 -3 947 -126 245 -348 433 -606
514 -168 53 -240 62 -499 62 -132 0 -252 -4 -267 -8 -20 -5 -28 -4 -28 5 0 7
43 146 95 308 l94 295 -52 95 c-61 111 -196 260 -236 260 -18 0 -22 -4 -16
-17z m-261 -1334 c-142 -361 -321 -714 -475 -940 l-16 -23 -22 49 c-65 144
-221 569 -244 667 -6 24 -1 30 76 79 177 113 426 226 632 287 55 17 101 29
103 27 2 -1 -23 -67 -54 -146z m-889 -481 c54 -152 219 -567 241 -609 22 -43
18 -56 -37 -119 -101 -117 -264 -233 -368 -264 -63 -18 -202 -21 -252 -5 -52
17 -94 70 -108 136 -16 80 -14 314 4 398 20 94 71 193 149 291 71 89 291 304
311 304 6 0 33 -60 60 -132z"/>
</g>
</g>
</svg>
