<svg width="100" height="100" viewBox="0 0 100 100" fill="none" xmlns="http://www.w3.org/2000/svg">
<path d="M47.396 14.716L35.552 14.044C35.72 15.892 35.72 17.572 35.468 21.52C35.3 23.452 35.048 25.72 34.796 28.324C28.664 27.82 22.364 26.728 17.492 25.132L16.904 34.792C21.86 36.22 27.824 37.228 33.62 37.816C33.2 41.596 32.696 45.544 32.192 49.324C26.732 48.736 21.104 47.812 15.644 45.964L15.056 56.128C19.508 57.388 25.052 58.312 31.184 58.9C30.848 62.344 30.596 65.368 30.596 67.384C30.596 81.412 39.92 87.124 53.108 87.124C71.504 87.124 82.928 78.052 82.928 65.368C82.928 58.228 80.324 52.264 74.78 45.208L62.936 47.728C68.48 52.936 71.588 58.312 71.588 64.024C71.588 70.912 65.204 76.288 53.444 76.288C45.212 76.288 40.928 72.592 40.928 65.62C40.928 64.108 41.096 62.008 41.264 59.488C42.356 59.488 43.532 59.488 44.624 59.488C49.916 59.488 54.788 59.152 59.492 58.732L59.744 48.736C54.284 49.408 48.068 49.744 42.86 49.744C42.692 49.744 42.44 49.744 42.272 49.744C42.692 45.964 43.196 42.016 43.7 38.32C50.42 38.32 55.04 37.984 60.08 37.48L60.416 27.484C56.468 28.072 51.092 28.576 45.044 28.66C45.38 25.888 45.716 23.62 45.968 22.192C46.304 20.008 46.64 17.74 47.396 14.716Z" fill="black"/>
</svg>
