<?xml version="1.0" standalone="no"?>
<!DOCTYPE svg PUBLIC "-//W3C//DTD SVG 20010904//EN"
 "http://www.w3.org/TR/2001/REC-SVG-20010904/DTD/svg10.dtd">
<svg version="1.0" xmlns="http://www.w3.org/2000/svg"
 width="500.000000pt" height="500.000000pt" viewBox="0 0 500.000000 500.000000"
 preserveAspectRatio="xMidYMid meet">
<metadata>
Created by potrace 1.13, written by Peter Selinger 2001-2015
</metadata>
<g transform="translate(0.000000,500.000000) scale(0.100000,-0.100000)"
fill="#000000" stroke="none">
<g>
<path d="M2050 4562 c0 -10 13 -31 30 -47 55 -53 73 -122 73 -275 0 -74 -9
-218 -21 -320 -11 -102 -24 -217 -27 -256 l-7 -71 -396 -113 c-219 -62 -405
-117 -414 -122 -40 -20 -18 -37 76 -58 l95 -22 168 36 c92 20 231 51 308 70
77 18 141 32 142 31 3 -1 -105 -1058 -112 -1102 l-6 -33 -112 0 c-150 0 -241
15 -295 46 -47 28 -97 97 -107 148 -8 41 -36 106 -46 106 -21 0 -39 -48 -39
-102 0 -151 79 -267 221 -326 78 -32 227 -62 312 -62 54 0 52 8 37 -135 -5
-49 -14 -190 -20 -313 -23 -452 22 -671 171 -835 107 -118 234 -187 409 -223
68 -13 116 -16 250 -11 218 7 324 33 480 117 87 47 223 183 272 273 154 282
144 592 -36 1112 -60 175 -72 202 -97 216 -20 10 -21 9 -16 -17 18 -84 58
-343 66 -434 46 -489 3 -715 -168 -889 -80 -81 -157 -123 -288 -158 -84 -22
-121 -25 -258 -27 -183 -1 -246 9 -350 59 -124 59 -195 155 -237 321 -21 82
-23 111 -22 354 0 232 14 498 30 582 6 28 6 28 92 28 211 0 491 31 647 72 172
45 249 97 243 167 -3 34 -7 37 -83 70 -68 30 -92 35 -155 35 -66 1 -85 -4
-159 -38 -95 -44 -310 -91 -468 -104 -89 -7 -93 -7 -93 13 1 127 96 945 128
1095 9 41 13 42 219 65 171 18 358 19 504 3 121 -13 139 -8 139 44 0 46 -14
63 -97 111 -103 60 -175 92 -244 106 -54 11 -67 10 -264 -39 -114 -29 -213
-54 -219 -56 -9 -4 -9 28 1 133 19 219 32 291 69 400 21 60 33 111 29 123 -10
31 -187 192 -257 233 -69 41 -98 47 -98 19z"/>
</g>
</g>
</svg>
