<?xml version="1.0" standalone="no"?>
<!DOCTYPE svg PUBLIC "-//W3C//DTD SVG 20010904//EN"
 "http://www.w3.org/TR/2001/REC-SVG-20010904/DTD/svg10.dtd">
<svg version="1.0" xmlns="http://www.w3.org/2000/svg"
 width="500.000000pt" height="500.000000pt" viewBox="0 0 500.000000 500.000000"
 preserveAspectRatio="xMidYMid meet">
<metadata>
Created by potrace 1.13, written by Peter Selinger 2001-2015
</metadata>
<g transform="translate(0.000000,500.000000) scale(0.100000,-0.100000)"
fill="#000000" stroke="none">
<g>
<path d="M2430 4367 c0 -9 28 -35 62 -58 219 -149 351 -312 296 -367 -7 -7
-30 -12 -53 -12 -58 0 -167 -19 -183 -32 -20 -17 -1 -25 97 -38 109 -15 231
-53 304 -96 32 -19 67 -34 77 -34 30 0 43 37 42 119 -1 123 -53 239 -139 310
-52 43 -187 112 -327 166 -142 56 -176 64 -176 42z"/>
</g>
<g>
<path d="M1327 3963 c-12 -12 -7 -190 8 -310 18 -131 69 -348 145 -616 28 -97
49 -181 46 -186 -12 -19 -448 -220 -631 -289 -127 -49 -166 -55 -286 -49 -60
3 -111 2 -114 -3 -5 -8 55 -60 107 -93 55 -35 180 -73 282 -88 l59 -8 51 45
c36 32 121 80 291 163 248 121 303 146 309 140 4 -6 254 -636 363 -919 215
-557 300 -757 400 -953 89 -171 122 -192 186 -117 40 47 62 114 54 168 -3 20
-60 150 -127 287 -67 138 -137 282 -155 320 -135 288 -186 400 -283 620 -117
267 -282 661 -282 674 0 5 28 20 63 34 34 14 112 47 172 72 1044 439 1522 570
1857 511 288 -52 403 -272 275 -528 -40 -82 -157 -197 -265 -262 -157 -93
-392 -170 -602 -195 -117 -15 -175 -31 -175 -50 0 -24 41 -27 220 -20 343 15
603 79 808 200 105 62 238 198 279 284 78 169 34 412 -98 542 -156 152 -495
215 -844 157 -170 -28 -637 -170 -1015 -308 -131 -48 -584 -218 -683 -256
l-52 -20 -11 27 c-55 141 -129 426 -163 628 -22 129 -28 150 -85 265 -66 132
-83 154 -104 133z"/>
</g>
</g>
</svg>
