<svg width="100" height="100" viewBox="0 0 100 100" fill="none" xmlns="http://www.w3.org/2000/svg">
<path d="M11.192 44.2L16.148 54.868C19.76 53.272 25.052 50.416 31.1 47.392C31.856 49.072 32.612 50.836 33.368 52.6C37.652 62.764 42.02 76.96 44.624 87.544L56.132 84.52C53.36 75.112 46.892 57.136 42.944 47.98C42.188 46.3 41.432 44.536 40.592 42.772C49.58 38.656 58.736 35.212 65.288 35.212C71.588 35.212 75.368 38.656 75.368 42.94C75.368 48.988 70.748 52.432 64.448 52.432C60.752 52.432 56.552 51.172 52.772 49.576L52.52 60.16C55.712 61.336 60.92 62.512 65.456 62.512C78.308 62.512 86.372 55.036 86.372 43.276C86.372 33.532 78.56 25.636 65.54 25.636C61.76 25.636 57.644 26.392 53.444 27.652L60.08 22.78C57.224 19.756 50.924 14.296 47.9 12.028L40.172 17.404C43.364 19.84 48.74 25.048 51.764 28.156C46.892 29.752 41.768 31.852 36.644 34.12C35.3 31.264 33.956 28.576 32.696 26.14C31.772 24.544 30.092 21.1 29.336 19.588L18.416 23.788C20.096 25.972 22.196 29.08 23.372 31.18C24.632 33.364 25.892 35.8 27.068 38.32C24.548 39.412 21.944 40.504 19.508 41.512C18.164 42.1 14.468 43.36 11.192 44.2Z" fill="black"/>
</svg>
