<svg width="100" height="100" viewBox="0 0 100 100" fill="none" xmlns="http://www.w3.org/2000/svg">
<path d="M59.24 14.212L48.236 14.464C48.74 15.808 49.244 18.328 49.664 20.344C50 21.94 50.252 23.872 50.588 25.972C40.928 28.324 32.36 34.54 26.9 44.032C26.732 38.488 28.076 30.676 29.168 26.308C29.504 24.88 30.092 23.032 30.68 21.268L19.256 20.344C19.34 21.604 19.256 23.536 19.088 25.3C18.5 30.256 17.072 41.008 17.072 50.08C17.072 58.396 18.164 67.468 19.928 73.432L29.504 72.172C29 69.82 28.58 65.368 28.58 63.94C28.496 62.512 28.58 61.336 28.916 59.824C30.596 50.836 38.156 38.404 51.428 34.96C51.596 38.572 51.764 42.352 51.764 46.048C51.764 51.34 51.344 56.968 49.916 62.344C45.632 60.328 42.692 56.632 40.256 51.928L34.208 59.488C36.812 64.948 41.18 68.98 46.22 71.5C43.784 75.868 40.256 79.648 35.3 82.504L45.38 88.468C50.672 84.52 54.368 79.648 56.888 74.272C57.392 74.356 57.98 74.356 58.484 74.356C76.46 74.356 85.616 63.436 85.616 48.988C85.616 35.716 75.956 25.552 60.752 24.964C60.248 20.512 59.66 16.816 59.24 14.212ZM62.012 46.132C62.012 42.1 61.844 38.068 61.592 34.204C71 35.212 75.032 41.68 75.032 49.156C75.032 57.556 69.824 63.268 60.332 64.024C61.592 58.144 62.012 52.096 62.012 46.132Z" fill="black"/>
</svg>
