<?xml version="1.0" standalone="no"?>
<!DOCTYPE svg PUBLIC "-//W3C//DTD SVG 20010904//EN"
 "http://www.w3.org/TR/2001/REC-SVG-20010904/DTD/svg10.dtd">
<svg version="1.0" xmlns="http://www.w3.org/2000/svg"
 width="500.000000pt" height="500.000000pt" viewBox="0 0 500.000000 500.000000"
 preserveAspectRatio="xMidYMid meet">
<metadata>
Created by potrace 1.13, written by Peter Selinger 2001-2015
</metadata>
<g transform="translate(0.000000,500.000000) scale(0.100000,-0.100000)"
fill="#000000" stroke="none">
<g>
<path d="M2545 4297 c-64 -36 -58 -77 13 -77 42 0 91 -21 119 -51 62 -68 88
-181 100 -440 l6 -136 -74 -22 c-360 -109 -739 -340 -1019 -621 -239 -240
-413 -492 -597 -865 l-94 -190 5 335 c3 184 10 382 16 440 22 224 79 493 152
724 31 96 31 99 14 130 -48 90 -252 257 -275 226 -2 -3 9 -43 24 -90 45 -140
37 -276 -41 -700 -61 -330 -78 -541 -79 -940 0 -313 7 -422 41 -610 20 -108
37 -145 79 -164 46 -22 72 -20 99 7 20 21 24 36 30 143 21 344 134 676 344
1013 311 499 690 805 1250 1007 51 19 100 34 109 34 14 0 15 -55 10 -527 -3
-393 -9 -565 -21 -673 -25 -224 -47 -350 -61 -350 -24 0 -130 61 -202 116 -86
66 -216 201 -296 307 -93 124 -129 128 -72 8 74 -154 198 -319 320 -424 69
-60 209 -157 226 -157 42 0 -61 -307 -191 -575 -123 -253 -222 -403 -361 -550
-70 -73 -85 -105 -50 -105 43 0 263 200 380 345 156 192 303 459 381 690 13
39 26 73 29 77 3 4 38 0 76 -9 105 -24 369 -23 459 1 207 55 394 178 531 349
113 141 177 276 218 457 28 127 30 409 3 544 -57 291 -185 471 -419 592 -132
68 -249 95 -437 101 -85 3 -180 1 -211 -4 l-57 -10 -6 141 c-15 320 -13 312
-61 359 -47 48 -122 90 -238 136 -92 37 -119 38 -172 8z m759 -777 c173 -20
321 -88 431 -198 139 -139 196 -369 175 -702 -10 -149 -21 -220 -52 -325 -63
-220 -237 -401 -468 -486 -57 -21 -82 -23 -215 -24 -181 0 -260 15 -251 49 14
50 38 218 62 446 24 221 27 293 31 742 l5 497 51 4 c106 7 144 7 231 -3z"/>
</g>
</g>
</svg>
