<?xml version="1.0" standalone="no"?>
<!DOCTYPE svg PUBLIC "-//W3C//DTD SVG 20010904//EN"
 "http://www.w3.org/TR/2001/REC-SVG-20010904/DTD/svg10.dtd">
<svg version="1.0" xmlns="http://www.w3.org/2000/svg"
 width="500.000000pt" height="500.000000pt" viewBox="0 0 500.000000 500.000000"
 preserveAspectRatio="xMidYMid meet">
<metadata>
Created by potrace 1.13, written by Peter Selinger 2001-2015
</metadata>
<g transform="translate(0.000000,500.000000) scale(0.100000,-0.100000)"
fill="#000000" stroke="none">
<g>
<path d="M1940 4541 c0 -30 185 -260 353 -437 31 -33 57 -70 57 -81 0 -24 -22
-44 -125 -116 -145 -100 -147 -124 -9 -76 118 42 217 45 292 10 28 -13 57 -21
66 -18 23 9 38 81 30 145 -20 171 -132 316 -294 383 -100 41 -194 92 -255 138
-75 57 -115 75 -115 52z"/>
</g>
<g>
<path d="M1596 3388 c-35 -53 -46 -108 -40 -192 7 -87 15 -42 -116 -661 -160
-753 -160 -755 -185 -791 -41 -60 -34 -103 33 -236 l57 -113 45 1 c32 1 76 16
155 54 61 29 135 64 165 78 30 13 98 45 150 69 150 70 554 242 659 280 262 95
516 162 651 170 224 13 441 -80 509 -220 63 -130 51 -329 -29 -487 -109 -217
-499 -493 -990 -700 -69 -29 -133 -60 -143 -68 -23 -20 -23 -45 1 -38 9 3 60
17 112 31 241 67 502 165 691 260 257 128 424 259 520 404 67 100 89 177 89
305 0 319 -184 539 -514 613 -87 19 -314 22 -406 4 -275 -53 -483 -112 -1008
-287 -238 -79 -439 -144 -446 -144 -28 0 -64 40 -71 78 -7 41 -8 34 145 813
55 278 100 517 100 530 0 14 -11 41 -25 61 -14 21 -33 68 -42 105 -25 106 -39
123 -67 81z"/>
</g>
</g>
</svg>
