<svg width="100" height="100" viewBox="0 0 100 100" fill="none" xmlns="http://www.w3.org/2000/svg">
<path d="M35.972 14.38L33.368 24.544C39.92 26.224 58.568 30.088 67.136 31.264L69.656 20.932C62.264 20.176 43.952 16.9 35.972 14.38ZM36.56 31.264L25.22 29.752C24.716 40.168 22.7 56.632 21.02 64.864L30.764 67.216C31.436 65.536 32.36 64.192 33.872 62.428C39.164 56.044 47.648 52.516 57.14 52.516C64.532 52.516 69.656 56.464 69.656 61.924C69.656 72.676 56.384 78.808 31.1 75.28L34.376 86.284C69.236 89.308 81.416 77.548 81.416 62.176C81.416 52.012 72.848 42.94 58.148 42.94C49.328 42.94 40.928 45.46 33.368 51.004C33.956 46.132 35.384 35.968 36.56 31.264Z" fill="black"/>
</svg>
