<svg width="100" height="100" viewBox="0 0 100 100" fill="none" xmlns="http://www.w3.org/2000/svg">
<path d="M38.324 14.548L26.816 14.044C26.816 16.312 26.564 19.672 26.144 22.864C24.968 31.516 23.792 41.932 23.792 49.744C23.792 55.372 24.38 60.496 24.884 63.772L35.216 63.1C34.712 59.152 34.628 56.464 34.796 54.196C35.216 43.108 43.868 28.24 53.78 28.24C60.836 28.24 65.204 35.464 65.204 48.4C65.204 68.728 52.016 74.86 33.368 77.716L39.752 87.46C62.012 83.428 76.544 72.088 76.544 48.316C76.544 29.836 67.472 18.412 55.796 18.412C46.304 18.412 38.996 25.468 34.964 32.02C35.468 27.316 37.148 18.664 38.324 14.548Z" fill="black"/>
</svg>
