<?xml version="1.0" standalone="no"?>
<!DOCTYPE svg PUBLIC "-//W3C//DTD SVG 20010904//EN"
 "http://www.w3.org/TR/2001/REC-SVG-20010904/DTD/svg10.dtd">
<svg version="1.0" xmlns="http://www.w3.org/2000/svg"
 width="500.000000pt" height="500.000000pt" viewBox="0 0 500.000000 500.000000"
 preserveAspectRatio="xMidYMid meet">
<metadata>
Created by potrace 1.13, written by Peter Selinger 2001-2015
</metadata>
<g transform="translate(0.000000,500.000000) scale(0.100000,-0.100000)"
fill="#000000" stroke="none">
<g>
<path d="M1773 4544 c-3 -8 0 -27 7 -42 27 -59 29 -124 10 -277 -24 -186 -59
-378 -110 -600 -91 -400 -117 -609 -100 -809 35 -395 120 -618 225 -592 38 10
55 45 65 137 20 175 129 540 265 889 73 187 90 238 82 246 -19 19 -59 -48
-202 -335 -85 -170 -165 -354 -165 -378 0 -20 -35 -42 -50 -33 -23 14 -26 394
-5 565 26 212 110 584 190 848 l36 118 -36 68 c-44 83 -92 141 -150 181 -50
35 -54 35 -62 14z"/>
</g>
<g>
<path d="M2880 4022 c-19 -15 -21 -22 -11 -39 6 -12 26 -31 45 -42 18 -12 52
-41 74 -65 111 -121 141 -282 142 -761 0 -484 -42 -878 -146 -1358 -93 -430
-231 -772 -475 -1170 -117 -191 -125 -205 -116 -214 16 -15 63 24 130 107 155
192 294 410 411 638 191 376 344 892 396 1337 39 331 12 1005 -50 1219 -45
158 -127 275 -235 337 -60 35 -130 39 -165 11z"/>
</g>
</g>
</svg>
