<svg width="200" height="100" viewBox="0 0 200 100" fill="none" xmlns="http://www.w3.org/2000/svg">
<path d="M46.324 19.548L34.816 19.128C34.732 21.396 34.48 24.756 34.144 27.864C32.884 36.6 31.792 46.932 31.792 54.828C31.792 60.456 32.296 65.58 32.8 68.856L43.132 68.1C42.712 64.236 42.628 61.548 42.796 59.196C43.132 48.192 51.868 33.24 61.78 33.24C68.752 33.24 73.12 40.464 73.12 53.4C73.12 73.728 60.016 79.944 41.284 82.8L47.668 92.544C69.928 88.428 84.46 77.172 84.46 53.4C84.46 34.92 75.388 23.412 63.712 23.412C54.304 23.412 46.912 30.552 42.88 37.02C43.384 32.316 45.148 23.664 46.324 19.548ZM126.88 38.532L116.044 37.776C116.128 38.784 116.044 40.548 115.96 42.06C115.372 46.26 114.196 55.164 114.196 63.564C114.196 70.368 115.288 77.76 116.8 82.548L125.788 81.372C125.452 79.524 125.032 75.324 125.032 74.064C124.948 72.804 125.032 71.964 125.284 70.788C126.796 61.716 135.7 50.712 149.98 50.712C159.472 50.712 163.168 55.584 163.168 61.8C163.168 69.192 159.304 74.148 149.728 74.148C142.42 74.148 137.884 69.864 134.608 63.648L129.232 71.376C133.516 80.028 142.084 84.144 150.148 84.144C165.436 84.144 173.08 73.812 173.08 61.716C173.08 50.544 164.848 41.892 150.484 41.892C140.404 41.892 129.484 46.764 123.52 56.676C123.604 52.056 124.696 46.512 125.536 42.984C125.872 41.892 126.292 40.044 126.88 38.532ZM151.072 33.996L140.824 34.164C141.328 35.676 141.748 37.104 142.084 38.7C143.008 43.404 143.848 50.796 143.848 59.112C143.848 69.864 141.916 82.296 129.988 89.604L139.144 94.896C150.652 86.412 153.34 73.056 153.34 59.952C153.34 49.536 151.912 39.036 151.072 33.996Z" fill="black"/>
</svg>
