<svg width="100" height="100" viewBox="0 0 100 100" fill="none" xmlns="http://www.w3.org/2000/svg">
<path d="M40.76 72.088C40.76 69.988 42.776 68.056 45.968 68.056C50.504 68.056 53.612 71.584 54.116 77.044C52.604 77.212 51.008 77.296 49.244 77.296C44.204 77.296 40.76 75.196 40.76 72.088ZM26.48 17.992L26.816 28.912C28.748 28.66 31.436 28.408 33.704 28.24C38.156 27.988 49.748 27.484 54.032 27.4C49.916 31.012 41.18 38.068 36.476 41.932C31.52 46.048 21.356 54.616 15.392 59.404L23.036 67.3C32.024 57.052 40.424 50.248 53.276 50.248C63.188 50.248 70.748 55.372 70.748 62.932C70.748 68.056 68.396 71.92 63.776 74.356C62.6 66.376 56.3 59.992 45.884 59.992C36.98 59.992 30.848 66.292 30.848 73.096C30.848 81.496 39.668 86.872 51.344 86.872C71.672 86.872 81.752 76.372 81.752 63.1C81.752 50.836 70.916 41.932 56.636 41.932C53.948 41.932 51.428 42.184 48.656 42.856C53.948 38.656 62.768 31.264 67.304 28.072C69.236 26.644 71.252 25.468 73.184 24.208L67.724 16.732C66.716 17.068 64.784 17.32 61.34 17.656C56.552 18.076 38.576 18.412 34.124 18.412C31.772 18.412 28.832 18.328 26.48 17.992Z" fill="black"/>
</svg>
