<?xml version="1.0" standalone="no"?>
<!DOCTYPE svg PUBLIC "-//W3C//DTD SVG 20010904//EN"
 "http://www.w3.org/TR/2001/REC-SVG-20010904/DTD/svg10.dtd">
<svg version="1.0" xmlns="http://www.w3.org/2000/svg"
 width="500.000000pt" height="500.000000pt" viewBox="0 0 500.000000 500.000000"
 preserveAspectRatio="xMidYMid meet">
<metadata>
Created by potrace 1.13, written by Peter Selinger 2001-2015
</metadata>
<g transform="translate(0.000000,500.000000) scale(0.100000,-0.100000)"
fill="#000000" stroke="none">
<g>
<path d="M2920 4194 c-8 -3 -42 -16 -75 -29 -65 -26 -204 -62 -595 -154 -501
-117 -545 -119 -667 -37 -83 57 -85 15 -5 -86 76 -95 154 -165 201 -179 34
-10 43 -8 107 24 38 19 89 41 114 47 37 9 625 193 791 247 26 8 62 13 80 11
29 -2 35 -7 37 -30 3 -28 -33 -78 -515 -710 -87 -114 -205 -269 -263 -345
-353 -462 -759 -979 -807 -1028 -16 -16 -52 -49 -80 -72 -38 -32 -53 -52 -63
-87 -20 -71 -9 -172 26 -237 40 -74 61 -76 128 -12 186 179 420 341 701 483
286 146 546 247 760 295 112 25 132 27 285 22 183 -6 250 -19 367 -72 191 -88
285 -268 270 -515 -11 -170 -70 -317 -184 -460 -73 -91 -140 -152 -237 -217
-65 -44 -211 -113 -266 -126 -25 -6 -26 -5 -26 46 -1 109 -70 200 -206 268
-149 75 -322 103 -504 80 -161 -20 -235 -56 -294 -142 -31 -46 -35 -59 -35
-113 2 -144 113 -241 323 -282 113 -21 311 -28 457 -15 302 28 522 98 736 236
99 64 263 231 317 322 88 150 129 339 111 518 -24 243 -115 383 -310 479 -135
66 -224 87 -405 93 -418 15 -884 -114 -1468 -408 -88 -44 -172 -89 -187 -100
-25 -17 -79 -27 -79 -13 0 5 168 208 690 829 139 165 273 326 299 357 25 31
146 175 267 320 122 145 274 326 339 403 90 106 125 142 148 147 32 6 47 23
47 50 0 18 -140 134 -210 174 -39 22 -85 29 -120 18z m-468 -2999 c132 -34
248 -118 345 -250 44 -59 44 -59 21 -68 -38 -16 -464 -14 -534 2 -118 26 -173
74 -182 159 -8 92 24 144 101 162 55 13 190 11 249 -5z"/>
</g>
</g>
</svg>
