<?xml version="1.0" standalone="no"?>
<!DOCTYPE svg PUBLIC "-//W3C//DTD SVG 20010904//EN"
 "http://www.w3.org/TR/2001/REC-SVG-20010904/DTD/svg10.dtd">
<svg version="1.0" xmlns="http://www.w3.org/2000/svg"
 width="500.000000pt" height="500.000000pt" viewBox="0 0 500.000000 500.000000"
 preserveAspectRatio="xMidYMid meet">
<metadata>
Created by potrace 1.13, written by Peter Selinger 2001-2015
</metadata>
<g transform="translate(0.000000,500.000000) scale(0.100000,-0.100000)"
fill="#000000" stroke="none">
<g>
<path d="M1626 4423 c-12 -12 -6 -31 24 -68 17 -21 40 -70 53 -109 21 -67 22
-87 21 -361 0 -159 -4 -347 -8 -417 l-8 -128 -136 -78 c-76 -43 -247 -141
-382 -217 -280 -158 -304 -173 -349 -219 -38 -40 -38 -66 2 -80 45 -16 211 38
340 111 33 18 60 33 62 33 2 0 30 15 62 34 32 18 87 49 123 68 98 54 159 87
218 120 29 17 55 29 57 27 2 -2 -1 -46 -7 -97 -11 -103 2 -76 -193 -407 -72
-123 -177 -302 -345 -590 -128 -219 -207 -356 -281 -486 l-89 -157 0 -99 c0
-160 39 -271 88 -247 11 5 96 81 188 170 343 327 576 545 580 542 5 -6 -15
-358 -26 -464 -5 -51 -19 -131 -31 -179 -17 -75 -19 -96 -10 -156 14 -87 62
-221 97 -266 36 -48 82 -75 106 -62 48 26 48 26 48 693 l0 626 489 497 c757
771 889 899 936 912 66 18 99 14 127 -16 42 -44 47 -84 38 -275 -27 -545 -43
-1037 -44 -1363 -1 -330 1 -377 17 -434 34 -119 69 -166 161 -213 63 -33 190
-36 291 -9 84 23 243 99 323 152 123 84 372 321 423 404 38 60 11 101 -37 57
-131 -120 -350 -275 -489 -345 -251 -127 -407 -126 -462 1 -28 66 -26 305 7
1195 36 938 36 915 -17 978 -41 48 -95 69 -183 69 -133 0 -155 -15 -493 -344
-160 -156 -471 -462 -689 -679 l-398 -396 0 335 0 335 110 164 c77 114 129
180 170 216 32 28 61 58 65 67 8 22 -16 42 -120 97 -49 26 -108 58 -130 71
l-40 23 12 244 c9 179 18 270 34 338 36 158 37 151 -12 204 -24 26 -86 75
-139 109 -92 61 -140 83 -154 69z m34 -2023 c-5 -80 -9 -204 -9 -276 l-1 -131
-197 -169 c-108 -93 -212 -182 -232 -199 -19 -16 -84 -72 -144 -124 -88 -76
-113 -92 -126 -84 -9 6 -17 17 -19 26 -3 14 181 293 611 929 67 98 122 177
123 175 1 -1 -2 -67 -6 -147z"/>
</g>
</g>
</svg>
