<svg width="100" height="100" viewBox="0 0 100 100" fill="none" xmlns="http://www.w3.org/2000/svg">
<path d="M30.848 21.436C30.848 22.36 30.68 24.712 30.512 27.904C26.9 28.408 23.204 28.828 20.768 28.996C17.828 29.164 15.896 29.164 13.46 29.08L14.552 39.832C19.256 39.16 25.724 38.32 29.84 37.816C29.756 39.832 29.588 41.848 29.42 43.78C24.632 50.836 16.232 61.924 11.444 67.804L18.08 76.96C21.02 73.012 25.136 66.88 28.664 61.588C28.58 68.644 28.496 73.516 28.328 80.068C28.328 81.412 28.244 84.352 28.076 86.284H39.668C39.416 84.352 39.164 81.328 39.08 79.816C38.576 71.92 38.576 64.864 38.576 57.976C38.576 55.792 38.66 53.524 38.744 51.172C45.632 43.612 54.704 35.884 60.92 35.884C64.448 35.884 66.632 37.984 66.632 42.1C66.632 49.744 63.608 62.092 63.608 71.164C63.608 79.312 67.808 83.848 74.108 83.848C80.912 83.848 86.036 81.244 89.9 77.632L88.556 65.788C84.692 69.652 80.744 71.836 77.636 71.836C75.536 71.836 74.444 70.24 74.444 68.056C74.444 59.404 77.216 47.056 77.216 38.32C77.216 31.264 73.1 25.888 64.028 25.888C55.88 25.888 46.22 32.692 39.584 38.488C39.668 37.816 39.668 37.228 39.752 36.64C41.18 34.456 42.86 31.684 44.036 30.172L40.928 26.14C41.516 20.932 42.272 16.648 42.776 14.296L30.512 13.876C30.932 16.48 30.848 19 30.848 21.436Z" fill="black"/>
</svg>
