<?xml version="1.0" standalone="no"?>
<!DOCTYPE svg PUBLIC "-//W3C//DTD SVG 20010904//EN"
 "http://www.w3.org/TR/2001/REC-SVG-20010904/DTD/svg10.dtd">
<svg version="1.0" xmlns="http://www.w3.org/2000/svg"
 width="500.000000pt" height="500.000000pt" viewBox="0 0 500.000000 500.000000"
 preserveAspectRatio="xMidYMid meet">
<metadata>
Created by potrace 1.13, written by Peter Selinger 2001-2015
</metadata>
<g transform="translate(0.000000,500.000000) scale(0.100000,-0.100000)"
fill="#000000" stroke="none">
<g>
<path d="M2815 4271 c-27 -10 -78 -32 -112 -50 -34 -17 -88 -41 -120 -52 -106
-37 -435 -118 -668 -165 -193 -38 -244 -45 -315 -42 -91 4 -115 14 -180 73
-69 63 -97 51 -54 -23 68 -119 164 -236 223 -274 55 -34 90 -36 120 -4 40 43
128 72 616 207 264 72 488 134 498 136 13 4 17 -1 17 -26 0 -24 -21 -59 -95
-154 -1099 -1415 -1268 -1625 -1467 -1827 -91 -93 -114 -110 -196 -150 -103
-50 -100 -43 -82 -158 14 -82 38 -153 59 -169 26 -21 54 -8 219 101 613 402
1095 616 1517 672 149 20 440 14 555 -11 224 -49 385 -172 439 -332 111 -330
-104 -654 -584 -884 -223 -106 -470 -197 -825 -300 -208 -60 -245 -78 -216
-107 11 -11 35 -9 152 13 927 174 1360 352 1587 654 157 209 192 486 90 701
-41 86 -178 216 -284 268 -169 85 -390 119 -699 109 -428 -15 -783 -107 -1355
-352 -99 -43 -193 -84 -208 -92 -16 -8 -31 -12 -34 -10 -2 3 17 29 43 58 25
30 56 65 68 79 12 14 127 147 256 296 129 149 256 295 282 325 595 689 994
1141 1032 1170 26 20 65 42 86 48 45 13 63 32 54 56 -9 21 -329 235 -352 235
-9 -1 -39 -9 -67 -19z"/>
</g>
</g>
</svg>
