<?xml version="1.0" standalone="no"?>
<!DOCTYPE svg PUBLIC "-//W3C//DTD SVG 20010904//EN"
 "http://www.w3.org/TR/2001/REC-SVG-20010904/DTD/svg10.dtd">
<svg version="1.0" xmlns="http://www.w3.org/2000/svg"
 width="500.000000pt" height="500.000000pt" viewBox="0 0 500.000000 500.000000"
 preserveAspectRatio="xMidYMid meet">
<metadata>
Created by potrace 1.13, written by Peter Selinger 2001-2015
</metadata>
<g transform="translate(0.000000,500.000000) scale(0.100000,-0.100000)"
fill="#000000" stroke="none">
<g>
<path d="M1525 4400 c-4 -6 13 -48 37 -93 l43 -82 3 -461 3 -461 -213 -105
c-318 -158 -593 -318 -604 -350 -11 -34 5 -41 80 -33 139 13 198 32 391 125
105 50 222 107 261 126 39 19 74 34 78 34 9 0 7 -74 -3 -146 -9 -58 -27 -90
-313 -538 -166 -262 -329 -516 -360 -566 -58 -91 -96 -132 -172 -183 -50 -34
-54 -44 -55 -129 -1 -85 16 -165 40 -189 34 -34 63 -24 151 54 46 40 108 93
138 117 30 25 57 47 60 50 16 17 156 121 276 205 139 97 139 97 142 69 4 -33
-24 -440 -42 -605 -11 -93 -10 -138 0 -240 15 -142 23 -174 59 -235 29 -50
103 -99 134 -89 37 11 46 59 41 210 -7 192 -4 910 5 1020 l7 90 121 82 c439
293 844 507 1152 607 268 87 578 89 795 5 230 -89 343 -296 327 -599 -8 -146
-35 -249 -96 -375 -77 -155 -175 -268 -375 -429 -67 -53 -311 -216 -393 -262
-55 -30 -71 -50 -53 -68 12 -12 71 11 245 94 238 114 432 243 594 396 104 98
164 178 217 289 58 123 76 212 76 365 0 297 -115 533 -316 654 -251 151 -721
155 -1136 11 -275 -96 -707 -315 -1070 -541 -75 -47 -85 -51 -88 -34 -2 10 1
138 7 284 l10 266 84 112 c171 230 310 364 401 389 101 28 76 94 -63 167 -105
56 -113 56 -246 2 l-118 -49 7 122 c9 166 33 380 57 507 11 58 22 120 26 139
5 31 0 38 -85 122 -68 67 -107 97 -163 124 -78 37 -94 41 -104 25z m30 -2061
c-23 -296 -5 -256 -153 -352 -296 -193 -369 -237 -391 -237 -35 0 -20 28 103
195 62 82 188 252 281 377 93 125 171 226 173 224 2 -2 -4 -95 -13 -207z"/>
</g>
</g>
</svg>
