<svg width="100" height="100" viewBox="0 0 100 100" fill="none" xmlns="http://www.w3.org/2000/svg">
<path d="M48.824 14.632L37.736 13.708C37.568 16.732 36.98 20.008 36.056 23.368C34.712 23.368 33.284 23.368 32.024 23.368C27.74 23.368 21.524 23.032 17.24 22.36V32.188C21.86 32.524 27.992 32.692 31.436 32.692C31.772 32.692 32.108 32.692 32.528 32.692C28.748 40.252 22.784 47.728 13.964 55.876L22.952 62.596C25.808 58.9 28.244 55.876 30.764 53.356C33.956 50.248 39.164 47.56 43.868 47.56C46.22 47.56 48.488 48.316 49.748 50.416C40.172 55.372 30.092 62.092 30.092 72.844C30.092 83.68 39.836 86.872 53.024 86.872C60.92 86.872 71.252 86.2 76.796 85.444L77.132 74.608C69.74 76.036 60.416 76.96 53.276 76.96C45.044 76.96 41.096 75.7 41.096 71.08C41.096 66.88 44.456 63.604 50.756 59.992C50.672 63.688 50.588 67.72 50.336 70.24H60.416C60.332 66.376 60.164 60.16 60.08 55.456C65.204 53.104 69.992 51.256 73.772 49.744C76.628 48.652 81.08 46.972 83.768 46.216L79.568 36.472C76.46 38.068 73.52 39.412 70.244 40.84C66.8 42.352 63.272 43.78 58.904 45.796C57.056 41.512 52.856 39.328 47.732 39.328C44.96 39.328 40.424 40 38.24 41.008C39.92 38.572 41.6 35.548 43.028 32.44C52.1 32.188 62.432 31.516 70.412 30.34L70.496 20.596C63.104 21.856 54.704 22.612 46.724 23.032C47.816 19.504 48.404 16.732 48.824 14.632Z" fill="black"/>
</svg>
