<?xml version="1.0" standalone="no"?>
<!DOCTYPE svg PUBLIC "-//W3C//DTD SVG 20010904//EN"
 "http://www.w3.org/TR/2001/REC-SVG-20010904/DTD/svg10.dtd">
<svg version="1.0" xmlns="http://www.w3.org/2000/svg"
 width="500.000000pt" height="500.000000pt" viewBox="0 0 500.000000 500.000000"
 preserveAspectRatio="xMidYMid meet">
<metadata>
Created by potrace 1.13, written by Peter Selinger 2001-2015
</metadata>
<g transform="translate(0.000000,500.000000) scale(0.100000,-0.100000)"
fill="#000000" stroke="none">
<g>
<path d="M2260 4551 c0 -5 15 -38 33 -72 31 -61 32 -69 32 -179 0 -93 -5 -127
-22 -176 -27 -73 -220 -474 -229 -474 -4 0 -108 -12 -233 -26 -261 -29 -423
-33 -496 -12 -137 41 -145 42 -157 30 -16 -16 131 -160 190 -186 48 -22 67
-21 472 23 91 10 166 17 168 16 3 -3 -143 -250 -213 -360 -120 -190 -259 -385
-419 -590 -72 -92 -76 -99 -76 -148 0 -57 23 -113 56 -134 24 -15 11 -22 191
114 229 174 328 214 538 217 104 1 126 -2 167 -21 90 -42 154 -167 165 -328
l5 -80 -84 -52 c-244 -151 -546 -385 -642 -497 -127 -150 -177 -312 -143 -471
32 -149 107 -253 242 -333 141 -84 319 -126 596 -143 215 -13 921 -6 1024 10
129 20 177 49 159 95 -8 20 -116 76 -205 106 -72 25 -157 23 -266 -6 -150 -39
-703 -67 -903 -44 -125 13 -254 47 -329 84 -72 37 -146 109 -178 174 -25 51
-28 68 -28 157 0 93 2 105 33 167 41 84 151 189 328 315 127 91 310 209 377
244 l37 19 0 -255 0 -256 25 -24 c31 -32 46 -31 86 2 64 54 69 78 69 373 l0
265 148 85 c489 281 910 502 984 515 77 14 74 53 -9 116 -77 58 -182 111 -292
148 -155 52 -176 40 -86 -49 58 -57 68 -86 38 -112 -10 -8 -61 -41 -113 -73
-52 -32 -228 -143 -391 -246 -164 -104 -299 -189 -302 -189 -3 0 -8 17 -12 38
-11 64 -74 177 -129 234 -91 93 -202 132 -376 130 -162 -1 -308 -32 -431 -91
-21 -11 -39 -17 -39 -15 0 3 44 71 98 152 54 81 169 260 255 397 86 138 175
279 199 315 l44 65 125 17 c415 58 1005 167 1045 193 27 17 32 56 9 75 -8 6
-66 38 -130 70 -134 67 -126 68 -286 -5 -123 -56 -260 -97 -457 -135 -86 -17
-167 -33 -180 -36 -19 -4 -23 -1 -18 13 9 30 219 425 244 460 12 17 22 42 22
56 0 40 -142 218 -240 300 -41 34 -90 49 -90 28z"/>
</g>
</g>
</svg>
