<?xml version="1.0" standalone="no"?>
<!DOCTYPE svg PUBLIC "-//W3C//DTD SVG 20010904//EN"
 "http://www.w3.org/TR/2001/REC-SVG-20010904/DTD/svg10.dtd">
<svg version="1.0" xmlns="http://www.w3.org/2000/svg"
 width="500.000000pt" height="500.000000pt" viewBox="0 0 500.000000 500.000000"
 preserveAspectRatio="xMidYMid meet">
<metadata>
Created by potrace 1.13, written by Peter Selinger 2001-2015
</metadata>
<g transform="translate(0.000000,500.000000) scale(0.100000,-0.100000)"
fill="#000000" stroke="none">
<g>
<path d="M2500 4431 c0 -11 9 -35 19 -53 28 -47 35 -99 22 -158 -39 -183 -231
-573 -586 -1190 -84 -146 -192 -335 -240 -420 -279 -489 -649 -1107 -823
-1373 -28 -43 -54 -95 -58 -114 -9 -48 3 -203 22 -283 34 -147 87 -131 144 45
42 133 117 310 175 415 94 170 287 399 625 743 217 221 252 245 293 200 8 -10
45 -135 82 -278 203 -787 208 -805 284 -922 45 -69 132 -153 187 -181 95 -49
254 -82 387 -82 279 1 575 182 765 468 121 182 238 447 350 792 79 241 104
334 96 354 -18 47 -48 3 -132 -194 -208 -485 -390 -787 -582 -961 -198 -180
-361 -259 -531 -259 -184 0 -312 74 -391 227 -43 82 -46 90 -198 661 -66 250
-129 471 -140 492 -41 80 -139 103 -236 55 -50 -25 -250 -220 -439 -427 -83
-92 -105 -111 -105 -89 0 11 240 428 518 901 63 107 139 238 170 290 30 52 96
165 147 250 50 85 145 245 209 355 65 110 140 232 167 272 56 81 60 109 30
194 -58 167 -125 259 -208 284 -19 5 -23 2 -23 -14z"/>
</g>
</g>
</svg>
