<svg width="100" height="100" viewBox="0 0 100 100" fill="none" xmlns="http://www.w3.org/2000/svg">
<path d="M56.468 19.588L44.54 14.8C43.112 18.328 41.516 21.1 40.424 23.368C35.972 31.348 18.752 65.62 12.536 82.42L24.38 86.452C25.64 82 28.58 72.592 30.764 67.72C33.788 60.916 38.492 55.036 44.204 55.036C47.228 55.036 48.908 56.8 49.16 59.74C49.412 63.184 49.328 70.072 49.664 74.524C50 80.656 54.368 86.2 63.692 86.2C76.544 86.2 84.356 76.624 88.724 62.26L79.652 54.868C77.216 65.284 72.764 74.692 65.456 74.692C62.684 74.692 60.332 73.432 59.996 70.156C59.576 66.628 59.828 59.908 59.66 56.128C59.324 49.156 55.544 45.208 49.244 45.208C46.052 45.208 42.692 45.964 39.584 47.728C43.784 40.336 49.664 29.584 53.78 23.536C54.704 22.192 55.628 20.764 56.468 19.588Z" fill="black"/>
</svg>
