<svg width="100" height="100" viewBox="0 0 100 100" fill="none" xmlns="http://www.w3.org/2000/svg">
<path d="M56.048 13.456H43.112C43.616 17.068 43.7 18.748 43.7 21.184C43.7 23.368 43.7 29.584 43.7 33.28H55.46C55.46 30.088 55.46 23.368 55.46 21.184C55.46 18.748 55.544 17.068 56.048 13.456ZM84.272 31.18L77.048 26.728C75.536 27.232 73.52 27.568 70.076 27.568H25.808C22.616 27.568 20.096 27.484 17.24 27.232C17.576 29.164 17.576 32.524 17.576 34.372C17.576 37.564 17.576 46.216 17.576 48.988C17.576 51.256 17.492 53.944 17.24 56.044H28.832C28.58 54.364 28.496 51.676 28.496 49.828C28.496 47.224 28.496 40.42 28.496 37.48H70.16C69.152 44.956 66.968 52.936 62.768 59.152C57.98 65.872 50.588 70.828 43.7 73.432C40.172 74.86 35.636 76.12 31.772 76.792L40.508 86.872C55.46 82.924 68.144 74.02 74.78 61.672C78.98 54.028 81.164 45.88 82.676 37.816C83.012 36.22 83.684 33.028 84.272 31.18Z" fill="black"/>
</svg>
