<svg width="100" height="100" viewBox="0 0 100 100" fill="none" xmlns="http://www.w3.org/2000/svg">
<path d="M19.592 23.368V34.96C21.776 34.708 25.304 34.54 27.572 34.54H73.352C75.788 34.54 78.728 34.708 81.164 34.96V23.368C78.812 23.704 75.872 23.956 73.352 23.956H27.572C25.304 23.956 21.776 23.704 19.592 23.368ZM43.868 75.112H55.544V29.836H43.868V75.112ZM14.216 68.224V80.32C16.988 80.068 20.012 79.984 22.448 79.984H77.888C79.82 79.984 83.348 80.068 85.7 80.32V68.224C83.516 68.476 80.828 68.896 77.888 68.896H22.448C19.928 68.896 16.904 68.644 14.216 68.224Z" fill="black"/>
</svg>
