<svg width="100" height="100" viewBox="0 0 100 100" fill="none" xmlns="http://www.w3.org/2000/svg">
<path d="M72.512 14.8L65.876 17.488C68.144 20.764 70.748 25.72 72.512 29.164L79.232 26.308C77.636 23.2 74.612 17.908 72.512 14.8ZM82.508 11.02L75.872 13.708C78.14 16.9 80.828 21.772 82.592 25.3L89.228 22.444C87.8 19.504 84.692 14.128 82.508 11.02ZM51.008 15.556H38.576C38.912 17.572 39.248 21.352 39.248 23.284C39.164 45.376 35.3 59.656 24.296 70.576C20.936 74.02 16.736 76.876 13.208 78.808L23.036 86.704C41.6 73.432 49.496 56.464 50.42 23.032C50.504 21.016 50.756 17.488 51.008 15.556ZM79.484 33.532L72.26 30.004C70.244 30.34 68.06 30.592 65.876 30.592H26.984C23.792 30.592 19.508 30.34 15.98 30.004V41.008C19.508 40.672 24.212 40.672 27.068 40.672H68.06C68.06 49.744 66.884 66.544 64.448 71.836C63.608 73.852 62.432 74.776 59.744 74.776C56.384 74.776 52.1 74.356 47.9 73.6L49.244 84.856C53.36 85.192 58.316 85.528 63.188 85.528C68.9 85.528 72.176 83.344 73.94 79.06C77.552 70.492 78.644 47.056 78.98 37.984C78.98 37.06 79.232 34.876 79.484 33.532Z" fill="black"/>
</svg>
