<svg width="200" height="100" viewBox="0 0 200 100" fill="none" xmlns="http://www.w3.org/2000/svg">
<path d="M46.576 27.024C47.92 33.828 56.068 76.164 57.328 83.724C57.916 86.244 58.084 89.1 58.504 92.208L70.6 90.108C69.844 87.336 69.088 84.312 68.5 81.876C66.736 73.308 58.42 30.804 57.58 25.26C57.244 23.244 56.908 20.388 56.74 18.792L44.812 20.724C45.484 22.656 46.072 24.672 46.576 27.024ZM23.644 37.776L25.912 49.368C28.768 48.612 30.952 48.108 33.556 47.604C39.856 46.512 68.752 41.892 77.656 40.464C80.176 40.128 83.62 39.624 85.468 39.54L83.368 28.452C81.352 29.04 78.16 29.796 75.556 30.216C67.996 31.728 38.596 36.264 31.456 37.104C28.768 37.44 26.248 37.608 23.644 37.776ZM23.728 62.388L26.08 73.644C27.928 73.14 30.868 72.636 34.48 71.964C42.796 70.368 73.036 65.412 83.704 63.816C86.812 63.312 90.256 62.724 92.524 62.556L90.34 51.468C88.072 52.056 84.964 52.812 81.688 53.4C72.028 55.248 41.368 60.204 32.38 61.464C29.776 61.884 25.912 62.304 23.728 62.388ZM117.808 39.624V49.704C119.908 49.62 125.116 49.452 128.224 49.452C135.028 49.452 152.752 49.452 156.028 49.452C156.028 52.224 156.028 78.516 156.028 87.084C156.028 88.764 156.028 91.956 155.944 93.3H166.444C166.444 91.872 166.36 88.932 166.36 87.588C166.36 80.952 166.36 48.864 166.36 45.504C166.36 43.74 166.36 40.968 166.444 39.792C165.1 39.876 161.992 39.96 160.06 39.96C153.088 39.96 135.112 39.96 128.224 39.96C125.116 39.96 119.992 39.792 117.808 39.624ZM119.992 59.28V69.276C122.008 69.108 126.04 69.108 129.232 69.108C133.348 69.108 158.548 69.108 160.9 69.108V59.532C158.632 59.532 133.348 59.532 129.232 59.532C126.04 59.532 122.176 59.448 119.992 59.28ZM116.968 79.86V90.192C118.312 90.192 121.756 90.024 124.192 90.024C129.4 90.024 156.364 90.024 160.984 90.024V80.196C157.372 80.196 129.4 80.196 124.192 80.196C121.168 80.196 118.312 80.028 116.968 79.86Z" fill="black"/>
</svg>
