<svg width="100" height="100" viewBox="0 0 100 100" fill="none" xmlns="http://www.w3.org/2000/svg">
<path d="M71.924 12.868L65.288 15.556C67.556 18.832 70.076 23.788 71.84 27.232L78.56 24.376C76.964 21.268 74.024 15.892 71.924 12.868ZM81.836 9.088L75.2 11.776C77.468 14.968 80.24 19.84 81.92 23.368L88.64 20.512C87.128 17.572 84.02 12.196 81.836 9.088ZM37.316 23.536C38.66 30.34 46.808 72.676 48.068 80.236C48.656 82.756 48.824 85.612 49.244 88.72L61.34 86.62C60.584 83.848 59.828 80.824 59.24 78.388C57.476 69.82 49.16 27.316 48.32 21.772C47.984 19.756 47.648 16.9 47.48 15.304L35.552 17.152C36.224 19.168 36.812 21.184 37.316 23.536ZM14.384 34.288L16.652 45.796C19.508 45.124 21.692 44.62 24.296 44.116C30.596 43.024 59.492 38.404 68.396 36.976C70.916 36.64 74.36 36.136 76.208 35.968L74.108 24.964C72.092 25.552 68.9 26.224 66.296 26.728C58.736 28.24 29.336 32.776 22.196 33.616C19.508 33.952 16.988 34.12 14.384 34.288ZM14.468 58.9L16.82 70.156C18.752 69.652 21.608 69.064 25.22 68.476C33.536 66.88 63.776 61.924 74.444 60.328C77.552 59.824 80.996 59.152 83.264 58.984L81.08 47.896C78.812 48.568 75.704 49.24 72.428 49.912C62.768 51.76 32.108 56.716 23.12 57.976C20.516 58.396 16.652 58.816 14.468 58.9Z" fill="black"/>
</svg>
