<svg width="200" height="100" viewBox="0 0 200 100" fill="none" xmlns="http://www.w3.org/2000/svg">
<path d="M79.924 17.868L73.288 20.556C75.556 23.832 78.076 28.788 79.84 32.232L86.56 29.376C84.964 26.268 82.024 20.892 79.924 17.868ZM89.836 14.088L83.2 16.776C85.468 19.968 88.24 24.84 89.92 28.368L96.64 25.512C95.128 22.572 92.02 17.196 89.836 14.088ZM45.316 28.536C46.66 35.34 54.808 77.676 56.068 85.236C56.656 87.756 56.824 90.612 57.244 93.72L69.34 91.62C68.584 88.848 67.828 85.824 67.24 83.388C65.476 74.82 57.16 32.316 56.32 26.772C55.984 24.756 55.648 21.9 55.48 20.304L43.552 22.152C44.224 24.168 44.812 26.184 45.316 28.536ZM22.384 39.288L24.652 50.796C27.508 50.124 29.692 49.62 32.296 49.116C38.596 48.024 67.492 43.404 76.396 41.976C78.916 41.64 82.36 41.136 84.208 40.968L82.108 29.964C80.092 30.552 76.9 31.224 74.296 31.728C66.736 33.24 37.336 37.776 30.196 38.616C27.508 38.952 24.988 39.12 22.384 39.288ZM22.468 63.9L24.82 75.156C26.752 74.652 29.608 74.064 33.22 73.476C41.536 71.88 71.776 66.924 82.444 65.328C85.552 64.824 88.996 64.152 91.264 63.984L89.08 52.896C86.812 53.568 83.704 54.24 80.428 54.912C70.768 56.76 40.108 61.716 31.12 62.976C28.516 63.396 24.652 63.816 22.468 63.9ZM133.6 33.66L122.26 36.348C123.184 38.112 124.108 40.212 124.696 42.312C127.384 51.048 135.028 81.036 137.128 88.344C137.8 90.696 138.304 93.468 138.64 95.736L149.98 92.88C149.392 91.2 148.216 87.504 147.796 85.992C145.696 79.02 137.8 50.124 134.944 40.044C134.44 37.86 133.852 35.676 133.6 33.66ZM173.92 46.68L167.116 41.892C166.024 42.396 164.344 42.9 162.916 43.236C156.952 44.58 123.352 50.964 118.816 51.636C116.044 52.14 113.692 52.392 111.088 52.644L113.692 62.64C120.58 61.128 154.768 53.988 159.136 53.232C156.868 57.348 151.072 64.404 146.704 68.268L156.028 72.888C161.908 66.672 170.308 53.988 173.92 46.68Z" fill="black"/>
</svg>
