<svg width="100" height="100" viewBox="0 0 100 100" fill="none" xmlns="http://www.w3.org/2000/svg">
<path d="M83.516 29.836L74.864 24.46C73.016 25.132 70.16 25.468 67.556 25.468C64.952 25.468 47.312 25.468 43.616 25.468L39.752 35.044H68.06C66.716 41.26 61.844 51.34 56.132 57.892C48.74 66.208 39.416 73.516 22.28 78.724L32.192 87.544C47.984 81.328 58.064 73.6 66.044 63.856C73.688 54.532 78.476 43.36 80.744 35.8C81.416 33.7 82.592 31.432 83.516 29.836ZM56.132 16.48L43.784 12.448C43.028 15.388 41.264 19.252 40.004 21.268C35.888 28.492 28.496 39.328 13.796 48.316L23.204 55.288C35.3 47.056 45.296 35.212 51.008 25.048C51.932 23.284 54.116 19.42 56.132 16.48Z" fill="black"/>
</svg>
