<svg width="200" height="100" viewBox="0 0 200 100" fill="none" xmlns="http://www.w3.org/2000/svg">
<path d="M41.872 20.556L35.824 29.796C41.368 32.904 50.104 38.532 54.808 41.808L61.024 32.568C56.656 29.46 47.416 23.58 41.872 20.556ZM26.332 80.196L32.632 91.2C40.024 89.856 52.12 85.656 60.688 80.868C74.38 72.888 86.308 62.304 94.036 50.628L87.568 39.204C80.932 51.216 69.172 62.724 54.892 70.704C45.736 75.744 35.74 78.6 26.332 80.196ZM28.936 39.708L22.888 48.948C28.516 51.972 37.252 57.6 41.956 60.96L48.172 51.552C43.804 48.444 34.564 42.732 28.936 39.708ZM133.6 33.66L122.26 36.348C123.184 38.112 124.108 40.212 124.696 42.312C127.384 51.048 135.028 81.036 137.128 88.344C137.8 90.696 138.304 93.468 138.64 95.736L149.98 92.88C149.392 91.2 148.216 87.504 147.796 85.992C145.696 79.02 137.8 50.124 134.944 40.044C134.44 37.86 133.852 35.676 133.6 33.66ZM173.92 46.68L167.116 41.892C166.024 42.396 164.344 42.9 162.916 43.236C156.952 44.58 123.352 50.964 118.816 51.636C116.044 52.14 113.692 52.392 111.088 52.644L113.692 62.64C120.58 61.128 154.768 53.988 159.136 53.232C156.868 57.348 151.072 64.404 146.704 68.268L156.028 72.888C161.908 66.672 170.308 53.988 173.92 46.68Z" fill="black"/>
</svg>
