<svg width="100" height="100" viewBox="0 0 100 100" fill="none" xmlns="http://www.w3.org/2000/svg">
<path d="M69.236 17.572L62.18 20.428C65.288 24.796 67.136 28.408 69.656 33.7L76.88 30.508C75.032 26.644 71.588 21.1 69.236 17.572ZM80.828 13.456L73.688 16.48C76.796 20.68 78.812 23.956 81.5 29.248L88.724 26.056C86.708 22.36 83.432 16.816 80.828 13.456ZM32.78 15.892L26.648 25.132C32.192 28.24 41.012 33.952 45.632 37.228L51.932 27.904C47.564 24.88 38.324 18.916 32.78 15.892ZM17.24 75.532L23.54 86.62C30.932 85.276 43.028 81.076 51.512 76.204C65.288 68.308 77.132 57.64 84.944 46.048L78.476 34.624C71.756 46.636 60.08 58.144 45.8 66.124C36.644 71.164 26.564 73.936 17.24 75.532ZM19.844 35.044L13.712 44.368C19.424 47.308 28.076 53.02 32.864 56.296L38.996 46.888C34.712 43.864 25.472 38.068 19.844 35.044Z" fill="black"/>
</svg>
