<svg width="200" height="100" viewBox="0 0 200 100" fill="none" xmlns="http://www.w3.org/2000/svg">
<path d="M80.1891 22.572L73.1331 25.428C76.2411 29.796 78.0891 33.408 80.6091 38.7L87.8331 35.508C85.9851 31.644 82.5411 26.1 80.1891 22.572ZM91.7811 18.456L84.6411 21.48C87.7491 25.68 89.7651 28.956 92.4531 34.248L99.6771 31.056C97.6611 27.36 94.3851 21.816 91.7811 18.456ZM43.7331 20.892L37.6011 30.132C43.1451 33.24 51.9651 38.952 56.5851 42.228L62.8851 32.904C58.5171 29.88 49.2771 23.916 43.7331 20.892ZM28.1931 80.532L34.4931 91.62C41.8851 90.276 53.9811 86.076 62.4651 81.204C76.2411 73.308 88.0851 62.64 95.8971 51.048L89.4291 39.624C82.7091 51.636 71.0331 63.144 56.7531 71.124C47.5971 76.164 37.5171 78.936 28.1931 80.532ZM30.7971 40.044L24.6651 49.368C30.3771 52.308 39.0291 58.02 43.8171 61.296L49.9491 51.888C45.6651 48.864 36.4251 43.068 30.7971 40.044ZM160.719 47.016L152.655 43.068C151.563 43.656 148.119 43.992 146.439 43.992C142.407 43.992 129.135 43.992 124.851 43.992C122.667 43.992 118.803 43.74 116.535 43.404V54.492C118.971 54.324 122.331 54.156 124.935 54.156C127.371 54.156 143.667 54.156 147.699 54.156C147.279 59.784 144.759 75.996 143.667 81.54H155.259C156.267 75.492 159.123 56.424 159.963 50.544C160.047 49.62 160.383 48.108 160.719 47.016ZM108.891 77.424V88.428C111.999 88.26 114.183 88.176 117.123 88.176C121.407 88.176 157.023 88.176 161.391 88.176C163.575 88.176 167.691 88.26 169.455 88.344V77.508C167.271 77.76 163.323 77.928 161.223 77.928C157.107 77.928 122.163 77.928 117.123 77.928C114.267 77.928 111.075 77.676 108.891 77.424Z" fill="black"/>
</svg>
