<svg width="200" height="100" viewBox="0 0 200 100" fill="none" xmlns="http://www.w3.org/2000/svg">
<path d="M77.236 22.572L70.18 25.428C73.288 29.796 75.136 33.408 77.656 38.7L84.88 35.508C83.032 31.644 79.588 26.1 77.236 22.572ZM88.828 18.456L81.688 21.48C84.796 25.68 86.812 28.956 89.5 34.248L96.724 31.056C94.708 27.36 91.432 21.816 88.828 18.456ZM40.78 20.892L34.648 30.132C40.192 33.24 49.012 38.952 53.632 42.228L59.932 32.904C55.564 29.88 46.324 23.916 40.78 20.892ZM25.24 80.532L31.54 91.62C38.932 90.276 51.028 86.076 59.512 81.204C73.288 73.308 85.132 62.64 92.944 51.048L86.476 39.624C79.756 51.636 68.08 63.144 53.8 71.124C44.644 76.164 34.564 78.936 25.24 80.532ZM27.844 40.044L21.712 49.368C27.424 52.308 36.076 58.02 40.864 61.296L46.996 51.888C42.712 48.864 33.472 43.068 27.844 40.044ZM117.808 39.624V49.704C119.908 49.62 125.116 49.452 128.224 49.452C135.028 49.452 152.752 49.452 156.028 49.452C156.028 52.224 156.028 78.516 156.028 87.084C156.028 88.764 156.028 91.956 155.944 93.3H166.444C166.444 91.872 166.36 88.932 166.36 87.588C166.36 80.952 166.36 48.864 166.36 45.504C166.36 43.74 166.36 40.968 166.444 39.792C165.1 39.876 161.992 39.96 160.06 39.96C153.088 39.96 135.112 39.96 128.224 39.96C125.116 39.96 119.992 39.792 117.808 39.624ZM119.992 59.28V69.276C122.008 69.108 126.04 69.108 129.232 69.108C133.348 69.108 158.548 69.108 160.9 69.108V59.532C158.632 59.532 133.348 59.532 129.232 59.532C126.04 59.532 122.176 59.448 119.992 59.28ZM116.968 79.86V90.192C118.312 90.192 121.756 90.024 124.192 90.024C129.4 90.024 156.364 90.024 160.984 90.024V80.196C157.372 80.196 129.4 80.196 124.192 80.196C121.168 80.196 118.312 80.028 116.968 79.86Z" fill="black"/>
</svg>
