<svg width="100" height="100" viewBox="0 0 100 100" fill="none" xmlns="http://www.w3.org/2000/svg">
<path d="M31.688 70.828C31.688 80.824 34.46 85.36 53.528 85.36C62.6 85.36 72.68 84.604 79.568 83.596L79.988 72.172C71.672 73.852 62.264 74.944 53.444 74.944C44.288 74.944 42.776 73.18 42.776 67.888C42.776 58.564 42.776 35.464 42.776 25.384C42.776 22.528 43.112 18.244 43.532 15.724H31.016C31.436 18.244 31.688 22.528 31.688 25.384C31.688 35.548 31.688 63.94 31.688 70.828ZM84.524 33.952L76.46 27.652C74.948 28.492 72.848 29.08 70.496 29.668C62.852 31.516 23.372 39.244 11.948 40.588L13.964 51.592C24.632 49.24 63.44 41.512 68.564 40.504C66.212 44.872 60.752 52.6 55.208 57.556L64.448 63.016C70.496 57.052 78.14 45.544 81.836 38.488C82.592 37.06 83.768 35.128 84.524 33.952Z" fill="black"/>
</svg>
