<svg width="100" height="100" viewBox="0 0 100 100" fill="none" xmlns="http://www.w3.org/2000/svg">
<path d="M28.412 77.128L38.492 85.78C51.764 79.312 61.088 70.072 67.64 59.992C73.772 50.584 77.132 40.336 79.316 30.508C79.82 28.072 80.828 23.872 81.752 20.68L68.144 18.832C68.228 20.848 67.892 25.132 67.136 28.912C65.792 35.884 63.44 45.292 57.14 54.28C51.092 63.1 42.02 71.5 28.412 77.128ZM26.732 19.168L15.896 24.712C19.76 30.172 25.976 41.092 30.176 50.08L41.18 43.864C38.072 37.984 30.848 25.132 26.732 19.168Z" fill="black"/>
</svg>
