<svg width="100" height="100" viewBox="0 0 100 100" fill="none" xmlns="http://www.w3.org/2000/svg">
<path d="M27.068 79.312L37.064 87.964C64.868 73.6 72.848 52.684 76.88 36.388C77.384 34.792 78.392 30.592 79.4 27.484L66.128 24.964C66.128 26.98 65.708 30.928 64.784 34.876C62.264 46.384 55.712 67.132 27.068 79.312ZM25.304 21.352L14.468 26.896C18.416 32.356 24.548 43.276 28.748 52.264L39.836 46.048C36.728 40.168 29.42 27.316 25.304 21.352ZM71.336 11.86L64.448 14.716C66.632 17.908 69.32 22.528 70.916 26.14L77.972 23.2C76.376 20.092 73.436 14.968 71.336 11.86ZM82.676 9.172L75.704 12.028C78.056 15.136 80.66 19.84 82.424 23.284L89.48 20.344C87.8 17.32 84.86 12.28 82.676 9.172Z" fill="black"/>
</svg>
