<svg width="100" height="100" viewBox="0 0 100 100" fill="none" xmlns="http://www.w3.org/2000/svg">
<path d="M73.436 13.036L66.716 15.808C68.984 19 71.588 24.04 73.352 27.4L80.072 24.544C78.476 21.436 75.536 16.144 73.436 13.036ZM83.348 9.256L76.712 11.944C78.98 15.136 81.668 20.008 83.432 23.536L90.152 20.68C88.64 17.74 85.532 12.364 83.348 9.256ZM41.936 44.704L34.544 52.348C44.372 58.564 60.248 70.24 67.64 77.128L75.62 67.636C67.892 61.42 52.268 50.668 41.936 44.704ZM81.5 30.424L72.932 25.132C71.084 25.72 68.228 26.14 65.624 26.14H41.768L37.82 35.632H66.296C64.7 42.184 59.492 51.76 53.78 58.48C46.64 66.88 36.56 75.7 19.004 81.16L28.748 89.56C44.792 83.512 55.628 74.104 63.524 64.276C71 54.952 76.124 44.2 78.728 36.472C79.484 34.372 80.576 32.02 81.5 30.424ZM53.696 17.488L41.6 13.708C40.844 16.564 38.996 20.428 37.736 22.528C33.536 29.752 25.724 41.344 11.024 50.416L20.096 57.388C32.108 49.072 42.86 36.22 48.572 26.056C49.58 24.292 51.68 20.428 53.696 17.488Z" fill="black"/>
</svg>
