<svg width="100" height="100" viewBox="0 0 100 100" fill="none" xmlns="http://www.w3.org/2000/svg">
<path d="M24.884 17.656V28.492C27.404 28.324 31.016 28.156 33.872 28.156C39.164 28.156 62.684 28.156 67.64 28.156C70.496 28.156 73.772 28.324 76.628 28.492V17.656C73.772 17.992 70.412 18.244 67.64 18.244C62.684 18.244 39.164 18.244 33.872 18.244C31.016 18.244 27.572 17.992 24.884 17.656ZM15.056 39.076V50.08C17.408 49.912 20.684 49.828 23.12 49.828C28.412 49.828 73.184 49.828 78.14 49.828C80.492 49.828 83.684 49.912 85.868 49.996V39.076C83.6 39.496 79.904 39.58 78.14 39.58C73.184 39.58 28.412 39.58 23.12 39.58C20.516 39.58 17.576 39.412 15.056 39.076ZM58.064 44.956L46.388 45.04C46.388 54.028 45.212 61.924 41.012 68.308C37.736 73.264 31.772 78.052 25.808 80.404L35.72 87.544C43.112 83.68 49.664 77.212 52.52 71.332C56.132 64.36 58.064 55.96 58.064 44.956Z" fill="black"/>
</svg>
