<svg width="200" height="100" viewBox="0 0 200 100" fill="none" xmlns="http://www.w3.org/2000/svg">
<path d="M30.196 29.964V42.144C33.052 42.06 36.916 41.892 40.108 41.892C44.812 41.892 70.432 41.892 74.884 41.892C77.824 41.892 81.772 42.06 84.208 42.144V29.964C81.772 30.3 78.244 30.468 74.884 30.468C70.264 30.468 47.164 30.468 40.108 30.468C37.168 30.468 33.304 30.3 30.196 29.964ZM23.14 71.124V83.976C26.332 83.64 30.364 83.388 33.724 83.388C39.016 83.388 76.648 83.388 81.94 83.388C84.376 83.388 88.156 83.64 91.18 83.976V71.124C88.324 71.376 84.712 71.628 81.94 71.628C76.648 71.628 39.016 71.628 33.724 71.628C30.364 71.628 26.416 71.292 23.14 71.124ZM133.6 33.66L122.26 36.348C123.184 38.112 124.108 40.212 124.696 42.312C127.384 51.048 135.028 81.036 137.128 88.344C137.8 90.696 138.304 93.468 138.64 95.736L149.98 92.88C149.392 91.2 148.216 87.504 147.796 85.992C145.696 79.02 137.8 50.124 134.944 40.044C134.44 37.86 133.852 35.676 133.6 33.66ZM173.92 46.68L167.116 41.892C166.024 42.396 164.344 42.9 162.916 43.236C156.952 44.58 123.352 50.964 118.816 51.636C116.044 52.14 113.692 52.392 111.088 52.644L113.692 62.64C120.58 61.128 154.768 53.988 159.136 53.232C156.868 57.348 151.072 64.404 146.704 68.268L156.028 72.888C161.908 66.672 170.308 53.988 173.92 46.68Z" fill="black"/>
</svg>
