<svg width="100" height="100" viewBox="0 0 100 100" fill="none" xmlns="http://www.w3.org/2000/svg">
<path d="M79.4 26.056L71.42 20.008C69.74 20.764 67.304 21.268 65.12 21.268C61.172 21.268 40.928 21.268 33.2 21.268C29.504 21.268 24.8 21.016 22.364 20.764V32.104C24.8 31.936 29.84 31.768 33.2 31.768C40.928 31.768 59.576 31.768 63.86 31.768C62.096 38.824 57.644 48.484 51.26 56.044C43.532 65.284 31.688 73.432 16.484 78.136L25.808 87.628C38.408 83.008 51.68 74.104 60.416 63.1C67.052 54.784 72.176 44.872 76.796 31.6C77.552 29.416 78.56 27.4 79.4 26.056ZM32.78 39.328L25.892 47.644C39.668 55.204 60.668 70.408 71.504 80.824L79.4 71.5C68.228 61.588 47.816 47.308 32.78 39.328Z" fill="black"/>
</svg>
