<svg width="100" height="100" viewBox="0 0 100 100" fill="none" xmlns="http://www.w3.org/2000/svg">
<path d="M75.284 21.604C75.284 18.916 77.468 16.732 80.156 16.732C82.76 16.732 84.944 18.916 84.944 21.604C84.944 24.292 82.76 26.476 80.156 26.476C77.468 26.476 75.284 24.292 75.284 21.604ZM70.076 21.604C70.076 27.148 74.612 31.684 80.156 31.684C85.616 31.684 90.152 27.148 90.152 21.604C90.152 16.06 85.616 11.524 80.156 11.524C74.612 11.524 70.076 16.06 70.076 21.604ZM24.128 55.876C21.188 63.352 16.232 72.34 11.024 79.228L22.784 84.184C27.152 77.884 32.108 68.308 35.132 60.16C38.072 52.348 41.096 40.84 42.272 34.96C42.608 33.028 43.616 28.912 44.288 26.56L32.108 23.956C31.016 34.708 27.824 46.552 24.128 55.876ZM65.54 54.196C68.9 63.268 72.008 73.852 74.276 83.764L86.708 79.732C84.44 71.416 79.988 58.06 76.964 50.416C73.772 42.352 68.06 29.416 64.532 22.948L53.36 26.56C56.972 32.944 62.348 45.376 65.54 54.196Z" fill="black"/>
</svg>
