<svg width="100" height="100" viewBox="0 0 100 100" fill="none" xmlns="http://www.w3.org/2000/svg">
<path d="M36.98 15.892H24.632C24.968 17.908 25.22 22.108 25.22 24.628C25.22 29.836 25.22 60.664 25.22 70.324C25.22 77.632 29.504 81.58 36.728 82.924C40.34 83.512 45.464 83.848 50.924 83.848C60.164 83.848 72.848 83.344 80.828 82.168V69.904C73.94 71.752 60.332 72.844 51.596 72.844C47.816 72.844 44.372 72.676 41.852 72.256C38.072 71.584 36.392 70.66 36.392 66.964C36.392 60.664 36.392 29.752 36.392 24.628C36.392 22.192 36.644 18.412 36.98 15.892ZM31.52 41.68V52.684C42.944 49.996 59.744 44.956 69.656 41.092C72.428 40.084 76.208 38.488 79.484 37.144L74.948 26.476C71.588 28.492 68.816 29.836 65.792 31.012C57.056 34.708 42.272 39.328 31.52 41.68Z" fill="black"/>
</svg>
