<svg width="200" height="100" viewBox="0 0 200 100" fill="none" xmlns="http://www.w3.org/2000/svg">
<path d="M44.98 20.892H32.632C32.968 22.908 33.22 27.108 33.22 29.628C33.22 34.836 33.22 65.664 33.22 75.324C33.22 82.632 37.504 86.58 44.728 87.924C48.34 88.512 53.464 88.848 58.924 88.848C68.164 88.848 80.848 88.344 88.828 87.168V74.904C81.94 76.752 68.332 77.844 59.596 77.844C55.816 77.844 52.372 77.676 49.852 77.256C46.072 76.584 44.392 75.66 44.392 71.964C44.392 65.664 44.392 34.752 44.392 29.628C44.392 27.192 44.644 23.412 44.98 20.892ZM39.52 46.68V57.684C50.944 54.996 67.744 49.956 77.656 46.092C80.428 45.084 84.208 43.488 87.484 42.144L82.948 31.476C79.588 33.492 76.816 34.836 73.792 36.012C65.056 39.708 50.272 44.328 39.52 46.68ZM163.672 47.016L155.608 43.068C154.516 43.656 151.072 43.992 149.392 43.992C145.36 43.992 132.088 43.992 127.804 43.992C125.62 43.992 121.756 43.74 119.488 43.404V54.492C121.924 54.324 125.284 54.156 127.888 54.156C130.324 54.156 146.62 54.156 150.652 54.156C150.232 59.784 147.712 75.996 146.62 81.54H158.212C159.22 75.492 162.076 56.424 162.916 50.544C163 49.62 163.336 48.108 163.672 47.016ZM111.844 77.424V88.428C114.952 88.26 117.136 88.176 120.076 88.176C124.36 88.176 159.976 88.176 164.344 88.176C166.528 88.176 170.644 88.26 172.408 88.344V77.508C170.224 77.76 166.276 77.928 164.176 77.928C160.06 77.928 125.116 77.928 120.076 77.928C117.22 77.928 114.028 77.676 111.844 77.424Z" fill="black"/>
</svg>
