<svg width="200" height="100" viewBox="0 0 200 100" fill="none" xmlns="http://www.w3.org/2000/svg">
<path d="M44.98 20.892H32.632C32.968 22.908 33.22 27.108 33.22 29.628C33.22 34.836 33.22 65.664 33.22 75.324C33.22 82.632 37.504 86.58 44.728 87.924C48.34 88.512 53.464 88.848 58.924 88.848C68.164 88.848 80.848 88.344 88.828 87.168V74.904C81.94 76.752 68.332 77.844 59.596 77.844C55.816 77.844 52.372 77.676 49.852 77.256C46.072 76.584 44.392 75.66 44.392 71.964C44.392 65.664 44.392 34.752 44.392 29.628C44.392 27.192 44.644 23.412 44.98 20.892ZM39.52 46.68V57.684C50.944 54.996 67.744 49.956 77.656 46.092C80.428 45.084 84.208 43.488 87.484 42.144L82.948 31.476C79.588 33.492 76.816 34.836 73.792 36.012C65.056 39.708 50.272 44.328 39.52 46.68ZM133.6 33.66L122.26 36.348C123.184 38.112 124.108 40.212 124.696 42.312C127.384 51.048 135.028 81.036 137.128 88.344C137.8 90.696 138.304 93.468 138.64 95.736L149.98 92.88C149.392 91.2 148.216 87.504 147.796 85.992C145.696 79.02 137.8 50.124 134.944 40.044C134.44 37.86 133.852 35.676 133.6 33.66ZM173.92 46.68L167.116 41.892C166.024 42.396 164.344 42.9 162.916 43.236C156.952 44.58 123.352 50.964 118.816 51.636C116.044 52.14 113.692 52.392 111.088 52.644L113.692 62.64C120.58 61.128 154.768 53.988 159.136 53.232C156.868 57.348 151.072 64.404 146.704 68.268L156.028 72.888C161.908 66.672 170.308 53.988 173.92 46.68Z" fill="black"/>
</svg>
