<svg width="200" height="100" viewBox="0 0 200 100" fill="none" xmlns="http://www.w3.org/2000/svg">
<path d="M44.98 20.892H32.632C32.968 22.908 33.22 27.108 33.22 29.628C33.22 34.836 33.22 65.664 33.22 75.324C33.22 82.632 37.504 86.58 44.728 87.924C48.34 88.512 53.464 88.848 58.924 88.848C68.164 88.848 80.848 88.344 88.828 87.168V74.904C81.94 76.752 68.332 77.844 59.596 77.844C55.816 77.844 52.372 77.676 49.852 77.256C46.072 76.584 44.392 75.66 44.392 71.964C44.392 65.664 44.392 34.752 44.392 29.628C44.392 27.192 44.644 23.412 44.98 20.892ZM39.52 46.68V57.684C50.944 54.996 67.744 49.956 77.656 46.092C80.428 45.084 84.208 43.488 87.484 42.144L82.948 31.476C79.588 33.492 76.816 34.836 73.792 36.012C65.056 39.708 50.272 44.328 39.52 46.68ZM117.808 39.624V49.704C119.908 49.62 125.116 49.452 128.224 49.452C135.028 49.452 152.752 49.452 156.028 49.452C156.028 52.224 156.028 78.516 156.028 87.084C156.028 88.764 156.028 91.956 155.944 93.3H166.444C166.444 91.872 166.36 88.932 166.36 87.588C166.36 80.952 166.36 48.864 166.36 45.504C166.36 43.74 166.36 40.968 166.444 39.792C165.1 39.876 161.992 39.96 160.06 39.96C153.088 39.96 135.112 39.96 128.224 39.96C125.116 39.96 119.992 39.792 117.808 39.624ZM119.992 59.28V69.276C122.008 69.108 126.04 69.108 129.232 69.108C133.348 69.108 158.548 69.108 160.9 69.108V59.532C158.632 59.532 133.348 59.532 129.232 59.532C126.04 59.532 122.176 59.448 119.992 59.28ZM116.968 79.86V90.192C118.312 90.192 121.756 90.024 124.192 90.024C129.4 90.024 156.364 90.024 160.984 90.024V80.196C157.372 80.196 129.4 80.196 124.192 80.196C121.168 80.196 118.312 80.028 116.968 79.86Z" fill="black"/>
</svg>
