<svg width="200" height="100" viewBox="0 0 200 100" fill="none" xmlns="http://www.w3.org/2000/svg">
<path d="M77.992 18.96L71.356 21.732C73.624 25.008 76.144 29.964 77.908 33.408L84.628 30.468C83.032 27.36 80.092 22.068 77.992 18.96ZM87.904 15.18L81.268 17.952C83.536 21.144 86.308 26.016 87.988 29.544L94.708 26.604C93.196 23.664 90.088 18.372 87.904 15.18ZM41.704 22.656H29.356C29.692 25.176 29.944 29.46 29.944 31.392C29.944 36.6 29.944 67.428 29.944 77.088C29.944 84.396 34.228 88.344 41.452 89.688C45.064 90.276 50.188 90.612 55.648 90.612C64.888 90.612 77.572 90.108 85.552 88.932V76.668C78.58 78.516 65.056 79.524 56.236 79.524C52.54 79.524 49.096 79.44 46.576 79.02C42.796 78.348 41.116 77.424 41.116 73.728C41.116 67.428 41.116 36.516 41.116 31.392C41.116 28.956 41.368 25.176 41.704 22.656ZM36.16 48.444L36.244 59.448C47.668 56.76 64.132 51.804 74.044 48.024C76.816 46.932 80.596 45.336 83.788 43.992L79.336 33.408C75.976 35.34 73.12 36.684 70.18 37.944C61.36 41.556 46.996 46.092 36.16 48.444ZM163.672 47.016L155.608 43.068C154.516 43.656 151.072 43.992 149.392 43.992C145.36 43.992 132.088 43.992 127.804 43.992C125.62 43.992 121.756 43.74 119.488 43.404V54.492C121.924 54.324 125.284 54.156 127.888 54.156C130.324 54.156 146.62 54.156 150.652 54.156C150.232 59.784 147.712 75.996 146.62 81.54H158.212C159.22 75.492 162.076 56.424 162.916 50.544C163 49.62 163.336 48.108 163.672 47.016ZM111.844 77.424V88.428C114.952 88.26 117.136 88.176 120.076 88.176C124.36 88.176 159.976 88.176 164.344 88.176C166.528 88.176 170.644 88.26 172.408 88.344V77.508C170.224 77.76 166.276 77.928 164.176 77.928C160.06 77.928 125.116 77.928 120.076 77.928C117.22 77.928 114.028 77.676 111.844 77.424Z" fill="black"/>
</svg>
