<svg width="100" height="100" viewBox="0 0 100 100" fill="none" xmlns="http://www.w3.org/2000/svg">
<path d="M71.756 11.272L64.784 14.128C66.968 17.488 69.488 21.772 71.168 25.3L78.14 22.36C76.628 19.252 73.856 14.464 71.756 11.272ZM83.432 9.088L76.46 11.944C78.812 15.052 81.416 19.756 83.18 23.2L90.152 20.26C88.556 17.236 85.616 12.196 83.432 9.088ZM80.408 27.064L72.092 21.772C69.908 22.36 67.22 22.444 65.54 22.444C60.836 22.444 32.948 22.444 26.648 22.444C23.876 22.444 19.172 22.024 16.652 21.688V33.616C18.836 33.448 22.868 33.196 26.648 33.196C32.948 33.196 60.752 33.196 65.792 33.196C64.7 40.42 61.508 49.996 55.88 56.968C49.16 65.452 39.668 72.76 23.036 76.624L32.192 86.704C47.144 81.916 58.316 73.6 65.96 63.52C72.932 54.196 76.628 41.092 78.56 32.86C78.98 31.096 79.652 28.66 80.408 27.064Z" fill="black"/>
</svg>
