<svg width="100" height="100" viewBox="0 0 100 100" fill="none" xmlns="http://www.w3.org/2000/svg">
<path d="M67.472 23.788L60.164 26.812C63.272 31.18 65.456 35.212 67.892 40.504L75.452 37.228C73.52 33.364 69.908 27.316 67.472 23.788ZM78.728 19.168L71.504 22.528C74.612 26.728 76.88 30.508 79.568 35.8L86.96 32.272C85.028 28.492 81.248 22.528 78.728 19.168ZM10.94 58.144L21.02 68.56C22.532 66.376 24.464 63.352 26.396 60.748C29.84 56.128 35.72 47.896 39.08 43.612C41.432 40.588 43.196 40.42 45.968 43.108C48.992 46.216 56.384 54.364 61.34 60.16C66.296 65.956 73.352 74.692 78.98 81.664L88.304 71.668C81.836 64.78 73.184 55.54 67.556 49.492C62.516 44.032 56.132 37.396 50.42 32.02C43.952 25.888 38.996 26.812 33.956 32.776C28.16 39.664 21.608 47.896 17.828 51.676C15.224 54.28 13.376 56.044 10.94 58.144Z" fill="black"/>
</svg>
