<svg width="100" height="100" viewBox="0 0 100 100" fill="none" xmlns="http://www.w3.org/2000/svg">
<path d="M68.648 30.592C68.648 27.652 71.084 25.3 74.024 25.3C76.964 25.3 79.316 27.652 79.316 30.592C79.316 33.532 76.964 35.968 74.024 35.968C71.084 35.968 68.648 33.532 68.648 30.592ZM63.104 30.592C63.104 36.64 67.976 41.512 74.024 41.512C80.072 41.512 84.944 36.64 84.944 30.592C84.944 24.544 80.072 19.672 74.024 19.672C67.976 19.672 63.104 24.544 63.104 30.592ZM10.94 58.144L21.02 68.56C22.532 66.376 24.464 63.352 26.396 60.748C29.84 56.128 35.72 47.896 39.08 43.612C41.432 40.588 43.196 40.42 45.968 43.108C48.992 46.216 56.384 54.364 61.34 60.16C66.296 65.956 73.352 74.692 78.98 81.664L88.304 71.668C81.836 64.78 73.184 55.54 67.556 49.492C62.516 44.032 56.132 37.396 50.42 32.02C43.952 25.888 38.996 26.812 33.956 32.776C28.16 39.664 21.608 47.896 17.828 51.676C15.224 54.28 13.376 56.044 10.94 58.144Z" fill="black"/>
</svg>
