<svg width="100" height="100" viewBox="0 0 100 100" fill="none" xmlns="http://www.w3.org/2000/svg">
<path d="M57.392 14.716H44.96C45.296 16.228 45.632 19.924 45.632 22.024C45.632 27.148 45.632 36.136 45.632 39.076C45.632 43.024 45.632 69.568 45.632 72.76C45.548 74.944 44.708 75.7 42.524 75.7C40.424 75.7 36.812 75.448 33.2 74.776L34.208 85.192C38.492 85.696 43.364 85.864 47.9 85.864C53.864 85.864 56.636 82.84 56.636 77.968C56.636 70.912 56.636 45.88 56.636 39.076C56.636 34.204 56.636 27.064 56.636 22.108C56.636 20.008 57.224 15.892 57.392 14.716ZM16.232 28.156V39.244C18.584 38.992 21.86 38.908 24.38 38.908C29.84 38.908 70.244 38.908 76.292 38.908C78.56 38.908 81.836 38.992 84.44 39.244V28.24C82.256 28.576 78.56 28.744 76.208 28.744C70.244 28.744 29.504 28.744 24.38 28.744C21.692 28.744 18.752 28.492 16.232 28.156ZM37.652 50.92L28.16 46.384C24.716 53.524 17.996 62.764 12.368 68.14L21.44 74.356C26.06 69.316 33.788 58.312 37.652 50.92ZM73.772 46.132L64.616 51.088C68.648 56.296 74.612 66.46 78.224 73.684L88.136 68.224C84.776 62.176 78.056 51.508 73.772 46.132Z" fill="black"/>
</svg>
