<svg width="100" height="100" viewBox="0 0 100 100" fill="none" xmlns="http://www.w3.org/2000/svg">
<path d="M73.1 19.084C73.1 16.564 75.116 14.464 77.636 14.464C80.156 14.464 82.256 16.564 82.256 19.084C82.256 21.604 80.156 23.62 77.636 23.62C75.116 23.62 73.1 21.604 73.1 19.084ZM67.976 19.084C67.976 24.46 72.26 28.744 77.636 28.744C83.012 28.744 87.38 24.46 87.38 19.084C87.38 13.708 83.012 9.33999 77.636 9.33999C72.26 9.33999 67.976 13.708 67.976 19.084ZM56.384 15.724H43.952C44.204 17.236 44.624 20.848 44.624 23.032C44.624 28.156 44.624 37.144 44.624 40.084C44.624 44.032 44.624 70.576 44.54 73.768C44.456 75.952 43.7 76.708 41.516 76.708C39.416 76.708 35.72 76.456 32.192 75.784L33.2 86.2C37.4 86.704 42.356 86.872 46.808 86.872C52.772 86.872 55.628 83.848 55.628 78.976C55.628 71.92 55.628 46.888 55.628 40.084C55.628 35.212 55.628 28.072 55.628 23.116C55.628 21.016 56.132 16.9 56.384 15.724ZM15.224 29.164V40.252C17.576 40 20.768 39.916 23.288 39.916C28.832 39.916 69.236 39.916 75.284 39.916C77.552 39.916 80.828 40 83.432 40.252V29.248C81.164 29.5 77.552 29.752 75.2 29.752C69.152 29.752 28.412 29.752 23.288 29.752C20.684 29.752 17.744 29.5 15.224 29.164ZM36.644 51.928L27.068 47.392C23.624 54.532 16.904 63.772 11.276 69.148L20.432 75.28C24.968 70.324 32.78 59.32 36.644 51.928ZM72.68 47.14L63.524 52.096C67.64 57.304 73.604 67.468 77.216 74.692L87.044 69.232C83.684 63.1 76.964 52.516 72.68 47.14Z" fill="black"/>
</svg>
