<svg width="200" height="100" viewBox="0 0 200 100" fill="none" xmlns="http://www.w3.org/2000/svg">
<path d="M39.856 21.228L35.992 31.224C47.836 32.736 71.608 38.028 81.436 41.64L85.72 31.224C75.136 27.528 50.944 22.572 39.856 21.228ZM36.076 43.824L32.128 53.988C44.644 56.004 66.232 60.876 75.808 64.572L79.924 54.072C69.424 50.46 48.088 45.84 36.076 43.824ZM31.708 67.932L27.508 78.432C40.948 80.532 67.576 86.328 78.916 90.948L83.536 80.448C71.944 76.164 46.156 70.116 31.708 67.932ZM163.672 47.016L155.608 43.068C154.516 43.656 151.072 43.992 149.392 43.992C145.36 43.992 132.088 43.992 127.804 43.992C125.62 43.992 121.756 43.74 119.488 43.404V54.492C121.924 54.324 125.284 54.156 127.888 54.156C130.324 54.156 146.62 54.156 150.652 54.156C150.232 59.784 147.712 75.996 146.62 81.54H158.212C159.22 75.492 162.076 56.424 162.916 50.544C163 49.62 163.336 48.108 163.672 47.016ZM111.844 77.424V88.428C114.952 88.26 117.136 88.176 120.076 88.176C124.36 88.176 159.976 88.176 164.344 88.176C166.528 88.176 170.644 88.26 172.408 88.344V77.508C170.224 77.76 166.276 77.928 164.176 77.928C160.06 77.928 125.116 77.928 120.076 77.928C117.22 77.928 114.028 77.676 111.844 77.424Z" fill="black"/>
</svg>
