<svg width="100" height="100" viewBox="0 0 100 100" fill="none" xmlns="http://www.w3.org/2000/svg">
<path d="M54.536 18.664L41.18 15.976C40.844 18.748 40.424 21.436 39.248 25.636C36.476 35.38 27.74 62.932 23.204 73.684L35.552 73.264C39.164 64.528 47.9 37.48 51.008 28.072C52.268 24.292 53.444 21.184 54.536 18.664ZM69.572 45.796L59.156 50.164C65.12 58.228 72.932 75.616 76.712 85.78L88.052 80.74C84.188 71.416 75.62 54.868 69.572 45.796ZM22.364 69.904C19.676 69.988 15.98 70.072 13.124 69.988L15.14 82.336C17.744 82 20.936 81.58 23.036 81.328C34.376 80.152 63.272 77.128 75.704 75.532L73.268 64.78C61.508 66.376 34.04 69.484 22.364 69.904Z" fill="black"/>
</svg>
