<svg width="100" height="100" viewBox="0 0 100 100" fill="none" xmlns="http://www.w3.org/2000/svg">
<path d="M78.812 20.26L66.296 15.976C65.876 18.076 65.036 21.52 64.28 23.704C61.34 32.104 57.56 40.756 50.924 49.492C42.02 61.084 31.52 70.408 16.232 77.716L25.556 86.284C41.852 77.296 52.184 66.46 59.996 56.38C66.968 47.308 72.092 36.22 75.284 27.904C76.04 25.888 77.636 22.192 78.812 20.26ZM32.612 28.408L25.388 36.976C35.972 43.444 45.8 51.004 51.848 56.044C60.752 63.436 68.144 70.324 75.452 78.892L84.104 69.232C77.3 62.008 68.48 54.112 59.492 47.14C52.436 41.596 40.928 33.616 32.612 28.408Z" fill="black"/>
</svg>
