<svg width="100" height="100" viewBox="0 0 100 100" fill="none" xmlns="http://www.w3.org/2000/svg">
<path d="M75.704 27.484L66.884 23.116C65.456 23.788 61.256 24.208 59.072 24.208C54.032 24.208 37.904 24.208 32.612 24.208C29.756 24.208 25.892 23.956 23.12 23.62V35.464C26.144 35.212 29.252 35.044 32.696 35.044C37.988 35.044 55.124 35.044 61.676 35.044C61.424 41.092 57.812 62.68 56.468 70.24H68.816C69.992 62.596 73.688 39.832 74.78 31.348C74.864 30.676 75.284 28.66 75.704 27.484ZM13.964 66.796V79.06C16.736 78.724 19.676 78.556 22.28 78.556H78.224C80.24 78.556 83.768 78.724 86.12 79.06V66.796C83.936 67.132 81.248 67.468 78.224 67.468H22.28C19.676 67.468 16.652 67.3 13.964 66.796Z" fill="black"/>
</svg>
