<svg width="100" height="100" viewBox="0 0 100 100" fill="none" xmlns="http://www.w3.org/2000/svg">
<path d="M21.104 21.016V32.02C23.792 31.852 30.008 31.684 33.788 31.684C42.272 31.684 63.776 31.684 67.808 31.684C67.808 35.212 67.808 67.216 67.808 77.884C67.808 79.984 67.808 83.512 67.724 85.192H79.4C79.4 83.512 79.316 80.656 79.316 78.892C79.316 70.66 79.316 32.272 79.316 28.072C79.316 25.72 79.316 22.696 79.4 21.268C77.72 21.436 74.528 21.52 72.092 21.52C63.44 21.52 42.272 21.52 33.788 21.52C30.008 21.52 23.876 21.268 21.104 21.016ZM23.96 45.04V55.708C26.312 55.708 31.1 55.624 35.048 55.624C40.34 55.624 70.328 55.624 73.184 55.624V45.46C70.328 45.46 40.34 45.46 35.048 45.46C31.1 45.46 26.732 45.292 23.96 45.04ZM20.012 70.156V81.328C21.776 81.16 25.64 80.992 28.664 80.992C35.132 80.992 67.388 80.992 73.268 80.992V70.492C68.732 70.492 35.132 70.492 28.664 70.492C24.884 70.492 21.776 70.324 20.012 70.156Z" fill="black"/>
</svg>
