<svg width="100" height="100" viewBox="0 0 100 100" fill="none" xmlns="http://www.w3.org/2000/svg">
<path d="M75.368 16.816H62.684C63.02 19.168 63.272 21.856 63.272 25.3C63.272 28.912 63.272 36.976 63.272 41.176C63.272 54.28 62.096 60.58 56.384 66.88C51.26 72.34 44.54 75.532 36.14 77.464L44.96 86.788C51.092 84.772 59.744 80.74 65.288 74.608C71.588 67.72 75.116 59.992 75.116 41.848C75.116 37.732 75.116 29.584 75.116 25.3C75.116 21.856 75.2 19.168 75.368 16.816ZM36.476 17.572H24.296C24.548 19.504 24.632 22.444 24.632 23.956C24.632 27.652 24.632 47.476 24.632 52.264C24.632 54.868 24.38 58.144 24.212 59.656H36.476C36.308 57.724 36.14 54.448 36.14 52.348C36.14 47.644 36.14 27.652 36.14 23.956C36.14 21.352 36.308 19.504 36.476 17.572Z" fill="black"/>
</svg>
