<svg width="200" height="100" viewBox="0 0 200 100" fill="none" xmlns="http://www.w3.org/2000/svg">
<path d="M83.368 21.816H70.684C71.02 24.168 71.272 26.856 71.272 30.3C71.272 33.912 71.272 41.976 71.272 46.176C71.272 59.28 70.096 65.58 64.384 71.88C59.26 77.34 52.54 80.532 44.14 82.464L52.96 91.788C59.092 89.772 67.744 85.74 73.288 79.608C79.588 72.72 83.116 64.992 83.116 46.848C83.116 42.732 83.116 34.584 83.116 30.3C83.116 26.856 83.2 24.168 83.368 21.816ZM44.476 22.572H32.296C32.548 24.504 32.632 27.444 32.632 28.956C32.632 32.652 32.632 52.476 32.632 57.264C32.632 59.868 32.38 63.144 32.212 64.656H44.476C44.308 62.724 44.14 59.448 44.14 57.348C44.14 52.644 44.14 32.652 44.14 28.956C44.14 26.352 44.308 24.504 44.476 22.572ZM163.672 47.016L155.608 43.068C154.516 43.656 151.072 43.992 149.392 43.992C145.36 43.992 132.088 43.992 127.804 43.992C125.62 43.992 121.756 43.74 119.488 43.404V54.492C121.924 54.324 125.284 54.156 127.888 54.156C130.324 54.156 146.62 54.156 150.652 54.156C150.232 59.784 147.712 75.996 146.62 81.54H158.212C159.22 75.492 162.076 56.424 162.916 50.544C163 49.62 163.336 48.108 163.672 47.016ZM111.844 77.424V88.428C114.952 88.26 117.136 88.176 120.076 88.176C124.36 88.176 159.976 88.176 164.344 88.176C166.528 88.176 170.644 88.26 172.408 88.344V77.508C170.224 77.76 166.276 77.928 164.176 77.928C160.06 77.928 125.116 77.928 120.076 77.928C117.22 77.928 114.028 77.676 111.844 77.424Z" fill="black"/>
</svg>
