<svg width="100" height="100" viewBox="0 0 100 100" fill="none" xmlns="http://www.w3.org/2000/svg">
<path d="M18.584 22.444C18.668 24.88 18.668 28.24 18.668 30.676C18.668 35.548 18.668 66.628 18.668 71.668C18.668 75.7 18.5 83.092 18.5 83.512H30.008C30.008 83.092 29.924 76.036 29.924 72.004C29.924 67.048 29.924 33.364 29.924 33.364H70.58C70.58 33.364 70.58 67.132 70.58 72.004C70.58 76.624 70.328 83.176 70.328 83.512H82.004C81.92 83.176 81.836 75.112 81.836 71.836C81.836 66.712 81.836 35.8 81.836 30.676C81.836 28.072 81.836 25.048 82.004 22.528C78.896 22.612 75.788 22.612 73.688 22.612C67.64 22.612 33.536 22.612 27.404 22.612C25.136 22.612 21.944 22.528 18.584 22.444ZM74.696 68.224H24.212V78.892H74.696V68.224Z" fill="black"/>
</svg>
