<svg width="100" height="100" viewBox="0 0 100 100" fill="none" xmlns="http://www.w3.org/2000/svg">
<path d="M83.768 25.72L75.62 20.596C73.352 21.016 70.496 21.184 67.64 21.184C61.676 21.184 30.848 21.184 27.488 21.184C23.624 21.184 19.844 21.1 17.24 20.932C17.492 23.116 17.576 25.636 17.576 27.904C17.576 31.852 17.576 42.268 17.576 45.628C17.576 47.896 17.408 49.996 17.156 52.516H29.504C29.252 49.912 29.252 46.888 29.252 45.628C29.252 42.268 29.252 34.204 29.252 31.684C35.216 31.684 64.196 31.684 69.488 31.684C68.648 40.672 66.128 50.08 61.844 56.884C55.292 67.384 42.272 74.272 31.016 77.128L40.34 86.62C53.864 81.916 65.288 73.516 72.26 62.596C78.812 52.432 80.744 40.168 82.256 31.432C82.424 30.256 83.264 26.98 83.768 25.72Z" fill="black"/>
</svg>
